<?xml version="1.0" encoding="utf-8"?>
<!-- Generator: Adobe Illustrator 24.0.1, SVG Export Plug-In . SVG Version: 6.00 Build 0)  -->
<svg version="1.1" id="Layer_1" xmlns="http://www.w3.org/2000/svg" xmlns:xlink="http://www.w3.org/1999/xlink" x="0px" y="0px"
	 viewBox="0 0 1605.16 990.1" style="enable-background:new 0 0 1605.16 990.1;" xml:space="preserve">
<style type="text/css">
	.st0{stroke:#010101;stroke-width:0.5;stroke-miterlimit:10;}
	.st1{fill:#FFFFFF;}
	.st2{stroke:#050606;stroke-width:0.5;stroke-miterlimit:10;}
	.st3{stroke:#080909;stroke-width:0.5;stroke-miterlimit:10;}
</style>
<g>
	<path d="M486.04,857.73c0.66-0.12,1.33-0.24,1.99-0.37c2.2-0.41,4.4-0.82,6.61-1.24c2.4-0.46,4.79-0.91,7.19-1.37
		c1.94-0.37,3.87-0.76,5.81-1.14c1.59-0.31,3.18-0.63,4.78-0.94c1.13-0.22,2.26-0.17,3.38,0.03c2.1,0.37,4.2,0.77,6.3,1.17
		c2.01,0.38,4.01,0.77,6.02,1.16c3,0.58,6.01,1.16,9.01,1.74c1.36,0.26,2.73,0.52,4.09,0.79c0.25,0.05,0.5,0.11,0.74,0.21
		c0.17,0.07,0.32,0.21,0.55,0.36c-0.17,0.06-0.26,0.1-0.36,0.12c-3.97,1.03-7.93,2.05-11.9,3.08c-4.23,1.09-8.45,2.19-12.68,3.27
		c-0.86,0.22-1.73,0.39-2.61,0.51c-1.05,0.14-2.1,0.01-3.13-0.25c-1.89-0.47-3.78-0.95-5.67-1.44c-3.11-0.8-6.21-1.62-9.32-2.43
		c-2.75-0.71-5.49-1.42-8.24-2.14c-0.5-0.13-0.99-0.25-1.49-0.4c-0.23-0.07-0.46-0.16-0.68-0.28c-0.16-0.09-0.3-0.24-0.45-0.36
		C486.01,857.78,486.02,857.76,486.04,857.73"/>
	<path d="M499.49,862.64c0.53,0.15,1.03,0.28,1.52,0.42c3.6,1,7.2,2,10.8,3c0.76,0.21,1.51,0.39,2.3,0.43
		c0.6,0.03,1.18-0.04,1.76-0.21c3.67-1.12,7.38-2.12,11.12-3c0.5-0.12,1-0.23,1.5-0.35c0.08-0.01,0.16-0.02,0.25-0.03
		c0,0.17,0.01,0.32,0,0.47c-0.07,1.31-0.12,2.61-0.2,3.92c-0.04,0.62-0.1,1.23-0.21,1.84c-0.15,0.84-0.56,1.57-1.24,2.09
		c-0.58,0.45-1.19,0.87-1.82,1.24c-2.54,1.5-5.29,2.39-8.21,2.77c-1.84,0.24-3.68,0.26-5.52,0.05c-3.13-0.36-6.06-1.31-8.76-2.94
		c-0.4-0.24-0.78-0.51-1.16-0.79c-0.95-0.73-1.48-1.69-1.61-2.88c-0.07-0.67-0.13-1.35-0.2-2.02c-0.11-1.21-0.22-2.42-0.33-3.63
		C499.48,862.91,499.49,862.8,499.49,862.64"/>
	<path d="M538.11,879.4c-0.54,0.02-1.03,0.05-1.52,0.06c-0.69,0.01-1.38,0.02-2.07,0.01c-0.75-0.01-0.91-0.18-0.82-0.93
		c0.11-0.95,0.38-1.87,0.64-2.8c0.22-0.76,0.42-1.53,0.49-2.32c0.06-0.68,0.01-1.34-0.26-1.96c-0.17-0.4-0.14-0.77,0.05-1.14
		c0.12-0.24,0.25-0.47,0.39-0.7c0.26-0.42,0.36-0.87,0.35-1.37c-0.03-2.04-0.03-4.09-0.04-6.13c0-0.38,0.02-0.75,0.16-1.1
		c0.13-0.32,0.3-0.58,0.72-0.63c0.02,0.14,0.05,0.27,0.06,0.4c0.16,2.2,0.17,4.41,0.07,6.62c-0.02,0.51,0.02,1.03,0.09,1.53
		c0.06,0.44,0.25,0.83,0.6,1.12c0.21,0.18,0.28,0.4,0.26,0.65c-0.02,0.2-0.07,0.39-0.13,0.58c-0.07,0.21-0.16,0.41-0.26,0.61
		c-0.32,0.61-0.34,1.25-0.18,1.9c0.29,1.14,0.57,2.29,0.86,3.43C537.75,877.94,537.92,878.64,538.11,879.4"/>
	<path d="M495.46,911.07l-2.72,12.81c-0.16-0.03-0.3-0.05-0.44-0.06c-0.13-0.01-0.28-0.02-0.43-0.02c-0.17,0-0.33,0.01-0.5,0.03
		c-0.17,0.02-0.3,0.04-0.39,0.05l2.72-12.81c-1.04,0-1.78,0.01-2.22,0.04c-0.44,0.03-1.19,0.09-2.24,0.2
		c0.03-0.09,0.07-0.18,0.11-0.28c0.04-0.1,0.07-0.2,0.1-0.32c0.02-0.1,0.03-0.2,0.04-0.31c0-0.11,0.01-0.21,0.01-0.29h10.34
		l-0.17,0.6l-0.09,0.6c-0.5-0.07-1.1-0.12-1.83-0.17C497.02,911.09,496.26,911.07,495.46,911.07"/>
	<path d="M507.57,917.47l-0.99,4.65l-0.1,0.28c-0.06,0.27-0.07,0.46-0.03,0.58c0.04,0.12,0.17,0.18,0.38,0.18l0.67-0.13l-0.1,0.44
		c-0.19,0.1-0.4,0.17-0.64,0.21l-0.74,0.08c-0.38,0-0.67-0.09-0.87-0.28c-0.2-0.19-0.27-0.5-0.23-0.96l-0.2,0.21
		c-1.04,0.85-2.13,1.28-3.25,1.28c-0.74,0-1.33-0.23-1.75-0.69c-0.42-0.46-0.56-1.06-0.4-1.79c0.17-0.79,0.53-1.4,1.08-1.84
		c0.55-0.43,1.64-0.79,3.26-1.05c0.7-0.11,1.16-0.2,1.39-0.26c0.56-0.18,0.9-0.53,1.01-1.06c0.16-0.75,0.09-1.34-0.23-1.75
		c-0.31-0.41-0.86-0.62-1.63-0.62c-0.65,0-1.25,0.17-1.8,0.52c-0.42,0.27-0.71,0.56-0.86,0.88h-0.24l0.24-1.11
		c0.6-0.37,1.18-0.64,1.74-0.84c0.57-0.19,1.15-0.29,1.75-0.29C507.2,914.11,508.04,915.23,507.57,917.47 M505.05,921.76l0.62-2.92
		l-0.74,0.12c-1.24,0.24-2.01,0.43-2.33,0.57c-0.87,0.36-1.4,0.93-1.57,1.72c-0.13,0.63-0.06,1.1,0.21,1.41
		c0.27,0.31,0.72,0.47,1.36,0.47c0.28,0,0.59-0.07,0.92-0.22c0.33-0.15,0.61-0.33,0.84-0.53c0.13-0.08,0.27-0.19,0.43-0.33
		C504.95,921.9,505.04,921.81,505.05,921.76"/>
	<path d="M512.97,923.72l-2.04-9.5c0.16,0.03,0.31,0.05,0.46,0.06c0.15,0.01,0.31,0.02,0.49,0.02c0.15,0,0.32-0.01,0.51-0.03
		c0.19-0.02,0.34-0.04,0.47-0.05c0.13,1.26,0.3,2.46,0.51,3.62c0.21,1.16,0.5,2.43,0.87,3.84c0.61-0.88,1.38-2.07,2.29-3.56
		c0.91-1.49,1.68-2.79,2.3-3.9c0.1,0.03,0.2,0.05,0.31,0.06c0.11,0.01,0.23,0.02,0.37,0.02c0.11,0,0.32-0.03,0.64-0.08
		c-2.02,3.06-3.14,4.75-3.35,5.07c-1.57,2.35-2.64,3.97-3.2,4.83c-1.21,1.86-2.23,3.47-3.06,4.84c-0.12-0.03-0.22-0.04-0.32-0.06
		c-0.1-0.01-0.21-0.02-0.34-0.02c-0.19,0-0.33,0.01-0.43,0.02c-0.13,0.04-0.22,0.06-0.27,0.06L512.97,923.72z"/>
	<path d="M541.51,910.1l-2.92,13.74h-0.61c-0.14-0.36-0.4-0.77-0.77-1.24l-6.62-9.58h-0.2l-2.3,10.82
		c-0.16-0.03-0.27-0.05-0.33-0.06c-0.06-0.01-0.13-0.02-0.22-0.02c-0.09,0-0.19,0.01-0.31,0.03c-0.11,0.02-0.2,0.04-0.27,0.05
		l2.92-13.74h0.8l7.3,10.34h0.2l2.2-10.34c0.16,0.03,0.27,0.05,0.33,0.06c0.06,0.01,0.13,0.02,0.21,0.02c0.1,0,0.2-0.01,0.31-0.03
		C541.35,910.13,541.44,910.11,541.51,910.1"/>
	<path d="M552.52,914.19l-0.17,0.76l-2.16-0.21c0.37,0.34,0.63,0.73,0.79,1.17c0.15,0.44,0.17,0.93,0.05,1.48
		c-0.22,1.04-0.81,1.83-1.77,2.38c-0.87,0.5-1.93,0.74-3.19,0.74h-0.36c-0.28,0-0.52,0.06-0.7,0.17c-0.3,0.16-0.49,0.42-0.58,0.8
		c-0.08,0.4,0.01,0.66,0.27,0.78c0.27,0.12,0.75,0.18,1.45,0.18h1.28c2.32,0,3.3,0.89,2.92,2.68c-0.25,1.16-0.92,2.11-2.02,2.84
		c-1.1,0.73-2.4,1.09-3.9,1.09c-0.95,0-1.72-0.23-2.3-0.68c-0.69-0.54-0.94-1.28-0.73-2.24c0.15-0.7,0.45-1.25,0.91-1.65
		c0.45-0.4,1.02-0.67,1.7-0.8l0.04-0.17c-0.33-0.08-0.56-0.21-0.71-0.4c-0.21-0.28-0.25-0.69-0.14-1.24
		c0.09-0.44,0.29-0.79,0.61-1.08c0.23-0.2,0.61-0.42,1.11-0.64c-0.57-0.29-0.96-0.65-1.17-1.06c-0.24-0.48-0.29-1.08-0.14-1.78
		c0.21-0.99,0.66-1.76,1.35-2.31c0.76-0.6,1.79-0.9,3.09-0.9h0.27l2.75,0.12l0.55,0.04c0.15,0,0.31-0.01,0.49-0.03
		C552.27,914.22,552.41,914.2,552.52,914.19 M546.25,923.65c-2.05,0-3.25,0.8-3.59,2.4c-0.17,0.79-0.04,1.39,0.4,1.79
		c0.44,0.41,1.1,0.61,1.98,0.61c0.85,0,1.6-0.19,2.24-0.56c0.79-0.46,1.28-1.13,1.47-2c0.2-0.93,0.03-1.57-0.5-1.9
		C547.88,923.76,547.21,923.65,546.25,923.65 M545.12,917.27l-0.09,0.21c-0.15,0.69-0.07,1.28,0.23,1.78
		c0.3,0.5,0.78,0.74,1.45,0.74c0.71,0,1.31-0.25,1.8-0.75c0.5-0.5,0.83-1.12,0.98-1.85c0.18-0.84,0.16-1.49-0.07-1.95
		c-0.25-0.52-0.75-0.78-1.51-0.78c-0.71,0-1.31,0.24-1.81,0.71C545.61,915.86,545.29,916.49,545.12,917.27"/>
	<path d="M562.56,914.23l-2.05,9.62l-0.78-0.08c-0.14,0-0.26,0-0.34,0.01c-0.08,0.01-0.24,0.03-0.47,0.07l0.37-1.76
		c-0.95,1.28-2.15,1.93-3.62,1.93c-1.11,0-1.87-0.31-2.27-0.93c-0.41-0.62-0.47-1.61-0.18-2.96l1.25-5.89
		c0.2,0.03,0.33,0.04,0.41,0.06c0.08,0.01,0.2,0.02,0.38,0.02l0.82-0.08l-1.15,5.41c-0.23,1.12-0.23,1.96,0,2.52
		c0.24,0.56,0.8,0.84,1.69,0.84c0.92,0,1.66-0.36,2.23-1.08c0.44-0.55,0.76-1.27,0.95-2.17l1.17-5.53c0.19,0.03,0.32,0.04,0.4,0.06
		c0.08,0.01,0.2,0.02,0.37,0.02L562.56,914.23z"/>
	<path d="M566.68,923.72l-2.04-9.5c0.16,0.03,0.31,0.05,0.46,0.06c0.15,0.01,0.31,0.02,0.49,0.02c0.15,0,0.32-0.01,0.51-0.03
		c0.19-0.02,0.34-0.04,0.47-0.05c0.13,1.26,0.3,2.46,0.51,3.62c0.21,1.16,0.5,2.43,0.87,3.84c0.62-0.88,1.38-2.07,2.29-3.56
		c0.91-1.49,1.68-2.79,2.3-3.9c0.1,0.03,0.2,0.05,0.31,0.06c0.11,0.01,0.23,0.02,0.37,0.02c0.11,0,0.32-0.03,0.65-0.08
		c-2.02,3.06-3.14,4.75-3.35,5.07c-1.57,2.35-2.64,3.97-3.2,4.83c-1.21,1.86-2.23,3.47-3.06,4.84c-0.12-0.03-0.22-0.04-0.32-0.06
		c-0.1-0.01-0.21-0.02-0.34-0.02c-0.19,0-0.33,0.01-0.43,0.02c-0.13,0.04-0.22,0.06-0.27,0.06L566.68,923.72z"/>
	<path d="M581.87,921.76l-0.25,1.05c-0.61,0.37-1.22,0.67-1.85,0.88c-0.63,0.22-1.25,0.32-1.87,0.32c-1.42,0-2.46-0.44-3.14-1.33
		c-0.68-0.88-0.85-2.1-0.53-3.64c0.31-1.45,0.95-2.62,1.92-3.51c1.03-0.95,2.28-1.42,3.75-1.42c1.12,0,1.98,0.37,2.56,1.1
		c0.66,0.81,0.83,1.94,0.53,3.39l-0.1,0.44c-0.47,0-1.24-0.01-2.33-0.04c-1.09-0.03-1.65-0.04-1.7-0.04h-2.85l-0.12,0.4
		c-0.23,1.07-0.11,1.96,0.36,2.69c0.47,0.72,1.26,1.08,2.37,1.08c0.6,0,1.23-0.16,1.88-0.48
		C580.92,922.44,581.38,922.15,581.87,921.76 M576.17,918.24h5.33c0.21-1.02,0.22-1.82,0.01-2.41c-0.26-0.72-0.84-1.09-1.75-1.09
		c-0.88,0-1.67,0.37-2.36,1.11C576.78,916.51,576.37,917.31,576.17,918.24"/>
	<path d="M584.55,923.84l2.04-9.62c0.2,0.03,0.33,0.04,0.41,0.06c0.08,0.01,0.2,0.02,0.38,0.02l0.82-0.08l-0.39,1.85
		c0.48-0.63,1.03-1.12,1.64-1.46c0.62-0.34,1.28-0.51,1.98-0.51c1.15,0,1.91,0.32,2.28,0.96c0.37,0.64,0.41,1.63,0.13,2.96
		l-1.23,5.81l-0.78-0.08c-0.14,0-0.26,0-0.34,0.01c-0.08,0.01-0.24,0.03-0.48,0.07l1.14-5.37c0.23-1.07,0.26-1.85,0.09-2.34
		c-0.2-0.66-0.74-0.99-1.63-0.99c-0.99,0-1.76,0.36-2.32,1.09c-0.48,0.61-0.85,1.59-1.13,2.92l-1,4.69l-0.78-0.08
		c-0.15,0-0.27,0-0.35,0.01C584.95,923.78,584.79,923.8,584.55,923.84"/>
	<path d="M606.26,910.1l-1.64,7.7c-0.39,1.85-0.37,3.18,0.08,3.98c0.5,0.89,1.58,1.34,3.25,1.34c1.51,0,2.73-0.51,3.67-1.54
		c0.85-0.93,1.46-2.26,1.83-3.99l1.6-7.49c0.2,0.05,0.38,0.08,0.55,0.08l0.58-0.08l-1.7,7.97c-0.41,1.94-1.25,3.42-2.52,4.46
		c-1.27,1.04-2.8,1.55-4.6,1.55c-0.99,0-1.81-0.12-2.46-0.35c-0.65-0.24-1.19-0.6-1.63-1.11c-0.44-0.5-0.68-1.19-0.72-2.07
		c-0.03-0.67,0.05-1.48,0.25-2.45l1.71-8.01c0.24,0.03,0.39,0.05,0.47,0.06c0.08,0.01,0.21,0.02,0.39,0.02
		c0.23,0,0.42-0.01,0.56-0.04C606.07,910.11,606.18,910.1,606.26,910.1"/>
	<path d="M616.32,923.84l2.04-9.62c0.2,0.03,0.33,0.04,0.41,0.06c0.08,0.01,0.2,0.02,0.38,0.02l0.82-0.08l-0.39,1.85
		c0.48-0.63,1.03-1.12,1.65-1.46c0.62-0.34,1.28-0.51,1.97-0.51c1.15,0,1.91,0.32,2.28,0.96c0.37,0.64,0.41,1.63,0.13,2.96
		l-1.23,5.81l-0.78-0.08c-0.14,0-0.26,0-0.34,0.01c-0.08,0.01-0.24,0.03-0.48,0.07l1.14-5.37c0.23-1.07,0.26-1.85,0.09-2.34
		c-0.2-0.66-0.74-0.99-1.63-0.99c-0.99,0-1.76,0.36-2.32,1.09c-0.48,0.61-0.85,1.59-1.13,2.92l-1,4.69l-0.78-0.08
		c-0.15,0-0.27,0-0.35,0.01C616.71,923.78,616.55,923.8,616.32,923.84"/>
	<path d="M632.15,914.23l-2.04,9.62l-0.78-0.08c-0.14,0-0.26,0-0.34,0.01c-0.08,0.01-0.24,0.03-0.47,0.07l2.05-9.62
		c0.19,0.03,0.32,0.04,0.4,0.06s0.2,0.02,0.37,0.02L632.15,914.23z M633.08,910.82c-0.06,0.27-0.21,0.5-0.45,0.7
		c-0.25,0.2-0.5,0.3-0.77,0.3c-0.28,0-0.5-0.1-0.67-0.29c-0.16-0.19-0.21-0.43-0.16-0.71c0.06-0.28,0.21-0.53,0.46-0.73
		c0.25-0.21,0.52-0.31,0.8-0.31c0.27,0,0.48,0.1,0.64,0.3C633.09,910.28,633.14,910.53,633.08,910.82"/>
	<path d="M640.55,918.56l2.52-4.33c0.09,0.03,0.17,0.04,0.26,0.06c0.09,0.01,0.21,0.02,0.36,0.02c0.1,0,0.32-0.03,0.66-0.08
		c-0.44,0.66-1.08,1.61-1.91,2.85c-0.73,1.11-1.48,2.27-2.25,3.48c-0.91,1.46-1.56,2.56-1.97,3.29l-0.58-0.08
		c-0.17,0-0.38,0.03-0.67,0.08c-0.16-1.13-0.42-2.64-0.78-4.52c-0.36-1.88-0.73-3.58-1.1-5.09c0.36,0.05,0.66,0.08,0.9,0.08
		c0.12,0,0.28-0.01,0.45-0.03c0.18-0.02,0.33-0.04,0.45-0.05c0.08,0.94,0.24,2.11,0.48,3.52c0.25,1.41,0.53,2.82,0.84,4.22
		c0.02-0.03,0.1-0.12,0.26-0.28c0.16-0.16,0.24-0.26,0.26-0.28L640.55,918.56z"/>
	<path d="M652.46,921.76l-0.25,1.05c-0.61,0.37-1.22,0.67-1.85,0.88c-0.63,0.22-1.25,0.32-1.87,0.32c-1.42,0-2.46-0.44-3.14-1.33
		c-0.68-0.88-0.85-2.1-0.53-3.64c0.31-1.45,0.95-2.62,1.92-3.51c1.03-0.95,2.28-1.42,3.75-1.42c1.12,0,1.98,0.37,2.56,1.1
		c0.66,0.81,0.83,1.94,0.53,3.39l-0.1,0.44c-0.47,0-1.25-0.01-2.33-0.04c-1.08-0.03-1.65-0.04-1.7-0.04h-2.85l-0.12,0.4
		c-0.23,1.07-0.11,1.96,0.36,2.69c0.47,0.72,1.26,1.08,2.37,1.08c0.6,0,1.23-0.16,1.88-0.48
		C651.51,922.44,651.96,922.15,652.46,921.76 M646.75,918.24h5.33c0.21-1.02,0.22-1.82,0.01-2.41c-0.26-0.72-0.84-1.09-1.75-1.09
		c-0.88,0-1.67,0.37-2.36,1.11C647.36,916.51,646.95,917.31,646.75,918.24"/>
	<path d="M655.18,923.84l2.04-9.62c0.2,0.03,0.33,0.04,0.41,0.06s0.2,0.02,0.38,0.02l0.82-0.08l-0.43,2l0.14-0.24
		c0.49-0.56,0.96-1,1.42-1.32c0.54-0.37,1.04-0.56,1.5-0.56c0.23,0,0.44,0.04,0.63,0.12l-0.65,1.68c-0.29-0.11-0.59-0.21-0.89-0.32
		c-0.54,0-1,0.16-1.38,0.49c-0.39,0.37-0.67,0.73-0.83,1.08c-0.16,0.34-0.31,0.84-0.45,1.49l-1.11,5.2l-0.78-0.08
		c-0.15,0-0.27,0-0.35,0.01C655.57,923.78,655.41,923.8,655.18,923.84"/>
	<path d="M662.53,921.88h0.16c0.18,0.42,0.45,0.77,0.79,1.06c0.34,0.29,0.74,0.43,1.18,0.43c0.54,0,1.03-0.17,1.49-0.51
		c0.46-0.34,0.75-0.78,0.87-1.33c0.17-0.82-0.48-1.45-1.96-1.91c-1.49-0.46-2.09-1.3-1.83-2.54c0.2-0.93,0.66-1.66,1.39-2.18
		c0.73-0.52,1.57-0.78,2.52-0.78c0.47,0,0.92,0.06,1.34,0.18c0.31,0.08,0.58,0.2,0.8,0.34c-0.31,0.48-0.57,0.96-0.79,1.45h-0.16
		c-0.08-0.37-0.25-0.68-0.5-0.94c-0.26-0.26-0.57-0.39-0.94-0.39c-0.54,0-1,0.14-1.39,0.42c-0.39,0.28-0.64,0.69-0.75,1.22
		c-0.17,0.8,0.48,1.46,1.94,1.97s2.08,1.32,1.84,2.45c-0.22,1-0.78,1.8-1.69,2.41c-0.82,0.54-1.71,0.8-2.68,0.8
		c-0.93,0-1.73-0.23-2.38-0.68c0.17-0.32,0.3-0.56,0.4-0.72C662.36,922.28,662.47,922.04,662.53,921.88"/>
	<path d="M674.81,914.23l-2.04,9.62l-0.78-0.08c-0.14,0-0.26,0-0.34,0.01c-0.08,0.01-0.24,0.03-0.47,0.07l2.05-9.62
		c0.19,0.03,0.32,0.04,0.4,0.06s0.2,0.02,0.37,0.02L674.81,914.23z M675.74,910.82c-0.06,0.27-0.21,0.5-0.45,0.7
		c-0.25,0.2-0.5,0.3-0.77,0.3c-0.28,0-0.5-0.1-0.67-0.29c-0.16-0.19-0.21-0.43-0.16-0.71c0.06-0.28,0.21-0.53,0.46-0.73
		c0.25-0.21,0.51-0.31,0.8-0.31c0.27,0,0.48,0.1,0.63,0.3C675.75,910.28,675.8,910.53,675.74,910.82"/>
	<path d="M679.23,912.26l1.74-0.63l-0.56,2.6h2.12l-0.13,0.44l-0.03,0.32h-2.12l-1.08,5.05l-0.18,0.68
		c-0.21,0.99-0.22,1.67-0.02,2.06c0.17,0.33,0.5,0.5,0.99,0.5c0.18,0,0.35-0.02,0.53-0.06c0.18-0.04,0.32-0.08,0.44-0.11l-0.11,0.49
		c-0.29,0.1-0.59,0.2-0.92,0.28c-0.33,0.08-0.61,0.12-0.84,0.12c-0.79,0-1.33-0.2-1.61-0.59c-0.33-0.45-0.38-1.2-0.16-2.26
		l0.11-0.32l1.25-5.85h-1.24c0.04-0.08,0.08-0.2,0.11-0.36c0.04-0.19,0.06-0.32,0.05-0.4h1.24L679.23,912.26z"/>
	<path d="M686.18,923.72l-2.04-9.5c0.16,0.03,0.31,0.05,0.46,0.06c0.14,0.01,0.31,0.02,0.49,0.02c0.15,0,0.32-0.01,0.51-0.03
		c0.19-0.02,0.34-0.04,0.47-0.05c0.13,1.26,0.3,2.46,0.51,3.62c0.21,1.16,0.5,2.43,0.87,3.84c0.61-0.88,1.38-2.07,2.29-3.56
		c0.91-1.49,1.68-2.79,2.3-3.9c0.1,0.03,0.2,0.05,0.31,0.06c0.11,0.01,0.23,0.02,0.37,0.02c0.11,0,0.32-0.03,0.64-0.08
		c-2.02,3.06-3.14,4.75-3.35,5.07c-1.57,2.35-2.64,3.97-3.2,4.83c-1.21,1.86-2.23,3.47-3.06,4.84c-0.12-0.03-0.22-0.04-0.32-0.06
		c-0.1-0.01-0.21-0.02-0.34-0.02c-0.19,0-0.33,0.01-0.43,0.02c-0.13,0.04-0.22,0.06-0.27,0.06L686.18,923.72z"/>
	<path class="st0" d="M490.87,889.21v-6.54h5.89c1.09,0,1.93,0.07,2.54,0.21c0.89,0.19,1.66,0.56,2.32,1.12
		c0.8,0.65,1.4,1.46,1.79,2.45c0.4,0.98,0.59,2.01,0.59,3.08c0,1.47-0.26,2.78-0.77,3.9c-0.45,0.97-1.12,1.85-2.02,2.65
		c-0.65,0.56-1.44,0.98-2.39,1.26c-0.94,0.28-2.37,0.42-4.29,0.42h-3.67v-7.56h-0.88v-0.98H490.87z M492.82,883.56v5.66h4.24v0.98
		h-4.24v6.54c0.21,0,0.45,0.01,0.71,0.04c0.81,0.09,1.34,0.13,1.59,0.13l0.44-0.04c1.18,0,2.21-0.22,3.1-0.66
		c1.12-0.56,1.94-1.42,2.47-2.59c0.48-1.03,0.71-2.27,0.71-3.74c0-2.3-0.5-3.95-1.49-4.93c-0.99-0.99-2.58-1.48-4.76-1.48
		c-0.29,0-0.81,0.02-1.55,0.04C493.32,883.54,492.91,883.56,492.82,883.56"/>
	<path class="st0" d="M518.33,889.04v-6.37c0.15,0.03,0.3,0.05,0.45,0.06c0.15,0.01,0.33,0.02,0.54,0.02c0.25,0,0.45-0.01,0.6-0.04
		c0.16-0.03,0.28-0.04,0.37-0.04v15.17c-0.18-0.03-0.34-0.05-0.49-0.06c-0.15-0.01-0.31-0.02-0.48-0.02c-0.18,0-0.36,0.01-0.54,0.03
		c-0.18,0.02-0.33,0.04-0.44,0.05v-7.64c-0.54,0-1.43-0.02-2.67-0.05c-1.24-0.03-1.9-0.05-1.98-0.05c-0.53,0-1.41,0.02-2.65,0.05
		c-1.24,0.03-1.92,0.05-2.04,0.05v7.64c-0.17-0.03-0.33-0.05-0.48-0.06c-0.15-0.01-0.31-0.02-0.49-0.02c-0.16,0-0.29,0-0.39,0.01
		c-0.1,0.01-0.3,0.03-0.58,0.08v-15.17c0.27,0.03,0.45,0.05,0.54,0.06c0.09,0.01,0.24,0.02,0.43,0.02c0.25,0,0.45-0.01,0.61-0.04
		c0.16-0.03,0.28-0.04,0.36-0.04v6.37c0.55,0,1.45,0.01,2.71,0.04c1.26,0.03,1.92,0.04,1.98,0.04c0.53,0,1.41-0.01,2.65-0.04
		C517.56,889.06,518.23,889.04,518.33,889.04"/>
	<path class="st0" d="M535.34,883.74v14.15c-0.18-0.03-0.34-0.05-0.49-0.07c-0.15-0.01-0.31-0.02-0.48-0.02
		c-0.18,0-0.36,0.01-0.55,0.03c-0.18,0.02-0.33,0.04-0.43,0.05v-14.15c-1.15,0-1.97,0.01-2.45,0.04c-0.48,0.03-1.29,0.1-2.42,0.22
		c0.01-0.1,0.03-0.2,0.05-0.31c0.02-0.11,0.03-0.22,0.03-0.35c0-0.11-0.01-0.22-0.03-0.35c-0.02-0.12-0.04-0.23-0.05-0.32h11.41
		l-0.04,0.67l0.04,0.66c-0.56-0.07-1.25-0.13-2.06-0.18C537.07,883.77,536.22,883.74,535.34,883.74"/>
	<path class="st0" d="M549.37,890.81v5.13l-0.04,0.31c0,0.3,0.04,0.51,0.11,0.64c0.07,0.13,0.22,0.2,0.46,0.2l0.7-0.14v0.49
		c-0.19,0.11-0.41,0.18-0.66,0.23l-0.8,0.09c-0.42,0-0.77-0.1-1.03-0.31c-0.26-0.2-0.42-0.56-0.48-1.06l-0.17,0.23
		c-0.95,0.94-2.05,1.41-3.28,1.41c-0.82,0-1.52-0.25-2.09-0.77c-0.58-0.51-0.86-1.17-0.86-1.98c0-0.87,0.25-1.55,0.76-2.03
		c0.51-0.48,1.63-0.87,3.35-1.16c0.75-0.12,1.24-0.22,1.48-0.29c0.58-0.19,0.86-0.58,0.86-1.17c0-0.83-0.22-1.47-0.67-1.93
		c-0.44-0.46-1.09-0.68-1.95-0.68c-0.72,0-1.34,0.19-1.86,0.57c-0.41,0.3-0.66,0.62-0.75,0.97h-0.27v-1.23
		c0.58-0.4,1.15-0.71,1.73-0.92c0.58-0.21,1.19-0.32,1.86-0.32C548.17,887.1,549.37,888.34,549.37,890.81 M542.89,886.21h-0.76
		l2.74-3.72h1.2l2.73,3.72h-0.75l-2.57-2.34L542.89,886.21z M547.6,895.54v-3.23l-0.8,0.13c-1.31,0.27-2.12,0.48-2.43,0.63
		c-0.88,0.4-1.33,1.03-1.33,1.9c0,0.69,0.19,1.21,0.56,1.55c0.37,0.35,0.91,0.52,1.61,0.52c0.31,0,0.63-0.08,0.96-0.25
		c0.33-0.16,0.6-0.36,0.8-0.59c0.13-0.09,0.26-0.21,0.41-0.36C547.52,895.7,547.6,895.6,547.6,895.54"/>
	<path class="st0" d="M555.96,897.71l-4.47-10.48c0.18,0.03,0.35,0.05,0.51,0.06c0.16,0.01,0.34,0.02,0.55,0.02
		c0.17,0,0.35-0.01,0.56-0.03c0.21-0.02,0.38-0.04,0.51-0.05c0.44,1.39,0.91,2.72,1.41,4c0.5,1.27,1.12,2.68,1.86,4.23
		c0.47-0.97,1.03-2.28,1.69-3.92c0.66-1.65,1.2-3.08,1.62-4.3c0.12,0.03,0.23,0.05,0.35,0.06c0.12,0.01,0.25,0.02,0.41,0.02
		c0.11,0,0.35-0.03,0.7-0.09c-1.52,3.38-2.36,5.24-2.52,5.59c-1.18,2.6-1.98,4.38-2.4,5.33c-0.9,2.05-1.65,3.84-2.25,5.35
		c-0.14-0.03-0.26-0.05-0.37-0.07c-0.11-0.01-0.24-0.02-0.38-0.02c-0.21,0-0.36,0.01-0.46,0.02c-0.14,0.04-0.23,0.07-0.29,0.07
		L555.96,897.71z"/>
	<path class="st0" d="M582.61,882.67v15.17h-0.67c-0.25-0.4-0.63-0.85-1.14-1.37l-9.56-10.57h-0.21v11.94
		c-0.18-0.03-0.31-0.05-0.38-0.06c-0.07-0.01-0.15-0.02-0.25-0.02c-0.1,0-0.21,0.01-0.33,0.03c-0.12,0.02-0.21,0.04-0.29,0.05
		v-15.17h0.88l10.49,11.41h0.22v-11.41c0.18,0.03,0.31,0.05,0.38,0.06c0.07,0.01,0.15,0.02,0.24,0.02c0.11,0,0.22-0.01,0.34-0.03
		C582.44,882.7,582.54,882.68,582.61,882.67"/>
	<path class="st0" d="M594.9,887.18v0.84l-2.44-0.23c0.49,0.37,0.87,0.8,1.14,1.29c0.27,0.49,0.41,1.03,0.41,1.64
		c0,1.15-0.46,2.02-1.39,2.63c-0.84,0.54-1.96,0.82-3.35,0.82h-0.4c-0.31,0-0.56,0.06-0.75,0.19c-0.3,0.17-0.44,0.47-0.44,0.88
		c0,0.44,0.16,0.73,0.48,0.86c0.32,0.13,0.87,0.2,1.64,0.2h1.42c2.56,0,3.84,0.99,3.84,2.96c0,1.28-0.52,2.33-1.56,3.13
		c-1.04,0.81-2.39,1.21-4.05,1.21c-1.05,0-1.95-0.25-2.7-0.76c-0.88-0.59-1.33-1.41-1.33-2.47c0-0.77,0.2-1.38,0.61-1.82
		c0.41-0.44,0.97-0.74,1.69-0.88v-0.18c-0.38-0.09-0.68-0.24-0.88-0.44c-0.29-0.31-0.44-0.77-0.44-1.37c0-0.48,0.14-0.88,0.42-1.19
		c0.21-0.22,0.57-0.46,1.08-0.71c-0.71-0.32-1.22-0.71-1.54-1.17c-0.38-0.53-0.57-1.19-0.57-1.97c0-1.09,0.32-1.94,0.95-2.55
		c0.7-0.66,1.77-0.99,3.21-0.99h0.3l3.06,0.13l0.61,0.04c0.17,0,0.34-0.01,0.54-0.03C594.64,887.22,594.79,887.2,594.9,887.18
		 M590.2,897.63c-2.27,0-3.4,0.88-3.4,2.65c0,0.87,0.29,1.53,0.86,1.98c0.58,0.45,1.35,0.67,2.32,0.67c0.94,0,1.72-0.21,2.34-0.62
		c0.76-0.5,1.14-1.24,1.14-2.21c0-1.03-0.33-1.73-0.99-2.09C592.03,897.75,591.27,897.63,590.2,897.63 M587.46,890.59l-0.04,0.23
		c0,0.76,0.22,1.42,0.67,1.96c0.44,0.55,1.03,0.82,1.78,0.82c0.78,0,1.38-0.28,1.82-0.83c0.44-0.55,0.65-1.23,0.65-2.04
		c0-0.93-0.18-1.64-0.53-2.15c-0.4-0.58-1.02-0.86-1.86-0.86c-0.79,0-1.39,0.26-1.83,0.79
		C587.68,889.03,587.46,889.72,587.46,890.59"/>
	<path class="st0" d="M605.15,887.23v10.61l-0.89-0.09c-0.16,0-0.28,0-0.37,0.01c-0.09,0.01-0.26,0.03-0.5,0.08v-1.94
		c-0.74,1.42-1.92,2.13-3.54,2.13c-1.22,0-2.13-0.34-2.73-1.03c-0.6-0.69-0.9-1.78-0.9-3.27v-6.5c0.22,0.03,0.38,0.05,0.46,0.06
		c0.09,0.01,0.22,0.02,0.42,0.02l0.88-0.09v5.97c0,1.24,0.2,2.17,0.59,2.79c0.4,0.62,1.08,0.93,2.06,0.93c1.01,0,1.75-0.4,2.2-1.19
		c0.36-0.61,0.54-1.4,0.54-2.4v-6.1c0.22,0.03,0.37,0.05,0.46,0.06c0.09,0.01,0.23,0.02,0.42,0.02L605.15,887.23z"/>
	<path class="st0" d="M611.09,897.71l-4.47-10.48c0.18,0.03,0.35,0.05,0.51,0.06c0.16,0.01,0.34,0.02,0.55,0.02
		c0.17,0,0.35-0.01,0.56-0.03c0.21-0.02,0.38-0.04,0.51-0.05c0.44,1.39,0.91,2.72,1.41,4c0.5,1.27,1.12,2.68,1.86,4.23
		c0.47-0.97,1.03-2.28,1.69-3.92c0.66-1.65,1.2-3.08,1.62-4.3c0.12,0.03,0.23,0.05,0.35,0.06c0.12,0.01,0.25,0.02,0.41,0.02
		c0.11,0,0.35-0.03,0.7-0.09c-1.52,3.38-2.36,5.24-2.52,5.59c-1.18,2.6-1.98,4.38-2.4,5.33c-0.9,2.05-1.65,3.84-2.25,5.35
		c-0.14-0.03-0.26-0.05-0.37-0.07c-0.11-0.01-0.24-0.02-0.38-0.02c-0.21,0-0.36,0.01-0.46,0.02c-0.14,0.04-0.23,0.07-0.29,0.07
		L611.09,897.71z"/>
	<path class="st0" d="M626.57,895.54l-0.04,1.15c-0.58,0.41-1.18,0.73-1.83,0.97c-0.64,0.24-1.3,0.36-1.99,0.36
		c-1.56,0-2.82-0.49-3.78-1.46c-0.96-0.98-1.44-2.32-1.44-4.02c0-1.6,0.43-2.89,1.29-3.88c0.91-1.04,2.18-1.57,3.8-1.57
		c1.24,0,2.27,0.41,3.1,1.22c0.91,0.89,1.37,2.14,1.37,3.74v0.49c-0.52,0-1.38-0.02-2.58-0.05c-1.2-0.03-1.83-0.05-1.89-0.05h-3.14
		l-0.04,0.44c0,1.18,0.34,2.17,1.03,2.96c0.69,0.79,1.64,1.19,2.87,1.19c0.66,0,1.32-0.18,1.97-0.53
		C625.67,896.3,626.11,895.98,626.57,895.54 M619.69,886.21h-0.75l2.74-3.72h1.2l2.74,3.72h-0.75l-2.57-2.34L619.69,886.21z
		 M619.44,891.66h5.89c0-1.12-0.18-2.01-0.55-2.66c-0.46-0.8-1.19-1.2-2.19-1.2c-0.97,0-1.75,0.41-2.34,1.22
		C619.71,889.75,619.44,890.63,619.44,891.66"/>
	<path class="st0" d="M629.17,897.84v-10.61c0.22,0.03,0.38,0.05,0.46,0.06c0.09,0.01,0.23,0.02,0.42,0.02l0.88-0.09v2.04
		c0.38-0.7,0.88-1.23,1.48-1.61c0.6-0.38,1.29-0.56,2.06-0.56c1.27,0,2.18,0.35,2.74,1.06c0.56,0.71,0.84,1.8,0.84,3.27v6.41
		l-0.89-0.09c-0.16,0-0.28,0-0.37,0.01c-0.09,0.01-0.26,0.03-0.51,0.08v-5.93c0-1.18-0.15-2.04-0.44-2.58
		c-0.38-0.73-1.06-1.09-2.03-1.09c-1.09,0-1.85,0.4-2.3,1.2c-0.38,0.68-0.57,1.75-0.57,3.23v5.17l-0.88-0.09
		c-0.17,0-0.29,0-0.38,0.01C629.59,897.77,629.42,897.8,629.17,897.84"/>
	<path d="M469.74,860.41h2.53c0.6,0.13,1.21,0.23,1.8,0.38c8.64,2.18,12.32,12.36,7.07,19.57c-1.88,2.58-3.83,5.11-5.74,7.67
		c-1.45,1.94-2.88,3.89-4.32,5.84h-0.15c-0.1-0.17-0.19-0.34-0.31-0.5c-3.25-4.34-6.54-8.64-9.75-13.02
		c-5-6.82-1.98-16.46,6.01-19.24C467.81,860.8,468.79,860.64,469.74,860.41 M471,864.59c-4.6,0-8.37,3.78-8.37,8.38
		c0,4.59,3.79,8.37,8.39,8.36c4.6,0,8.37-3.79,8.37-8.38C479.38,868.34,475.6,864.58,471,864.59"/>
	<path class="st1" d="M482.1,873.32c0,6.13-4.97,11.09-11.09,11.09c-6.13,0-11.09-4.97-11.09-11.09s4.97-11.09,11.09-11.09
		C477.13,862.22,482.1,867.19,482.1,873.32"/>
	<path d="M469.76,860.61h2.5c0.59,0.13,1.19,0.23,1.78,0.38c8.53,2.15,12.18,12.22,6.98,19.33c-1.86,2.55-3.79,5.05-5.67,7.58
		c-1.43,1.92-2.84,3.85-4.26,5.77h-0.15c-0.1-0.16-0.19-0.34-0.3-0.49c-3.21-4.28-6.46-8.54-9.63-12.86
		c-4.94-6.74-1.95-16.26,5.93-19.01C467.85,860.99,468.82,860.84,469.76,860.61 M471,862.47c-5.79,0-10.53,4.75-10.53,10.54
		c0,5.77,4.77,10.53,10.55,10.52c5.78-0.01,10.54-4.77,10.52-10.55C481.54,867.2,476.79,862.47,471,862.47"/>
	<path d="M467.09,877.74v-1.54l1.41-1.27c2.38-2.13,3.53-3.35,3.57-4.62c0-0.89-0.54-1.59-1.79-1.59c-0.94,0-1.76,0.47-2.33,0.9
		l-0.72-1.83c0.82-0.62,2.09-1.12,3.57-1.12c2.46,0,3.82,1.44,3.82,3.42c0,1.83-1.32,3.28-2.9,4.69l-1,0.84v0.03h4.1v2.09H467.09z"
		/>
</g>
<g>
	<path class="st2" d="M966.78,403.32v11.4c-0.14-0.02-0.28-0.04-0.4-0.05c-0.12-0.01-0.25-0.02-0.39-0.02
		c-0.15,0-0.29,0.01-0.44,0.02c-0.15,0.02-0.26,0.03-0.34,0.04v-11.4c-0.93,0-1.58,0.01-1.97,0.04c-0.38,0.02-1.04,0.08-1.95,0.17
		c0.01-0.08,0.03-0.16,0.04-0.25c0.02-0.08,0.03-0.18,0.03-0.28c0-0.09-0.01-0.18-0.03-0.28c-0.02-0.1-0.03-0.19-0.04-0.26h9.2
		l-0.03,0.54l0.03,0.53c-0.45-0.06-1-0.1-1.66-0.15C968.18,403.35,967.49,403.32,966.78,403.32"/>
	<path class="st2" d="M971.79,414.69v-8.55c0.18,0.02,0.3,0.04,0.37,0.05c0.07,0.01,0.18,0.02,0.34,0.02l0.71-0.07v1.78l0.07-0.22
		c0.33-0.5,0.67-0.89,1.02-1.18c0.41-0.33,0.82-0.49,1.23-0.49c0.2,0,0.39,0.03,0.57,0.1l-0.25,1.5c-0.29-0.1-0.57-0.19-0.85-0.29
		c-0.48,0-0.86,0.15-1.14,0.43c-0.28,0.33-0.45,0.65-0.53,0.96c-0.08,0.31-0.11,0.75-0.11,1.32v4.63l-0.71-0.07
		c-0.13,0-0.23,0-0.3,0.01C972.13,414.63,971.99,414.66,971.79,414.69"/>
	<path class="st2" d="M984.04,406.53c0.23-0.06,0.39-0.15,0.48-0.27c0.09-0.12,0.13-0.28,0.13-0.48c0-0.24-0.05-0.4-0.14-0.5
		c-0.04-0.06-0.15-0.09-0.33-0.1c-0.18-0.01-0.27-0.04-0.28-0.08v-1.07l0.53,0.08h1.18l-0.03,0.28v0.68c0,0.32-0.03,0.59-0.09,0.82
		c-0.06,0.23-0.19,0.46-0.38,0.68c-0.14,0.17-0.29,0.29-0.45,0.36c-0.16,0.07-0.37,0.12-0.62,0.14v7.62l-0.71-0.07
		c-0.13,0-0.23,0-0.3,0.01c-0.07,0.01-0.21,0.03-0.4,0.06v-1.57c-0.6,1.14-1.55,1.71-2.85,1.71c-0.99,0-1.72-0.28-2.21-0.83
		c-0.48-0.55-0.72-1.43-0.72-2.63v-5.24c0.18,0.02,0.31,0.04,0.38,0.05c0.07,0.01,0.18,0.02,0.34,0.02l0.72-0.07v4.81
		c0,1,0.16,1.75,0.48,2.25c0.32,0.5,0.87,0.75,1.66,0.75c0.82,0,1.41-0.32,1.77-0.96c0.29-0.49,0.44-1.13,0.44-1.93v-4.92
		c0.17,0.02,0.3,0.04,0.37,0.05c0.07,0.01,0.18,0.02,0.34,0.02l0.71-0.07V406.53z"/>
	<path class="st2" d="M991.93,407.1c0.13-0.02,0.26-0.06,0.39-0.11c0.13-0.05,0.23-0.13,0.31-0.24c0.08-0.11,0.12-0.25,0.12-0.44
		c0-0.09-0.02-0.16-0.06-0.23c-0.04-0.06-0.09-0.12-0.15-0.18c-0.04-0.06-0.14-0.1-0.32-0.11c-0.18-0.01-0.27-0.04-0.28-0.07v-1.07
		l0.53,0.07h1.17l-0.03,0.29v0.68c0,0.34-0.02,0.61-0.05,0.8c-0.03,0.19-0.15,0.39-0.34,0.61c-0.23,0.26-0.51,0.43-0.85,0.5
		c0.52,0.75,0.78,1.68,0.78,2.79c0,1.22-0.34,2.25-1.02,3.08c-0.75,0.92-1.75,1.38-3.01,1.38c-1.07,0-1.96-0.37-2.67-1.11
		c-0.76-0.79-1.14-1.79-1.14-2.99l0.03-0.4c0-1.27,0.38-2.31,1.15-3.11c0.77-0.8,1.74-1.2,2.92-1.2
		C990.37,406.03,991.21,406.39,991.93,407.1 M989.36,406.6c-0.92,0-1.61,0.43-2.07,1.29c-0.38,0.7-0.57,1.6-0.57,2.71
		c0,1.01,0.19,1.84,0.57,2.5c0.45,0.78,1.11,1.17,1.97,1.17c0.83,0,1.47-0.48,1.92-1.45c0.35-0.76,0.53-1.6,0.53-2.51
		c0-0.97-0.16-1.79-0.48-2.44C990.81,407.02,990.19,406.6,989.36,406.6 M990.77,405.13h-0.61l-2.82-1.74
		c-0.14-0.13-0.28-0.26-0.43-0.39c-0.02-0.05-0.03-0.14-0.03-0.29v-0.22c0.08-0.24,0.28-0.36,0.61-0.36h0.14
		c0.07,0.04,0.14,0.08,0.22,0.11c0.11,0.08,0.24,0.19,0.37,0.33c0.13,0.14,0.23,0.24,0.3,0.31L990.77,405.13z"/>
	<path class="st2" d="M994.77,414.69v-8.55c0.18,0.02,0.31,0.04,0.37,0.05c0.07,0.01,0.18,0.02,0.34,0.02l0.71-0.07v1.64
		c0.31-0.56,0.71-0.99,1.19-1.29c0.49-0.3,1.04-0.45,1.66-0.45c1.02,0,1.76,0.28,2.21,0.85c0.45,0.57,0.68,1.45,0.68,2.64v5.17
		l-0.71-0.07c-0.13,0-0.23,0-0.3,0.01c-0.07,0.01-0.21,0.03-0.41,0.06v-4.78c0-0.95-0.12-1.64-0.36-2.08
		c-0.31-0.59-0.85-0.88-1.64-0.88c-0.87,0-1.49,0.32-1.85,0.97c-0.31,0.55-0.46,1.41-0.46,2.6v4.17l-0.71-0.07
		c-0.13,0-0.24,0-0.31,0.01C995.11,414.63,994.98,414.66,994.77,414.69"/>
	<path class="st2" d="M1011.42,406.1v0.68l-1.97-0.18c0.39,0.3,0.7,0.65,0.92,1.04c0.22,0.39,0.33,0.83,0.33,1.32
		c0,0.92-0.38,1.63-1.12,2.11c-0.68,0.44-1.58,0.66-2.7,0.66h-0.32c-0.25,0-0.45,0.05-0.6,0.15c-0.24,0.14-0.36,0.38-0.36,0.71
		c0,0.35,0.13,0.59,0.39,0.69c0.26,0.11,0.7,0.16,1.32,0.16h1.14c2.07,0,3.1,0.79,3.1,2.38c0,1.03-0.42,1.87-1.26,2.52
		c-0.84,0.65-1.93,0.98-3.27,0.98c-0.85,0-1.57-0.2-2.18-0.61c-0.71-0.47-1.07-1.14-1.07-1.99c0-0.62,0.16-1.11,0.49-1.47
		c0.33-0.36,0.78-0.59,1.36-0.71v-0.15c-0.31-0.07-0.54-0.19-0.71-0.36c-0.24-0.25-0.36-0.62-0.36-1.11c0-0.39,0.11-0.71,0.34-0.95
		c0.17-0.18,0.46-0.37,0.87-0.58c-0.57-0.26-0.98-0.57-1.25-0.94c-0.31-0.43-0.46-0.96-0.46-1.58c0-0.88,0.25-1.57,0.76-2.05
		c0.57-0.53,1.43-0.8,2.59-0.8h0.24l2.46,0.1l0.5,0.03c0.13,0,0.28-0.01,0.43-0.03C1011.21,406.13,1011.34,406.11,1011.42,406.1
		 M1007.64,414.52c-1.83,0-2.74,0.71-2.74,2.13c0,0.7,0.23,1.23,0.7,1.6c0.46,0.36,1.09,0.54,1.87,0.54c0.76,0,1.39-0.16,1.89-0.5
		c0.61-0.4,0.92-1,0.92-1.78c0-0.83-0.27-1.39-0.8-1.69C1009.11,414.61,1008.5,414.52,1007.64,414.52 M1005.43,408.84l-0.04,0.18
		c0,0.61,0.18,1.14,0.54,1.58c0.36,0.44,0.83,0.66,1.43,0.66c0.63,0,1.11-0.22,1.47-0.67c0.35-0.45,0.53-1,0.53-1.64
		c0-0.75-0.14-1.33-0.43-1.74c-0.32-0.46-0.82-0.69-1.5-0.69c-0.63,0-1.12,0.21-1.48,0.64
		C1005.6,407.58,1005.43,408.14,1005.43,408.84"/>
	<path class="st2" d="M1022.42,403.32v11.4c-0.14-0.02-0.28-0.04-0.4-0.05c-0.12-0.01-0.25-0.02-0.39-0.02
		c-0.15,0-0.29,0.01-0.44,0.02c-0.15,0.02-0.26,0.03-0.34,0.04v-11.4c-0.93,0-1.58,0.01-1.97,0.04c-0.39,0.02-1.04,0.08-1.95,0.17
		c0.01-0.08,0.03-0.16,0.04-0.25c0.02-0.08,0.02-0.18,0.02-0.28c0-0.09-0.01-0.18-0.02-0.28c-0.02-0.1-0.03-0.19-0.04-0.26h9.2
		l-0.03,0.54l0.03,0.53c-0.45-0.06-1-0.1-1.66-0.15C1023.82,403.35,1023.14,403.32,1022.42,403.32"/>
	<path class="st2" d="M1037.04,407.6v-5.14c0.12,0.02,0.24,0.04,0.36,0.05c0.12,0.01,0.26,0.02,0.43,0.02c0.2,0,0.36-0.01,0.48-0.03
		c0.12-0.02,0.23-0.04,0.3-0.04v12.23c-0.15-0.02-0.28-0.04-0.4-0.05c-0.12-0.01-0.25-0.02-0.39-0.02c-0.14,0-0.29,0.01-0.44,0.03
		c-0.15,0.02-0.27,0.03-0.35,0.04v-6.16c-0.44,0-1.15-0.01-2.15-0.04c-1-0.03-1.53-0.04-1.59-0.04c-0.42,0-1.13,0.01-2.13,0.04
		c-1,0.03-1.55,0.04-1.64,0.04v6.16c-0.14-0.02-0.27-0.04-0.39-0.05c-0.12-0.01-0.25-0.02-0.4-0.02c-0.13,0-0.23,0-0.32,0.01
		c-0.08,0.01-0.24,0.03-0.46,0.06v-12.23c0.22,0.02,0.36,0.04,0.44,0.05c0.07,0.01,0.19,0.02,0.35,0.02c0.2,0,0.37-0.01,0.49-0.03
		c0.13-0.02,0.22-0.04,0.29-0.04v5.14c0.44,0,1.17,0.01,2.18,0.04c1.02,0.02,1.55,0.03,1.59,0.03c0.43,0,1.14-0.01,2.13-0.03
		C1036.42,407.61,1036.96,407.6,1037.04,407.6"/>
	<path class="st2" d="M1043.09,409.06v5.63c-0.14-0.02-0.27-0.04-0.39-0.05c-0.12-0.01-0.25-0.02-0.4-0.02
		c-0.14,0-0.28,0.01-0.44,0.02c-0.15,0.02-0.26,0.03-0.35,0.04v-12.23h3.18c1.72,0,2.92,0.22,3.59,0.65c0.67,0.44,1,1.19,1,2.27
		c0,1.06-0.31,1.86-0.92,2.42c-0.61,0.56-1.58,0.96-2.89,1.22c-0.2,0.02-0.42,0.05-0.65,0.07c-0.23,0.02-0.36,0.03-0.38,0.03
		c-0.2,0-0.47-0.01-0.79-0.03C1043.33,409.07,1043.14,409.06,1043.09,409.06 M1043.09,403.18v5.2l0.78,0.04l0.97-0.04
		c0.88-0.08,1.56-0.38,2.07-0.9c0.5-0.52,0.75-1.18,0.75-1.98c0-0.64-0.16-1.15-0.47-1.55c-0.34-0.44-0.85-0.69-1.53-0.77
		l-1.17-0.03L1043.09,403.18z"/>
	<path class="st2" d="M1055.71,403.32v11.4c-0.14-0.02-0.28-0.04-0.4-0.05c-0.12-0.01-0.25-0.02-0.39-0.02
		c-0.15,0-0.29,0.01-0.44,0.02c-0.15,0.02-0.26,0.03-0.34,0.04v-11.4c-0.93,0-1.58,0.01-1.97,0.04c-0.39,0.02-1.04,0.08-1.95,0.17
		c0.01-0.08,0.03-0.16,0.04-0.25c0.02-0.08,0.03-0.18,0.03-0.28c0-0.09-0.01-0.18-0.03-0.28c-0.02-0.1-0.03-0.19-0.04-0.26h9.2
		l-0.03,0.54l0.03,0.53c-0.45-0.06-1-0.1-1.66-0.15C1057.1,403.35,1056.42,403.32,1055.71,403.32"/>
	<path class="st2" d="M1077.27,402.46v12.23h-0.54c-0.2-0.32-0.51-0.69-0.93-1.11l-7.7-8.52h-0.17v9.63
		c-0.14-0.02-0.25-0.04-0.3-0.05c-0.06-0.01-0.12-0.02-0.2-0.02c-0.08,0-0.17,0.01-0.27,0.03c-0.1,0.02-0.17,0.03-0.23,0.04v-12.23
		h0.71l8.45,9.2h0.17v-9.2c0.15,0.02,0.24,0.04,0.3,0.05c0.06,0.01,0.12,0.02,0.19,0.02c0.09,0,0.18-0.01,0.28-0.03
		C1077.13,402.49,1077.21,402.47,1077.27,402.46"/>
	<path class="st2" d="M1087.17,406.1v0.68l-1.97-0.18c0.4,0.3,0.7,0.65,0.92,1.04c0.22,0.39,0.33,0.83,0.33,1.32
		c0,0.92-0.38,1.63-1.12,2.11c-0.68,0.44-1.58,0.66-2.7,0.66h-0.32c-0.25,0-0.45,0.05-0.6,0.15c-0.24,0.14-0.35,0.38-0.35,0.71
		c0,0.35,0.13,0.59,0.39,0.69c0.26,0.11,0.7,0.16,1.32,0.16h1.14c2.06,0,3.1,0.79,3.1,2.38c0,1.03-0.42,1.87-1.26,2.52
		c-0.84,0.65-1.93,0.98-3.27,0.98c-0.85,0-1.57-0.2-2.17-0.61c-0.71-0.47-1.07-1.14-1.07-1.99c0-0.62,0.16-1.11,0.49-1.47
		c0.33-0.36,0.78-0.59,1.36-0.71v-0.15c-0.31-0.07-0.54-0.19-0.71-0.36c-0.24-0.25-0.35-0.62-0.35-1.11c0-0.39,0.11-0.71,0.34-0.95
		c0.17-0.18,0.46-0.37,0.87-0.58c-0.57-0.26-0.98-0.57-1.24-0.94c-0.31-0.43-0.46-0.96-0.46-1.58c0-0.88,0.26-1.57,0.77-2.05
		c0.57-0.53,1.43-0.8,2.58-0.8h0.24l2.46,0.1l0.49,0.03c0.13,0,0.28-0.01,0.43-0.03C1086.96,406.13,1087.08,406.11,1087.17,406.1
		 M1083.38,414.52c-1.83,0-2.74,0.71-2.74,2.13c0,0.7,0.23,1.23,0.69,1.6c0.46,0.36,1.09,0.54,1.87,0.54c0.76,0,1.39-0.16,1.89-0.5
		c0.62-0.4,0.92-1,0.92-1.78c0-0.83-0.27-1.39-0.8-1.69C1084.86,414.61,1084.24,414.52,1083.38,414.52 M1081.18,408.84l-0.04,0.18
		c0,0.61,0.18,1.14,0.54,1.58c0.36,0.44,0.83,0.66,1.43,0.66c0.63,0,1.12-0.22,1.47-0.67c0.35-0.45,0.53-1,0.53-1.64
		c0-0.75-0.14-1.33-0.43-1.74c-0.32-0.46-0.82-0.69-1.49-0.69c-0.63,0-1.12,0.21-1.48,0.64
		C1081.35,407.58,1081.18,408.14,1081.18,408.84"/>
	<path class="st2" d="M1095.43,406.14v8.55l-0.71-0.07c-0.13,0-0.23,0-0.3,0.01c-0.07,0.01-0.21,0.02-0.4,0.06v-1.57
		c-0.6,1.14-1.55,1.71-2.85,1.71c-0.99,0-1.72-0.27-2.2-0.83c-0.48-0.55-0.72-1.43-0.72-2.63v-5.24c0.18,0.02,0.31,0.04,0.37,0.05
		c0.07,0.01,0.18,0.02,0.34,0.02l0.71-0.07v4.81c0,1,0.16,1.75,0.48,2.24c0.32,0.5,0.87,0.75,1.66,0.75c0.82,0,1.41-0.32,1.77-0.96
		c0.29-0.49,0.44-1.13,0.44-1.93v-4.92c0.17,0.02,0.3,0.04,0.37,0.05c0.07,0.01,0.18,0.02,0.33,0.02L1095.43,406.14z"/>
	<path class="st2" d="M1100.22,414.58l-3.6-8.45c0.15,0.02,0.28,0.04,0.41,0.05c0.13,0.01,0.28,0.02,0.44,0.02
		c0.13,0,0.28-0.01,0.45-0.03c0.17-0.02,0.3-0.03,0.41-0.04c0.35,1.12,0.73,2.19,1.13,3.22c0.4,1.03,0.9,2.17,1.5,3.41
		c0.38-0.78,0.83-1.84,1.36-3.16c0.53-1.33,0.97-2.48,1.31-3.47c0.09,0.02,0.19,0.04,0.28,0.05c0.1,0.01,0.21,0.02,0.33,0.02
		c0.09,0,0.28-0.02,0.57-0.07c-1.22,2.72-1.9,4.22-2.03,4.51c-0.95,2.09-1.6,3.53-1.93,4.3c-0.73,1.65-1.33,3.09-1.81,4.31
		c-0.11-0.02-0.21-0.04-0.3-0.05c-0.09-0.01-0.19-0.02-0.31-0.02c-0.16,0-0.29,0.01-0.37,0.02c-0.11,0.04-0.19,0.05-0.23,0.05
		L1100.22,414.58z"/>
	<path class="st2" d="M1112.69,412.84l-0.03,0.93c-0.47,0.33-0.95,0.59-1.47,0.78c-0.52,0.19-1.05,0.29-1.6,0.29
		c-1.26,0-2.28-0.39-3.05-1.18c-0.77-0.79-1.16-1.87-1.16-3.24c0-1.29,0.34-2.33,1.03-3.13c0.74-0.84,1.76-1.26,3.06-1.26
		c1,0,1.83,0.33,2.5,0.98c0.74,0.72,1.11,1.73,1.11,3.01v0.39c-0.42,0-1.11-0.01-2.08-0.04c-0.97-0.03-1.48-0.04-1.52-0.04h-2.53
		l-0.04,0.36c0,0.95,0.28,1.75,0.83,2.39c0.56,0.64,1.33,0.96,2.31,0.96c0.53,0,1.06-0.14,1.58-0.42
		C1111.97,413.45,1112.32,413.18,1112.69,412.84 M1107.19,405.32h-0.6l2.2-2.99h0.97l2.21,2.99h-0.61l-2.06-1.89L1107.19,405.32z
		 M1107.38,401.54h-0.47c0.1-0.48,0.3-0.88,0.61-1.21c0.31-0.33,0.66-0.5,1.07-0.5c0.19,0,0.32,0.01,0.39,0.03l0.75,0.39
		c0.2,0.12,0.41,0.22,0.61,0.29c0.05,0.01,0.12,0.03,0.21,0.06c0.09,0.03,0.15,0.04,0.19,0.04c0.1,0,0.21-0.03,0.32-0.09
		c0.11-0.06,0.19-0.13,0.25-0.22c0.06-0.09,0.12-0.2,0.18-0.32c0.06-0.13,0.11-0.22,0.15-0.29h0.43c-0.09,0.5-0.28,0.91-0.55,1.24
		c-0.31,0.38-0.69,0.57-1.12,0.57c-0.18,0-0.31-0.01-0.39-0.03c-0.08-0.02-0.33-0.14-0.75-0.36c-0.23-0.12-0.39-0.21-0.5-0.25
		c-0.2-0.09-0.37-0.14-0.5-0.14l-0.36,0.07c-0.11,0.05-0.22,0.14-0.31,0.27C1107.47,401.24,1107.41,401.38,1107.38,401.54
		 M1106.95,409.7h4.74c0-0.9-0.15-1.62-0.44-2.14c-0.37-0.64-0.96-0.97-1.77-0.97c-0.78,0-1.41,0.33-1.89,0.98
		C1107.16,408.17,1106.95,408.88,1106.95,409.7"/>
	<path class="st2" d="M1114.79,414.69v-8.55c0.18,0.02,0.31,0.04,0.37,0.05c0.07,0.01,0.18,0.02,0.34,0.02l0.71-0.07v1.64
		c0.31-0.56,0.7-0.99,1.19-1.29c0.49-0.3,1.04-0.45,1.66-0.45c1.02,0,1.76,0.28,2.21,0.85c0.45,0.57,0.68,1.45,0.68,2.64v5.17
		l-0.71-0.07c-0.13,0-0.23,0-0.3,0.01c-0.07,0.01-0.21,0.03-0.41,0.06v-4.78c0-0.95-0.12-1.64-0.36-2.08
		c-0.31-0.59-0.85-0.88-1.64-0.88c-0.87,0-1.49,0.32-1.85,0.97c-0.31,0.55-0.46,1.41-0.46,2.6v4.17l-0.71-0.07
		c-0.13,0-0.24,0-0.31,0.01C1115.13,414.63,1114.99,414.66,1114.79,414.69"/>
	<path class="st2" d="M1129.75,414.62v-12.16h5.27c0.88,0,1.57,0.06,2.05,0.17c0.71,0.15,1.34,0.45,1.87,0.9
		c0.64,0.52,1.12,1.18,1.44,1.97c0.32,0.79,0.48,1.62,0.48,2.48c0,1.19-0.21,2.24-0.63,3.14c-0.36,0.78-0.9,1.49-1.62,2.13
		c-0.52,0.45-1.16,0.79-1.92,1.02c-0.76,0.23-1.91,0.34-3.46,0.34H1129.75z M1131.32,403.18v10.63c0.2,0,0.56,0.02,1.07,0.07
		c0.51,0.04,0.9,0.07,1.18,0.07c0.58,0,1.12-0.05,1.62-0.14c0.49-0.09,0.95-0.23,1.38-0.43c0.91-0.45,1.57-1.15,2-2.09
		c0.38-0.83,0.57-1.83,0.57-3.01c0-1.88-0.43-3.21-1.28-3.99c-0.86-0.78-2.28-1.18-4.28-1.18c-0.24,0-0.65,0.01-1.25,0.04
		C1131.73,403.16,1131.39,403.18,1131.32,403.18"/>
	<path class="st2" d="M1149.61,406.14v8.55l-0.71-0.07c-0.13,0-0.23,0-0.3,0.01c-0.07,0.01-0.21,0.02-0.4,0.06v-1.57
		c-0.6,1.14-1.55,1.71-2.85,1.71c-0.99,0-1.72-0.27-2.2-0.83c-0.48-0.55-0.72-1.43-0.72-2.63v-5.24c0.18,0.02,0.31,0.04,0.38,0.05
		c0.07,0.01,0.18,0.02,0.34,0.02l0.72-0.07v4.81c0,1,0.16,1.75,0.48,2.24c0.32,0.5,0.87,0.75,1.66,0.75c0.82,0,1.41-0.32,1.77-0.96
		c0.29-0.49,0.44-1.13,0.44-1.93v-4.92c0.17,0.02,0.3,0.04,0.37,0.05c0.07,0.01,0.18,0.02,0.34,0.02L1149.61,406.14z"/>
	<path d="M973.32,426.89l-2.19,10.3h-0.45c-0.11-0.27-0.3-0.58-0.58-0.93l-4.96-7.17h-0.15l-1.72,8.1c-0.12-0.02-0.2-0.03-0.25-0.04
		c-0.05-0.01-0.1-0.01-0.16-0.01c-0.07,0-0.15,0.01-0.23,0.02c-0.08,0.02-0.15,0.03-0.2,0.04l2.19-10.3h0.6l5.47,7.75h0.15
		l1.65-7.75c0.11,0.02,0.2,0.04,0.24,0.04c0.05,0.01,0.1,0.02,0.16,0.02c0.07,0,0.15-0.01,0.23-0.02
		C973.2,426.92,973.26,426.9,973.32,426.89"/>
	<path d="M981.56,429.96l-0.12,0.57l-1.62-0.15c0.28,0.26,0.48,0.55,0.59,0.88c0.11,0.33,0.13,0.7,0.04,1.11
		c-0.17,0.78-0.61,1.37-1.33,1.78c-0.65,0.37-1.45,0.56-2.39,0.56h-0.27c-0.21,0-0.39,0.04-0.53,0.12c-0.23,0.12-0.37,0.32-0.43,0.6
		c-0.06,0.3,0,0.49,0.2,0.58c0.2,0.09,0.56,0.14,1.08,0.14h0.96c1.74,0,2.47,0.67,2.18,2.01c-0.19,0.87-0.69,1.58-1.51,2.12
		c-0.82,0.55-1.8,0.82-2.92,0.82c-0.71,0-1.29-0.17-1.72-0.51c-0.52-0.4-0.7-0.96-0.55-1.68c0.11-0.52,0.34-0.94,0.68-1.24
		c0.34-0.3,0.76-0.5,1.27-0.6l0.03-0.12c-0.24-0.06-0.42-0.16-0.53-0.3c-0.16-0.21-0.19-0.52-0.1-0.93c0.07-0.33,0.22-0.6,0.45-0.81
		c0.18-0.15,0.45-0.31,0.84-0.48c-0.43-0.22-0.73-0.48-0.88-0.79c-0.18-0.36-0.21-0.81-0.1-1.33c0.15-0.74,0.49-1.32,1.01-1.73
		c0.57-0.45,1.34-0.67,2.32-0.67h0.2l2.06,0.09l0.41,0.03c0.11,0,0.23-0.01,0.37-0.02C981.38,429.98,981.48,429.97,981.56,429.96
		 M976.86,437.04c-1.54,0-2.43,0.6-2.69,1.8c-0.12,0.59-0.02,1.04,0.3,1.34c0.33,0.31,0.82,0.46,1.48,0.46
		c0.64,0,1.2-0.14,1.68-0.42c0.59-0.34,0.96-0.84,1.1-1.5c0.15-0.7,0.02-1.17-0.37-1.42C978.09,437.13,977.59,437.04,976.86,437.04
		 M976.02,432.27l-0.07,0.15c-0.11,0.52-0.05,0.96,0.17,1.33c0.22,0.37,0.58,0.56,1.09,0.56c0.53,0,0.98-0.19,1.35-0.57
		c0.37-0.37,0.62-0.84,0.74-1.38c0.13-0.63,0.11-1.12-0.05-1.46c-0.18-0.39-0.56-0.59-1.13-0.59c-0.53,0-0.98,0.18-1.36,0.53
		C976.39,431.21,976.14,431.68,976.02,432.27"/>
	<path d="M989.07,429.99l-1.53,7.2l-0.58-0.06c-0.11,0-0.19,0-0.26,0.01c-0.06,0.01-0.18,0.02-0.35,0.05l0.28-1.32
		c-0.71,0.96-1.61,1.44-2.71,1.44c-0.83,0-1.4-0.23-1.7-0.7c-0.31-0.47-0.35-1.21-0.14-2.22l0.94-4.41c0.15,0.02,0.25,0.03,0.3,0.04
		c0.06,0.01,0.15,0.02,0.28,0.02l0.62-0.06l-0.86,4.05c-0.18,0.84-0.18,1.47,0,1.89c0.18,0.42,0.6,0.63,1.26,0.63
		c0.69,0,1.24-0.27,1.67-0.81c0.33-0.41,0.57-0.95,0.71-1.63l0.88-4.14c0.14,0.02,0.24,0.03,0.3,0.04c0.06,0.01,0.15,0.02,0.28,0.02
		L989.07,429.99z"/>
	<path d="M992.14,437.1l-1.53-7.12c0.12,0.02,0.23,0.03,0.34,0.04c0.11,0.01,0.23,0.02,0.37,0.02c0.11,0,0.24-0.01,0.38-0.02
		c0.14-0.02,0.26-0.03,0.35-0.04c0.1,0.94,0.23,1.85,0.38,2.71c0.15,0.86,0.37,1.82,0.65,2.87c0.46-0.66,1.03-1.55,1.71-2.67
		c0.69-1.11,1.26-2.09,1.72-2.92c0.07,0.02,0.15,0.03,0.23,0.04c0.08,0.01,0.17,0.02,0.27,0.02c0.08,0,0.24-0.02,0.48-0.06
		c-1.52,2.29-2.35,3.55-2.51,3.8c-1.18,1.77-1.98,2.97-2.4,3.62c-0.9,1.39-1.67,2.6-2.29,3.63c-0.09-0.02-0.17-0.04-0.24-0.04
		c-0.07-0.01-0.16-0.02-0.26-0.02c-0.14,0-0.25,0.01-0.32,0.02c-0.1,0.03-0.17,0.04-0.2,0.04L992.14,437.1z"/>
	<path d="M1003.51,435.63l-0.19,0.78c-0.46,0.28-0.92,0.5-1.39,0.66c-0.47,0.16-0.94,0.24-1.4,0.24c-1.06,0-1.84-0.33-2.35-0.99
		c-0.51-0.66-0.64-1.57-0.4-2.73c0.23-1.08,0.71-1.96,1.44-2.63c0.77-0.71,1.71-1.06,2.81-1.06c0.84,0,1.48,0.28,1.92,0.83
		c0.49,0.61,0.62,1.45,0.4,2.54l-0.07,0.33c-0.35,0-0.93-0.01-1.74-0.03c-0.81-0.02-1.24-0.03-1.28-0.03h-2.13l-0.09,0.3
		c-0.17,0.8-0.08,1.47,0.27,2.01c0.35,0.54,0.94,0.81,1.77,0.81c0.45,0,0.92-0.12,1.41-0.36
		C1002.8,436.14,1003.14,435.92,1003.51,435.63 M999.24,432.99h4c0.16-0.76,0.16-1.36,0.01-1.8c-0.2-0.54-0.63-0.82-1.31-0.82
		c-0.66,0-1.25,0.28-1.77,0.83C999.69,431.7,999.38,432.3,999.24,432.99"/>
	<path d="M1005.5,437.19l1.53-7.2c0.14,0.02,0.25,0.03,0.3,0.04c0.06,0.01,0.15,0.02,0.28,0.02l0.62-0.06l-0.29,1.39
		c0.36-0.48,0.77-0.84,1.23-1.09c0.46-0.25,0.96-0.38,1.48-0.38c0.86,0,1.43,0.24,1.71,0.72c0.28,0.48,0.31,1.22,0.1,2.22
		l-0.92,4.35l-0.58-0.06c-0.11,0-0.19,0-0.26,0.01c-0.06,0.01-0.18,0.02-0.36,0.05l0.86-4.02c0.17-0.8,0.19-1.39,0.07-1.75
		c-0.15-0.49-0.56-0.74-1.22-0.74c-0.74,0-1.32,0.27-1.74,0.81c-0.36,0.46-0.64,1.19-0.85,2.19l-0.75,3.51l-0.59-0.06
		c-0.11,0-0.2,0-0.26,0.01C1005.79,437.15,1005.68,437.16,1005.5,437.19"/>
	<path d="M1019.23,437.13l2.18-10.24h4.44c0.74,0,1.31,0.05,1.7,0.14c0.57,0.13,1.04,0.38,1.41,0.76c0.44,0.44,0.73,0.99,0.86,1.66
		c0.13,0.67,0.12,1.36-0.04,2.09c-0.22,1-0.58,1.88-1.09,2.64c-0.43,0.66-1.02,1.26-1.75,1.8c-0.52,0.38-1.12,0.67-1.8,0.86
		c-0.68,0.19-1.67,0.29-2.98,0.29H1019.23z M1022.6,427.5l-1.91,8.95c0.17,0,0.47,0.02,0.89,0.06c0.42,0.04,0.75,0.06,0.98,0.06
		c0.49,0,0.95-0.04,1.39-0.11c0.43-0.08,0.84-0.2,1.23-0.36c0.84-0.38,1.53-0.97,2.06-1.76c0.47-0.7,0.81-1.54,1.02-2.54
		c0.34-1.58,0.21-2.71-0.37-3.37c-0.58-0.66-1.71-0.99-3.39-0.99c-0.2,0-0.55,0.01-1.05,0.03
		C1022.94,427.49,1022.66,427.5,1022.6,427.5"/>
	<path d="M1038.02,429.99l-1.53,7.2l-0.58-0.06c-0.11,0-0.19,0-0.26,0.01c-0.06,0.01-0.18,0.02-0.35,0.05l0.28-1.32
		c-0.71,0.96-1.61,1.44-2.71,1.44c-0.83,0-1.4-0.23-1.7-0.7c-0.31-0.47-0.35-1.21-0.14-2.22l0.94-4.41c0.15,0.02,0.25,0.03,0.3,0.04
		c0.06,0.01,0.15,0.02,0.28,0.02l0.62-0.06l-0.86,4.05c-0.18,0.84-0.18,1.47,0,1.89c0.18,0.42,0.6,0.63,1.26,0.63
		c0.69,0,1.24-0.27,1.67-0.81c0.33-0.41,0.57-0.95,0.71-1.63l0.88-4.14c0.14,0.02,0.24,0.03,0.3,0.04c0.06,0.01,0.15,0.02,0.28,0.02
		L1038.02,429.99z"/>
	<path d="M1052.52,431.22l0.92-4.32c0.1,0.02,0.2,0.04,0.29,0.04c0.1,0.01,0.22,0.02,0.36,0.02c0.17,0,0.3-0.01,0.41-0.03
		c0.11-0.02,0.2-0.03,0.26-0.03l-2.19,10.3c-0.12-0.02-0.23-0.03-0.32-0.04c-0.1-0.01-0.2-0.01-0.32-0.01
		c-0.12,0-0.25,0.01-0.38,0.02c-0.13,0.02-0.23,0.03-0.31,0.04l1.1-5.19c-0.36,0-0.97-0.01-1.8-0.03c-0.84-0.02-1.28-0.03-1.33-0.03
		c-0.36,0-0.96,0.01-1.8,0.03c-0.84,0.02-1.31,0.03-1.39,0.03l-1.1,5.19c-0.11-0.02-0.22-0.03-0.32-0.04
		c-0.1-0.01-0.21-0.01-0.33-0.01c-0.11,0-0.2,0-0.27,0.01c-0.07,0-0.21,0.02-0.4,0.05l2.19-10.3c0.17,0.02,0.29,0.04,0.36,0.04
		c0.06,0.01,0.16,0.02,0.29,0.02c0.17,0,0.31-0.01,0.42-0.03c0.11-0.02,0.19-0.03,0.25-0.03l-0.92,4.32c0.37,0,0.98,0.01,1.84,0.03
		c0.85,0.02,1.3,0.03,1.34,0.03c0.36,0,0.96-0.01,1.8-0.03C1052,431.23,1052.46,431.22,1052.52,431.22"/>
	<path d="M1058.61,429.99l-1.53,7.2l-0.59-0.06c-0.11,0-0.19,0-0.26,0.01c-0.07,0.01-0.18,0.02-0.35,0.05l1.53-7.2
		c0.14,0.02,0.24,0.03,0.3,0.04c0.06,0.01,0.15,0.02,0.28,0.02L1058.61,429.99z M1059.3,427.44c-0.04,0.2-0.16,0.38-0.34,0.52
		c-0.18,0.15-0.38,0.23-0.57,0.23c-0.21,0-0.38-0.07-0.5-0.22c-0.12-0.14-0.16-0.32-0.12-0.53c0.04-0.21,0.16-0.4,0.35-0.55
		c0.19-0.16,0.39-0.23,0.6-0.23c0.2,0,0.36,0.07,0.48,0.23C1059.31,427.03,1059.35,427.22,1059.3,427.44"/>
	<path d="M1067.48,429.96l-0.12,0.57l-1.62-0.15c0.28,0.26,0.47,0.55,0.59,0.88c0.11,0.33,0.13,0.7,0.04,1.11
		c-0.17,0.78-0.61,1.37-1.33,1.78c-0.65,0.37-1.45,0.56-2.39,0.56h-0.27c-0.21,0-0.39,0.04-0.53,0.12c-0.23,0.12-0.37,0.32-0.43,0.6
		c-0.06,0.3,0,0.49,0.2,0.58c0.2,0.09,0.56,0.14,1.08,0.14h0.96c1.74,0,2.47,0.67,2.18,2.01c-0.19,0.87-0.69,1.58-1.51,2.12
		c-0.82,0.55-1.8,0.82-2.92,0.82c-0.71,0-1.29-0.17-1.72-0.51c-0.52-0.4-0.7-0.96-0.55-1.68c0.11-0.52,0.34-0.94,0.68-1.24
		c0.34-0.3,0.76-0.5,1.27-0.6l0.03-0.12c-0.24-0.06-0.42-0.16-0.53-0.3c-0.15-0.21-0.19-0.52-0.1-0.93c0.07-0.33,0.22-0.6,0.46-0.81
		c0.17-0.15,0.45-0.31,0.83-0.48c-0.43-0.22-0.72-0.48-0.88-0.79c-0.18-0.36-0.21-0.81-0.1-1.33c0.16-0.74,0.49-1.32,1.01-1.73
		c0.57-0.45,1.34-0.67,2.32-0.67h0.2l2.06,0.09l0.41,0.03c0.11,0,0.23-0.01,0.37-0.02C1067.3,429.98,1067.4,429.97,1067.48,429.96
		 M1062.78,437.04c-1.54,0-2.43,0.6-2.69,1.8c-0.13,0.59-0.03,1.04,0.3,1.34c0.33,0.31,0.82,0.46,1.48,0.46
		c0.64,0,1.2-0.14,1.68-0.42c0.59-0.34,0.96-0.84,1.1-1.5c0.15-0.7,0.02-1.17-0.37-1.42C1064,437.13,1063.51,437.04,1062.78,437.04
		 M1061.94,432.27l-0.06,0.15c-0.11,0.52-0.05,0.96,0.17,1.33c0.22,0.37,0.58,0.56,1.09,0.56c0.53,0,0.98-0.19,1.35-0.57
		c0.37-0.37,0.62-0.84,0.74-1.38c0.13-0.63,0.11-1.12-0.05-1.46c-0.18-0.39-0.57-0.59-1.13-0.59c-0.53,0-0.99,0.18-1.36,0.53
		C1062.31,431.21,1062.06,431.68,1061.94,432.27"/>
	<path d="M1067.96,437.19l2.4-11.29l0.59,0.03l0.61-0.03l-1.16,5.47c0.36-0.48,0.77-0.84,1.23-1.09c0.46-0.25,0.96-0.38,1.48-0.38
		c0.85,0,1.41,0.25,1.7,0.74c0.28,0.49,0.32,1.23,0.11,2.2l-0.93,4.35l-0.58-0.06c-0.11,0-0.19,0-0.26,0.01
		c-0.06,0.01-0.18,0.02-0.36,0.05l0.86-4.02c0.19-0.87,0.2-1.49,0.05-1.86c-0.17-0.42-0.57-0.63-1.2-0.63c-0.67,0-1.2,0.2-1.61,0.6
		c-0.4,0.4-0.69,1-0.86,1.8l-0.87,4.11l-0.59-0.06c-0.11,0-0.2,0-0.26,0.01C1068.26,437.15,1068.14,437.16,1067.96,437.19"/>
	<path d="M1081.57,435.15h0.15c0.22,0.53,0.47,0.91,0.76,1.14c0.34,0.28,0.79,0.42,1.35,0.42c0.61,0,1.16-0.21,1.65-0.64
		c0.48-0.43,0.79-0.95,0.93-1.55c0.16-0.77-0.12-1.36-0.84-1.77c-0.69-0.33-1.38-0.67-2.05-1c-0.71-0.5-0.97-1.23-0.77-2.18
		c0.2-0.93,0.68-1.66,1.45-2.18c0.7-0.47,1.53-0.7,2.49-0.7c0.39,0,0.77,0.06,1.13,0.18c0.36,0.12,0.65,0.3,0.88,0.54
		c-0.09,0.14-0.2,0.33-0.34,0.58c-0.14,0.24-0.25,0.46-0.35,0.65h-0.15c-0.06-0.41-0.23-0.73-0.51-0.97
		c-0.28-0.23-0.63-0.35-1.07-0.35c-0.52,0-1,0.17-1.44,0.5c-0.44,0.33-0.71,0.75-0.82,1.27c-0.16,0.76,0.12,1.35,0.85,1.77
		c0.69,0.34,1.38,0.68,2.07,1c0.72,0.48,0.98,1.17,0.79,2.06c-0.23,1.05-0.77,1.9-1.64,2.54c-0.81,0.61-1.75,0.92-2.81,0.92
		c-0.41,0-0.84-0.08-1.29-0.24c-0.45-0.16-0.77-0.38-0.96-0.66c0.09-0.16,0.18-0.35,0.27-0.57
		C1081.38,435.68,1081.47,435.43,1081.57,435.15"/>
	<path d="M1096.29,430.53l-0.54,0.99h-0.12c-0.01-0.01-0.04-0.08-0.1-0.19c-0.06-0.12-0.13-0.23-0.21-0.32
		c-0.12-0.19-0.31-0.33-0.55-0.44c-0.25-0.11-0.51-0.16-0.8-0.16c-0.82,0-1.53,0.32-2.13,0.95c-0.55,0.58-0.92,1.29-1.1,2.14
		c-0.21,0.97-0.13,1.76,0.24,2.37c0.37,0.61,0.97,0.91,1.8,0.91c0.42,0,0.81-0.09,1.18-0.26c0.28-0.13,0.65-0.37,1.1-0.7l0.08,0.03
		l-0.23,0.69c-0.39,0.26-0.8,0.45-1.21,0.59c-0.41,0.13-0.83,0.2-1.25,0.2c-1.22,0-2.1-0.36-2.64-1.08c-0.5-0.68-0.64-1.57-0.4-2.67
		c0.24-1.14,0.79-2.04,1.64-2.69c0.85-0.65,1.85-0.98,3-0.98c0.47,0,0.88,0.05,1.23,0.14
		C1095.62,430.12,1095.96,430.29,1096.29,430.53"/>
	<path d="M1096.98,437.19l2.4-11.29l0.59,0.03l0.61-0.03l-1.16,5.47c0.36-0.48,0.77-0.84,1.23-1.09c0.46-0.25,0.96-0.38,1.48-0.38
		c0.85,0,1.42,0.25,1.7,0.74c0.28,0.49,0.32,1.23,0.11,2.2l-0.92,4.35l-0.58-0.06c-0.11,0-0.19,0-0.26,0.01
		c-0.06,0.01-0.18,0.02-0.36,0.05l0.86-4.02c0.18-0.87,0.2-1.49,0.05-1.86c-0.17-0.42-0.57-0.63-1.2-0.63c-0.67,0-1.2,0.2-1.61,0.6
		c-0.4,0.4-0.69,1-0.86,1.8l-0.87,4.11l-0.59-0.06c-0.11,0-0.2,0-0.26,0.01C1097.28,437.15,1097.16,437.16,1096.98,437.19"/>
	<path d="M1105.85,433.53c0.23-1.07,0.74-1.94,1.53-2.62c0.78-0.67,1.68-1.01,2.67-1.01c0.95,0,1.63,0.34,2.07,1
		c0.44,0.67,0.54,1.56,0.3,2.66c-0.22,1.03-0.69,1.9-1.41,2.59c-0.8,0.77-1.72,1.16-2.78,1.16c-0.9,0-1.58-0.31-2.05-0.93
		c-0.5-0.67-0.64-1.5-0.43-2.52L1105.85,433.53z M1109.92,430.38c-0.77,0-1.43,0.36-1.97,1.08c-0.44,0.59-0.76,1.35-0.96,2.28
		c-0.18,0.85-0.17,1.55,0.03,2.1c0.24,0.66,0.72,0.99,1.44,0.99c0.7,0,1.33-0.4,1.88-1.22c0.43-0.64,0.73-1.35,0.9-2.12
		c0.18-0.82,0.19-1.5,0.03-2.05C1111.06,430.73,1110.61,430.38,1109.92,430.38"/>
	<path d="M1113.67,433.53c0.23-1.07,0.74-1.94,1.53-2.62c0.78-0.67,1.68-1.01,2.67-1.01c0.94,0,1.63,0.34,2.07,1
		c0.44,0.67,0.54,1.56,0.3,2.66c-0.22,1.03-0.69,1.9-1.41,2.59c-0.8,0.77-1.72,1.16-2.78,1.16c-0.9,0-1.58-0.31-2.05-0.93
		c-0.5-0.67-0.64-1.5-0.43-2.52L1113.67,433.53z M1117.73,430.38c-0.77,0-1.43,0.36-1.97,1.08c-0.44,0.59-0.76,1.35-0.96,2.28
		c-0.18,0.85-0.17,1.55,0.03,2.1c0.24,0.66,0.72,0.99,1.45,0.99c0.7,0,1.32-0.4,1.88-1.22c0.43-0.64,0.73-1.35,0.9-2.12
		c0.18-0.82,0.19-1.5,0.03-2.05C1118.88,430.73,1118.43,430.38,1117.73,430.38"/>
	<path d="M1121.73,437.19l2.4-11.29l0.59,0.03l0.61-0.03l-2.4,11.29l-0.59-0.06c-0.11,0-0.2,0-0.26,0.01
		C1122.02,437.15,1121.9,437.16,1121.73,437.19"/>
	<path d="M1130.75,437.19l1.41-6.63h-1.02l0.13-0.57h1.02l0.05-0.12c0.35-1.02,0.8-1.88,1.35-2.57c0.72-0.93,1.52-1.4,2.38-1.4h0.3
		c-0.04,0.1-0.1,0.26-0.16,0.48c-0.07,0.22-0.13,0.46-0.19,0.72l-0.07,0.06l-0.27-0.15c-0.17-0.06-0.34-0.09-0.52-0.09
		c-0.45,0-0.8,0.15-1.06,0.44c-0.26,0.3-0.44,0.68-0.53,1.15c-0.06,0.26-0.09,0.56-0.1,0.9c0,0.26,0,0.45-0.01,0.57h1.53l-0.1,0.3
		l-0.03,0.27h-1.5l-1.41,6.63c-0.09-0.02-0.18-0.03-0.27-0.04s-0.19-0.01-0.32-0.01c-0.1,0-0.21,0.01-0.33,0.02
		C1130.92,437.17,1130.82,437.18,1130.75,437.19"/>
	<path d="M1135.3,433.53c0.23-1.07,0.74-1.94,1.52-2.62c0.79-0.67,1.68-1.01,2.67-1.01c0.94,0,1.63,0.34,2.07,1
		c0.44,0.67,0.54,1.56,0.31,2.66c-0.22,1.03-0.69,1.9-1.41,2.59c-0.8,0.77-1.72,1.16-2.79,1.16c-0.9,0-1.58-0.31-2.05-0.93
		c-0.5-0.67-0.64-1.5-0.43-2.52L1135.3,433.53z M1139.36,430.38c-0.77,0-1.43,0.36-1.97,1.08c-0.45,0.59-0.77,1.35-0.96,2.28
		c-0.18,0.85-0.17,1.55,0.03,2.1c0.24,0.66,0.72,0.99,1.44,0.99c0.7,0,1.32-0.4,1.88-1.22c0.43-0.64,0.73-1.35,0.9-2.12
		c0.18-0.82,0.19-1.5,0.03-2.05C1140.51,430.73,1140.06,430.38,1139.36,430.38"/>
	<path d="M1143.05,437.19l1.53-7.2c0.14,0.02,0.25,0.03,0.3,0.04c0.06,0.01,0.15,0.02,0.28,0.02l0.62-0.06l-0.32,1.5l0.1-0.18
		c0.37-0.42,0.72-0.75,1.06-0.99c0.41-0.28,0.78-0.42,1.12-0.42c0.17,0,0.33,0.03,0.47,0.09l-0.48,1.26
		c-0.22-0.08-0.44-0.16-0.67-0.24c-0.4,0-0.75,0.12-1.03,0.37c-0.29,0.28-0.5,0.55-0.62,0.81c-0.12,0.26-0.23,0.63-0.33,1.11
		l-0.83,3.9l-0.59-0.06c-0.11,0-0.2,0-0.26,0.01C1143.35,437.15,1143.23,437.16,1143.05,437.19"/>
	<path d="M1154.8,428.52l1.31-0.48l-0.42,1.95h1.59l-0.1,0.33l-0.02,0.24h-1.59l-0.81,3.78l-0.14,0.51
		c-0.16,0.74-0.16,1.25-0.02,1.55c0.13,0.25,0.37,0.37,0.74,0.37c0.13,0,0.27-0.02,0.4-0.04c0.13-0.03,0.24-0.06,0.33-0.08
		l-0.08,0.37c-0.21,0.08-0.44,0.15-0.69,0.21c-0.24,0.06-0.45,0.09-0.63,0.09c-0.59,0-0.99-0.15-1.21-0.44
		c-0.24-0.34-0.28-0.9-0.12-1.69l0.08-0.24l0.94-4.38h-0.93c0.03-0.06,0.06-0.15,0.08-0.27c0.04-0.14,0.05-0.24,0.04-0.3h0.93
		L1154.8,428.52z"/>
	<path d="M1157.62,437.19l2.4-11.29l0.59,0.03l0.61-0.03l-1.16,5.47c0.36-0.48,0.77-0.84,1.23-1.09c0.46-0.25,0.96-0.38,1.48-0.38
		c0.85,0,1.41,0.25,1.7,0.74c0.28,0.49,0.32,1.23,0.11,2.2l-0.93,4.35l-0.58-0.06c-0.11,0-0.19,0-0.26,0.01
		c-0.06,0.01-0.18,0.02-0.36,0.05l0.86-4.02c0.19-0.87,0.2-1.49,0.05-1.86c-0.17-0.42-0.57-0.63-1.2-0.63c-0.67,0-1.2,0.2-1.61,0.6
		c-0.4,0.4-0.69,1-0.86,1.8l-0.87,4.11l-0.59-0.06c-0.11,0-0.2,0-0.26,0.01C1157.92,437.15,1157.8,437.16,1157.62,437.19"/>
	<path d="M1172.23,435.63l-0.19,0.78c-0.46,0.28-0.92,0.5-1.39,0.66c-0.47,0.16-0.94,0.24-1.4,0.24c-1.06,0-1.84-0.33-2.35-0.99
		c-0.51-0.66-0.64-1.57-0.4-2.73c0.23-1.08,0.71-1.96,1.44-2.63c0.77-0.71,1.71-1.06,2.81-1.06c0.84,0,1.48,0.28,1.92,0.83
		c0.49,0.61,0.62,1.45,0.4,2.54l-0.07,0.33c-0.35,0-0.93-0.01-1.74-0.03c-0.81-0.02-1.24-0.03-1.28-0.03h-2.13l-0.09,0.3
		c-0.17,0.8-0.08,1.47,0.27,2.01c0.35,0.54,0.94,0.81,1.77,0.81c0.45,0,0.92-0.12,1.41-0.36
		C1171.52,436.14,1171.86,435.92,1172.23,435.63 M1167.96,432.99h3.99c0.16-0.76,0.16-1.36,0.01-1.8c-0.2-0.54-0.63-0.82-1.31-0.82
		c-0.66,0-1.25,0.28-1.77,0.83C1168.41,431.7,1168.1,432.3,1167.96,432.99"/>
	<path d="M1189.77,428.7h-0.15c-0.31-0.47-0.74-0.83-1.27-1.07c-0.53-0.25-1.14-0.37-1.81-0.37c-1.32,0-2.45,0.41-3.41,1.24
		c-0.96,0.82-1.6,1.98-1.92,3.47c-0.32,1.52-0.19,2.7,0.39,3.54c0.58,0.84,1.61,1.27,3.08,1.27c0.42,0,0.84-0.04,1.27-0.13
		c0.43-0.09,0.82-0.21,1.19-0.39l0.82-3.84l0.65,0.03l0.67-0.03l-0.9,4.23c-0.71,0.23-1.42,0.41-2.15,0.54
		c-0.72,0.12-1.42,0.19-2.09,0.19c-1.83,0-3.13-0.51-3.89-1.52c-0.7-0.94-0.88-2.22-0.53-3.82c0.37-1.72,1.2-3.05,2.51-3.99
		c1.24-0.9,2.73-1.35,4.48-1.35c0.78,0,1.48,0.08,2.12,0.22c0.64,0.15,1.15,0.36,1.54,0.64c-0.1,0.16-0.21,0.35-0.31,0.55
		C1189.95,428.31,1189.85,428.51,1189.77,428.7"/>
	<path d="M1194.02,429.99l-1.53,7.2l-0.59-0.06c-0.11,0-0.19,0-0.25,0.01c-0.07,0.01-0.18,0.02-0.35,0.05l1.53-7.2
		c0.14,0.02,0.24,0.03,0.3,0.04c0.06,0.01,0.15,0.02,0.28,0.02L1194.02,429.99z M1194.72,427.44c-0.04,0.2-0.16,0.38-0.34,0.52
		c-0.18,0.15-0.38,0.23-0.57,0.23c-0.21,0-0.38-0.07-0.5-0.22c-0.12-0.14-0.16-0.32-0.12-0.53c0.05-0.21,0.16-0.4,0.35-0.55
		c0.19-0.16,0.39-0.23,0.6-0.23c0.2,0,0.36,0.07,0.48,0.23C1194.73,427.03,1194.76,427.22,1194.72,427.44"/>
	<path d="M1195.71,437.19l1.41-6.63h-1.02l0.12-0.57h1.02l0.05-0.12c0.35-1.02,0.8-1.88,1.35-2.57c0.72-0.93,1.52-1.4,2.38-1.4h0.3
		c-0.04,0.1-0.1,0.26-0.16,0.48c-0.07,0.22-0.13,0.46-0.19,0.72l-0.07,0.06l-0.27-0.15c-0.17-0.06-0.34-0.09-0.52-0.09
		c-0.45,0-0.81,0.15-1.06,0.44c-0.26,0.3-0.44,0.68-0.53,1.15c-0.06,0.26-0.09,0.56-0.1,0.9c0,0.26,0,0.45-0.01,0.57h1.53l-0.1,0.3
		l-0.03,0.27h-1.5l-1.41,6.63c-0.09-0.02-0.18-0.03-0.27-0.04c-0.09-0.01-0.19-0.01-0.32-0.01c-0.1,0-0.21,0.01-0.32,0.02
		C1195.88,437.17,1195.78,437.18,1195.71,437.19"/>
	<path d="M1201.91,428.52l1.3-0.48l-0.42,1.95h1.59l-0.1,0.33l-0.02,0.24h-1.59l-0.81,3.78l-0.14,0.51
		c-0.15,0.74-0.16,1.25-0.02,1.55c0.13,0.25,0.38,0.37,0.74,0.37c0.13,0,0.27-0.02,0.4-0.04c0.13-0.03,0.24-0.06,0.33-0.08
		l-0.08,0.37c-0.21,0.08-0.44,0.15-0.69,0.21c-0.24,0.06-0.46,0.09-0.63,0.09c-0.59,0-1-0.15-1.21-0.44
		c-0.24-0.34-0.28-0.9-0.12-1.69l0.08-0.24l0.94-4.38h-0.93c0.03-0.06,0.06-0.15,0.08-0.27c0.03-0.14,0.05-0.24,0.04-0.3h0.93
		L1201.91,428.52z"/>
	<path d="M1210.58,435.63l-0.19,0.78c-0.45,0.28-0.92,0.5-1.38,0.66c-0.47,0.16-0.94,0.24-1.4,0.24c-1.06,0-1.85-0.33-2.35-0.99
		c-0.51-0.66-0.64-1.57-0.4-2.73c0.23-1.08,0.71-1.96,1.44-2.63c0.77-0.71,1.71-1.06,2.81-1.06c0.84,0,1.48,0.28,1.92,0.83
		c0.49,0.61,0.62,1.45,0.4,2.54l-0.07,0.33c-0.35,0-0.93-0.01-1.74-0.03c-0.81-0.02-1.24-0.03-1.28-0.03h-2.13l-0.09,0.3
		c-0.17,0.8-0.08,1.47,0.27,2.01c0.35,0.54,0.95,0.81,1.78,0.81c0.45,0,0.92-0.12,1.41-0.36
		C1209.86,436.14,1210.2,435.92,1210.58,435.63 M1206.3,432.99h3.99c0.16-0.76,0.16-1.36,0.01-1.8c-0.2-0.54-0.63-0.82-1.31-0.82
		c-0.66,0-1.25,0.28-1.77,0.83C1206.76,431.7,1206.45,432.3,1206.3,432.99"/>
	<path d="M1221.13,425.9l-2.4,11.29l-0.6-0.06c-0.11,0-0.2,0-0.25,0.01c-0.06,0.01-0.18,0.02-0.35,0.05l0.31-1.47
		c-0.86,1.07-1.84,1.6-2.92,1.6c-0.9,0-1.56-0.3-1.96-0.9c-0.44-0.64-0.53-1.56-0.27-2.76c0.23-1.07,0.71-1.96,1.45-2.68
		c0.74-0.72,1.59-1.07,2.56-1.07c0.52,0,0.95,0.13,1.28,0.37c0.33,0.25,0.59,0.62,0.78,1.1l1.16-5.47l0.6,0.03L1221.13,425.9z
		 M1218.34,433.38c0.16-0.75,0.15-1.38-0.04-1.89c-0.23-0.64-0.7-0.96-1.4-0.96c-0.87,0-1.55,0.36-2.06,1.08
		c-0.37,0.53-0.67,1.28-0.87,2.26c-0.16,0.76-0.15,1.4,0.03,1.92c0.23,0.64,0.7,0.96,1.41,0.96c0.78,0,1.44-0.39,1.99-1.16
		C1217.84,434.98,1218.15,434.24,1218.34,433.38"/>
	<path d="M1057.87,391.18c-0.15,0.18-0.33,0.23-0.57,0.23c-9.05-0.01-18.11,0-27.16,0c-0.46,0-0.57-0.11-0.57-0.56
		c0-5.66,0-11.32,0-16.98c0-0.46,0.11-0.57,0.57-0.56c1.84,0.02,3.59-0.3,5.26-1.14c0.92-0.46,1.89-0.87,2.87-1.18
		c1.31-0.42,2.61-0.27,3.85,0.33c0.63,0.31,1.11,0.78,1.46,1.39c0.04,0.07,0.08,0.14,0.13,0.22c1.08-2.11,3.76-2.49,5.46-1.94
		c0.93,0.3,1.85,0.67,2.72,1.11c1.73,0.89,3.55,1.25,5.47,1.2c0.22-0.01,0.38,0.06,0.51,0.24V391.18z M1030.84,390.31
		c0.03,0,0.08,0,0.13-0.01c1.11-0.27,2.23-0.49,3.32-0.82c1.33-0.41,2.65-0.88,4.03-1.13c1.73-0.31,3.22,0.09,4.48,1.32
		c0.04,0.04,0.1,0.08,0.2,0.16v-0.38c0-4.84-0.02-9.68,0.02-14.52c0.01-0.72-0.23-1.23-0.72-1.69c-0.02-0.02-0.04-0.04-0.06-0.06
		c-1.11-1.08-2.39-1.44-3.87-0.88c-0.63,0.24-1.26,0.51-1.88,0.79c-1.32,0.61-2.71,0.99-4.16,1.11c-0.48,0.04-0.96,0.05-1.48,0.08
		V390.31z M1056.58,390.32v-15.99c-0.07-0.03-0.09-0.04-0.11-0.04c-0.07-0.01-0.13-0.01-0.2-0.01c-1.75-0.01-3.43-0.33-5.04-1.05
		c-0.61-0.27-1.22-0.55-1.84-0.8c-0.66-0.27-1.34-0.46-2.07-0.35c-1.19,0.18-2.04,0.88-2.72,1.82c-0.1,0.13-0.16,0.33-0.16,0.49
		c-0.01,5.04,0,10.08,0,15.11v0.32c0.09-0.07,0.13-0.09,0.17-0.13c1.29-1.27,2.81-1.67,4.58-1.33c1.3,0.25,2.56,0.64,3.81,1.08
		C1054.17,389.85,1055.36,390.16,1056.58,390.32"/>
	<path class="st1" d="M1023.04,371.69c0,6.28-5.09,11.38-11.38,11.38c-6.28,0-11.38-5.09-11.38-11.38c0-6.28,5.09-11.38,11.38-11.38
		C1017.94,360.31,1023.04,365.41,1023.04,371.69"/>
	<path d="M1010.5,359.36h2.53c0.6,0.13,1.2,0.23,1.8,0.38c8.64,2.18,12.32,12.36,7.07,19.57c-1.88,2.58-3.83,5.11-5.74,7.67
		c-1.45,1.94-2.88,3.89-4.32,5.84h-0.15c-0.1-0.17-0.19-0.34-0.31-0.5c-3.25-4.34-6.54-8.64-9.75-13.02c-5-6.82-1.98-16.46,6-19.24
		C1008.57,359.76,1009.54,359.6,1010.5,359.36 M1011.75,361.5c-5.72,0-10.41,4.7-10.41,10.42c0,5.7,4.72,10.4,10.43,10.4
		c5.72-0.01,10.41-4.71,10.4-10.42C1022.17,366.18,1017.48,361.5,1011.75,361.5"/>
	<polygon points="1007.27,369 1007.25,369 1005.8,369.69 1005.5,368.35 1007.52,367.42 1009,367.42 1009,375.03 1007.27,375.03 	"/>
	<path d="M1011.51,375.03v-1.08l0.98-0.89c1.66-1.49,2.47-2.34,2.5-3.23c0-0.62-0.38-1.11-1.25-1.11c-0.66,0-1.23,0.33-1.63,0.63
		l-0.5-1.28c0.57-0.43,1.46-0.78,2.5-0.78c1.72,0,2.67,1.01,2.67,2.39c0,1.28-0.93,2.3-2.03,3.28l-0.7,0.59v0.02h2.87v1.46H1011.51z
		"/>
</g>
<g>
	<path d="M749.6,145.78l2.03-9.56h2.74c1.07,0,1.82,0.15,2.27,0.44c0.44,0.3,0.59,0.79,0.44,1.49c-0.14,0.64-0.47,1.18-0.99,1.62
		c-0.48,0.42-1.07,0.71-1.76,0.87c0.67,0,1.2,0.16,1.6,0.48c0.5,0.39,0.67,0.96,0.51,1.71c-0.21,1.01-0.8,1.8-1.76,2.38
		c-0.36,0.23-0.74,0.37-1.15,0.45c-0.41,0.08-0.88,0.11-1.4,0.11H749.6z M751.86,140.96l-0.91,4.29h1.32c0.69,0,1.29-0.2,1.82-0.6
		c0.52-0.4,0.85-0.92,0.99-1.55c0.16-0.77,0.01-1.34-0.46-1.68c-0.4-0.3-1.06-0.45-1.98-0.45H751.86z M752.75,136.76l-0.79,3.7
		l0.53,0.03c0.32,0,0.63-0.03,0.95-0.08c0.31-0.05,0.62-0.14,0.91-0.26c0.8-0.32,1.28-0.88,1.45-1.68c0.14-0.64,0.02-1.09-0.35-1.36
		c-0.33-0.23-0.88-0.35-1.67-0.35H752.75z"/>
	<path d="M764.85,139.11l-1.43,6.73l-0.55-0.05c-0.1,0-0.18,0-0.24,0.01c-0.06,0.01-0.17,0.02-0.33,0.05l0.26-1.23
		c-0.66,0.9-1.51,1.35-2.53,1.35c-0.77,0-1.3-0.22-1.59-0.65c-0.29-0.44-0.33-1.13-0.13-2.07l0.88-4.12
		c0.13,0.02,0.23,0.03,0.28,0.04c0.06,0.01,0.14,0.01,0.27,0.01l0.57-0.06l-0.81,3.78c-0.16,0.79-0.16,1.37,0,1.77
		c0.17,0.39,0.56,0.59,1.18,0.59c0.65,0,1.16-0.25,1.56-0.75c0.31-0.38,0.53-0.89,0.66-1.52l0.82-3.87
		c0.13,0.02,0.23,0.03,0.28,0.04c0.06,0.01,0.14,0.01,0.26,0.01L764.85,139.11z"/>
	<path d="M765.7,142.42c0.21-1,0.69-1.81,1.42-2.44c0.73-0.63,1.57-0.94,2.49-0.94c0.88,0,1.53,0.31,1.93,0.94
		c0.41,0.62,0.5,1.45,0.29,2.48c-0.21,0.96-0.65,1.77-1.31,2.42c-0.74,0.72-1.61,1.08-2.6,1.08c-0.84,0-1.48-0.29-1.92-0.87
		c-0.47-0.62-0.6-1.41-0.4-2.35L765.7,142.42z M769.49,139.47c-0.72,0-1.33,0.34-1.84,1.01c-0.42,0.55-0.71,1.26-0.9,2.13
		c-0.17,0.79-0.16,1.45,0.03,1.96c0.22,0.62,0.67,0.92,1.35,0.92c0.65,0,1.24-0.38,1.75-1.14c0.41-0.6,0.69-1.26,0.84-1.98
		c0.16-0.77,0.17-1.41,0.03-1.92C770.56,139.81,770.14,139.47,769.49,139.47"/>
	<path d="M772.93,145.84l1.43-6.73c0.14,0.02,0.23,0.03,0.28,0.04c0.06,0.01,0.14,0.01,0.26,0.01l0.58-0.05l-0.28,1.29
		c0.33-0.44,0.72-0.78,1.15-1.02c0.43-0.24,0.9-0.36,1.38-0.36c0.8,0,1.33,0.22,1.59,0.67c0.26,0.45,0.29,1.14,0.09,2.07l-0.86,4.07
		l-0.55-0.06c-0.1,0-0.18,0-0.24,0.01c-0.06,0.01-0.17,0.02-0.34,0.05l0.8-3.76c0.16-0.75,0.18-1.29,0.06-1.64
		c-0.14-0.46-0.52-0.69-1.13-0.69c-0.69,0-1.23,0.25-1.62,0.76c-0.33,0.43-0.6,1.11-0.79,2.04l-0.7,3.28l-0.55-0.06
		c-0.1,0-0.19,0-0.24,0.01C773.2,145.8,773.09,145.81,772.93,145.84"/>
	<path d="M796.75,136.22h0.28c-0.21,1.88-0.33,3.02-0.36,3.44c-0.08,0.75-0.18,1.83-0.3,3.26c-0.09,1.02-0.16,1.99-0.23,2.91
		c-0.19-0.02-0.33-0.03-0.41-0.04c-0.08-0.01-0.16-0.01-0.25-0.01c-0.2,0-0.34,0.01-0.43,0.01c-0.1,0.03-0.18,0.04-0.23,0.04
		c0.11-0.94,0.23-1.89,0.35-2.84c0.12-0.95,0.22-1.8,0.3-2.56c0.08-0.76,0.14-1.38,0.17-1.87c-0.72,0.94-1.41,1.84-2.07,2.71
		c-0.6,0.79-1.17,1.57-1.72,2.35c-0.55,0.77-1.01,1.45-1.39,2.04h-0.14l-0.45-1.6c-0.18-0.7-0.36-1.3-0.51-1.81
		c-0.15-0.51-0.34-1.13-0.57-1.85c-0.2-0.61-0.39-1.22-0.58-1.83c-1.01,3.11-1.54,4.75-1.59,4.92c-0.28,0.93-0.49,1.71-0.63,2.34
		c-0.12-0.03-0.21-0.04-0.27-0.05c-0.06,0-0.13-0.01-0.22-0.01c-0.09,0-0.18,0.01-0.28,0.02c-0.1,0.01-0.18,0.03-0.24,0.03
		c0.46-1.25,1.09-2.99,1.88-5.22c0.79-2.23,1.3-3.69,1.52-4.4h0.36c0.22,0.75,0.45,1.53,0.69,2.34c0.28,0.92,0.54,1.75,0.79,2.5
		c0.31,0.92,0.63,1.75,0.93,2.5c0.76-0.99,1.37-1.79,1.83-2.39c0.61-0.81,1.22-1.61,1.81-2.4
		C795.39,137.98,796.04,137.13,796.75,136.22"/>
	<path d="M803.95,141.38l-0.69,3.25l-0.07,0.2c-0.04,0.19-0.05,0.32-0.02,0.41c0.03,0.08,0.12,0.13,0.27,0.13l0.46-0.09l-0.07,0.31
		c-0.13,0.07-0.28,0.12-0.45,0.14l-0.52,0.05c-0.27,0-0.47-0.06-0.61-0.19c-0.14-0.13-0.19-0.35-0.16-0.67l-0.14,0.14
		c-0.73,0.6-1.49,0.9-2.27,0.9c-0.52,0-0.93-0.16-1.22-0.48c-0.3-0.32-0.39-0.74-0.28-1.25c0.12-0.55,0.37-0.98,0.76-1.28
		c0.39-0.3,1.15-0.55,2.28-0.74c0.49-0.08,0.81-0.14,0.97-0.18c0.39-0.12,0.63-0.37,0.7-0.74c0.12-0.52,0.06-0.93-0.16-1.22
		c-0.22-0.29-0.6-0.43-1.14-0.43c-0.46,0-0.87,0.12-1.26,0.36c-0.29,0.19-0.5,0.39-0.6,0.62h-0.17l0.16-0.78
		c0.42-0.26,0.83-0.45,1.22-0.59c0.4-0.13,0.8-0.2,1.22-0.2C803.69,139.03,804.29,139.81,803.95,141.38 M802.19,144.38l0.43-2.05
		l-0.52,0.08c-0.87,0.17-1.41,0.3-1.63,0.4c-0.61,0.25-0.98,0.65-1.1,1.21c-0.09,0.44-0.04,0.77,0.15,0.98
		c0.19,0.22,0.51,0.33,0.95,0.33c0.2,0,0.41-0.05,0.64-0.15c0.23-0.1,0.43-0.23,0.59-0.37c0.09-0.06,0.19-0.13,0.3-0.23
		C802.12,144.48,802.18,144.42,802.19,144.38"/>
	<path d="M815.32,136.9l-1.9,8.96c-0.11-0.02-0.21-0.03-0.3-0.04c-0.09-0.01-0.19-0.01-0.3-0.01c-0.11,0-0.23,0.01-0.35,0.02
		c-0.12,0.01-0.21,0.02-0.27,0.03l1.9-8.96c-0.73,0-1.25,0.01-1.56,0.03c-0.31,0.02-0.83,0.06-1.56,0.14
		c0.02-0.06,0.05-0.13,0.08-0.2c0.03-0.07,0.05-0.14,0.07-0.22c0.01-0.07,0.02-0.14,0.02-0.22c0-0.08,0.01-0.15,0.01-0.21h7.23
		l-0.12,0.42l-0.06,0.42c-0.35-0.05-0.77-0.08-1.28-0.12C816.41,136.92,815.88,136.9,815.32,136.9"/>
	<path d="M818.13,145.84l2.24-10.54l0.55,0.03l0.57-0.03l-1.08,5.1c0.33-0.44,0.72-0.78,1.15-1.02c0.43-0.24,0.9-0.36,1.38-0.36
		c0.79,0,1.32,0.23,1.58,0.69c0.26,0.46,0.3,1.14,0.1,2.05l-0.86,4.07l-0.55-0.06c-0.1,0-0.18,0-0.24,0.01
		c-0.06,0.01-0.17,0.02-0.34,0.05l0.8-3.76c0.17-0.81,0.19-1.39,0.05-1.74c-0.16-0.39-0.53-0.59-1.12-0.59
		c-0.63,0-1.13,0.19-1.5,0.56c-0.38,0.37-0.64,0.94-0.8,1.68l-0.82,3.84l-0.55-0.06c-0.1,0-0.19,0-0.24,0.01
		C818.4,145.8,818.29,145.81,818.13,145.84"/>
	<path d="M832.89,139.11l-1.43,6.73l-0.55-0.05c-0.1,0-0.18,0-0.24,0.01c-0.06,0.01-0.17,0.02-0.33,0.05l0.26-1.23
		c-0.66,0.9-1.51,1.35-2.53,1.35c-0.77,0-1.3-0.22-1.59-0.65c-0.29-0.44-0.33-1.13-0.13-2.07l0.88-4.12
		c0.14,0.02,0.23,0.03,0.28,0.04c0.06,0.01,0.14,0.01,0.27,0.01l0.57-0.06l-0.81,3.78c-0.16,0.79-0.16,1.37,0,1.77
		c0.17,0.39,0.56,0.59,1.18,0.59c0.64,0,1.16-0.25,1.56-0.75c0.31-0.38,0.53-0.89,0.66-1.52l0.82-3.87
		c0.13,0.02,0.23,0.03,0.28,0.04c0.05,0.01,0.14,0.01,0.26,0.01L832.89,139.11z"/>
	<path d="M833.74,142.42c0.21-1,0.69-1.81,1.42-2.44c0.73-0.63,1.57-0.94,2.49-0.94c0.88,0,1.52,0.31,1.93,0.94
		c0.41,0.62,0.5,1.45,0.29,2.48c-0.21,0.96-0.65,1.77-1.31,2.42c-0.74,0.72-1.61,1.08-2.6,1.08c-0.84,0-1.48-0.29-1.92-0.87
		c-0.47-0.62-0.6-1.41-0.4-2.35L833.74,142.42z M837.53,139.47c-0.72,0-1.33,0.34-1.84,1.01c-0.42,0.55-0.71,1.26-0.9,2.13
		c-0.17,0.79-0.16,1.45,0.03,1.96c0.22,0.62,0.67,0.92,1.35,0.92c0.65,0,1.24-0.38,1.75-1.14c0.41-0.6,0.69-1.26,0.84-1.98
		c0.16-0.77,0.17-1.41,0.03-1.92C838.6,139.81,838.18,139.47,837.53,139.47"/>
	<path d="M842.61,137.73l1.22-0.45l-0.39,1.82h1.48l-0.09,0.31l-0.02,0.22h-1.48l-0.75,3.53l-0.13,0.48
		c-0.14,0.69-0.15,1.17-0.01,1.44c0.12,0.23,0.35,0.35,0.69,0.35c0.12,0,0.25-0.01,0.37-0.04c0.12-0.03,0.23-0.05,0.31-0.08
		l-0.08,0.34c-0.2,0.07-0.41,0.14-0.64,0.2c-0.23,0.06-0.42,0.09-0.59,0.09c-0.55,0-0.93-0.14-1.13-0.41
		c-0.23-0.31-0.27-0.84-0.11-1.58l0.08-0.23l0.87-4.09h-0.87c0.03-0.05,0.06-0.14,0.08-0.25c0.03-0.13,0.04-0.22,0.03-0.28h0.87
		L842.61,137.73z"/>
	<path d="M780.78,153.18l-1.15,5.39c-0.27,1.29-0.26,2.22,0.05,2.79c0.35,0.62,1.1,0.94,2.27,0.94c1.05,0,1.91-0.36,2.57-1.07
		c0.59-0.65,1.02-1.58,1.28-2.79l1.12-5.24c0.14,0.04,0.27,0.06,0.38,0.06l0.4-0.06l-1.19,5.58c-0.29,1.35-0.87,2.4-1.76,3.12
		c-0.89,0.73-1.96,1.09-3.22,1.09c-0.69,0-1.27-0.08-1.72-0.25c-0.45-0.16-0.83-0.42-1.14-0.77c-0.31-0.35-0.48-0.84-0.5-1.45
		c-0.02-0.47,0.04-1.04,0.18-1.71l1.2-5.61c0.16,0.02,0.28,0.03,0.33,0.04c0.06,0.01,0.15,0.01,0.27,0.01
		c0.16,0,0.29-0.01,0.39-0.03C780.65,153.19,780.73,153.18,780.78,153.18"/>
	<path d="M787.82,162.8l1.43-6.73c0.14,0.02,0.23,0.03,0.28,0.04c0.05,0.01,0.14,0.01,0.26,0.01l0.57-0.05l-0.27,1.29
		c0.33-0.44,0.72-0.78,1.15-1.02c0.43-0.24,0.89-0.36,1.38-0.36c0.8,0,1.33,0.22,1.59,0.67c0.26,0.45,0.29,1.14,0.09,2.07
		l-0.86,4.07l-0.55-0.06c-0.1,0-0.18,0-0.24,0.01c-0.06,0.01-0.17,0.02-0.33,0.05l0.8-3.76c0.16-0.75,0.18-1.29,0.06-1.64
		c-0.14-0.46-0.52-0.69-1.14-0.69c-0.69,0-1.23,0.25-1.62,0.76c-0.33,0.43-0.6,1.11-0.79,2.04l-0.7,3.28l-0.55-0.06
		c-0.1,0-0.19,0-0.24,0.01C788.1,162.76,787.98,162.77,787.82,162.8"/>
	<path d="M798.89,156.07l-1.43,6.73l-0.55-0.06c-0.1,0-0.18,0-0.24,0.01c-0.06,0.01-0.17,0.02-0.33,0.05l1.43-6.73
		c0.13,0.02,0.23,0.03,0.28,0.04c0.05,0.01,0.14,0.01,0.26,0.01L798.89,156.07z M799.54,153.69c-0.04,0.19-0.15,0.35-0.32,0.49
		c-0.17,0.14-0.35,0.21-0.54,0.21c-0.2,0-0.35-0.07-0.47-0.2c-0.11-0.13-0.15-0.3-0.11-0.5c0.04-0.2,0.15-0.37,0.33-0.51
		c0.18-0.15,0.36-0.22,0.56-0.22c0.18,0,0.33,0.07,0.44,0.21C799.55,153.31,799.58,153.48,799.54,153.69"/>
	<path d="M804.77,159.1l1.77-3.03c0.06,0.02,0.12,0.03,0.18,0.04c0.06,0.01,0.15,0.01,0.25,0.01c0.07,0,0.23-0.02,0.46-0.06
		c-0.31,0.46-0.75,1.12-1.33,1.99c-0.51,0.78-1.04,1.59-1.58,2.44c-0.63,1.02-1.09,1.79-1.38,2.3l-0.4-0.06
		c-0.11,0-0.27,0.02-0.47,0.06c-0.11-0.79-0.29-1.85-0.54-3.17c-0.25-1.32-0.51-2.5-0.77-3.56c0.25,0.04,0.46,0.06,0.63,0.06
		c0.09,0,0.19-0.01,0.32-0.02c0.12-0.01,0.23-0.03,0.31-0.04c0.06,0.66,0.17,1.48,0.34,2.46c0.17,0.99,0.36,1.97,0.58,2.95
		c0.01-0.02,0.07-0.08,0.18-0.2c0.11-0.11,0.17-0.18,0.18-0.2L804.77,159.1z"/>
	<path d="M813.1,161.34l-0.18,0.73c-0.42,0.26-0.86,0.47-1.29,0.62c-0.44,0.15-0.87,0.23-1.31,0.23c-0.99,0-1.72-0.31-2.2-0.93
		c-0.47-0.62-0.6-1.47-0.37-2.55c0.22-1.01,0.67-1.83,1.34-2.46c0.72-0.66,1.6-0.99,2.62-0.99c0.79,0,1.38,0.26,1.79,0.77
		c0.46,0.57,0.58,1.35,0.37,2.37l-0.07,0.31c-0.33,0-0.87-0.01-1.63-0.03c-0.76-0.02-1.16-0.03-1.19-0.03H809l-0.08,0.28
		c-0.16,0.75-0.08,1.37,0.25,1.88c0.33,0.5,0.88,0.76,1.66,0.76c0.42,0,0.86-0.11,1.31-0.33
		C812.43,161.82,812.75,161.61,813.1,161.34 M809.11,158.88h3.73c0.15-0.71,0.15-1.27,0.01-1.68c-0.18-0.5-0.59-0.76-1.23-0.76
		c-0.62,0-1.16,0.26-1.65,0.77C809.53,157.67,809.24,158.23,809.11,158.88"/>
	<path d="M815,162.8l1.43-6.73c0.14,0.02,0.23,0.03,0.28,0.04c0.05,0.01,0.14,0.01,0.26,0.01l0.58-0.05l-0.3,1.4l0.1-0.17
		c0.34-0.39,0.67-0.7,0.99-0.92c0.38-0.26,0.73-0.39,1.05-0.39c0.16,0,0.31,0.03,0.44,0.08l-0.45,1.18
		c-0.21-0.07-0.41-0.15-0.62-0.23c-0.38,0-0.7,0.11-0.97,0.34c-0.27,0.26-0.47,0.51-0.58,0.75c-0.11,0.24-0.22,0.59-0.31,1.04
		l-0.77,3.64l-0.55-0.06c-0.1,0-0.19,0-0.24,0.01C815.27,162.76,815.16,162.77,815,162.8"/>
	<path d="M820.14,161.42h0.11c0.13,0.29,0.31,0.54,0.55,0.74c0.24,0.2,0.52,0.3,0.83,0.3c0.37,0,0.72-0.12,1.04-0.35
		c0.32-0.24,0.52-0.55,0.61-0.93c0.12-0.57-0.33-1.01-1.37-1.33c-1.04-0.32-1.46-0.91-1.28-1.78c0.14-0.65,0.46-1.16,0.98-1.52
		c0.51-0.36,1.1-0.55,1.76-0.55c0.33,0,0.64,0.04,0.94,0.12c0.22,0.06,0.41,0.14,0.56,0.24c-0.21,0.34-0.4,0.68-0.55,1.01h-0.11
		c-0.06-0.26-0.17-0.48-0.35-0.66c-0.18-0.18-0.4-0.28-0.66-0.28c-0.37,0-0.7,0.1-0.97,0.3c-0.27,0.2-0.45,0.48-0.53,0.86
		c-0.12,0.56,0.33,1.02,1.36,1.37c1.02,0.36,1.45,0.93,1.29,1.71c-0.15,0.7-0.54,1.26-1.19,1.68c-0.57,0.37-1.2,0.56-1.87,0.56
		c-0.65,0-1.2-0.16-1.66-0.48c0.12-0.23,0.21-0.39,0.28-0.51C820.02,161.7,820.1,161.54,820.14,161.42"/>
	<path d="M828.73,156.07l-1.43,6.73l-0.55-0.06c-0.1,0-0.18,0-0.24,0.01c-0.06,0.01-0.17,0.02-0.33,0.05l1.43-6.73
		c0.13,0.02,0.23,0.03,0.28,0.04c0.05,0.01,0.14,0.01,0.26,0.01L828.73,156.07z M829.38,153.69c-0.04,0.19-0.15,0.35-0.32,0.49
		c-0.17,0.14-0.35,0.21-0.54,0.21c-0.2,0-0.35-0.07-0.47-0.2c-0.11-0.13-0.15-0.3-0.11-0.5c0.04-0.2,0.15-0.37,0.33-0.51
		c0.18-0.15,0.36-0.22,0.56-0.22c0.19,0,0.34,0.07,0.44,0.21C829.39,153.31,829.42,153.48,829.38,153.69"/>
	<path d="M831.81,154.69l1.22-0.45l-0.39,1.82h1.48l-0.09,0.31l-0.02,0.22h-1.48l-0.75,3.53l-0.13,0.48
		c-0.14,0.69-0.15,1.17-0.01,1.44c0.12,0.23,0.35,0.35,0.69,0.35c0.12,0,0.25-0.01,0.37-0.04c0.12-0.03,0.23-0.05,0.31-0.08
		l-0.08,0.34c-0.2,0.07-0.41,0.14-0.64,0.2c-0.23,0.06-0.42,0.09-0.59,0.09c-0.55,0-0.93-0.14-1.13-0.41
		c-0.23-0.31-0.27-0.84-0.11-1.58l0.08-0.23l0.87-4.09h-0.87c0.03-0.05,0.05-0.14,0.08-0.25c0.03-0.13,0.04-0.22,0.03-0.28h0.87
		L831.81,154.69z"/>
	<path d="M836.67,162.71l-1.42-6.64c0.11,0.02,0.22,0.03,0.32,0.04c0.1,0.01,0.22,0.01,0.34,0.01c0.1,0,0.22-0.01,0.36-0.02
		c0.13-0.02,0.24-0.03,0.33-0.04c0.09,0.88,0.21,1.72,0.36,2.53c0.14,0.81,0.35,1.7,0.61,2.68c0.43-0.62,0.96-1.44,1.6-2.49
		c0.64-1.04,1.18-1.95,1.61-2.73c0.07,0.02,0.14,0.03,0.22,0.04c0.08,0.01,0.16,0.01,0.26,0.01c0.07,0,0.22-0.02,0.45-0.06
		c-1.42,2.14-2.2,3.32-2.35,3.55c-1.1,1.65-1.85,2.77-2.24,3.38c-0.84,1.3-1.56,2.43-2.14,3.39c-0.08-0.02-0.16-0.03-0.23-0.04
		c-0.07-0.01-0.15-0.01-0.24-0.01c-0.13,0-0.23,0.01-0.3,0.01c-0.09,0.03-0.15,0.04-0.19,0.04L836.67,162.71z"/>
	<path class="st3" d="M750.36,113.25v9.9c-0.12-0.02-0.24-0.04-0.34-0.05c-0.1-0.01-0.21-0.02-0.34-0.02
		c-0.12,0-0.25,0.01-0.38,0.02c-0.13,0.01-0.23,0.03-0.3,0.04v-9.9c-0.81,0-1.38,0.01-1.71,0.03c-0.34,0.02-0.9,0.07-1.7,0.15
		c0.01-0.07,0.02-0.14,0.04-0.22c0.02-0.07,0.02-0.15,0.02-0.25c0-0.08-0.01-0.15-0.02-0.24c-0.01-0.09-0.03-0.16-0.04-0.23h7.99
		l-0.03,0.47l0.03,0.46c-0.39-0.05-0.87-0.09-1.44-0.13C751.58,113.27,750.98,113.25,750.36,113.25"/>
	<path class="st3" d="M755,123.12v-7.42c0.16,0.02,0.27,0.03,0.32,0.04c0.06,0.01,0.16,0.02,0.29,0.02l0.62-0.06v1.55l0.06-0.19
		c0.29-0.43,0.58-0.77,0.88-1.02c0.36-0.29,0.71-0.43,1.06-0.43c0.17,0,0.34,0.03,0.5,0.09l-0.22,1.3
		c-0.25-0.08-0.49-0.16-0.74-0.25c-0.41,0-0.74,0.13-0.99,0.38c-0.24,0.29-0.4,0.56-0.46,0.83c-0.07,0.27-0.1,0.65-0.1,1.15v4.02
		l-0.62-0.06c-0.11,0-0.2,0-0.26,0.01C755.3,123.07,755.18,123.09,755,123.12"/>
	<path class="st3" d="M765.64,116.03c0.2-0.05,0.33-0.13,0.41-0.24c0.08-0.11,0.12-0.25,0.12-0.41c0-0.21-0.04-0.35-0.12-0.43
		c-0.04-0.05-0.13-0.08-0.28-0.09c-0.15-0.01-0.24-0.03-0.25-0.07v-0.93l0.46,0.07h1.03l-0.03,0.24v0.59c0,0.27-0.03,0.51-0.08,0.7
		c-0.05,0.2-0.16,0.4-0.33,0.59c-0.12,0.15-0.25,0.25-0.39,0.31c-0.14,0.06-0.32,0.1-0.54,0.12v6.62l-0.62-0.06
		c-0.11,0-0.2,0-0.26,0.01c-0.07,0-0.18,0.02-0.35,0.05v-1.36c-0.52,0.99-1.34,1.49-2.48,1.49c-0.86,0-1.49-0.24-1.91-0.72
		c-0.42-0.48-0.63-1.24-0.63-2.29v-4.55c0.15,0.02,0.26,0.04,0.32,0.05c0.06,0.01,0.16,0.01,0.29,0.01l0.62-0.06v4.18
		c0,0.87,0.14,1.52,0.42,1.95c0.28,0.43,0.76,0.65,1.44,0.65c0.71,0,1.22-0.28,1.54-0.83c0.25-0.42,0.38-0.98,0.38-1.68v-4.27
		c0.15,0.02,0.26,0.04,0.32,0.05c0.06,0.01,0.16,0.01,0.29,0.01l0.62-0.06V116.03z"/>
	<path class="st3" d="M772.48,116.53c0.11-0.02,0.22-0.05,0.34-0.09c0.11-0.04,0.2-0.11,0.27-0.2c0.07-0.09,0.1-0.22,0.1-0.38
		c0-0.08-0.02-0.14-0.05-0.2c-0.04-0.06-0.08-0.11-0.14-0.16c-0.03-0.06-0.12-0.09-0.28-0.1c-0.15-0.01-0.24-0.03-0.25-0.06v-0.93
		l0.46,0.06h1.02l-0.03,0.25v0.59c0,0.3-0.01,0.53-0.04,0.69c-0.03,0.17-0.13,0.34-0.29,0.53c-0.2,0.23-0.44,0.37-0.74,0.43
		c0.45,0.65,0.68,1.45,0.68,2.42c0,1.06-0.29,1.96-0.88,2.67c-0.65,0.8-1.52,1.19-2.61,1.19c-0.92,0-1.7-0.32-2.32-0.96
		c-0.66-0.69-0.99-1.55-0.99-2.6l0.03-0.35c0-1.1,0.33-2,1-2.7s1.51-1.04,2.53-1.04C771.13,115.6,771.87,115.91,772.48,116.53
		 M770.26,116.09c-0.8,0-1.39,0.37-1.8,1.12c-0.33,0.61-0.49,1.39-0.49,2.35c0,0.87,0.16,1.6,0.49,2.17
		c0.39,0.68,0.96,1.02,1.71,1.02c0.72,0,1.28-0.42,1.67-1.25c0.31-0.66,0.46-1.39,0.46-2.18c0-0.85-0.14-1.55-0.42-2.12
		C771.52,116.46,770.98,116.09,770.26,116.09 M771.48,114.82h-0.53l-2.45-1.51c-0.12-0.12-0.25-0.23-0.37-0.34
		c-0.02-0.04-0.03-0.12-0.03-0.25v-0.19c0.07-0.21,0.25-0.31,0.53-0.31h0.12c0.06,0.03,0.12,0.07,0.19,0.1
		c0.1,0.07,0.21,0.16,0.32,0.28c0.11,0.12,0.2,0.21,0.26,0.27L771.48,114.82z"/>
	<path class="st3" d="M774.96,123.12v-7.42c0.16,0.02,0.27,0.03,0.32,0.04c0.06,0.01,0.16,0.02,0.3,0.02l0.62-0.06v1.43
		c0.27-0.49,0.61-0.86,1.04-1.13c0.42-0.26,0.9-0.39,1.44-0.39c0.88,0,1.52,0.25,1.92,0.74c0.39,0.49,0.58,1.26,0.58,2.29v4.49
		l-0.62-0.06c-0.11,0-0.2,0-0.26,0.01c-0.06,0.01-0.18,0.02-0.36,0.05v-4.15c0-0.83-0.11-1.43-0.31-1.81
		c-0.27-0.51-0.74-0.76-1.42-0.76c-0.76,0-1.3,0.28-1.61,0.84c-0.27,0.47-0.4,1.23-0.4,2.26v3.62l-0.62-0.06
		c-0.11,0-0.2,0-0.26,0.01C775.25,123.07,775.13,123.09,774.96,123.12"/>
	<path class="st3" d="M789.41,115.66v0.59l-1.71-0.16c0.34,0.26,0.61,0.56,0.8,0.9c0.19,0.34,0.29,0.72,0.29,1.14
		c0,0.8-0.32,1.41-0.97,1.84c-0.59,0.38-1.37,0.57-2.34,0.57h-0.28c-0.22,0-0.39,0.04-0.52,0.13c-0.21,0.12-0.31,0.33-0.31,0.62
		c0,0.31,0.11,0.51,0.34,0.6c0.23,0.09,0.61,0.14,1.15,0.14h0.99c1.79,0,2.69,0.69,2.69,2.07c0,0.9-0.36,1.63-1.09,2.19
		c-0.73,0.56-1.67,0.85-2.84,0.85c-0.74,0-1.36-0.18-1.89-0.53c-0.62-0.41-0.93-0.99-0.93-1.73c0-0.54,0.14-0.96,0.43-1.27
		c0.29-0.31,0.68-0.51,1.18-0.62v-0.13c-0.27-0.06-0.48-0.16-0.62-0.31c-0.21-0.22-0.31-0.54-0.31-0.96c0-0.34,0.1-0.61,0.29-0.83
		c0.15-0.16,0.4-0.32,0.76-0.5c-0.49-0.23-0.85-0.5-1.08-0.82c-0.27-0.37-0.4-0.83-0.4-1.37c0-0.77,0.22-1.36,0.67-1.78
		c0.49-0.46,1.24-0.69,2.24-0.69h0.21l2.14,0.09l0.43,0.03c0.12,0,0.24-0.01,0.37-0.02C789.23,115.69,789.33,115.67,789.41,115.66
		 M786.12,122.97c-1.59,0-2.38,0.62-2.38,1.85c0,0.61,0.2,1.07,0.6,1.39c0.4,0.31,0.95,0.47,1.63,0.47c0.66,0,1.21-0.14,1.64-0.43
		c0.53-0.35,0.8-0.87,0.8-1.55c0-0.72-0.23-1.21-0.7-1.46C787.4,123.06,786.87,122.97,786.12,122.97 M784.2,118.04l-0.03,0.16
		c0,0.53,0.15,0.99,0.47,1.37c0.31,0.38,0.72,0.57,1.24,0.57c0.54,0,0.97-0.19,1.27-0.58c0.3-0.39,0.46-0.87,0.46-1.43
		c0-0.65-0.12-1.15-0.37-1.5c-0.28-0.4-0.71-0.6-1.3-0.6c-0.55,0-0.98,0.18-1.28,0.55C784.35,116.95,784.2,117.44,784.2,118.04"/>
	<path class="st3" d="M795.9,117.08v-4.58h4.12c0.76,0,1.35,0.05,1.77,0.14c0.62,0.13,1.16,0.39,1.63,0.79
		c0.56,0.45,0.98,1.02,1.25,1.71c0.28,0.69,0.42,1.41,0.42,2.16c0,1.03-0.18,1.94-0.53,2.73c-0.31,0.68-0.78,1.3-1.41,1.85
		c-0.45,0.39-1.01,0.69-1.67,0.88c-0.66,0.2-1.66,0.29-3,0.29h-2.57v-5.29h-0.62v-0.69H795.9z M797.26,113.13v3.96h2.97v0.69h-2.97
		v4.58c0.14,0,0.31,0.01,0.5,0.03c0.56,0.06,0.93,0.09,1.11,0.09l0.31-0.03c0.83,0,1.55-0.15,2.17-0.46c0.78-0.39,1.36-1,1.73-1.81
		c0.33-0.72,0.5-1.59,0.5-2.61c0-1.61-0.34-2.76-1.04-3.45c-0.69-0.69-1.8-1.04-3.33-1.04c-0.21,0-0.57,0.01-1.08,0.03
		C797.61,113.12,797.32,113.13,797.26,113.13"/>
	<path class="st3" d="M815.1,116.96v-4.46c0.1,0.02,0.21,0.03,0.31,0.04c0.1,0.01,0.23,0.02,0.37,0.02c0.17,0,0.31-0.01,0.42-0.03
		c0.11-0.02,0.19-0.03,0.26-0.03v10.61c-0.12-0.02-0.24-0.04-0.34-0.05c-0.1-0.01-0.22-0.01-0.34-0.01c-0.13,0-0.25,0.01-0.38,0.02
		c-0.13,0.02-0.23,0.03-0.3,0.04v-5.35c-0.38,0-1-0.01-1.87-0.03c-0.87-0.02-1.33-0.03-1.38-0.03c-0.37,0-0.98,0.01-1.85,0.03
		c-0.87,0.02-1.34,0.03-1.43,0.03v5.35c-0.12-0.02-0.23-0.04-0.33-0.05c-0.1-0.01-0.22-0.01-0.34-0.01c-0.11,0-0.2,0-0.28,0.01
		c-0.07,0.01-0.21,0.02-0.4,0.05v-10.61c0.18,0.02,0.31,0.03,0.38,0.04c0.07,0.01,0.17,0.02,0.3,0.02c0.18,0,0.32-0.01,0.43-0.03
		c0.11-0.02,0.19-0.03,0.25-0.03v4.46c0.38,0,1.02,0.01,1.9,0.03s1.34,0.03,1.38,0.03c0.37,0,0.99-0.01,1.85-0.03
		C814.57,116.97,815.03,116.96,815.1,116.96"/>
	<path class="st3" d="M823.41,123.06V112.5h3.03c1.18,0,2.04,0.16,2.6,0.49c0.56,0.33,0.84,0.87,0.84,1.65c0,0.7-0.24,1.3-0.71,1.79
		c-0.43,0.47-1.01,0.79-1.74,0.96c0.73,0,1.36,0.18,1.87,0.53c0.65,0.43,0.97,1.06,0.97,1.89c0,1.11-0.46,1.99-1.39,2.63
		c-0.34,0.25-0.73,0.41-1.17,0.49c-0.44,0.08-0.94,0.12-1.52,0.12H823.41z M824.77,113.09v4.09l0.59,0.03
		c0.35,0,0.69-0.03,1.03-0.09c0.33-0.06,0.65-0.15,0.95-0.28c0.81-0.35,1.21-0.97,1.21-1.86c0-0.7-0.24-1.2-0.71-1.5
		c-0.41-0.26-1.05-0.39-1.92-0.39H824.77z M824.77,117.73v4.74h1.46c0.76,0,1.38-0.22,1.87-0.67c0.48-0.44,0.73-1.02,0.73-1.71
		c0-0.86-0.3-1.48-0.9-1.86c-0.51-0.33-1.28-0.5-2.29-0.5H824.77z"/>
	<path class="st3" d="M842.65,112.51h0.31c0.22,2.07,0.35,3.34,0.41,3.79c0.09,0.83,0.23,2.02,0.43,3.6
		c0.14,1.12,0.29,2.2,0.43,3.22c-0.22-0.02-0.37-0.04-0.47-0.05c-0.09-0.01-0.18-0.02-0.28-0.02c-0.22,0-0.37,0-0.47,0.02
		c-0.11,0.03-0.19,0.05-0.24,0.05c-0.09-1.04-0.19-2.09-0.28-3.13c-0.09-1.05-0.18-1.99-0.28-2.82c-0.09-0.84-0.17-1.52-0.25-2.06
		c-0.57,1.03-1.12,2.03-1.64,2.99c-0.47,0.88-0.92,1.74-1.35,2.59c-0.43,0.85-0.78,1.6-1.06,2.25h-0.16l-0.87-1.77
		c-0.37-0.77-0.7-1.44-0.99-2c-0.29-0.56-0.65-1.25-1.07-2.05c-0.36-0.67-0.72-1.35-1.06-2.02c-0.38,3.44-0.58,5.25-0.61,5.43
		c-0.09,1.02-0.14,1.88-0.14,2.58c-0.14-0.03-0.24-0.05-0.31-0.05c-0.06,0-0.14-0.01-0.25-0.01c-0.09,0-0.2,0.01-0.3,0.02
		c-0.11,0.02-0.19,0.03-0.25,0.04c0.22-1.38,0.5-3.3,0.85-5.76c0.35-2.46,0.56-4.08,0.64-4.85h0.4c0.41,0.83,0.85,1.69,1.31,2.58
		c0.52,1.01,1.01,1.93,1.47,2.76c0.56,1.01,1.09,1.93,1.61,2.77c0.61-1.09,1.1-1.98,1.46-2.64c0.48-0.9,0.96-1.78,1.44-2.65
		C841.57,114.44,842.09,113.51,842.65,112.51"/>
	<path class="st3" d="M849.89,113.25v9.9c-0.12-0.02-0.24-0.04-0.34-0.05c-0.1-0.01-0.21-0.02-0.34-0.02
		c-0.12,0-0.25,0.01-0.38,0.02c-0.13,0.01-0.23,0.03-0.3,0.04v-9.9c-0.81,0-1.38,0.01-1.71,0.03c-0.34,0.02-0.9,0.07-1.7,0.15
		c0.01-0.07,0.02-0.14,0.04-0.22c0.02-0.07,0.02-0.15,0.02-0.25c0-0.08-0.01-0.15-0.02-0.24c-0.01-0.09-0.03-0.16-0.04-0.23h7.99
		l-0.03,0.47l0.03,0.46c-0.39-0.05-0.87-0.09-1.44-0.13C851.1,113.27,850.51,113.25,849.89,113.25"/>
	<path d="M798.04,82.23c0.66-0.12,1.32-0.24,1.98-0.37c2.19-0.41,4.37-0.82,6.56-1.23c2.38-0.45,4.76-0.9,7.13-1.36
		c1.92-0.37,3.84-0.76,5.76-1.13c1.58-0.31,3.16-0.63,4.74-0.93c1.12-0.22,2.25-0.17,3.36,0.03c2.09,0.37,4.17,0.77,6.25,1.16
		c1.99,0.38,3.98,0.77,5.97,1.15c2.98,0.57,5.96,1.15,8.94,1.73c1.35,0.26,2.71,0.52,4.06,0.79c0.25,0.05,0.5,0.11,0.73,0.21
		c0.17,0.07,0.32,0.21,0.54,0.36c-0.17,0.06-0.26,0.1-0.35,0.12c-3.94,1.02-7.87,2.04-11.81,3.05c-4.19,1.08-8.39,2.18-12.59,3.24
		c-0.85,0.22-1.72,0.39-2.59,0.5c-1.04,0.14-2.09,0.01-3.1-0.24c-1.88-0.46-3.75-0.94-5.62-1.43c-3.09-0.8-6.17-1.61-9.25-2.41
		c-2.72-0.71-5.45-1.41-8.17-2.12c-0.49-0.13-0.99-0.25-1.48-0.39c-0.23-0.07-0.46-0.16-0.67-0.28c-0.16-0.09-0.3-0.24-0.44-0.36
		C798.01,82.29,798.02,82.26,798.04,82.23"/>
	<path d="M811.39,87.11c0.53,0.14,1.02,0.28,1.51,0.41c3.57,0.99,7.14,1.99,10.71,2.98c0.75,0.21,1.5,0.39,2.29,0.42
		c0.6,0.03,1.17-0.04,1.75-0.21c3.65-1.11,7.32-2.11,11.03-2.98c0.5-0.12,0.99-0.23,1.49-0.34c0.08-0.02,0.16-0.02,0.25-0.03
		c0,0.17,0.01,0.32,0,0.46c-0.07,1.3-0.12,2.59-0.2,3.89c-0.04,0.61-0.1,1.22-0.21,1.83c-0.15,0.84-0.56,1.56-1.23,2.08
		c-0.58,0.44-1.18,0.86-1.81,1.23c-2.52,1.49-5.24,2.37-8.14,2.75c-1.83,0.24-3.65,0.26-5.48,0.05c-3.1-0.36-6.01-1.3-8.69-2.92
		c-0.4-0.24-0.78-0.5-1.15-0.79c-0.94-0.72-1.47-1.68-1.6-2.86c-0.07-0.67-0.13-1.34-0.2-2.01c-0.11-1.2-0.22-2.4-0.33-3.6
		C811.38,87.37,811.39,87.27,811.39,87.11"/>
	<path d="M849.7,103.74c-0.53,0.02-1.02,0.05-1.5,0.06c-0.68,0.01-1.37,0.02-2.05,0.01c-0.75-0.01-0.9-0.18-0.81-0.93
		c0.11-0.95,0.37-1.86,0.63-2.77c0.22-0.76,0.42-1.52,0.49-2.31c0.06-0.67,0-1.32-0.26-1.95c-0.17-0.4-0.14-0.77,0.05-1.13
		c0.12-0.24,0.25-0.47,0.39-0.7c0.26-0.42,0.36-0.86,0.35-1.36c-0.03-2.03-0.03-4.05-0.04-6.08c0-0.37,0.02-0.74,0.16-1.09
		c0.13-0.31,0.3-0.58,0.72-0.62c0.02,0.14,0.04,0.27,0.06,0.4c0.16,2.19,0.17,4.38,0.07,6.57c-0.02,0.51,0.02,1.02,0.09,1.52
		c0.05,0.43,0.25,0.82,0.59,1.11c0.21,0.18,0.28,0.4,0.26,0.65c-0.02,0.19-0.07,0.39-0.13,0.57c-0.07,0.21-0.16,0.41-0.26,0.6
		c-0.32,0.61-0.34,1.24-0.17,1.89c0.29,1.13,0.57,2.27,0.85,3.4C849.35,102.29,849.52,102.98,849.7,103.74"/>
	<path d="M871.84,104.5h2.84c0.68,0.14,1.36,0.26,2.02,0.43c9.71,2.45,13.85,13.89,7.94,21.99c-2.11,2.9-4.3,5.74-6.45,8.62
		c-1.62,2.18-3.23,4.37-4.85,6.56h-0.17c-0.11-0.19-0.21-0.38-0.34-0.56c-3.65-4.87-7.35-9.71-10.95-14.62
		c-5.62-7.66-2.22-18.5,6.75-21.62C869.66,104.94,870.76,104.76,871.84,104.5L871.84,104.5z"/>
	<path class="st1" d="M885.06,118.59c0.01,6.47-5.3,11.8-11.78,11.81c-6.48,0.01-11.83-5.32-11.83-11.79c0-6.48,5.32-11.8,11.8-11.8
		C879.73,106.8,885.06,112.1,885.06,118.59z"/>
	<path d="M876.51,122.92v-2.04h-3.79v-1.3l3.24-5.22h2.45v5.02h1.03v1.5h-1.03v2.04H876.51z M876.51,119.38v-1.9
		c0-0.51,0.03-1.04,0.07-1.59h-0.05c-0.28,0.55-0.5,1.05-0.79,1.59l-1.15,1.87v0.03H876.51z"/>
	<polygon points="868.22,116.14 868.19,116.14 866.56,116.92 866.23,115.42 868.49,114.36 870.15,114.36 870.15,122.92 
		868.22,122.92 	"/>
</g>
</svg>
