<?xml version="1.0" encoding="utf-8"?>
<!-- Generator: Adobe Illustrator 24.0.1, SVG Export Plug-In . SVG Version: 6.00 Build 0)  -->
<svg version="1.1" id="Layer_1" xmlns="http://www.w3.org/2000/svg" xmlns:xlink="http://www.w3.org/1999/xlink" x="0px" y="0px"
	 viewBox="0 0 1605.16 990.1" style="enable-background:new 0 0 1605.16 990.1;" xml:space="preserve">
<style type="text/css">
	.st0{stroke:#040404;stroke-width:0.5;stroke-miterlimit:10;}
	.st1{fill:#FFFFFF;}
	.st2{stroke:#060707;stroke-width:0.5;stroke-miterlimit:10;}
	.st3{fill:#F4F4F5;}
	.st4{stroke:#020202;stroke-width:0.5;stroke-miterlimit:10;}
</style>
<g>
	<polygon points="819,390.08 811.39,390.08 811.39,382.47 803.65,382.47 803.65,390.08 796.05,390.08 796.05,397.82 803.65,397.82 
		803.65,405.42 811.39,405.42 811.39,397.82 819,397.82 	"/>
	<path class="st0" d="M769,417.73v-8.18h2.35c0.91,0,1.59,0.13,2.02,0.38c0.43,0.25,0.65,0.68,0.65,1.28c0,0.54-0.18,1.01-0.55,1.39
		c-0.33,0.36-0.78,0.61-1.34,0.75c0.57,0,1.05,0.13,1.45,0.41c0.5,0.33,0.76,0.82,0.76,1.46c0,0.86-0.36,1.54-1.08,2.04
		c-0.27,0.19-0.57,0.32-0.91,0.38c-0.34,0.06-0.73,0.1-1.18,0.1H769z M770.05,410.01v3.17l0.46,0.03c0.27,0,0.54-0.02,0.8-0.07
		c0.26-0.04,0.5-0.12,0.73-0.22c0.63-0.27,0.94-0.75,0.94-1.44c0-0.54-0.18-0.93-0.55-1.16c-0.32-0.2-0.82-0.3-1.48-0.3H770.05z
		 M770.05,413.61v3.67h1.13c0.59,0,1.07-0.17,1.45-0.52c0.38-0.34,0.57-0.79,0.57-1.33c0-0.66-0.23-1.14-0.7-1.44
		c-0.4-0.26-0.99-0.39-1.78-0.39H770.05z"/>
	<path class="st0" d="M780.39,416.53l-0.02,0.63c-0.31,0.22-0.64,0.4-0.99,0.53c-0.35,0.13-0.71,0.19-1.08,0.19
		c-0.85,0-1.53-0.27-2.05-0.79c-0.52-0.53-0.78-1.25-0.78-2.18c0-0.87,0.23-1.57,0.7-2.1c0.5-0.57,1.18-0.85,2.06-0.85
		c0.67,0,1.23,0.22,1.68,0.66c0.49,0.48,0.74,1.16,0.74,2.02v0.26c-0.28,0-0.75-0.01-1.4-0.03c-0.65-0.02-0.99-0.03-1.02-0.03h-1.7
		l-0.02,0.24c0,0.64,0.19,1.17,0.56,1.61c0.37,0.43,0.89,0.64,1.55,0.64c0.36,0,0.72-0.09,1.07-0.28
		C779.9,416.94,780.14,416.77,780.39,416.53 M776.66,411.47h-0.41l1.49-2.01h0.65l1.49,2.01h-0.41l-1.39-1.27L776.66,411.47z
		 M776.52,414.42h3.19c0-0.61-0.1-1.09-0.3-1.44c-0.25-0.43-0.65-0.65-1.19-0.65c-0.53,0-0.95,0.22-1.27,0.66
		C776.67,413.39,776.52,413.87,776.52,414.42 M778.16,419.55c-0.14,0-0.27-0.06-0.38-0.17c-0.11-0.11-0.17-0.24-0.17-0.38
		c0-0.14,0.06-0.27,0.17-0.38c0.11-0.11,0.24-0.17,0.38-0.17c0.15,0,0.28,0.05,0.39,0.16c0.11,0.11,0.16,0.24,0.16,0.39
		c0,0.14-0.05,0.27-0.17,0.38C778.43,419.5,778.3,419.55,778.16,419.55"/>
	<path class="st0" d="M781.8,417.78v-5.75c0.12,0.01,0.21,0.03,0.25,0.03c0.05,0.01,0.12,0.01,0.23,0.01l0.48-0.05v1.1
		c0.21-0.38,0.47-0.67,0.8-0.87c0.33-0.2,0.7-0.3,1.12-0.3c0.69,0,1.18,0.19,1.48,0.57c0.3,0.38,0.45,0.97,0.45,1.77v3.48
		l-0.48-0.05c-0.09,0-0.15,0-0.2,0.01c-0.05,0-0.14,0.02-0.28,0.04v-3.21c0-0.64-0.08-1.11-0.24-1.4c-0.21-0.39-0.58-0.59-1.1-0.59
		c-0.59,0-1.01,0.22-1.25,0.65c-0.21,0.37-0.31,0.95-0.31,1.75v2.8l-0.48-0.05c-0.09,0-0.16,0-0.21,0.01
		C782.03,417.74,781.93,417.76,781.8,417.78"/>
	<path class="st0" d="M788.37,417.78v-9.02l0.48,0.02l0.48-0.02v4.37c0.21-0.38,0.47-0.67,0.8-0.87c0.33-0.2,0.7-0.3,1.12-0.3
		c0.68,0,1.17,0.2,1.48,0.59s0.46,0.98,0.46,1.76v3.48l-0.48-0.05c-0.09,0-0.15,0-0.2,0.01c-0.05,0-0.14,0.02-0.28,0.04v-3.21
		c0-0.69-0.09-1.19-0.27-1.49c-0.21-0.34-0.56-0.5-1.06-0.5c-0.53,0-0.93,0.16-1.18,0.48c-0.25,0.32-0.38,0.8-0.38,1.44v3.28
		l-0.48-0.05c-0.09,0-0.16,0-0.21,0.01C788.59,417.74,788.5,417.76,788.37,417.78"/>
	<path class="st0" d="M801.28,414.62l0.96-2.59c0.05,0.01,0.11,0.03,0.17,0.03c0.05,0.01,0.13,0.01,0.22,0.01
		c0.06,0,0.19-0.02,0.38-0.05c-0.18,0.39-0.44,0.96-0.78,1.7c-0.3,0.66-0.6,1.36-0.9,2.08c-0.36,0.87-0.62,1.53-0.77,1.97
		l-0.36-0.05c-0.1,0-0.23,0.01-0.39,0.05c-0.24-0.68-0.59-1.58-1.04-2.71s-0.89-2.14-1.3-3.05c0.22,0.03,0.41,0.05,0.55,0.05
		c0.07,0,0.16-0.01,0.27-0.02c0.1-0.01,0.19-0.02,0.26-0.03c0.17,0.56,0.42,1.27,0.74,2.11c0.32,0.84,0.67,1.68,1.04,2.52
		c0.01-0.01,0.05-0.07,0.12-0.17c0.07-0.1,0.11-0.16,0.12-0.17L801.28,414.62z"/>
	<path class="st0" d="M805.32,409.99c0,0.16-0.06,0.3-0.18,0.42c-0.12,0.12-0.26,0.18-0.42,0.18c-0.17,0-0.31-0.06-0.43-0.17
		c-0.13-0.11-0.19-0.26-0.19-0.42c0-0.17,0.06-0.31,0.19-0.44c0.12-0.13,0.27-0.19,0.43-0.19c0.16,0,0.3,0.06,0.42,0.18
		C805.26,409.66,805.32,409.81,805.32,409.99 M805.19,412.02v5.75l-0.48-0.05c-0.08,0-0.15,0-0.2,0.01c-0.05,0-0.14,0.02-0.27,0.04
		v-5.75c0.12,0.02,0.2,0.03,0.25,0.04c0.05,0.01,0.12,0.01,0.22,0.01L805.19,412.02z"/>
	<path class="st0" d="M811.58,416.53l-0.02,0.63c-0.31,0.22-0.64,0.4-0.99,0.53c-0.35,0.13-0.71,0.19-1.08,0.19
		c-0.85,0-1.53-0.27-2.05-0.79c-0.52-0.53-0.78-1.25-0.78-2.18c0-0.87,0.23-1.57,0.7-2.1c0.49-0.57,1.18-0.85,2.06-0.85
		c0.67,0,1.23,0.22,1.68,0.66c0.49,0.48,0.74,1.16,0.74,2.02v0.26c-0.28,0-0.75-0.01-1.4-0.03c-0.65-0.02-0.99-0.03-1.02-0.03h-1.7
		l-0.02,0.24c0,0.64,0.19,1.17,0.56,1.61c0.37,0.43,0.89,0.64,1.55,0.64c0.36,0,0.71-0.09,1.07-0.28
		C811.1,416.94,811.33,416.77,811.58,416.53 M807.85,411.47h-0.41l1.49-2.01h0.65l1.49,2.01h-0.41l-1.39-1.27L807.85,411.47z
		 M807.72,414.42h3.19c0-0.61-0.1-1.09-0.3-1.44c-0.25-0.43-0.65-0.65-1.19-0.65c-0.53,0-0.95,0.22-1.27,0.66
		C807.86,413.39,807.72,413.87,807.72,414.42 M809.35,419.55c-0.14,0-0.27-0.06-0.38-0.17c-0.11-0.11-0.17-0.24-0.17-0.38
		c0-0.14,0.05-0.27,0.17-0.38c0.11-0.11,0.24-0.17,0.38-0.17c0.15,0,0.28,0.05,0.39,0.16c0.11,0.11,0.16,0.24,0.16,0.39
		c0,0.14-0.05,0.27-0.17,0.38C809.62,419.5,809.49,419.55,809.35,419.55"/>
	<path class="st0" d="M812.99,417.78v-5.75c0.12,0.01,0.2,0.03,0.25,0.03c0.05,0.01,0.12,0.01,0.23,0.01l0.48-0.05v1.1
		c0.21-0.38,0.47-0.67,0.8-0.87c0.33-0.2,0.7-0.3,1.12-0.3c0.69,0,1.18,0.19,1.48,0.57c0.3,0.38,0.45,0.97,0.45,1.77v3.48
		l-0.48-0.05c-0.09,0-0.15,0-0.2,0.01c-0.05,0-0.14,0.02-0.28,0.04v-3.21c0-0.64-0.08-1.11-0.24-1.4c-0.21-0.39-0.58-0.59-1.1-0.59
		c-0.59,0-1.01,0.22-1.25,0.65c-0.21,0.37-0.31,0.95-0.31,1.75v2.8l-0.48-0.05c-0.09,0-0.16,0-0.21,0.01
		C813.22,417.74,813.13,417.76,812.99,417.78"/>
	<path class="st0" d="M822.72,417.78v-5.75c0.11,0.01,0.18,0.03,0.22,0.03c0.04,0.01,0.11,0.01,0.2,0.01l0.42-0.05v1.03
		c0.18-0.36,0.39-0.63,0.63-0.8c0.27-0.2,0.58-0.3,0.94-0.3c0.35,0,0.66,0.1,0.95,0.32c0.29,0.21,0.49,0.51,0.6,0.88
		c0.21-0.4,0.45-0.7,0.71-0.9c0.27-0.2,0.58-0.3,0.94-0.3c0.63,0,1.08,0.2,1.35,0.61c0.24,0.37,0.37,0.95,0.37,1.74v3.48l-0.42-0.05
		c-0.08,0-0.14,0-0.18,0.01c-0.04,0-0.13,0.02-0.25,0.04v-3.21c0-0.63-0.07-1.09-0.2-1.39c-0.18-0.4-0.51-0.6-0.98-0.6
		c-0.47,0-0.81,0.22-1,0.65c-0.14,0.31-0.21,0.74-0.21,1.29v3.26l-0.42-0.05c-0.08,0-0.14,0-0.18,0.01c-0.04,0-0.12,0.02-0.24,0.04
		v-3.52c0-1.12-0.38-1.68-1.12-1.68c-0.5,0-0.85,0.17-1.05,0.52c-0.15,0.26-0.22,0.65-0.22,1.19v3.5l-0.42-0.05
		c-0.08,0-0.14,0-0.18,0.01C822.93,417.74,822.84,417.76,822.72,417.78"/>
	<path class="st0" d="M836.7,413.97v2.78l-0.02,0.17c0,0.16,0.02,0.28,0.06,0.35c0.04,0.07,0.12,0.11,0.25,0.11l0.38-0.08v0.26
		c-0.1,0.06-0.22,0.1-0.36,0.12l-0.44,0.05c-0.23,0-0.42-0.06-0.56-0.17c-0.14-0.11-0.23-0.3-0.26-0.58l-0.1,0.12
		c-0.52,0.51-1.11,0.77-1.78,0.77c-0.45,0-0.82-0.14-1.14-0.42c-0.31-0.28-0.47-0.64-0.47-1.07c0-0.47,0.14-0.84,0.41-1.1
		c0.27-0.26,0.88-0.47,1.82-0.63c0.4-0.07,0.67-0.12,0.8-0.16c0.31-0.11,0.47-0.32,0.47-0.63c0-0.45-0.12-0.8-0.36-1.05
		c-0.24-0.25-0.59-0.37-1.06-0.37c-0.39,0-0.73,0.1-1.01,0.31c-0.22,0.16-0.36,0.34-0.4,0.53h-0.15v-0.67
		c0.31-0.22,0.62-0.39,0.94-0.5c0.31-0.11,0.65-0.17,1.01-0.17C836.06,411.95,836.7,412.63,836.7,413.97 M836.36,409.94
		c-0.08,0.44-0.27,0.78-0.54,1.03c-0.28,0.25-0.66,0.38-1.13,0.38c-0.42,0-0.78-0.13-1.06-0.41c-0.28-0.27-0.46-0.6-0.52-1h0.46
		c0.11,0.23,0.27,0.41,0.48,0.54c0.21,0.13,0.44,0.2,0.72,0.2c0.57,0,0.97-0.25,1.2-0.74H836.36z M835.74,416.53v-1.75l-0.43,0.07
		c-0.71,0.14-1.15,0.26-1.32,0.34c-0.48,0.22-0.72,0.56-0.72,1.03c0,0.38,0.1,0.66,0.31,0.84c0.2,0.19,0.49,0.28,0.87,0.28
		c0.17,0,0.34-0.04,0.52-0.13c0.18-0.09,0.32-0.19,0.43-0.32c0.07-0.05,0.14-0.12,0.22-0.2
		C835.7,416.62,835.74,416.56,835.74,416.53 M836.05,408.28c0.04-0.05,0.11-0.12,0.2-0.21c0.09-0.09,0.17-0.17,0.25-0.23
		c0.05-0.02,0.1-0.05,0.14-0.07h0.1c0.21,0,0.35,0.08,0.4,0.24v0.15c0,0.09-0.01,0.16-0.02,0.19c-0.09,0.09-0.19,0.18-0.29,0.27
		l-1.9,1.17h-0.4L836.05,408.28z"/>
	<path class="st0" d="M838.4,410.85l0.96-0.38v1.56h1.27l-0.02,0.26l0.02,0.19h-1.27v3.02l-0.02,0.41c0,0.59,0.08,1,0.25,1.24
		c0.15,0.2,0.36,0.3,0.66,0.3c0.11,0,0.21-0.01,0.31-0.04c0.1-0.02,0.18-0.04,0.25-0.07v0.29c-0.16,0.06-0.33,0.12-0.52,0.17
		c-0.19,0.05-0.35,0.07-0.49,0.07c-0.47,0-0.82-0.12-1.04-0.35c-0.25-0.27-0.38-0.72-0.38-1.35l0.02-0.19v-3.5h-0.74
		c0.01-0.05,0.02-0.12,0.02-0.22c0-0.11-0.01-0.19-0.02-0.24h0.74V410.85z"/>
	<path d="M769.84,423.6l-1.37,6.46c-0.08-0.01-0.15-0.02-0.22-0.03c-0.07-0.01-0.14-0.01-0.22-0.01c-0.08,0-0.17,0.01-0.25,0.01
		c-0.08,0.01-0.15,0.02-0.2,0.02l1.37-6.46c-0.53,0-0.9,0.01-1.12,0.02c-0.22,0.01-0.6,0.04-1.13,0.1c0.01-0.04,0.04-0.09,0.05-0.14
		s0.04-0.1,0.05-0.16c0.01-0.05,0.02-0.1,0.02-0.16c0-0.05,0-0.1,0.01-0.15h5.21l-0.08,0.31l-0.05,0.3
		c-0.25-0.03-0.56-0.06-0.92-0.08C770.63,423.61,770.25,423.6,769.84,423.6"/>
	<path d="M775.94,426.83l-0.5,2.34l-0.05,0.14c-0.03,0.13-0.04,0.23-0.01,0.29c0.02,0.06,0.08,0.09,0.19,0.09l0.33-0.06l-0.05,0.22
		c-0.1,0.05-0.2,0.08-0.32,0.1l-0.37,0.04c-0.19,0-0.34-0.05-0.44-0.14c-0.1-0.09-0.13-0.25-0.11-0.48l-0.1,0.1
		c-0.53,0.43-1.07,0.64-1.64,0.64c-0.37,0-0.67-0.12-0.88-0.35c-0.21-0.23-0.28-0.53-0.2-0.9c0.09-0.4,0.27-0.71,0.54-0.93
		c0.28-0.22,0.83-0.4,1.65-0.53c0.35-0.06,0.58-0.1,0.7-0.13c0.28-0.09,0.45-0.27,0.51-0.53c0.08-0.38,0.05-0.67-0.11-0.88
		c-0.16-0.21-0.43-0.31-0.82-0.31c-0.33,0-0.63,0.09-0.91,0.26c-0.21,0.13-0.36,0.28-0.43,0.45h-0.13l0.12-0.56
		c0.3-0.18,0.59-0.32,0.88-0.42c0.29-0.1,0.58-0.15,0.88-0.15C775.76,425.14,776.19,425.7,775.94,426.83 M774.68,428.99l0.31-1.48
		l-0.38,0.06c-0.62,0.12-1.02,0.22-1.17,0.29c-0.44,0.18-0.7,0.47-0.79,0.87c-0.07,0.32-0.03,0.55,0.11,0.71
		c0.14,0.16,0.36,0.24,0.68,0.24c0.14,0,0.3-0.04,0.46-0.11c0.17-0.07,0.31-0.16,0.42-0.27c0.06-0.04,0.13-0.1,0.22-0.16
		C774.63,429.07,774.67,429.02,774.68,428.99"/>
	<path d="M778.67,429.98l-1.03-4.79c0.08,0.01,0.16,0.02,0.23,0.03c0.07,0.01,0.16,0.01,0.25,0.01c0.07,0,0.16-0.01,0.26-0.02
		c0.1-0.01,0.18-0.02,0.24-0.02c0.07,0.63,0.15,1.24,0.25,1.82c0.11,0.58,0.25,1.22,0.44,1.93c0.31-0.44,0.69-1.04,1.15-1.79
		c0.46-0.75,0.85-1.41,1.16-1.96c0.05,0.01,0.1,0.02,0.16,0.03c0.05,0.01,0.12,0.01,0.19,0.01c0.05,0,0.16-0.01,0.33-0.04
		c-1.02,1.54-1.58,2.39-1.69,2.55c-0.79,1.19-1.33,2-1.61,2.43c-0.61,0.94-1.12,1.75-1.54,2.44c-0.06-0.01-0.11-0.02-0.16-0.03
		c-0.05-0.01-0.11-0.01-0.17-0.01c-0.1,0-0.17,0-0.22,0.01c-0.07,0.02-0.11,0.03-0.14,0.03L778.67,429.98z"/>
	<path d="M793.05,423.12l-1.48,6.93h-0.3c-0.07-0.18-0.2-0.39-0.39-0.63l-3.34-4.83h-0.1l-1.16,5.45c-0.08-0.01-0.13-0.02-0.16-0.03
		c-0.03,0-0.07-0.01-0.11-0.01c-0.04,0-0.1,0-0.16,0.01c-0.06,0.01-0.1,0.02-0.13,0.03l1.47-6.93h0.4l3.68,5.21h0.1l1.11-5.21
		c0.08,0.01,0.14,0.02,0.17,0.03c0.03,0.01,0.07,0.01,0.11,0.01c0.05,0,0.1,0,0.16-0.02C792.97,423.13,793.01,423.12,793.05,423.12"
		/>
	<path d="M798.6,425.18l-0.08,0.39l-1.09-0.1c0.19,0.17,0.32,0.37,0.4,0.59c0.08,0.22,0.09,0.47,0.03,0.75
		c-0.11,0.52-0.41,0.92-0.89,1.2c-0.44,0.25-0.97,0.37-1.61,0.37h-0.18c-0.14,0-0.26,0.03-0.35,0.08c-0.15,0.08-0.25,0.21-0.29,0.4
		c-0.04,0.2,0,0.33,0.14,0.39c0.13,0.06,0.38,0.09,0.73,0.09h0.65c1.17,0,1.66,0.45,1.47,1.35c-0.12,0.59-0.46,1.06-1.02,1.43
		c-0.55,0.37-1.21,0.55-1.97,0.55c-0.48,0-0.87-0.11-1.16-0.34c-0.35-0.27-0.47-0.65-0.37-1.13c0.07-0.35,0.23-0.63,0.46-0.83
		c0.23-0.2,0.51-0.33,0.85-0.4l0.02-0.08c-0.16-0.04-0.28-0.11-0.36-0.2c-0.1-0.14-0.13-0.35-0.07-0.63
		c0.04-0.22,0.15-0.4,0.31-0.54c0.12-0.1,0.3-0.21,0.56-0.33c-0.29-0.15-0.49-0.33-0.59-0.53c-0.12-0.24-0.14-0.54-0.07-0.9
		c0.1-0.5,0.33-0.89,0.68-1.16c0.39-0.3,0.9-0.45,1.56-0.45h0.14l1.39,0.06l0.27,0.02c0.07,0,0.16,0,0.25-0.01
		C798.47,425.19,798.54,425.18,798.6,425.18 M795.44,429.94c-1.04,0-1.64,0.4-1.81,1.21c-0.09,0.4-0.02,0.7,0.2,0.9
		c0.22,0.21,0.55,0.31,1,0.31c0.43,0,0.81-0.09,1.13-0.28c0.4-0.23,0.65-0.57,0.74-1.01c0.1-0.47,0.01-0.79-0.25-0.96
		C796.26,430,795.92,429.94,795.44,429.94 M794.87,426.73l-0.04,0.1c-0.07,0.35-0.04,0.65,0.11,0.9c0.15,0.25,0.39,0.38,0.73,0.38
		c0.35,0,0.66-0.13,0.91-0.38c0.25-0.25,0.42-0.56,0.5-0.93c0.09-0.42,0.08-0.75-0.04-0.98c-0.13-0.26-0.38-0.39-0.76-0.39
		c-0.36,0-0.66,0.12-0.91,0.36C795.12,426.02,794.95,426.33,794.87,426.73"/>
	<path d="M803.65,425.2l-1.03,4.85l-0.39-0.04c-0.07,0-0.13,0-0.17,0c-0.04,0-0.12,0.01-0.24,0.04l0.19-0.89
		c-0.48,0.65-1.08,0.97-1.82,0.97c-0.56,0-0.94-0.16-1.15-0.47c-0.21-0.31-0.24-0.81-0.09-1.49l0.63-2.97
		c0.1,0.01,0.17,0.02,0.21,0.03c0.04,0.01,0.1,0.01,0.19,0.01l0.42-0.04l-0.58,2.73c-0.12,0.56-0.12,0.99,0,1.27
		c0.12,0.28,0.4,0.42,0.85,0.42c0.47,0,0.84-0.18,1.12-0.54c0.22-0.28,0.38-0.64,0.48-1.09l0.59-2.79c0.1,0.01,0.16,0.02,0.2,0.03
		c0.04,0.01,0.1,0.01,0.19,0.01L803.65,425.2z"/>
	<path d="M805.73,429.98l-1.03-4.79c0.08,0.01,0.16,0.02,0.23,0.03c0.07,0.01,0.16,0.01,0.25,0.01c0.07,0,0.16-0.01,0.26-0.02
		c0.1-0.01,0.17-0.02,0.24-0.02c0.07,0.63,0.15,1.24,0.26,1.82c0.1,0.58,0.25,1.22,0.44,1.93c0.31-0.44,0.69-1.04,1.15-1.79
		c0.46-0.75,0.85-1.41,1.16-1.96c0.05,0.01,0.1,0.02,0.16,0.03c0.05,0.01,0.12,0.01,0.19,0.01c0.05,0,0.16-0.01,0.33-0.04
		c-1.02,1.54-1.58,2.39-1.69,2.55c-0.79,1.19-1.33,2-1.61,2.43c-0.61,0.94-1.12,1.75-1.54,2.44c-0.06-0.01-0.11-0.02-0.16-0.03
		c-0.05-0.01-0.11-0.01-0.17-0.01c-0.1,0-0.17,0-0.22,0.01c-0.06,0.02-0.11,0.03-0.14,0.03L805.73,429.98z"/>
	<path d="M813.39,428.99l-0.13,0.53c-0.31,0.19-0.62,0.34-0.93,0.44c-0.32,0.11-0.63,0.16-0.94,0.16c-0.71,0-1.24-0.22-1.58-0.67
		c-0.34-0.45-0.43-1.06-0.27-1.84c0.16-0.73,0.48-1.32,0.97-1.77c0.52-0.48,1.15-0.72,1.89-0.72c0.57,0,0.99,0.19,1.29,0.56
		c0.33,0.41,0.42,0.98,0.27,1.71l-0.05,0.22c-0.24,0-0.63-0.01-1.17-0.02c-0.55-0.01-0.83-0.02-0.86-0.02h-1.43l-0.06,0.2
		c-0.11,0.54-0.05,0.99,0.18,1.35c0.24,0.36,0.64,0.54,1.19,0.54c0.3,0,0.62-0.08,0.95-0.24
		C812.91,429.34,813.14,429.19,813.39,428.99 M810.51,427.22h2.69c0.11-0.51,0.11-0.92,0-1.21c-0.13-0.36-0.42-0.55-0.88-0.55
		c-0.44,0-0.84,0.19-1.19,0.56C810.82,426.35,810.61,426.75,810.51,427.22"/>
	<path d="M814.74,430.04l1.03-4.85c0.1,0.01,0.17,0.02,0.2,0.03c0.04,0.01,0.1,0.01,0.19,0.01l0.41-0.04l-0.2,0.93
		c0.24-0.32,0.52-0.56,0.83-0.73c0.31-0.17,0.65-0.26,1-0.26c0.58,0,0.96,0.16,1.15,0.48c0.19,0.32,0.21,0.82,0.06,1.49l-0.62,2.93
		L818.4,430c-0.07,0-0.13,0-0.17,0c-0.04,0-0.12,0.01-0.24,0.04l0.58-2.71c0.11-0.54,0.13-0.93,0.04-1.18
		c-0.1-0.33-0.37-0.5-0.82-0.5c-0.5,0-0.89,0.18-1.17,0.55c-0.24,0.31-0.43,0.8-0.57,1.47l-0.5,2.36l-0.39-0.04
		c-0.07,0-0.14,0-0.18,0C814.94,430.01,814.86,430.02,814.74,430.04"/>
	<path d="M825.36,423.12h4.48l-0.08,0.31l-0.04,0.3c-0.12-0.02-0.27-0.05-0.44-0.07c-0.17-0.02-0.32-0.03-0.45-0.03l-1.01-0.02
		h-1.68l-0.54,2.52h2.46c0.1,0,0.25-0.01,0.46-0.02c0.21-0.02,0.36-0.02,0.46-0.02c-0.05,0.11-0.08,0.2-0.09,0.27l-0.03,0.28
		c-0.1,0-0.25-0.01-0.44-0.03c-0.2-0.02-0.35-0.03-0.45-0.03h-2.46l-0.63,2.95l0.42,0.02c0.39,0,0.76-0.01,1.1-0.01
		c0.34-0.01,0.75-0.02,1.22-0.04c0.18,0,0.36-0.01,0.53-0.03c0.17-0.02,0.31-0.04,0.42-0.05l-0.08,0.3l-0.04,0.3h-4.54
		L825.36,423.12z"/>
	<path d="M831.85,429.98l-1.02-4.79c0.08,0.01,0.16,0.02,0.23,0.03c0.07,0.01,0.16,0.01,0.25,0.01c0.07,0,0.16-0.01,0.26-0.02
		c0.1-0.01,0.17-0.02,0.24-0.02c0.06,0.63,0.15,1.24,0.25,1.82c0.1,0.58,0.25,1.22,0.44,1.93c0.31-0.44,0.69-1.04,1.15-1.79
		c0.46-0.75,0.85-1.41,1.16-1.96c0.05,0.01,0.1,0.02,0.16,0.03c0.05,0.01,0.12,0.01,0.19,0.01c0.05,0,0.16-0.01,0.33-0.04
		c-1.02,1.54-1.58,2.39-1.69,2.55c-0.79,1.19-1.33,2-1.61,2.43c-0.61,0.94-1.12,1.75-1.54,2.44c-0.06-0.01-0.11-0.02-0.16-0.03
		c-0.05-0.01-0.11-0.01-0.17-0.01c-0.1,0-0.17,0-0.22,0.01c-0.07,0.02-0.11,0.03-0.14,0.03L831.85,429.98z"/>
	<path d="M839.51,428.99l-0.13,0.53c-0.3,0.19-0.62,0.34-0.93,0.44c-0.32,0.11-0.63,0.16-0.94,0.16c-0.71,0-1.24-0.22-1.58-0.67
		c-0.34-0.45-0.43-1.06-0.26-1.84c0.16-0.73,0.48-1.32,0.96-1.77c0.52-0.48,1.15-0.72,1.89-0.72c0.57,0,0.99,0.19,1.29,0.56
		c0.33,0.41,0.42,0.98,0.27,1.71l-0.05,0.22c-0.24,0-0.63-0.01-1.17-0.02c-0.55-0.01-0.83-0.02-0.86-0.02h-1.44l-0.06,0.2
		c-0.12,0.54-0.06,0.99,0.18,1.35c0.24,0.36,0.63,0.54,1.19,0.54c0.3,0,0.62-0.08,0.95-0.24
		C839.03,429.34,839.26,429.19,839.51,428.99 M836.64,427.22h2.69c0.11-0.51,0.11-0.92,0-1.21c-0.13-0.36-0.42-0.55-0.88-0.55
		c-0.44,0-0.84,0.19-1.19,0.56C836.94,426.35,836.74,426.75,836.64,427.22"/>
	<path d="M791.04,437.43l0.62-2.91c0.07,0.01,0.13,0.02,0.2,0.03c0.07,0.01,0.15,0.01,0.24,0.01c0.11,0,0.21-0.01,0.28-0.02
		c0.07-0.01,0.13-0.02,0.18-0.02l-1.48,6.93c-0.08-0.01-0.15-0.02-0.22-0.03c-0.07-0.01-0.14-0.01-0.22-0.01
		c-0.08,0-0.17,0-0.25,0.01c-0.09,0.01-0.16,0.02-0.2,0.02l0.74-3.49c-0.24,0-0.65-0.01-1.21-0.02c-0.56-0.01-0.86-0.02-0.9-0.02
		c-0.24,0-0.65,0.01-1.21,0.02c-0.57,0.01-0.88,0.02-0.94,0.02l-0.74,3.49c-0.07-0.01-0.15-0.02-0.21-0.03
		c-0.07-0.01-0.14-0.01-0.22-0.01c-0.07,0-0.13,0-0.18,0c-0.05,0-0.14,0.01-0.27,0.04l1.47-6.93c0.12,0.01,0.2,0.02,0.24,0.03
		c0.04,0.01,0.11,0.01,0.2,0.01c0.11,0,0.21-0.01,0.28-0.02c0.07-0.01,0.13-0.02,0.17-0.02l-0.62,2.91c0.25,0,0.66,0.01,1.23,0.02
		c0.57,0.01,0.88,0.02,0.9,0.02c0.24,0,0.65-0.01,1.21-0.02C790.69,437.43,791,437.43,791.04,437.43"/>
	<path d="M793.15,438.98c0.15-0.72,0.5-1.31,1.02-1.76c0.53-0.45,1.13-0.68,1.79-0.68c0.64,0,1.1,0.22,1.39,0.67
		c0.29,0.45,0.36,1.05,0.2,1.79c-0.15,0.69-0.46,1.28-0.95,1.74c-0.54,0.52-1.16,0.78-1.87,0.78c-0.61,0-1.07-0.21-1.38-0.63
		c-0.33-0.45-0.43-1.01-0.28-1.7L793.15,438.98z M795.88,436.86c-0.52,0-0.96,0.24-1.33,0.73c-0.3,0.4-0.51,0.91-0.65,1.53
		c-0.12,0.57-0.11,1.05,0.02,1.42c0.16,0.44,0.49,0.67,0.97,0.67c0.47,0,0.89-0.27,1.26-0.82c0.29-0.43,0.5-0.9,0.61-1.42
		c0.12-0.55,0.13-1.01,0.02-1.38C796.65,437.1,796.35,436.86,795.88,436.86"/>
	<path d="M798.43,440.45h0.08c0.09,0.21,0.22,0.39,0.4,0.53c0.17,0.14,0.37,0.22,0.6,0.22c0.27,0,0.52-0.09,0.75-0.26
		c0.23-0.17,0.38-0.39,0.44-0.67c0.09-0.41-0.24-0.73-0.99-0.96c-0.75-0.23-1.05-0.66-0.92-1.28c0.1-0.47,0.33-0.84,0.7-1.1
		c0.37-0.26,0.79-0.39,1.27-0.39c0.24,0,0.46,0.03,0.67,0.09c0.16,0.04,0.29,0.1,0.4,0.17c-0.15,0.24-0.29,0.49-0.4,0.73h-0.08
		c-0.04-0.19-0.12-0.34-0.25-0.47c-0.13-0.13-0.29-0.2-0.47-0.2c-0.27,0-0.5,0.07-0.7,0.21c-0.2,0.14-0.32,0.35-0.38,0.62
		c-0.08,0.4,0.24,0.73,0.98,0.99c0.74,0.26,1.05,0.67,0.93,1.23c-0.11,0.5-0.39,0.91-0.85,1.21c-0.42,0.27-0.86,0.4-1.35,0.4
		c-0.47,0-0.87-0.11-1.2-0.34c0.09-0.16,0.15-0.28,0.2-0.37C798.34,440.66,798.4,440.54,798.43,440.45"/>
	<path d="M802.7,444.03c-0.07-0.01-0.13-0.02-0.19-0.03c-0.06-0.01-0.13-0.01-0.21-0.01c-0.07,0-0.14,0.01-0.22,0.01
		c-0.08,0.01-0.14,0.02-0.19,0.02l1.58-7.43c0.06,0.01,0.13,0.02,0.19,0.03c0.06,0.01,0.13,0.01,0.21,0.01
		c0.07,0,0.14-0.01,0.22-0.01c0.08-0.01,0.14-0.02,0.19-0.02l-0.22,1.03c0.27-0.33,0.48-0.56,0.62-0.67
		c0.37-0.28,0.82-0.42,1.35-0.42c0.62,0,1.07,0.24,1.34,0.7c0.26,0.44,0.32,0.98,0.19,1.62c-0.17,0.82-0.51,1.46-1.02,1.94
		c-0.5,0.48-1.08,0.72-1.74,0.72c-0.35,0-0.64-0.08-0.85-0.25c-0.22-0.17-0.38-0.41-0.49-0.74L802.7,444.03z M803.73,439.14
		c-0.12,0.58-0.1,1.04,0.06,1.38c0.18,0.37,0.52,0.56,1.02,0.56c0.47,0,0.87-0.21,1.2-0.64c0.29-0.38,0.5-0.89,0.64-1.53
		c0.12-0.59,0.13-1.05,0.01-1.38c-0.15-0.43-0.47-0.64-0.98-0.64c-0.53,0-0.97,0.26-1.33,0.78
		C804.06,438.07,803.86,438.57,803.73,439.14"/>
	<path d="M810.53,436.6l-1.03,4.85l-0.39-0.04c-0.07,0-0.13,0-0.17,0c-0.04,0-0.12,0.01-0.24,0.04l1.03-4.85
		c0.1,0.01,0.16,0.02,0.2,0.03c0.04,0.01,0.1,0.01,0.19,0.01L810.53,436.6z M811,434.88c-0.03,0.13-0.11,0.25-0.23,0.35
		c-0.12,0.1-0.25,0.15-0.39,0.15c-0.14,0-0.25-0.05-0.33-0.15c-0.08-0.1-0.11-0.21-0.08-0.36c0.03-0.14,0.11-0.27,0.24-0.37
		c0.13-0.1,0.26-0.16,0.4-0.16c0.13,0,0.24,0.05,0.32,0.15C811,434.61,811.03,434.74,811,434.88"/>
	<path d="M812.76,435.61l0.88-0.32l-0.28,1.31h1.07l-0.07,0.22l-0.01,0.16h-1.07l-0.54,2.54l-0.09,0.35
		c-0.11,0.5-0.11,0.84-0.01,1.04c0.09,0.17,0.25,0.25,0.5,0.25c0.09,0,0.18-0.01,0.27-0.03c0.09-0.02,0.16-0.04,0.22-0.05
		l-0.05,0.25c-0.14,0.05-0.3,0.1-0.46,0.14c-0.16,0.04-0.31,0.06-0.42,0.06c-0.4,0-0.67-0.1-0.81-0.3
		c-0.16-0.23-0.19-0.61-0.08-1.14l0.05-0.16l0.63-2.95h-0.63c0.02-0.04,0.04-0.1,0.05-0.18c0.02-0.1,0.03-0.16,0.03-0.2h0.62
		L812.76,435.61z"/>
	<path d="M818.76,438.24l-0.5,2.34l-0.05,0.14c-0.03,0.13-0.03,0.23-0.01,0.29c0.02,0.06,0.08,0.09,0.19,0.09l0.33-0.06l-0.05,0.22
		c-0.1,0.05-0.2,0.08-0.32,0.1l-0.37,0.04c-0.19,0-0.34-0.05-0.44-0.14c-0.1-0.09-0.14-0.25-0.11-0.48l-0.1,0.1
		c-0.53,0.43-1.07,0.64-1.64,0.64c-0.37,0-0.67-0.12-0.88-0.35c-0.21-0.23-0.28-0.53-0.2-0.9c0.08-0.4,0.27-0.71,0.54-0.93
		c0.28-0.22,0.82-0.4,1.65-0.53c0.35-0.06,0.58-0.1,0.7-0.13c0.28-0.09,0.45-0.27,0.51-0.53c0.08-0.38,0.04-0.67-0.11-0.88
		c-0.16-0.21-0.43-0.31-0.82-0.31c-0.33,0-0.63,0.09-0.91,0.26c-0.21,0.13-0.36,0.28-0.43,0.45h-0.13l0.12-0.56
		c0.3-0.18,0.59-0.32,0.88-0.42c0.29-0.1,0.58-0.15,0.88-0.15C818.57,436.54,819,437.11,818.76,438.24 M817.49,440.4l0.31-1.48
		l-0.37,0.06c-0.62,0.12-1.02,0.22-1.17,0.29c-0.44,0.18-0.7,0.47-0.79,0.87c-0.07,0.32-0.03,0.55,0.11,0.71
		c0.13,0.16,0.36,0.24,0.68,0.24c0.14,0,0.3-0.04,0.46-0.11c0.17-0.07,0.31-0.16,0.42-0.27c0.06-0.04,0.13-0.1,0.22-0.16
		C817.44,440.47,817.49,440.42,817.49,440.4"/>
	<path d="M820.17,441.45l1.61-7.59l0.4,0.02l0.41-0.02l-1.61,7.59l-0.39-0.04c-0.07,0-0.13,0-0.18,0
		C820.37,441.41,820.29,441.43,820.17,441.45"/>
	<path d="M780.71,375.23h2.32c0.55,0.12,1.11,0.21,1.65,0.35c7.93,2,11.32,11.36,6.49,17.98c-1.73,2.37-3.52,4.69-5.27,7.04
		c-1.33,1.78-2.64,3.58-3.97,5.37h-0.14c-0.09-0.15-0.17-0.31-0.28-0.46c-2.99-3.98-6.01-7.94-8.95-11.95
		c-4.59-6.26-1.82-15.12,5.52-17.67C778.93,375.59,779.83,375.45,780.71,375.23"/>
	<path class="st1" d="M791.15,386.75c0.01,5.09-4.17,9.28-9.27,9.29c-5.09,0.01-9.3-4.19-9.3-9.27c0.01-5.1,4.18-9.28,9.28-9.28
		C786.96,377.48,791.14,381.65,791.15,386.75z"/>
	<path d="M777.73,388.74c0-1.32,0.76-2.23,1.96-2.75v-0.05c-1.06-0.54-1.59-1.43-1.59-2.39c0-1.86,1.67-3.09,3.86-3.09
		c2.56,0,3.63,1.48,3.63,2.82c0,0.95-0.51,1.87-1.59,2.41v0.05c1.06,0.41,2.01,1.32,2.01,2.73c0,1.99-1.67,3.32-4.22,3.32
		C779.01,391.79,777.73,390.22,777.73,388.74 M783.4,388.65c0-0.96-0.71-1.54-1.72-1.81c-0.84,0.24-1.33,0.84-1.33,1.64
		c-0.02,0.79,0.59,1.53,1.55,1.53C782.81,390.02,783.4,389.43,783.4,388.65 M780.51,383.46c0,0.74,0.67,1.21,1.55,1.48
		c0.59-0.17,1.11-0.71,1.11-1.4c0-0.67-0.39-1.35-1.33-1.35C780.97,382.19,780.51,382.77,780.51,383.46"/>
</g>
<g>
	<path d="M866.23,349.67l-1.19,5.62c-0.07-0.01-0.13-0.02-0.19-0.03c-0.06,0-0.12-0.01-0.19-0.01c-0.07,0-0.14,0-0.22,0.01
		c-0.07,0.01-0.13,0.02-0.17,0.02l1.19-5.62c-0.46,0-0.78,0.01-0.98,0.02c-0.19,0.01-0.52,0.04-0.98,0.09
		c0.01-0.04,0.03-0.08,0.05-0.12c0.02-0.04,0.03-0.09,0.04-0.14c0.01-0.04,0.01-0.09,0.01-0.14c0-0.05,0-0.09,0.01-0.13h4.53
		l-0.07,0.27l-0.04,0.26c-0.22-0.03-0.48-0.05-0.8-0.07C866.91,349.68,866.58,349.67,866.23,349.67"/>
	<path d="M867.98,355.27l1.4-6.61l0.35,0.02l0.36-0.02l-0.68,3.2c0.21-0.28,0.45-0.49,0.72-0.64c0.27-0.15,0.56-0.22,0.87-0.22
		c0.5,0,0.83,0.14,0.99,0.43c0.17,0.29,0.19,0.72,0.06,1.29l-0.54,2.55l-0.34-0.03c-0.06,0-0.11,0-0.15,0
		c-0.04,0-0.11,0.01-0.21,0.03l0.5-2.35c0.11-0.51,0.12-0.87,0.03-1.09c-0.1-0.25-0.33-0.37-0.7-0.37c-0.39,0-0.7,0.12-0.94,0.35
		c-0.23,0.23-0.4,0.59-0.5,1.06l-0.51,2.41l-0.34-0.03c-0.07,0-0.12,0-0.15,0C868.15,355.24,868.08,355.25,867.98,355.27"/>
	<path d="M874.91,351.05l-0.9,4.22l-0.34-0.03c-0.06,0-0.11,0-0.15,0c-0.04,0-0.11,0.01-0.21,0.03l0.9-4.22
		c0.08,0.01,0.14,0.02,0.18,0.03c0.03,0.01,0.09,0.01,0.16,0.01L874.91,351.05z M875.32,349.56c-0.03,0.12-0.09,0.22-0.2,0.31
		c-0.11,0.09-0.22,0.13-0.34,0.13c-0.12,0-0.22-0.04-0.29-0.13c-0.07-0.08-0.1-0.19-0.07-0.31c0.03-0.12,0.09-0.23,0.2-0.32
		c0.11-0.09,0.23-0.14,0.35-0.14c0.12,0,0.21,0.04,0.28,0.13C875.32,349.32,875.34,349.43,875.32,349.56"/>
	<path d="M879.22,354.36l-0.11,0.46c-0.27,0.16-0.54,0.29-0.81,0.39c-0.28,0.1-0.55,0.14-0.82,0.14c-0.62,0-1.08-0.19-1.38-0.58
		c-0.3-0.39-0.37-0.92-0.23-1.6c0.14-0.63,0.42-1.15,0.84-1.54c0.45-0.42,1-0.62,1.64-0.62c0.49,0,0.87,0.16,1.12,0.48
		c0.29,0.35,0.37,0.85,0.23,1.48l-0.04,0.19c-0.21,0-0.55-0.01-1.02-0.02c-0.47-0.01-0.72-0.02-0.75-0.02h-1.25l-0.05,0.18
		c-0.1,0.47-0.05,0.86,0.16,1.18c0.21,0.32,0.55,0.47,1.04,0.47c0.26,0,0.54-0.07,0.82-0.21C878.8,354.66,879,354.53,879.22,354.36
		 M876.72,352.81h2.34c0.09-0.45,0.09-0.8,0-1.06c-0.12-0.32-0.37-0.48-0.77-0.48c-0.39,0-0.73,0.16-1.03,0.48
		C876.99,352.06,876.81,352.41,876.72,352.81"/>
	<path d="M880.39,355.27l0.9-4.22c0.09,0.01,0.14,0.02,0.18,0.03c0.03,0,0.09,0.01,0.16,0.01l0.36-0.03l-0.17,0.81
		c0.21-0.28,0.45-0.49,0.72-0.64c0.27-0.15,0.56-0.22,0.87-0.22c0.5,0,0.84,0.14,1,0.42c0.16,0.28,0.18,0.71,0.06,1.3l-0.54,2.55
		l-0.34-0.03c-0.06,0-0.11,0-0.15,0c-0.04,0-0.11,0.01-0.21,0.03l0.5-2.35c0.1-0.47,0.11-0.81,0.04-1.03
		c-0.09-0.29-0.33-0.43-0.71-0.43c-0.43,0-0.77,0.16-1.02,0.48c-0.21,0.27-0.37,0.7-0.5,1.28l-0.44,2.05l-0.34-0.03
		c-0.07,0-0.12,0-0.15,0C880.56,355.24,880.49,355.25,880.39,355.27"/>
	<path d="M893.55,351.78l0.54-2.53c0.06,0.01,0.11,0.02,0.17,0.02c0.06,0.01,0.13,0.01,0.21,0.01c0.1,0,0.18-0.01,0.24-0.02
		c0.06-0.01,0.11-0.02,0.15-0.02l-1.28,6.03c-0.07-0.01-0.13-0.02-0.19-0.02c-0.06-0.01-0.12-0.01-0.19-0.01
		c-0.07,0-0.15,0-0.22,0.01c-0.07,0.01-0.13,0.02-0.18,0.02l0.64-3.04c-0.22,0-0.57-0.01-1.06-0.02c-0.49-0.01-0.75-0.02-0.78-0.02
		c-0.21,0-0.56,0.01-1.06,0.02c-0.49,0.01-0.77,0.02-0.82,0.02l-0.64,3.04c-0.07-0.01-0.13-0.02-0.18-0.02
		c-0.06-0.01-0.12-0.01-0.19-0.01c-0.06,0-0.12,0-0.16,0c-0.04,0-0.12,0.01-0.24,0.03l1.28-6.03c0.1,0.01,0.17,0.02,0.21,0.02
		c0.03,0.01,0.09,0.01,0.17,0.01c0.1,0,0.18-0.01,0.25-0.02c0.06-0.01,0.11-0.02,0.15-0.02l-0.54,2.53c0.22,0,0.58,0,1.07,0.02
		c0.5,0.01,0.76,0.02,0.78,0.02c0.21,0,0.56,0,1.05-0.02C893.24,351.78,893.51,351.78,893.55,351.78"/>
	<path d="M898.88,352.48l-0.43,2.04l-0.04,0.12c-0.03,0.12-0.03,0.2-0.01,0.26c0.02,0.05,0.07,0.08,0.17,0.08l0.29-0.05l-0.04,0.19
		c-0.08,0.04-0.18,0.07-0.28,0.09l-0.33,0.03c-0.17,0-0.3-0.04-0.38-0.12c-0.09-0.08-0.12-0.22-0.1-0.42l-0.09,0.09
		c-0.46,0.37-0.93,0.56-1.42,0.56c-0.33,0-0.58-0.1-0.77-0.3c-0.19-0.2-0.24-0.46-0.18-0.79c0.08-0.35,0.23-0.61,0.47-0.8
		c0.24-0.19,0.72-0.34,1.43-0.46c0.31-0.05,0.51-0.09,0.61-0.12c0.25-0.08,0.39-0.23,0.44-0.46c0.07-0.33,0.04-0.58-0.1-0.77
		c-0.14-0.18-0.38-0.27-0.72-0.27c-0.29,0-0.55,0.08-0.79,0.23c-0.19,0.12-0.31,0.25-0.38,0.38h-0.11l0.1-0.49
		c0.26-0.16,0.52-0.28,0.77-0.37c0.25-0.09,0.5-0.13,0.76-0.13C898.71,351,899.08,351.5,898.88,352.48 M897.77,354.36l0.27-1.28
		l-0.32,0.05c-0.54,0.11-0.88,0.19-1.02,0.25c-0.38,0.16-0.61,0.41-0.69,0.76c-0.06,0.28-0.03,0.48,0.09,0.62
		c0.12,0.14,0.32,0.2,0.59,0.2c0.12,0,0.26-0.03,0.4-0.1c0.15-0.06,0.27-0.14,0.37-0.23c0.05-0.04,0.12-0.09,0.19-0.14
		C897.73,354.42,897.77,354.38,897.77,354.36"/>
	<path d="M899.9,355.27l0.9-4.22c0.09,0.01,0.15,0.02,0.18,0.03c0.03,0,0.09,0.01,0.16,0.01l0.36-0.03l-0.17,0.81
		c0.21-0.28,0.45-0.49,0.72-0.64c0.27-0.15,0.56-0.22,0.87-0.22c0.5,0,0.84,0.14,1,0.42c0.16,0.28,0.18,0.71,0.06,1.3l-0.54,2.55
		l-0.34-0.03c-0.06,0-0.11,0-0.15,0c-0.04,0-0.11,0.01-0.21,0.03l0.5-2.35c0.1-0.47,0.11-0.81,0.04-1.03
		c-0.09-0.29-0.33-0.43-0.71-0.43c-0.43,0-0.77,0.16-1.02,0.48c-0.21,0.27-0.37,0.7-0.5,1.28l-0.44,2.05l-0.34-0.03
		c-0.07,0-0.12,0-0.15,0C900.07,355.24,900,355.25,899.9,355.27"/>
	<path d="M905.04,355.27l1.4-6.61l0.35,0.02l0.36-0.02l-0.68,3.2c0.21-0.28,0.45-0.49,0.72-0.64c0.27-0.15,0.56-0.22,0.87-0.22
		c0.5,0,0.83,0.14,0.99,0.43c0.17,0.29,0.19,0.72,0.06,1.29l-0.54,2.55l-0.34-0.03c-0.06,0-0.11,0-0.15,0
		c-0.04,0-0.11,0.01-0.21,0.03l0.5-2.35c0.11-0.51,0.12-0.87,0.03-1.09c-0.1-0.25-0.33-0.37-0.7-0.37c-0.39,0-0.7,0.12-0.94,0.35
		c-0.23,0.23-0.4,0.59-0.5,1.06l-0.51,2.41l-0.34-0.03c-0.07,0-0.12,0-0.15,0C905.21,355.24,905.14,355.25,905.04,355.27"/>
	<path d="M919.28,350.3h-0.09c-0.18-0.27-0.43-0.48-0.75-0.63c-0.31-0.15-0.67-0.22-1.06-0.22c-0.77,0-1.44,0.24-2,0.73
		c-0.56,0.48-0.94,1.16-1.12,2.03c-0.19,0.89-0.11,1.58,0.23,2.07c0.34,0.49,0.94,0.74,1.8,0.74c0.24,0,0.49-0.02,0.74-0.07
		c0.25-0.05,0.48-0.13,0.7-0.22l0.48-2.25l0.38,0.02l0.39-0.02l-0.53,2.48c-0.42,0.14-0.83,0.24-1.26,0.31
		c-0.42,0.07-0.83,0.11-1.22,0.11c-1.07,0-1.83-0.3-2.27-0.89c-0.41-0.55-0.51-1.3-0.31-2.24c0.21-1.01,0.7-1.78,1.47-2.34
		c0.73-0.53,1.6-0.79,2.62-0.79c0.45,0,0.87,0.04,1.24,0.13c0.37,0.09,0.67,0.21,0.9,0.38c-0.06,0.09-0.12,0.2-0.18,0.32
		C919.38,350.07,919.33,350.19,919.28,350.3"/>
	<path d="M923.41,354.36l-0.11,0.46c-0.27,0.16-0.54,0.29-0.81,0.39c-0.28,0.1-0.55,0.14-0.82,0.14c-0.62,0-1.08-0.19-1.38-0.58
		c-0.3-0.39-0.37-0.92-0.23-1.6c0.14-0.63,0.42-1.15,0.84-1.54c0.45-0.42,1-0.62,1.64-0.62c0.49,0,0.87,0.16,1.12,0.48
		c0.29,0.35,0.37,0.85,0.23,1.48l-0.04,0.19c-0.21,0-0.55-0.01-1.02-0.02c-0.47-0.01-0.72-0.02-0.75-0.02h-1.25l-0.05,0.18
		c-0.1,0.47-0.05,0.86,0.16,1.18c0.21,0.32,0.55,0.47,1.04,0.47c0.26,0,0.54-0.07,0.82-0.21
		C922.99,354.66,923.19,354.53,923.41,354.36 M920.91,352.81h2.34c0.09-0.45,0.09-0.8,0-1.06c-0.12-0.32-0.37-0.48-0.77-0.48
		c-0.39,0-0.73,0.16-1.03,0.48C921.17,352.06,920.99,352.41,920.91,352.81"/>
	<path d="M924.58,355.27l0.9-4.22c0.09,0.01,0.15,0.02,0.18,0.03c0.03,0,0.09,0.01,0.16,0.01l0.36-0.03l-0.17,0.81
		c0.21-0.28,0.45-0.49,0.72-0.64c0.27-0.15,0.56-0.22,0.87-0.22c0.5,0,0.84,0.14,1,0.42c0.16,0.28,0.18,0.71,0.05,1.3l-0.54,2.55
		l-0.34-0.03c-0.06,0-0.11,0-0.15,0c-0.04,0-0.11,0.01-0.21,0.03l0.5-2.35c0.1-0.47,0.11-0.81,0.04-1.03
		c-0.09-0.29-0.33-0.43-0.71-0.43c-0.43,0-0.77,0.16-1.02,0.48c-0.21,0.27-0.37,0.7-0.5,1.28l-0.44,2.05l-0.34-0.03
		c-0.07,0-0.12,0-0.15,0C924.76,355.24,924.69,355.25,924.58,355.27"/>
	<path d="M933.14,354.36l-0.11,0.46c-0.26,0.16-0.53,0.29-0.81,0.39c-0.28,0.1-0.55,0.14-0.82,0.14c-0.62,0-1.08-0.19-1.38-0.58
		c-0.3-0.39-0.37-0.92-0.23-1.6c0.14-0.63,0.42-1.15,0.84-1.54c0.45-0.42,1-0.62,1.64-0.62c0.49,0,0.87,0.16,1.12,0.48
		c0.29,0.35,0.37,0.85,0.23,1.48l-0.04,0.19c-0.21,0-0.55-0.01-1.02-0.02c-0.47-0.01-0.72-0.02-0.75-0.02h-1.25l-0.05,0.18
		c-0.1,0.47-0.05,0.86,0.16,1.18c0.21,0.32,0.55,0.47,1.04,0.47c0.26,0,0.54-0.07,0.82-0.21
		C932.72,354.66,932.92,354.53,933.14,354.36 M930.64,352.81h2.34c0.1-0.45,0.1-0.8,0-1.06c-0.12-0.32-0.37-0.48-0.77-0.48
		c-0.39,0-0.73,0.16-1.04,0.48C930.91,352.06,930.73,352.41,930.64,352.81"/>
	<path d="M934.34,355.27l0.9-4.22c0.09,0.01,0.15,0.02,0.18,0.03c0.03,0,0.09,0.01,0.16,0.01l0.36-0.03l-0.19,0.88l0.06-0.11
		c0.21-0.25,0.42-0.44,0.62-0.58c0.24-0.16,0.46-0.24,0.66-0.24c0.1,0,0.19,0.02,0.28,0.05l-0.28,0.74
		c-0.13-0.05-0.26-0.09-0.39-0.14c-0.23,0-0.44,0.07-0.6,0.21c-0.17,0.16-0.29,0.32-0.36,0.47c-0.07,0.15-0.14,0.37-0.2,0.65
		l-0.48,2.28l-0.34-0.03c-0.07,0-0.12,0-0.15,0C934.51,355.24,934.44,355.25,934.34,355.27"/>
	<path d="M941.05,352.48l-0.43,2.04l-0.04,0.12c-0.03,0.12-0.03,0.2-0.01,0.26c0.02,0.05,0.07,0.08,0.17,0.08l0.29-0.05l-0.04,0.19
		c-0.08,0.04-0.18,0.07-0.28,0.09l-0.33,0.03c-0.17,0-0.3-0.04-0.38-0.12c-0.09-0.08-0.12-0.22-0.1-0.42l-0.09,0.09
		c-0.46,0.37-0.93,0.56-1.42,0.56c-0.33,0-0.58-0.1-0.77-0.3c-0.18-0.2-0.24-0.46-0.18-0.79c0.08-0.35,0.23-0.61,0.47-0.8
		c0.24-0.19,0.72-0.34,1.43-0.46c0.31-0.05,0.51-0.09,0.61-0.12c0.25-0.08,0.39-0.23,0.44-0.46c0.07-0.33,0.04-0.58-0.1-0.77
		c-0.14-0.18-0.38-0.27-0.72-0.27c-0.29,0-0.55,0.08-0.79,0.23c-0.19,0.12-0.31,0.25-0.38,0.38h-0.11l0.1-0.49
		c0.26-0.16,0.52-0.28,0.77-0.37c0.25-0.09,0.5-0.13,0.77-0.13C940.89,351,941.26,351.5,941.05,352.48 M939.95,354.36l0.27-1.28
		l-0.33,0.05c-0.54,0.11-0.88,0.19-1.02,0.25c-0.38,0.16-0.61,0.41-0.69,0.76c-0.06,0.28-0.03,0.48,0.09,0.62
		c0.12,0.14,0.32,0.2,0.59,0.2c0.12,0,0.26-0.03,0.4-0.1c0.15-0.06,0.27-0.14,0.37-0.23c0.05-0.04,0.12-0.09,0.19-0.14
		C939.9,354.42,939.94,354.38,939.95,354.36"/>
	<path d="M942.27,355.27l1.4-6.61l0.35,0.02l0.36-0.02l-1.4,6.61l-0.34-0.03c-0.07,0-0.12,0-0.15,0
		C942.45,355.24,942.38,355.25,942.27,355.27"/>
	<path d="M895.5,363.12l0.54-2.53c0.06,0.01,0.12,0.02,0.17,0.02c0.06,0.01,0.13,0.01,0.21,0.01c0.1,0,0.18-0.01,0.24-0.02
		c0.06-0.01,0.11-0.02,0.15-0.02l-1.28,6.03c-0.07-0.01-0.13-0.02-0.19-0.02c-0.06-0.01-0.12-0.01-0.19-0.01
		c-0.07,0-0.15,0-0.22,0.01c-0.07,0.01-0.13,0.02-0.18,0.02l0.64-3.04c-0.21,0-0.57-0.01-1.06-0.02c-0.49-0.01-0.75-0.02-0.78-0.02
		c-0.21,0-0.56,0.01-1.06,0.02c-0.49,0.01-0.77,0.02-0.82,0.02l-0.64,3.04c-0.06-0.01-0.13-0.02-0.18-0.02
		c-0.06-0.01-0.12-0.01-0.19-0.01c-0.06,0-0.12,0-0.16,0c-0.04,0-0.12,0.01-0.24,0.03l1.28-6.03c0.1,0.01,0.17,0.02,0.21,0.02
		c0.03,0.01,0.09,0.01,0.17,0.01c0.1,0,0.18-0.01,0.25-0.02c0.06-0.01,0.11-0.02,0.15-0.02l-0.54,2.53c0.22,0,0.58,0,1.07,0.02
		c0.5,0.01,0.76,0.02,0.78,0.02c0.21,0,0.56,0,1.05-0.02C895.19,363.13,895.46,363.12,895.5,363.12"/>
	<path d="M897.32,364.47c0.13-0.63,0.43-1.14,0.89-1.53c0.46-0.4,0.98-0.59,1.56-0.59c0.55,0,0.96,0.2,1.21,0.59
		c0.26,0.39,0.31,0.91,0.18,1.56c-0.13,0.6-0.4,1.11-0.82,1.52c-0.47,0.45-1.01,0.68-1.63,0.68c-0.53,0-0.93-0.18-1.2-0.55
		c-0.29-0.39-0.37-0.88-0.25-1.48L897.32,364.47z M899.7,362.63c-0.45,0-0.84,0.21-1.15,0.63c-0.26,0.35-0.45,0.79-0.56,1.34
		c-0.11,0.5-0.1,0.91,0.02,1.23c0.14,0.39,0.42,0.58,0.85,0.58c0.41,0,0.78-0.24,1.1-0.71c0.25-0.37,0.43-0.79,0.53-1.24
		c0.1-0.48,0.11-0.88,0.02-1.2C900.37,362.84,900.11,362.63,899.7,362.63"/>
	<path d="M901.92,365.76h0.07c0.08,0.18,0.2,0.34,0.35,0.46c0.15,0.13,0.33,0.19,0.52,0.19c0.24,0,0.45-0.07,0.66-0.22
		c0.2-0.15,0.33-0.34,0.38-0.58c0.08-0.36-0.21-0.64-0.86-0.84c-0.65-0.2-0.92-0.57-0.8-1.12c0.09-0.41,0.29-0.73,0.61-0.96
		c0.32-0.23,0.69-0.34,1.1-0.34c0.21,0,0.4,0.02,0.59,0.08c0.14,0.04,0.25,0.09,0.35,0.15c-0.13,0.21-0.25,0.42-0.35,0.64h-0.07
		c-0.04-0.16-0.11-0.3-0.22-0.41c-0.11-0.11-0.25-0.17-0.41-0.17c-0.24,0-0.44,0.06-0.61,0.18c-0.17,0.12-0.28,0.3-0.33,0.54
		c-0.07,0.35,0.21,0.64,0.85,0.86c0.64,0.22,0.91,0.58,0.81,1.07c-0.09,0.44-0.34,0.79-0.74,1.06c-0.36,0.23-0.75,0.35-1.18,0.35
		c-0.41,0-0.76-0.1-1.04-0.3c0.07-0.14,0.13-0.25,0.18-0.32C901.84,365.93,901.89,365.83,901.92,365.76"/>
	<path d="M905.63,368.87c-0.06-0.01-0.11-0.02-0.16-0.03c-0.05,0-0.11-0.01-0.18-0.01c-0.06,0-0.13,0-0.2,0.01
		c-0.07,0.01-0.13,0.01-0.16,0.02l1.37-6.46c0.05,0.01,0.11,0.02,0.16,0.03c0.05,0,0.11,0.01,0.19,0.01c0.06,0,0.12,0,0.19-0.01
		c0.07-0.01,0.13-0.01,0.16-0.02l-0.19,0.9c0.24-0.29,0.42-0.48,0.54-0.58c0.33-0.25,0.72-0.37,1.18-0.37c0.54,0,0.93,0.2,1.17,0.61
		c0.23,0.38,0.28,0.85,0.16,1.41c-0.15,0.71-0.45,1.27-0.88,1.69c-0.44,0.42-0.94,0.63-1.51,0.63c-0.31,0-0.56-0.07-0.74-0.22
		c-0.19-0.15-0.33-0.36-0.43-0.65L905.63,368.87z M906.54,364.61c-0.11,0.5-0.09,0.9,0.05,1.2c0.16,0.33,0.45,0.49,0.89,0.49
		c0.41,0,0.76-0.19,1.04-0.56c0.25-0.33,0.44-0.78,0.55-1.33c0.11-0.51,0.11-0.91,0.01-1.2c-0.13-0.37-0.41-0.56-0.85-0.56
		c-0.46,0-0.84,0.23-1.16,0.68C906.82,363.68,906.65,364.11,906.54,364.61"/>
	<path d="M912.45,362.4l-0.9,4.22l-0.34-0.03c-0.06,0-0.11,0-0.15,0c-0.04,0-0.11,0.01-0.21,0.03l0.9-4.22
		c0.08,0.01,0.14,0.02,0.18,0.03c0.03,0.01,0.09,0.01,0.16,0.01L912.45,362.4z M912.86,360.91c-0.03,0.12-0.09,0.22-0.2,0.31
		c-0.11,0.09-0.22,0.13-0.34,0.13c-0.12,0-0.22-0.04-0.29-0.13c-0.07-0.08-0.1-0.19-0.07-0.31c0.03-0.12,0.09-0.23,0.2-0.32
		c0.11-0.09,0.22-0.14,0.35-0.14c0.12,0,0.21,0.04,0.28,0.13C912.86,360.67,912.88,360.78,912.86,360.91"/>
	<path d="M914.39,361.54l0.76-0.28l-0.25,1.14h0.93l-0.05,0.19l-0.01,0.14h-0.93l-0.47,2.21l-0.08,0.3c-0.09,0.43-0.1,0.73-0.01,0.9
		c0.07,0.15,0.22,0.22,0.43,0.22c0.08,0,0.15-0.01,0.23-0.03c0.08-0.02,0.14-0.03,0.19-0.05l-0.05,0.21
		c-0.13,0.05-0.26,0.09-0.4,0.12c-0.14,0.04-0.27,0.05-0.37,0.05c-0.35,0-0.58-0.09-0.71-0.26c-0.14-0.2-0.17-0.53-0.07-0.99
		l0.05-0.14l0.55-2.57h-0.55c0.02-0.03,0.03-0.09,0.05-0.16c0.02-0.08,0.03-0.14,0.02-0.18h0.55L914.39,361.54z"/>
	<path d="M919.61,363.83l-0.43,2.04l-0.04,0.12c-0.03,0.12-0.03,0.2-0.01,0.26c0.02,0.05,0.07,0.08,0.17,0.08l0.29-0.05l-0.04,0.19
		c-0.08,0.04-0.18,0.07-0.28,0.09l-0.33,0.03c-0.17,0-0.3-0.04-0.38-0.12c-0.09-0.08-0.12-0.22-0.1-0.42l-0.09,0.09
		c-0.46,0.37-0.93,0.56-1.42,0.56c-0.33,0-0.58-0.1-0.77-0.3c-0.19-0.2-0.25-0.46-0.18-0.79c0.07-0.35,0.23-0.61,0.47-0.8
		c0.24-0.19,0.72-0.34,1.43-0.46c0.31-0.05,0.51-0.09,0.61-0.12c0.25-0.08,0.39-0.23,0.44-0.46c0.07-0.33,0.04-0.58-0.1-0.77
		c-0.14-0.18-0.38-0.27-0.72-0.27c-0.29,0-0.55,0.08-0.79,0.23c-0.19,0.12-0.31,0.25-0.38,0.38h-0.11l0.1-0.49
		c0.26-0.16,0.52-0.28,0.77-0.37c0.25-0.09,0.5-0.13,0.77-0.13C919.45,362.35,919.82,362.84,919.61,363.83 M918.51,365.7l0.27-1.28
		l-0.32,0.05c-0.55,0.11-0.88,0.19-1.02,0.25c-0.38,0.16-0.61,0.41-0.69,0.76c-0.06,0.28-0.03,0.48,0.09,0.62
		c0.12,0.14,0.32,0.2,0.59,0.2c0.12,0,0.26-0.03,0.4-0.1c0.15-0.06,0.27-0.14,0.37-0.23c0.05-0.04,0.12-0.09,0.19-0.14
		C918.47,365.77,918.51,365.73,918.51,365.7"/>
	<path d="M920.85,366.62l1.4-6.61l0.35,0.02l0.36-0.02l-1.4,6.61l-0.34-0.03c-0.07,0-0.12,0-0.15,0
		C921.02,366.59,920.95,366.6,920.85,366.62"/>
	<path class="st2" d="M851.37,344.29v-8.39h2.41c0.93,0,1.62,0.13,2.07,0.39c0.44,0.26,0.67,0.7,0.67,1.31
		c0,0.56-0.19,1.03-0.56,1.42c-0.34,0.37-0.8,0.63-1.38,0.76c0.59,0,1.08,0.14,1.49,0.42c0.52,0.35,0.78,0.84,0.78,1.5
		c0,0.88-0.37,1.58-1.11,2.09c-0.27,0.2-0.58,0.33-0.93,0.39c-0.35,0.07-0.75,0.1-1.21,0.1H851.37z M852.45,336.37v3.25l0.47,0.02
		c0.28,0,0.55-0.02,0.82-0.07c0.27-0.05,0.52-0.12,0.75-0.22c0.64-0.28,0.96-0.77,0.96-1.48c0-0.56-0.19-0.95-0.56-1.2
		c-0.33-0.2-0.84-0.31-1.52-0.31H852.45z M852.45,340.06v3.76h1.16c0.61,0,1.1-0.18,1.49-0.53c0.39-0.35,0.58-0.81,0.58-1.36
		c0-0.68-0.24-1.17-0.71-1.48c-0.41-0.27-1.01-0.4-1.82-0.4H852.45z"/>
	<path class="st2" d="M863.05,343.06l-0.03,0.64c-0.32,0.23-0.66,0.41-1.01,0.54c-0.36,0.13-0.73,0.2-1.11,0.2
		c-0.87,0-1.57-0.27-2.1-0.81c-0.53-0.54-0.8-1.29-0.8-2.24c0-0.89,0.24-1.61,0.72-2.16c0.51-0.58,1.21-0.87,2.11-0.87
		c0.69,0,1.26,0.23,1.72,0.68c0.51,0.5,0.76,1.19,0.76,2.08v0.27c-0.29,0-0.77-0.01-1.44-0.03c-0.67-0.02-1.02-0.03-1.05-0.03h-1.75
		l-0.02,0.25c0,0.65,0.19,1.2,0.57,1.65c0.38,0.44,0.91,0.66,1.59,0.66c0.37,0,0.73-0.1,1.09-0.29
		C862.55,343.48,862.79,343.3,863.05,343.06 M859.22,337.87h-0.42l1.52-2.07h0.67l1.52,2.07h-0.42l-1.43-1.3L859.22,337.87z
		 M859.08,340.9h3.27c0-0.63-0.1-1.12-0.31-1.48c-0.26-0.44-0.66-0.67-1.22-0.67c-0.54,0-0.97,0.22-1.3,0.68
		C859.23,339.84,859.08,340.33,859.08,340.9 M860.76,346.16c-0.15,0-0.28-0.06-0.39-0.17c-0.11-0.11-0.17-0.24-0.17-0.39
		s0.06-0.28,0.17-0.39c0.12-0.11,0.25-0.17,0.39-0.17c0.16,0,0.29,0.06,0.4,0.17c0.11,0.11,0.17,0.24,0.17,0.4
		c0,0.15-0.06,0.28-0.17,0.39C861.04,346.1,860.91,346.16,860.76,346.16"/>
	<path class="st2" d="M864.49,344.34v-5.9c0.12,0.02,0.21,0.03,0.26,0.04c0.05,0.01,0.13,0.01,0.23,0.01l0.49-0.05v1.14
		c0.21-0.39,0.49-0.69,0.82-0.9c0.34-0.21,0.72-0.31,1.15-0.31c0.71,0,1.21,0.2,1.52,0.59c0.31,0.39,0.46,1,0.46,1.82v3.57
		l-0.49-0.05c-0.09,0-0.16,0-0.21,0.01c-0.05,0-0.15,0.02-0.29,0.04v-3.3c0-0.66-0.08-1.14-0.25-1.44c-0.21-0.4-0.59-0.61-1.13-0.61
		c-0.61,0-1.03,0.22-1.28,0.67c-0.21,0.38-0.32,0.97-0.32,1.8v2.88l-0.49-0.05c-0.09,0-0.16,0-0.21,0.01
		C864.73,344.3,864.63,344.32,864.49,344.34"/>
	<path class="st2" d="M871.23,344.34v-9.25l0.49,0.03l0.49-0.03v4.48c0.21-0.39,0.49-0.69,0.82-0.9c0.34-0.21,0.72-0.31,1.15-0.31
		c0.7,0,1.2,0.2,1.52,0.6c0.31,0.4,0.47,1,0.47,1.8v3.57l-0.49-0.05c-0.09,0-0.16,0-0.21,0.01c-0.05,0-0.15,0.02-0.29,0.04v-3.3
		c0-0.71-0.09-1.22-0.28-1.52c-0.21-0.35-0.58-0.52-1.09-0.52c-0.55,0-0.95,0.16-1.21,0.49c-0.26,0.33-0.39,0.82-0.39,1.48v3.37
		l-0.49-0.05c-0.09,0-0.16,0-0.21,0.01C871.47,344.3,871.37,344.32,871.23,344.34"/>
	<path class="st2" d="M884.48,341.1l0.98-2.66c0.06,0.02,0.12,0.03,0.17,0.04c0.06,0.01,0.13,0.01,0.22,0.01
		c0.06,0,0.19-0.01,0.39-0.05c-0.19,0.4-0.46,0.99-0.8,1.75c-0.31,0.68-0.61,1.39-0.93,2.14c-0.37,0.9-0.63,1.57-0.79,2.02
		l-0.37-0.05c-0.1,0-0.23,0.02-0.4,0.05c-0.24-0.69-0.6-1.62-1.07-2.78c-0.47-1.15-0.91-2.2-1.34-3.12
		c0.23,0.03,0.42,0.05,0.56,0.05c0.08,0,0.17-0.01,0.27-0.02c0.11-0.01,0.2-0.02,0.27-0.03c0.17,0.58,0.42,1.3,0.76,2.16
		c0.33,0.86,0.69,1.73,1.06,2.59c0.01-0.02,0.05-0.07,0.12-0.18c0.08-0.1,0.12-0.16,0.12-0.17L884.48,341.1z"/>
	<path class="st2" d="M888.62,336.35c0,0.16-0.06,0.31-0.18,0.43c-0.13,0.12-0.27,0.18-0.43,0.18c-0.17,0-0.32-0.06-0.45-0.18
		c-0.12-0.12-0.19-0.26-0.19-0.44c0-0.17,0.06-0.32,0.19-0.45c0.13-0.13,0.28-0.19,0.45-0.19c0.16,0,0.31,0.06,0.43,0.19
		C888.56,336.02,888.62,336.17,888.62,336.35 M888.5,338.44v5.9l-0.49-0.05c-0.09,0-0.16,0-0.21,0.01c-0.05,0-0.14,0.02-0.28,0.04
		v-5.9c0.12,0.02,0.2,0.03,0.26,0.04c0.05,0.01,0.13,0.01,0.23,0.01L888.5,338.44z"/>
	<path class="st2" d="M895.06,343.06l-0.03,0.64c-0.32,0.23-0.66,0.41-1.01,0.54c-0.36,0.13-0.73,0.2-1.11,0.2
		c-0.87,0-1.57-0.27-2.1-0.81c-0.53-0.54-0.8-1.29-0.8-2.24c0-0.89,0.24-1.61,0.72-2.16c0.51-0.58,1.21-0.87,2.11-0.87
		c0.69,0,1.26,0.23,1.72,0.68c0.51,0.5,0.76,1.19,0.76,2.08v0.27c-0.29,0-0.77-0.01-1.44-0.03c-0.67-0.02-1.02-0.03-1.05-0.03h-1.75
		l-0.02,0.25c0,0.65,0.19,1.2,0.57,1.65c0.38,0.44,0.91,0.66,1.59,0.66c0.37,0,0.73-0.1,1.09-0.29
		C894.56,343.48,894.8,343.3,895.06,343.06 M891.23,337.87h-0.42l1.52-2.07h0.67l1.52,2.07h-0.42l-1.43-1.3L891.23,337.87z
		 M891.09,340.9h3.27c0-0.63-0.1-1.12-0.31-1.48c-0.26-0.44-0.66-0.67-1.22-0.67c-0.54,0-0.97,0.22-1.3,0.68
		C891.24,339.84,891.09,340.33,891.09,340.9 M892.77,346.16c-0.15,0-0.28-0.06-0.39-0.17c-0.11-0.11-0.17-0.24-0.17-0.39
		s0.06-0.28,0.17-0.39c0.12-0.11,0.25-0.17,0.39-0.17c0.16,0,0.29,0.06,0.4,0.17c0.11,0.11,0.17,0.24,0.17,0.4
		c0,0.15-0.06,0.28-0.17,0.39C893.05,346.1,892.92,346.16,892.77,346.16"/>
	<path class="st2" d="M896.51,344.34v-5.9c0.12,0.02,0.21,0.03,0.26,0.04c0.05,0.01,0.13,0.01,0.23,0.01l0.49-0.05v1.14
		c0.21-0.39,0.49-0.69,0.82-0.9c0.34-0.21,0.72-0.31,1.15-0.31c0.71,0,1.21,0.2,1.52,0.59c0.31,0.39,0.46,1,0.46,1.82v3.57
		l-0.49-0.05c-0.09,0-0.16,0-0.21,0.01c-0.05,0-0.15,0.02-0.29,0.04v-3.3c0-0.66-0.08-1.14-0.25-1.44c-0.21-0.4-0.59-0.61-1.13-0.61
		c-0.61,0-1.03,0.22-1.28,0.67c-0.21,0.38-0.32,0.97-0.32,1.8v2.88l-0.49-0.05c-0.09,0-0.16,0-0.21,0.01
		C896.74,344.3,896.65,344.32,896.51,344.34"/>
	<path class="st2" d="M909.63,336.5v7.87c-0.1-0.02-0.19-0.03-0.27-0.04c-0.08-0.01-0.17-0.01-0.27-0.01c-0.1,0-0.2,0.01-0.3,0.02
		c-0.1,0.01-0.18,0.02-0.24,0.03v-7.87c-0.64,0-1.09,0.01-1.36,0.02c-0.27,0.02-0.71,0.06-1.35,0.12c0.01-0.06,0.02-0.11,0.03-0.17
		c0.01-0.06,0.02-0.12,0.02-0.2c0-0.06-0.01-0.12-0.02-0.19c-0.01-0.07-0.02-0.13-0.03-0.18h6.34l-0.02,0.37l0.02,0.37
		c-0.31-0.04-0.69-0.08-1.14-0.1C910.6,336.51,910.13,336.5,909.63,336.5"/>
	<path class="st2" d="M913.3,344.34v-9.25l0.49,0.03l0.49-0.03v4.48c0.21-0.39,0.49-0.69,0.82-0.9c0.34-0.21,0.72-0.31,1.15-0.31
		c0.7,0,1.2,0.2,1.52,0.6c0.31,0.4,0.47,1,0.47,1.8v3.57l-0.49-0.05c-0.09,0-0.16,0-0.21,0.01c-0.05,0-0.15,0.02-0.29,0.04v-3.3
		c0-0.71-0.09-1.22-0.28-1.52c-0.21-0.35-0.58-0.52-1.09-0.52c-0.55,0-0.95,0.16-1.21,0.49c-0.26,0.33-0.39,0.82-0.39,1.48v3.37
		l-0.49-0.05c-0.09,0-0.16,0-0.21,0.01C913.53,344.3,913.44,344.32,913.3,344.34"/>
	<path class="st2" d="M921.42,336.35c0,0.16-0.06,0.31-0.18,0.43c-0.13,0.12-0.27,0.18-0.43,0.18c-0.17,0-0.32-0.06-0.45-0.18
		c-0.12-0.12-0.19-0.26-0.19-0.44c0-0.17,0.06-0.32,0.19-0.45c0.13-0.13,0.28-0.19,0.45-0.19c0.16,0,0.31,0.06,0.43,0.19
		C921.36,336.02,921.42,336.17,921.42,336.35 M921.29,338.44v5.9l-0.49-0.05c-0.09,0-0.16,0-0.21,0.01c-0.05,0-0.14,0.02-0.28,0.04
		v-5.9c0.12,0.02,0.2,0.03,0.26,0.04c0.05,0.01,0.13,0.01,0.23,0.01L921.29,338.44z"/>
	<path class="st2" d="M927.86,343.06l-0.03,0.64c-0.32,0.23-0.66,0.41-1.01,0.54c-0.36,0.13-0.73,0.2-1.11,0.2
		c-0.87,0-1.57-0.27-2.1-0.81c-0.53-0.54-0.8-1.29-0.8-2.24c0-0.89,0.24-1.61,0.72-2.16c0.51-0.58,1.21-0.87,2.11-0.87
		c0.69,0,1.26,0.23,1.72,0.68c0.51,0.5,0.76,1.19,0.76,2.08v0.27c-0.29,0-0.77-0.01-1.44-0.03c-0.67-0.02-1.02-0.03-1.05-0.03h-1.75
		l-0.02,0.25c0,0.65,0.19,1.2,0.57,1.65c0.38,0.44,0.91,0.66,1.59,0.66c0.37,0,0.73-0.1,1.09-0.29
		C927.36,343.48,927.6,343.3,927.86,343.06 M924.03,337.87h-0.42l1.52-2.07h0.67l1.52,2.07h-0.42l-1.43-1.3L924.03,337.87z
		 M923.89,340.9h3.27c0-0.63-0.1-1.12-0.31-1.48c-0.26-0.44-0.66-0.67-1.22-0.67c-0.54,0-0.97,0.22-1.3,0.68
		C924.04,339.84,923.89,340.33,923.89,340.9 M925.57,346.16c-0.15,0-0.28-0.06-0.39-0.17c-0.11-0.11-0.17-0.24-0.17-0.39
		s0.06-0.28,0.17-0.39c0.12-0.11,0.25-0.17,0.39-0.17c0.16,0,0.29,0.06,0.4,0.17c0.11,0.11,0.17,0.24,0.17,0.4
		c0,0.15-0.06,0.28-0.17,0.39C925.85,346.1,925.72,346.16,925.57,346.16"/>
	<path class="st2" d="M929.31,344.34v-5.9c0.12,0.02,0.21,0.03,0.26,0.04c0.05,0.01,0.13,0.01,0.23,0.01l0.49-0.05v1.14
		c0.21-0.39,0.49-0.69,0.82-0.9c0.34-0.21,0.72-0.31,1.15-0.31c0.71,0,1.21,0.2,1.52,0.59c0.31,0.39,0.46,1,0.46,1.82v3.57
		l-0.49-0.05c-0.09,0-0.16,0-0.21,0.01c-0.05,0-0.15,0.02-0.29,0.04v-3.3c0-0.66-0.08-1.14-0.25-1.44c-0.21-0.4-0.59-0.61-1.13-0.61
		c-0.61,0-1.03,0.22-1.28,0.67c-0.21,0.38-0.32,0.97-0.32,1.8v2.88l-0.49-0.05c-0.09,0-0.16,0-0.21,0.01
		C929.54,344.3,929.45,344.32,929.31,344.34"/>
	<path class="st2" d="M945.78,339.45v-3.54c0.08,0.01,0.17,0.03,0.25,0.03c0.08,0.01,0.18,0.01,0.3,0.01c0.14,0,0.25-0.01,0.33-0.02
		c0.09-0.02,0.16-0.02,0.21-0.02v8.44c-0.1-0.02-0.19-0.03-0.27-0.04c-0.08-0.01-0.17-0.01-0.27-0.01c-0.1,0-0.2,0.01-0.3,0.02
		c-0.1,0.01-0.18,0.02-0.24,0.03v-4.25c-0.3,0-0.8-0.01-1.48-0.03c-0.69-0.02-1.06-0.03-1.1-0.03c-0.29,0-0.78,0.01-1.47,0.03
		c-0.69,0.02-1.07,0.03-1.14,0.03v4.25c-0.1-0.02-0.18-0.03-0.27-0.04c-0.08-0.01-0.17-0.01-0.27-0.01c-0.09,0-0.16,0-0.22,0.01
		c-0.06,0-0.17,0.02-0.32,0.04v-8.44c0.15,0.01,0.25,0.03,0.3,0.03c0.05,0.01,0.13,0.01,0.24,0.01c0.14,0,0.25-0.01,0.34-0.02
		c0.09-0.02,0.15-0.02,0.2-0.02v3.54c0.3,0,0.81,0.01,1.51,0.02c0.7,0.02,1.07,0.02,1.1,0.02c0.29,0,0.79-0.01,1.47-0.02
		C945.36,339.45,945.73,339.45,945.78,339.45"/>
	<path class="st2" d="M952.99,340.43v2.85l-0.03,0.17c0,0.16,0.02,0.28,0.06,0.36c0.04,0.08,0.13,0.11,0.26,0.11l0.39-0.08v0.27
		c-0.1,0.06-0.23,0.1-0.37,0.13l-0.45,0.05c-0.23,0-0.43-0.06-0.57-0.17c-0.14-0.11-0.23-0.31-0.27-0.59l-0.1,0.12
		c-0.53,0.52-1.14,0.79-1.82,0.79c-0.46,0-0.85-0.14-1.17-0.43c-0.32-0.29-0.48-0.65-0.48-1.1c0-0.49,0.14-0.86,0.42-1.13
		c0.28-0.27,0.9-0.48,1.86-0.65c0.42-0.07,0.69-0.12,0.82-0.16c0.32-0.11,0.48-0.32,0.48-0.65c0-0.46-0.12-0.82-0.37-1.07
		c-0.25-0.25-0.61-0.38-1.08-0.38c-0.4,0-0.74,0.11-1.03,0.32c-0.23,0.16-0.37,0.34-0.42,0.54H949v-0.68
		c0.32-0.22,0.64-0.4,0.96-0.51c0.32-0.12,0.66-0.18,1.03-0.18C952.32,338.37,952.99,339.05,952.99,340.43 M952,343.06v-1.8
		l-0.44,0.07c-0.73,0.15-1.18,0.26-1.35,0.35c-0.49,0.22-0.74,0.57-0.74,1.06c0,0.38,0.1,0.67,0.31,0.86
		c0.21,0.19,0.51,0.29,0.89,0.29c0.17,0,0.35-0.05,0.53-0.14c0.18-0.09,0.33-0.2,0.44-0.33c0.07-0.05,0.14-0.12,0.22-0.2
		C951.96,343.15,952,343.09,952,343.06 M951.07,346.16c-0.15,0-0.28-0.06-0.39-0.17c-0.11-0.11-0.17-0.24-0.17-0.39
		s0.06-0.28,0.17-0.39c0.12-0.11,0.25-0.17,0.39-0.17c0.16,0,0.29,0.06,0.4,0.17c0.11,0.11,0.17,0.24,0.17,0.4
		c0,0.15-0.06,0.28-0.17,0.39C951.35,346.1,951.22,346.16,951.07,346.16"/>
	<path class="st2" d="M954.8,344.34v-5.9c0.12,0.02,0.21,0.03,0.26,0.04c0.05,0.01,0.13,0.01,0.23,0.01l0.49-0.05v1.14
		c0.21-0.39,0.49-0.69,0.82-0.9c0.34-0.21,0.72-0.31,1.15-0.31c0.71,0,1.21,0.2,1.52,0.59c0.31,0.39,0.46,1,0.46,1.82v3.57
		l-0.49-0.05c-0.09,0-0.16,0-0.21,0.01c-0.05,0-0.15,0.02-0.29,0.04v-3.3c0-0.66-0.08-1.14-0.25-1.44c-0.21-0.4-0.59-0.61-1.13-0.61
		c-0.61,0-1.03,0.22-1.28,0.67c-0.21,0.38-0.32,0.97-0.32,1.8v2.88l-0.49-0.05c-0.09,0-0.16,0-0.21,0.01
		C955.04,344.3,954.94,344.32,954.8,344.34"/>
	<path class="st2" d="M961.54,344.34v-9.25l0.49,0.03l0.49-0.03v4.48c0.21-0.39,0.49-0.69,0.82-0.9c0.34-0.21,0.72-0.31,1.15-0.31
		c0.7,0,1.2,0.2,1.52,0.6c0.31,0.4,0.47,1,0.47,1.8v3.57l-0.49-0.05c-0.09,0-0.16,0-0.21,0.01c-0.05,0-0.15,0.02-0.29,0.04v-3.3
		c0-0.71-0.09-1.22-0.28-1.52c-0.21-0.35-0.58-0.52-1.09-0.52c-0.55,0-0.95,0.16-1.21,0.49c-0.26,0.33-0.39,0.82-0.39,1.48v3.37
		l-0.49-0.05c-0.09,0-0.16,0-0.21,0.01C961.78,344.3,961.68,344.32,961.54,344.34"/>
	<polygon points="914.6,317.35 908.19,317.35 908.19,310.94 901.66,310.94 901.66,317.35 895.25,317.35 895.25,323.88 
		901.66,323.88 901.66,330.3 908.19,330.3 908.19,323.88 914.6,323.88 	"/>
	<path d="M935.3,291.81h2.9c0.69,0.14,1.38,0.27,2.06,0.44c9.89,2.5,14.12,14.16,8.1,22.41c-2.15,2.96-4.39,5.85-6.57,8.78
		c-1.66,2.22-3.3,4.46-4.94,6.69h-0.17c-0.12-0.19-0.22-0.39-0.35-0.57c-3.72-4.97-7.49-9.9-11.16-14.91
		c-5.73-7.81-2.26-18.86,6.88-22.03C933.08,292.26,934.2,292.08,935.3,291.81"/>
	<path class="st3" d="M948.72,306.17c0.01,6.56-5.39,11.97-11.96,11.97c-6.56,0.01-11.98-5.4-11.98-11.94
		c0-6.57,5.39-11.97,11.96-11.97C943.31,294.22,948.71,299.6,948.72,306.17z"/>
	<polygon points="932.51,302.78 932.47,302.78 930.39,303.77 929.97,301.86 932.86,300.52 934.97,300.52 934.97,311.41 
		932.51,311.41 	"/>
	<polygon points="939.52,302.78 939.49,302.78 937.41,303.77 936.99,301.86 939.87,300.52 941.99,300.52 941.99,311.41 
		939.52,311.41 	"/>
</g>
<g>
	<polygon points="577.48,350.6 565.99,350.6 565.99,339.1 554.28,339.1 554.28,350.6 542.79,350.6 542.79,362.3 554.28,362.3 
		554.28,373.79 565.99,373.79 565.99,362.3 577.48,362.3 	"/>
	<path d="M511.91,415.57l1.64-7.7h2.21c0.86,0,1.47,0.12,1.82,0.36c0.36,0.24,0.47,0.64,0.35,1.2c-0.11,0.51-0.38,0.95-0.8,1.31
		c-0.38,0.34-0.86,0.57-1.42,0.7c0.54,0,0.97,0.13,1.29,0.39c0.4,0.31,0.54,0.78,0.41,1.38c-0.17,0.81-0.65,1.45-1.42,1.92
		c-0.29,0.18-0.6,0.3-0.93,0.36c-0.33,0.06-0.71,0.09-1.13,0.09H511.91z M513.73,411.69l-0.73,3.46h1.06c0.55,0,1.04-0.16,1.46-0.49
		c0.42-0.32,0.69-0.74,0.8-1.25c0.13-0.62,0.01-1.08-0.37-1.36c-0.32-0.24-0.85-0.36-1.59-0.36H513.73z M514.45,408.3l-0.63,2.98
		l0.43,0.02c0.26,0,0.51-0.02,0.76-0.06c0.25-0.04,0.5-0.11,0.74-0.21c0.64-0.26,1.03-0.71,1.17-1.36c0.11-0.51,0.02-0.88-0.28-1.1
		c-0.26-0.19-0.71-0.28-1.34-0.28H514.45z"/>
	<path d="M524.18,410.2l-1.15,5.42l-0.44-0.04c-0.08,0-0.14,0-0.19,0.01c-0.05,0-0.14,0.02-0.26,0.04l0.21-0.99
		c-0.53,0.72-1.21,1.08-2.04,1.08c-0.62,0-1.05-0.17-1.28-0.53c-0.23-0.35-0.26-0.91-0.1-1.67l0.71-3.32
		c0.11,0.02,0.19,0.03,0.23,0.03c0.04,0.01,0.11,0.01,0.21,0.01l0.46-0.04l-0.65,3.05c-0.13,0.63-0.13,1.11,0,1.42
		c0.13,0.31,0.45,0.47,0.95,0.47c0.52,0,0.94-0.2,1.26-0.61c0.25-0.31,0.43-0.72,0.54-1.22l0.66-3.11c0.11,0.02,0.18,0.03,0.23,0.03
		c0.04,0.01,0.11,0.01,0.21,0.01L524.18,410.2z"/>
	<path d="M524.85,412.86c0.17-0.8,0.56-1.46,1.15-1.97c0.59-0.51,1.26-0.76,2-0.76c0.71,0,1.23,0.25,1.56,0.75
		c0.33,0.5,0.4,1.17,0.23,2c-0.16,0.78-0.52,1.43-1.06,1.95c-0.6,0.58-1.3,0.87-2.09,0.87c-0.68,0-1.19-0.23-1.54-0.7
		c-0.37-0.5-0.48-1.13-0.32-1.9L524.85,412.86z M527.91,410.49c-0.58,0-1.08,0.27-1.48,0.82c-0.33,0.44-0.57,1.01-0.72,1.71
		c-0.14,0.64-0.13,1.17,0.02,1.58c0.18,0.5,0.54,0.74,1.09,0.74c0.52,0,1-0.3,1.41-0.91c0.33-0.48,0.55-1.01,0.68-1.59
		c0.13-0.62,0.14-1.13,0.02-1.54C528.77,410.76,528.43,410.49,527.91,410.49"/>
	<path d="M530.66,415.62l1.15-5.42c0.11,0.02,0.19,0.03,0.23,0.03c0.04,0.01,0.11,0.01,0.21,0.01l0.46-0.04l-0.22,1.04
		c0.27-0.36,0.58-0.63,0.93-0.82c0.35-0.19,0.72-0.29,1.11-0.29c0.64,0,1.07,0.18,1.28,0.54c0.21,0.36,0.23,0.92,0.07,1.67
		l-0.69,3.27l-0.44-0.04c-0.08,0-0.15,0-0.19,0.01c-0.05,0-0.14,0.02-0.27,0.04l0.65-3.02c0.13-0.6,0.14-1.04,0.05-1.32
		c-0.11-0.37-0.42-0.56-0.91-0.56c-0.56,0-0.99,0.2-1.31,0.61c-0.27,0.35-0.48,0.89-0.64,1.65l-0.56,2.64l-0.44-0.04
		c-0.08,0-0.15,0-0.2,0.01C530.89,415.58,530.8,415.59,530.66,415.62"/>
	<path d="M549.81,407.87h0.23c-0.17,1.51-0.26,2.44-0.29,2.77c-0.06,0.6-0.14,1.48-0.24,2.63c-0.07,0.82-0.13,1.6-0.19,2.35
		c-0.16-0.01-0.27-0.03-0.33-0.03c-0.07-0.01-0.13-0.01-0.2-0.01c-0.16,0-0.28,0-0.35,0.01c-0.09,0.02-0.15,0.03-0.18,0.03
		c0.09-0.76,0.18-1.52,0.28-2.28c0.09-0.76,0.17-1.45,0.24-2.06c0.06-0.61,0.11-1.11,0.14-1.5c-0.58,0.75-1.14,1.48-1.66,2.18
		c-0.48,0.64-0.94,1.27-1.39,1.89c-0.44,0.62-0.82,1.17-1.12,1.64h-0.12l-0.36-1.29c-0.15-0.56-0.29-1.05-0.41-1.46
		c-0.12-0.41-0.28-0.91-0.46-1.49c-0.16-0.49-0.32-0.98-0.46-1.47c-0.81,2.51-1.24,3.83-1.28,3.96c-0.23,0.74-0.4,1.37-0.51,1.88
		c-0.1-0.02-0.17-0.03-0.22-0.04c-0.04,0-0.1-0.01-0.18-0.01c-0.07,0-0.15,0.01-0.23,0.02c-0.08,0.01-0.15,0.02-0.19,0.03
		c0.37-1.01,0.87-2.41,1.51-4.2c0.64-1.79,1.04-2.97,1.22-3.54h0.29c0.17,0.6,0.36,1.23,0.56,1.88c0.22,0.74,0.44,1.41,0.64,2.01
		c0.25,0.74,0.5,1.41,0.75,2.02c0.61-0.8,1.1-1.44,1.47-1.93c0.49-0.65,0.98-1.3,1.46-1.93
		C548.72,409.29,549.24,408.6,549.81,407.87"/>
	<path d="M555.59,412.03l-0.56,2.62l-0.06,0.16c-0.03,0.15-0.04,0.26-0.02,0.33c0.02,0.07,0.1,0.1,0.22,0.1l0.38-0.07l-0.06,0.25
		c-0.1,0.05-0.23,0.09-0.36,0.11l-0.42,0.04c-0.22,0-0.38-0.05-0.49-0.16c-0.11-0.1-0.15-0.29-0.13-0.54l-0.11,0.12
		c-0.59,0.48-1.2,0.72-1.83,0.72c-0.42,0-0.75-0.13-0.99-0.39c-0.24-0.26-0.31-0.6-0.23-1.01c0.1-0.45,0.3-0.79,0.61-1.03
		c0.31-0.24,0.92-0.44,1.84-0.59c0.39-0.06,0.66-0.11,0.78-0.15c0.31-0.1,0.51-0.3,0.57-0.6c0.09-0.42,0.05-0.75-0.13-0.98
		c-0.18-0.23-0.48-0.35-0.92-0.35c-0.37,0-0.71,0.1-1.01,0.29c-0.24,0.15-0.4,0.32-0.49,0.5h-0.14l0.13-0.63
		c0.34-0.21,0.67-0.36,0.98-0.47c0.32-0.11,0.65-0.16,0.98-0.16C555.38,410.13,555.86,410.77,555.59,412.03 M554.18,414.44
		l0.35-1.65l-0.42,0.07c-0.7,0.14-1.13,0.24-1.31,0.32c-0.49,0.2-0.79,0.52-0.88,0.97c-0.07,0.35-0.03,0.62,0.12,0.79
		c0.15,0.18,0.41,0.26,0.76,0.26c0.16,0,0.33-0.04,0.52-0.12c0.19-0.08,0.35-0.18,0.47-0.3c0.07-0.05,0.15-0.11,0.24-0.18
		C554.12,414.52,554.17,414.47,554.18,414.44"/>
	<path d="M564.71,408.42l-1.53,7.22c-0.09-0.02-0.17-0.03-0.24-0.03c-0.08-0.01-0.16-0.01-0.24-0.01c-0.09,0-0.19,0.01-0.28,0.02
		c-0.1,0.01-0.17,0.02-0.22,0.03l1.53-7.22c-0.59,0-1,0.01-1.25,0.02c-0.25,0.01-0.67,0.05-1.26,0.11c0.02-0.05,0.04-0.1,0.06-0.16
		c0.02-0.05,0.04-0.11,0.06-0.18c0.01-0.05,0.02-0.11,0.02-0.17c0-0.06,0-0.12,0.01-0.17h5.82l-0.1,0.34l-0.05,0.34
		c-0.28-0.04-0.62-0.07-1.03-0.09C565.59,408.43,565.16,408.42,564.71,408.42"/>
	<path d="M566.96,415.62l1.8-8.49l0.45,0.02l0.46-0.02l-0.87,4.11c0.27-0.36,0.58-0.63,0.93-0.82c0.35-0.19,0.72-0.29,1.11-0.29
		c0.64,0,1.06,0.18,1.28,0.55c0.21,0.37,0.24,0.92,0.08,1.66l-0.69,3.27l-0.44-0.04c-0.08,0-0.15,0-0.19,0.01s-0.14,0.02-0.27,0.04
		l0.64-3.02c0.14-0.66,0.15-1.12,0.04-1.4c-0.13-0.32-0.43-0.47-0.9-0.47c-0.5,0-0.91,0.15-1.21,0.45c-0.3,0.3-0.52,0.75-0.64,1.36
		l-0.65,3.09l-0.44-0.04c-0.08,0-0.15,0-0.2,0.01C567.18,415.58,567.09,415.59,566.96,415.62"/>
	<path d="M578.84,410.2l-1.15,5.42l-0.44-0.04c-0.08,0-0.14,0-0.19,0.01c-0.05,0-0.14,0.02-0.26,0.04l0.21-0.99
		c-0.53,0.72-1.21,1.08-2.04,1.08c-0.62,0-1.05-0.17-1.28-0.53c-0.23-0.35-0.26-0.91-0.1-1.67l0.71-3.32
		c0.11,0.02,0.19,0.03,0.23,0.03c0.04,0.01,0.11,0.01,0.21,0.01l0.46-0.04l-0.65,3.05c-0.13,0.63-0.13,1.11,0,1.42
		c0.13,0.31,0.45,0.47,0.95,0.47c0.52,0,0.94-0.2,1.26-0.61c0.25-0.31,0.43-0.72,0.53-1.22l0.66-3.11c0.11,0.02,0.18,0.03,0.23,0.03
		c0.04,0.01,0.11,0.01,0.21,0.01L578.84,410.2z"/>
	<path d="M579.51,412.86c0.17-0.8,0.56-1.46,1.15-1.97c0.59-0.51,1.26-0.76,2-0.76c0.71,0,1.23,0.25,1.56,0.75
		c0.33,0.5,0.41,1.17,0.23,2c-0.17,0.78-0.52,1.43-1.06,1.95c-0.6,0.58-1.3,0.87-2.09,0.87c-0.68,0-1.19-0.23-1.54-0.7
		c-0.37-0.5-0.48-1.13-0.32-1.9L579.51,412.86z M582.56,410.49c-0.58,0-1.08,0.27-1.48,0.82c-0.33,0.44-0.57,1.01-0.72,1.71
		c-0.14,0.64-0.13,1.17,0.02,1.58c0.18,0.5,0.54,0.74,1.09,0.74c0.52,0,1-0.3,1.41-0.91c0.33-0.48,0.55-1.01,0.68-1.59
		c0.13-0.62,0.14-1.13,0.02-1.54C583.43,410.76,583.09,410.49,582.56,410.49"/>
	<path d="M586.64,409.09l0.98-0.36l-0.31,1.47h1.2l-0.07,0.25l-0.02,0.18h-1.2l-0.61,2.84l-0.11,0.38
		c-0.12,0.56-0.12,0.94-0.01,1.16c0.1,0.19,0.28,0.28,0.56,0.28c0.1,0,0.2-0.01,0.3-0.03c0.1-0.02,0.18-0.04,0.25-0.06l-0.06,0.28
		c-0.16,0.06-0.34,0.11-0.52,0.16c-0.18,0.04-0.34,0.07-0.47,0.07c-0.45,0-0.75-0.11-0.91-0.33c-0.18-0.25-0.21-0.68-0.09-1.27
		l0.06-0.18l0.71-3.3h-0.7c0.02-0.04,0.04-0.11,0.06-0.2c0.03-0.11,0.03-0.18,0.03-0.23h0.7L586.64,409.09z"/>
	<path d="M598.57,414.38l-0.2,0.72c-0.4,0.22-0.82,0.39-1.27,0.5c-0.45,0.11-0.91,0.16-1.38,0.16c-1.23,0-2.13-0.36-2.68-1.1
		c-0.55-0.73-0.69-1.72-0.43-2.97c0.26-1.23,0.88-2.21,1.85-2.93c0.93-0.69,2.02-1.04,3.26-1.04c0.85,0,1.62,0.17,2.3,0.52
		c-0.07,0.11-0.14,0.25-0.21,0.39c-0.07,0.15-0.14,0.3-0.2,0.46l-0.09,0.03c-0.15-0.27-0.43-0.51-0.84-0.71
		c-0.35-0.18-0.72-0.26-1.1-0.26c-0.99,0-1.85,0.36-2.57,1.07c-0.66,0.66-1.09,1.49-1.31,2.52c-0.23,1.08-0.13,1.95,0.29,2.6
		c0.42,0.65,1.08,0.97,1.98,0.97c0.4,0,0.84-0.08,1.31-0.25C597.77,414.89,598.19,414.66,598.57,414.38"/>
	<path d="M602.33,410.2l-1.15,5.42l-0.44-0.04c-0.08,0-0.14,0-0.19,0.01c-0.05,0-0.14,0.02-0.27,0.04l1.15-5.42
		c0.11,0.02,0.18,0.03,0.23,0.03c0.04,0.01,0.11,0.01,0.21,0.01L602.33,410.2z M602.85,408.28c-0.03,0.15-0.12,0.28-0.26,0.39
		c-0.14,0.11-0.28,0.17-0.43,0.17c-0.16,0-0.28-0.05-0.38-0.16c-0.09-0.11-0.12-0.24-0.09-0.4c0.03-0.16,0.12-0.3,0.26-0.41
		c0.14-0.12,0.29-0.18,0.45-0.18c0.15,0,0.27,0.06,0.36,0.17C602.86,407.98,602.88,408.12,602.85,408.28"/>
	<path d="M604.8,409.09l0.98-0.36l-0.31,1.47h1.2l-0.07,0.25l-0.02,0.18h-1.2l-0.61,2.84l-0.1,0.38c-0.12,0.56-0.12,0.94-0.01,1.16
		c0.1,0.19,0.28,0.28,0.56,0.28c0.1,0,0.2-0.01,0.3-0.03c0.1-0.02,0.18-0.04,0.25-0.06l-0.06,0.28c-0.16,0.06-0.34,0.11-0.52,0.16
		c-0.18,0.04-0.34,0.07-0.47,0.07c-0.45,0-0.75-0.11-0.91-0.33c-0.18-0.25-0.21-0.68-0.09-1.27l0.06-0.18l0.71-3.3h-0.7
		c0.02-0.04,0.04-0.11,0.06-0.2c0.03-0.11,0.04-0.18,0.03-0.23h0.7L604.8,409.09z"/>
	<path d="M608.65,415.55l-1.15-5.35c0.09,0.02,0.17,0.03,0.26,0.03c0.08,0.01,0.17,0.01,0.28,0.01c0.08,0,0.18-0.01,0.29-0.02
		c0.11-0.01,0.19-0.02,0.26-0.03c0.07,0.71,0.17,1.39,0.29,2.04c0.12,0.65,0.28,1.37,0.49,2.16c0.35-0.5,0.77-1.16,1.29-2
		c0.51-0.84,0.95-1.57,1.29-2.2c0.05,0.02,0.11,0.03,0.17,0.03c0.06,0.01,0.13,0.01,0.21,0.01c0.06,0,0.18-0.02,0.36-0.04
		c-1.14,1.72-1.77,2.67-1.89,2.86c-0.89,1.33-1.49,2.23-1.8,2.72c-0.68,1.05-1.26,1.96-1.72,2.73c-0.07-0.01-0.13-0.03-0.18-0.03
		c-0.05-0.01-0.12-0.01-0.19-0.01c-0.11,0-0.19,0-0.24,0.01c-0.07,0.02-0.13,0.03-0.15,0.03L608.65,415.55z"/>
	<path d="M523.58,421.44h-0.12c-0.24-0.35-0.55-0.62-0.96-0.81s-0.86-0.28-1.36-0.28c-0.99,0-1.84,0.31-2.56,0.93
		c-0.72,0.62-1.2,1.49-1.44,2.61c-0.24,1.14-0.14,2.03,0.3,2.66c0.44,0.64,1.21,0.95,2.32,0.95c0.32,0,0.63-0.03,0.95-0.1
		c0.32-0.07,0.62-0.16,0.89-0.29l0.62-2.89l0.49,0.02l0.5-0.02l-0.68,3.18c-0.53,0.18-1.07,0.31-1.61,0.41
		c-0.54,0.09-1.07,0.14-1.57,0.14c-1.38,0-2.35-0.38-2.92-1.14c-0.52-0.71-0.66-1.67-0.4-2.88c0.27-1.29,0.9-2.29,1.89-3
		c0.93-0.68,2.05-1.01,3.37-1.01c0.58,0,1.11,0.06,1.59,0.17c0.48,0.11,0.86,0.27,1.16,0.48c-0.08,0.12-0.16,0.26-0.24,0.41
		C523.72,421.15,523.65,421.3,523.58,421.44"/>
	<path d="M528.95,426.65l-0.14,0.59c-0.34,0.21-0.69,0.38-1.04,0.5c-0.35,0.12-0.7,0.18-1.05,0.18c-0.8,0-1.39-0.25-1.77-0.75
		c-0.38-0.5-0.48-1.18-0.3-2.05c0.18-0.82,0.54-1.48,1.08-1.98c0.58-0.53,1.28-0.8,2.11-0.8c0.63,0,1.11,0.21,1.44,0.62
		c0.37,0.46,0.47,1.09,0.3,1.91l-0.05,0.25c-0.26,0-0.7-0.01-1.31-0.03c-0.61-0.02-0.93-0.03-0.96-0.03h-1.6l-0.07,0.23
		c-0.13,0.6-0.06,1.11,0.2,1.51c0.26,0.41,0.71,0.61,1.33,0.61c0.34,0,0.69-0.09,1.06-0.27
		C528.41,427.04,528.67,426.87,528.95,426.65 M525.74,424.67h3c0.12-0.57,0.12-1.02,0.01-1.36c-0.15-0.41-0.47-0.61-0.99-0.61
		c-0.5,0-0.94,0.21-1.33,0.62C526.08,423.7,525.85,424.15,525.74,424.67"/>
	<path d="M530.46,427.83l1.15-5.42c0.11,0.02,0.19,0.03,0.23,0.03c0.04,0.01,0.11,0.01,0.21,0.01l0.46-0.04l-0.22,1.04
		c0.27-0.36,0.58-0.63,0.93-0.82c0.35-0.19,0.72-0.29,1.11-0.29c0.65,0,1.07,0.18,1.28,0.54c0.21,0.36,0.23,0.92,0.07,1.67
		l-0.69,3.27l-0.44-0.04c-0.08,0-0.15,0-0.19,0.01c-0.05,0-0.14,0.02-0.27,0.04l0.65-3.03c0.13-0.6,0.14-1.04,0.05-1.32
		c-0.11-0.37-0.42-0.56-0.91-0.56c-0.56,0-0.99,0.2-1.31,0.61c-0.27,0.35-0.48,0.89-0.64,1.65l-0.56,2.64l-0.44-0.04
		c-0.08,0-0.15,0-0.2,0.01C530.68,427.79,530.59,427.81,530.46,427.83"/>
	<path d="M541.45,426.65l-0.14,0.59c-0.34,0.21-0.69,0.38-1.04,0.5c-0.35,0.12-0.7,0.18-1.05,0.18c-0.8,0-1.39-0.25-1.77-0.75
		c-0.38-0.5-0.48-1.18-0.3-2.05c0.18-0.82,0.54-1.48,1.08-1.98c0.58-0.53,1.28-0.8,2.11-0.8c0.63,0,1.11,0.21,1.44,0.62
		c0.37,0.46,0.47,1.09,0.3,1.91l-0.06,0.25c-0.26,0-0.7-0.01-1.31-0.03c-0.61-0.02-0.93-0.03-0.96-0.03h-1.6l-0.07,0.23
		c-0.13,0.6-0.06,1.11,0.2,1.51c0.27,0.41,0.71,0.61,1.33,0.61c0.34,0,0.69-0.09,1.06-0.27
		C540.92,427.04,541.17,426.87,541.45,426.65 M538.24,424.67h3c0.12-0.57,0.12-1.02,0-1.36c-0.15-0.41-0.47-0.61-0.99-0.61
		c-0.5,0-0.94,0.21-1.33,0.62C538.58,423.7,538.35,424.15,538.24,424.67"/>
	<path d="M542.98,427.83l1.15-5.42c0.11,0.02,0.19,0.03,0.23,0.03c0.04,0.01,0.11,0.01,0.21,0.01l0.46-0.04l-0.24,1.13l0.08-0.14
		c0.27-0.31,0.54-0.56,0.8-0.74c0.31-0.21,0.59-0.31,0.84-0.31c0.13,0,0.25,0.02,0.35,0.07l-0.36,0.95
		c-0.17-0.06-0.33-0.12-0.5-0.18c-0.3,0-0.56,0.09-0.78,0.28c-0.22,0.21-0.38,0.41-0.47,0.61c-0.09,0.19-0.17,0.47-0.25,0.84
		l-0.62,2.93l-0.44-0.04c-0.08,0-0.15,0-0.2,0.01C543.21,427.79,543.12,427.81,542.98,427.83"/>
	<path d="M551.61,424.24l-0.56,2.62l-0.05,0.16c-0.03,0.15-0.04,0.26-0.02,0.33c0.02,0.07,0.09,0.1,0.22,0.1l0.37-0.07l-0.05,0.25
		c-0.11,0.05-0.23,0.09-0.36,0.12l-0.42,0.04c-0.22,0-0.38-0.05-0.49-0.16c-0.11-0.1-0.15-0.29-0.13-0.54l-0.11,0.12
		c-0.59,0.48-1.2,0.72-1.83,0.72c-0.42,0-0.75-0.13-0.99-0.39c-0.24-0.26-0.31-0.6-0.23-1.01c0.1-0.45,0.3-0.79,0.61-1.03
		c0.31-0.24,0.92-0.44,1.84-0.59c0.39-0.06,0.65-0.11,0.78-0.15c0.31-0.1,0.51-0.3,0.57-0.59c0.09-0.42,0.05-0.75-0.13-0.98
		c-0.18-0.23-0.48-0.35-0.92-0.35c-0.37,0-0.71,0.1-1.01,0.29c-0.24,0.15-0.4,0.31-0.49,0.5h-0.14l0.13-0.63
		c0.34-0.2,0.67-0.36,0.98-0.47c0.32-0.11,0.65-0.16,0.98-0.16C551.4,422.34,551.88,422.98,551.61,424.24 M550.19,426.65l0.35-1.65
		l-0.42,0.07c-0.7,0.14-1.14,0.24-1.31,0.32c-0.49,0.2-0.79,0.52-0.88,0.97c-0.07,0.35-0.03,0.62,0.12,0.79
		c0.15,0.18,0.41,0.26,0.76,0.26c0.16,0,0.33-0.04,0.52-0.12c0.19-0.08,0.35-0.18,0.47-0.3c0.07-0.05,0.15-0.11,0.24-0.18
		C550.13,426.73,550.18,426.68,550.19,426.65"/>
	<path d="M553.18,427.83l1.8-8.49l0.45,0.02l0.46-0.02l-1.8,8.49l-0.44-0.04c-0.08,0-0.15,0-0.2,0.01S553.32,427.81,553.18,427.83"
		/>
	<path d="M566.71,423.34l0.69-3.25c0.07,0.02,0.15,0.03,0.22,0.03c0.07,0.01,0.16,0.01,0.27,0.01c0.13,0,0.23-0.01,0.31-0.02
		c0.08-0.02,0.15-0.02,0.2-0.02l-1.65,7.74c-0.09-0.02-0.17-0.03-0.24-0.03c-0.07-0.01-0.15-0.01-0.24-0.01
		c-0.09,0-0.19,0.01-0.29,0.02c-0.1,0.01-0.17,0.02-0.23,0.03l0.83-3.9c-0.28,0-0.73-0.01-1.36-0.02c-0.63-0.02-0.96-0.03-1-0.03
		c-0.27,0-0.72,0.01-1.36,0.03c-0.63,0.02-0.98,0.02-1.05,0.02l-0.83,3.9c-0.09-0.02-0.16-0.03-0.24-0.03
		c-0.07-0.01-0.15-0.01-0.25-0.01c-0.08,0-0.15,0-0.2,0.01c-0.06,0-0.16,0.02-0.3,0.04l1.65-7.74c0.13,0.02,0.22,0.03,0.27,0.03
		c0.04,0.01,0.12,0.01,0.22,0.01c0.13,0,0.24-0.01,0.32-0.02c0.08-0.02,0.15-0.02,0.19-0.02l-0.69,3.25c0.28,0,0.74,0.01,1.38,0.02
		c0.64,0.02,0.98,0.02,1.01,0.02c0.27,0,0.72-0.01,1.35-0.02C566.32,423.34,566.66,423.34,566.71,423.34"/>
	<path d="M569.05,425.07c0.17-0.8,0.56-1.46,1.15-1.97c0.59-0.51,1.26-0.76,2.01-0.76c0.71,0,1.23,0.25,1.56,0.76
		c0.33,0.5,0.4,1.17,0.23,2c-0.17,0.78-0.52,1.43-1.06,1.95c-0.6,0.58-1.3,0.87-2.09,0.87c-0.68,0-1.19-0.23-1.54-0.7
		c-0.37-0.5-0.48-1.13-0.32-1.9L569.05,425.07z M572.11,422.7c-0.58,0-1.08,0.27-1.48,0.82c-0.33,0.44-0.58,1.01-0.72,1.71
		c-0.14,0.64-0.13,1.17,0.02,1.58c0.18,0.5,0.54,0.74,1.09,0.74c0.52,0,1-0.31,1.41-0.92c0.33-0.48,0.55-1.01,0.68-1.59
		c0.13-0.62,0.14-1.13,0.02-1.54C572.97,422.97,572.63,422.7,572.11,422.7"/>
	<path d="M574.96,426.72h0.09c0.1,0.24,0.25,0.43,0.45,0.59c0.19,0.16,0.42,0.24,0.66,0.24c0.3,0,0.58-0.1,0.84-0.29
		c0.26-0.19,0.42-0.44,0.49-0.75c0.1-0.46-0.27-0.82-1.1-1.08c-0.84-0.26-1.18-0.73-1.03-1.43c0.11-0.52,0.37-0.94,0.79-1.23
		c0.41-0.29,0.89-0.44,1.42-0.44c0.27,0,0.52,0.03,0.76,0.1c0.18,0.05,0.33,0.11,0.45,0.19c-0.17,0.27-0.32,0.54-0.45,0.82h-0.09
		c-0.04-0.21-0.14-0.38-0.28-0.53c-0.15-0.15-0.32-0.22-0.53-0.22c-0.3,0-0.56,0.08-0.78,0.24c-0.22,0.16-0.36,0.39-0.42,0.69
		c-0.1,0.45,0.27,0.82,1.09,1.11c0.83,0.29,1.17,0.74,1.04,1.38c-0.12,0.56-0.44,1.01-0.95,1.36c-0.46,0.3-0.96,0.45-1.51,0.45
		c-0.52,0-0.97-0.13-1.34-0.38c0.1-0.18,0.17-0.32,0.23-0.41C574.86,426.95,574.92,426.81,574.96,426.72"/>
	<path d="M579.73,430.72c-0.07-0.02-0.14-0.03-0.21-0.03c-0.07-0.01-0.14-0.01-0.23-0.01c-0.08,0-0.16,0.01-0.25,0.02
		c-0.09,0.01-0.16,0.02-0.21,0.03l1.76-8.3c0.07,0.01,0.14,0.03,0.21,0.03c0.07,0.01,0.15,0.01,0.24,0.01
		c0.07,0,0.16-0.01,0.24-0.02c0.09-0.01,0.16-0.02,0.21-0.03l-0.24,1.15c0.31-0.38,0.54-0.62,0.69-0.74
		c0.42-0.31,0.92-0.47,1.51-0.47c0.69,0,1.2,0.26,1.5,0.79c0.29,0.49,0.36,1.09,0.21,1.81c-0.19,0.91-0.57,1.63-1.14,2.17
		c-0.56,0.54-1.21,0.81-1.94,0.81c-0.4,0-0.72-0.09-0.96-0.28c-0.24-0.19-0.42-0.46-0.55-0.83L579.73,430.72z M580.89,425.25
		c-0.14,0.65-0.12,1.16,0.07,1.54c0.2,0.42,0.58,0.63,1.14,0.63c0.52,0,0.97-0.24,1.34-0.72c0.32-0.43,0.56-1,0.71-1.71
		c0.14-0.65,0.15-1.17,0.02-1.54c-0.17-0.48-0.53-0.72-1.09-0.72c-0.59,0-1.09,0.29-1.49,0.87
		C581.26,424.05,581.03,424.61,580.89,425.25"/>
	<path d="M588.49,422.41l-1.15,5.42l-0.44-0.04c-0.08,0-0.14,0-0.19,0.01c-0.05,0-0.14,0.02-0.27,0.04l1.15-5.42
		c0.11,0.02,0.18,0.03,0.23,0.03c0.04,0.01,0.11,0.01,0.21,0.01L588.49,422.41z M589.01,420.49c-0.03,0.15-0.12,0.28-0.26,0.39
		c-0.14,0.11-0.28,0.17-0.43,0.17c-0.16,0-0.28-0.05-0.38-0.16c-0.09-0.11-0.12-0.24-0.09-0.4c0.03-0.16,0.12-0.3,0.26-0.41
		c0.14-0.12,0.29-0.18,0.45-0.18c0.15,0,0.27,0.06,0.36,0.17C589.02,420.19,589.04,420.33,589.01,420.49"/>
	<path d="M590.98,421.3l0.98-0.36l-0.31,1.47h1.2l-0.07,0.25l-0.02,0.18h-1.2l-0.61,2.84l-0.1,0.39c-0.12,0.55-0.12,0.94-0.01,1.16
		c0.1,0.19,0.28,0.28,0.56,0.28c0.1,0,0.2-0.01,0.3-0.03c0.1-0.02,0.18-0.04,0.25-0.06l-0.06,0.28c-0.16,0.06-0.34,0.11-0.52,0.16
		c-0.18,0.04-0.34,0.07-0.47,0.07c-0.45,0-0.75-0.11-0.91-0.33c-0.18-0.25-0.21-0.68-0.09-1.27l0.06-0.18l0.71-3.29h-0.7
		c0.02-0.04,0.04-0.11,0.06-0.2c0.03-0.11,0.03-0.18,0.03-0.23h0.7L590.98,421.3z"/>
	<path d="M597.69,424.24l-0.56,2.62l-0.05,0.16c-0.03,0.15-0.04,0.26-0.02,0.33c0.02,0.07,0.09,0.1,0.22,0.1l0.37-0.07l-0.05,0.25
		c-0.11,0.05-0.23,0.09-0.36,0.12l-0.42,0.04c-0.22,0-0.38-0.05-0.49-0.16c-0.11-0.1-0.15-0.29-0.13-0.54l-0.11,0.12
		c-0.59,0.48-1.2,0.72-1.83,0.72c-0.42,0-0.75-0.13-0.99-0.39c-0.24-0.26-0.31-0.6-0.23-1.01c0.1-0.45,0.3-0.79,0.61-1.03
		c0.31-0.24,0.92-0.44,1.84-0.59c0.39-0.06,0.66-0.11,0.78-0.15c0.31-0.1,0.51-0.3,0.57-0.59c0.09-0.42,0.05-0.75-0.13-0.98
		c-0.18-0.23-0.48-0.35-0.92-0.35c-0.37,0-0.71,0.1-1.01,0.29c-0.24,0.15-0.4,0.31-0.49,0.5h-0.14l0.13-0.63
		c0.34-0.2,0.67-0.36,0.98-0.47c0.32-0.11,0.65-0.16,0.98-0.16C597.48,422.34,597.96,422.98,597.69,424.24 M596.27,426.65l0.35-1.65
		l-0.42,0.07c-0.7,0.14-1.14,0.24-1.31,0.32c-0.49,0.2-0.79,0.52-0.88,0.97c-0.07,0.35-0.03,0.62,0.12,0.79
		c0.15,0.18,0.41,0.26,0.76,0.26c0.16,0,0.33-0.04,0.52-0.12c0.19-0.08,0.35-0.18,0.47-0.3c0.07-0.05,0.15-0.11,0.24-0.18
		C596.21,426.73,596.26,426.68,596.27,426.65"/>
	<path d="M599.27,427.83l1.8-8.49l0.45,0.02l0.46-0.02l-1.8,8.49l-0.44-0.04c-0.08,0-0.15,0-0.2,0.01
		C599.5,427.79,599.41,427.81,599.27,427.83"/>
	<path class="st4" d="M508.22,402.07v-10.9h3.13c1.22,0,2.11,0.17,2.69,0.5c0.58,0.34,0.86,0.9,0.86,1.7c0,0.72-0.24,1.34-0.73,1.85
		c-0.45,0.48-1.05,0.81-1.79,0.99c0.76,0,1.4,0.18,1.93,0.55c0.67,0.45,1.01,1.1,1.01,1.95c0,1.15-0.48,2.05-1.44,2.71
		c-0.35,0.25-0.76,0.42-1.21,0.51c-0.45,0.09-0.97,0.13-1.57,0.13H508.22z M509.63,391.78V396l0.61,0.03c0.36,0,0.72-0.03,1.06-0.09
		c0.34-0.06,0.67-0.16,0.98-0.29c0.83-0.36,1.25-1.01,1.25-1.92c0-0.72-0.24-1.24-0.73-1.55c-0.43-0.27-1.09-0.4-1.98-0.4H509.63z
		 M509.63,396.57v4.89h1.5c0.79,0,1.43-0.23,1.93-0.69c0.5-0.46,0.75-1.05,0.75-1.77c0-0.88-0.31-1.52-0.93-1.92
		c-0.53-0.34-1.32-0.52-2.36-0.52H509.63z"/>
	<path class="st4" d="M523.4,400.47l-0.03,0.83c-0.42,0.3-0.86,0.53-1.32,0.7c-0.46,0.17-0.94,0.26-1.43,0.26
		c-1.13,0-2.04-0.35-2.73-1.06c-0.69-0.7-1.04-1.67-1.04-2.9c0-1.15,0.31-2.09,0.93-2.8c0.66-0.75,1.57-1.13,2.74-1.13
		c0.9,0,1.64,0.29,2.24,0.88c0.66,0.64,0.99,1.54,0.99,2.7v0.35c-0.38,0-1-0.01-1.86-0.04c-0.87-0.02-1.32-0.04-1.37-0.04h-2.27
		l-0.03,0.32c0,0.85,0.25,1.57,0.74,2.14c0.5,0.57,1.19,0.86,2.07,0.86c0.48,0,0.95-0.13,1.42-0.38
		C522.75,401.02,523.06,400.79,523.4,400.47 M518.43,393.73h-0.54l1.98-2.68h0.86l1.98,2.68h-0.55l-1.86-1.69L518.43,393.73z
		 M518.25,397.67h4.25c0-0.81-0.13-1.45-0.4-1.92c-0.33-0.58-0.86-0.87-1.58-0.87c-0.7,0-1.27,0.29-1.69,0.88
		C518.44,396.29,518.25,396.93,518.25,397.67 M520.42,404.5c-0.19,0-0.36-0.07-0.51-0.22c-0.15-0.15-0.22-0.32-0.22-0.51
		c0-0.19,0.07-0.36,0.22-0.51c0.15-0.15,0.32-0.22,0.51-0.22c0.2,0,0.38,0.07,0.52,0.21c0.14,0.14,0.21,0.32,0.21,0.52
		c0,0.19-0.07,0.36-0.22,0.51C520.79,404.42,520.62,404.5,520.42,404.5"/>
	<path class="st4" d="M525.28,402.13v-7.67c0.16,0.02,0.27,0.04,0.34,0.05c0.06,0.01,0.16,0.02,0.3,0.02l0.64-0.06v1.48
		c0.28-0.51,0.63-0.89,1.07-1.16c0.44-0.27,0.93-0.4,1.49-0.4c0.92,0,1.57,0.25,1.98,0.76c0.4,0.51,0.6,1.3,0.6,2.36v4.63
		l-0.64-0.06c-0.11,0-0.21,0-0.27,0.01c-0.07,0.01-0.19,0.02-0.37,0.05v-4.28c0-0.85-0.11-1.47-0.32-1.86
		c-0.28-0.52-0.76-0.79-1.47-0.79c-0.79,0-1.34,0.29-1.66,0.87c-0.28,0.49-0.41,1.27-0.41,2.33v3.74l-0.64-0.06
		c-0.12,0-0.21,0-0.27,0.01C525.58,402.09,525.46,402.1,525.28,402.13"/>
	<path class="st4" d="M534.03,402.13v-12.01l0.64,0.03l0.64-0.03v5.82c0.28-0.51,0.63-0.89,1.07-1.16c0.44-0.27,0.93-0.4,1.49-0.4
		c0.91,0,1.56,0.26,1.97,0.78c0.41,0.52,0.61,1.3,0.61,2.34v4.63l-0.64-0.06c-0.11,0-0.21,0-0.27,0.01
		c-0.07,0.01-0.19,0.02-0.37,0.05v-4.28c0-0.93-0.12-1.59-0.37-1.98c-0.27-0.45-0.75-0.67-1.42-0.67c-0.71,0-1.23,0.21-1.57,0.64
		c-0.33,0.43-0.5,1.07-0.5,1.92v4.38l-0.64-0.06c-0.12,0-0.21,0-0.27,0.01C534.33,402.09,534.21,402.1,534.03,402.13"/>
	<path class="st4" d="M551.24,397.92l1.28-3.46c0.07,0.02,0.15,0.04,0.22,0.05c0.08,0.01,0.17,0.02,0.29,0.02
		c0.08,0,0.25-0.02,0.51-0.06c-0.24,0.52-0.59,1.28-1.04,2.27c-0.39,0.88-0.8,1.81-1.2,2.78c-0.48,1.16-0.82,2.04-1.02,2.62
		l-0.47-0.06c-0.13,0-0.3,0.02-0.52,0.06c-0.32-0.91-0.78-2.11-1.39-3.61c-0.61-1.5-1.19-2.85-1.74-4.06
		c0.3,0.04,0.54,0.06,0.73,0.06c0.1,0,0.22-0.01,0.35-0.02c0.14-0.02,0.25-0.03,0.35-0.04c0.23,0.75,0.55,1.69,0.98,2.81
		c0.43,1.12,0.89,2.24,1.38,3.36c0.01-0.02,0.06-0.1,0.16-0.23c0.1-0.13,0.15-0.2,0.16-0.23L551.24,397.92z"/>
	<path class="st4" d="M556.61,391.75c0,0.21-0.08,0.4-0.24,0.56c-0.16,0.16-0.35,0.24-0.56,0.24c-0.22,0-0.42-0.08-0.58-0.23
		c-0.16-0.15-0.25-0.34-0.25-0.57c0-0.22,0.08-0.42,0.25-0.59c0.16-0.17,0.36-0.25,0.58-0.25c0.21,0,0.4,0.08,0.56,0.24
		C556.53,391.32,556.61,391.52,556.61,391.75 M556.45,394.47v7.67l-0.64-0.06c-0.11,0-0.2,0-0.27,0.01
		c-0.07,0.01-0.19,0.03-0.36,0.06v-7.67c0.16,0.02,0.27,0.04,0.33,0.05c0.07,0.01,0.17,0.02,0.3,0.02L556.45,394.47z"/>
	<path class="st4" d="M564.98,400.47l-0.03,0.83c-0.42,0.3-0.86,0.53-1.32,0.7c-0.46,0.17-0.94,0.26-1.43,0.26
		c-1.13,0-2.04-0.35-2.73-1.06c-0.69-0.7-1.04-1.67-1.04-2.9c0-1.15,0.31-2.09,0.93-2.8c0.66-0.75,1.57-1.13,2.74-1.13
		c0.9,0,1.64,0.29,2.24,0.88c0.66,0.64,0.99,1.54,0.99,2.7v0.35c-0.38,0-1-0.01-1.86-0.04c-0.87-0.02-1.32-0.04-1.37-0.04h-2.27
		l-0.03,0.32c0,0.85,0.25,1.57,0.74,2.14c0.5,0.57,1.19,0.86,2.07,0.86c0.48,0,0.95-0.13,1.42-0.38
		C564.33,401.02,564.64,400.79,564.98,400.47 M560.01,393.73h-0.54l1.98-2.68h0.86l1.98,2.68h-0.55l-1.86-1.69L560.01,393.73z
		 M559.83,397.67h4.25c0-0.81-0.13-1.45-0.4-1.92c-0.33-0.58-0.86-0.87-1.58-0.87c-0.7,0-1.27,0.29-1.69,0.88
		C560.02,396.29,559.83,396.93,559.83,397.67 M562,404.5c-0.19,0-0.36-0.07-0.51-0.22c-0.15-0.15-0.22-0.32-0.22-0.51
		c0-0.19,0.07-0.36,0.22-0.51c0.15-0.15,0.32-0.22,0.51-0.22c0.2,0,0.38,0.07,0.52,0.21c0.14,0.14,0.21,0.32,0.21,0.52
		c0,0.19-0.07,0.36-0.22,0.51C562.37,404.42,562.2,404.5,562,404.5"/>
	<path class="st4" d="M566.85,402.13v-7.67c0.16,0.02,0.27,0.04,0.34,0.05c0.06,0.01,0.16,0.02,0.3,0.02l0.64-0.06v1.48
		c0.28-0.51,0.63-0.89,1.07-1.16c0.44-0.27,0.93-0.4,1.49-0.4c0.92,0,1.57,0.25,1.98,0.76c0.4,0.51,0.6,1.3,0.6,2.36v4.63
		l-0.64-0.06c-0.11,0-0.21,0-0.27,0.01c-0.07,0.01-0.19,0.02-0.37,0.05v-4.28c0-0.85-0.11-1.47-0.32-1.86
		c-0.28-0.52-0.76-0.79-1.47-0.79c-0.79,0-1.34,0.29-1.66,0.87c-0.28,0.49-0.41,1.27-0.41,2.33v3.74l-0.64-0.06
		c-0.12,0-0.21,0-0.27,0.01C567.16,402.09,567.04,402.1,566.85,402.13"/>
	<path class="st4" d="M580.2,402.07v-10.9h3.13c1.22,0,2.11,0.17,2.69,0.5c0.58,0.34,0.86,0.9,0.86,1.7c0,0.72-0.24,1.34-0.73,1.85
		c-0.45,0.48-1.05,0.81-1.79,0.99c0.76,0,1.4,0.18,1.93,0.55c0.67,0.45,1.01,1.1,1.01,1.95c0,1.15-0.48,2.05-1.44,2.71
		c-0.35,0.25-0.76,0.42-1.21,0.51c-0.45,0.09-0.97,0.13-1.57,0.13H580.2z M581.61,391.78V396l0.61,0.03c0.36,0,0.72-0.03,1.06-0.09
		c0.34-0.06,0.67-0.16,0.98-0.29c0.83-0.36,1.25-1.01,1.25-1.92c0-0.72-0.24-1.24-0.73-1.55c-0.43-0.27-1.09-0.4-1.98-0.4H581.61z
		 M581.61,396.57v4.89h1.5c0.79,0,1.43-0.23,1.93-0.69c0.5-0.46,0.75-1.05,0.75-1.77c0-0.88-0.31-1.52-0.93-1.92
		c-0.53-0.34-1.32-0.52-2.36-0.52H581.61z"/>
	<path class="st4" d="M600.07,391.18h0.32c0.22,2.14,0.36,3.45,0.42,3.92c0.1,0.85,0.24,2.09,0.45,3.72
		c0.15,1.16,0.3,2.27,0.45,3.32c-0.22-0.02-0.38-0.04-0.48-0.05c-0.1-0.01-0.19-0.02-0.29-0.02c-0.22,0-0.38,0-0.48,0.02
		c-0.11,0.03-0.2,0.05-0.25,0.05c-0.1-1.08-0.2-2.15-0.29-3.23c-0.1-1.08-0.19-2.05-0.28-2.91c-0.1-0.86-0.18-1.57-0.26-2.13
		c-0.59,1.07-1.16,2.1-1.69,3.09c-0.49,0.9-0.95,1.8-1.4,2.67c-0.44,0.88-0.81,1.65-1.09,2.32h-0.16l-0.9-1.82
		c-0.38-0.8-0.72-1.49-1.02-2.07c-0.3-0.58-0.67-1.29-1.1-2.11c-0.37-0.7-0.74-1.39-1.1-2.08c-0.39,3.55-0.6,5.42-0.62,5.61
		c-0.1,1.06-0.15,1.95-0.15,2.67c-0.14-0.03-0.25-0.05-0.31-0.05c-0.06,0-0.15-0.01-0.25-0.01c-0.1,0-0.2,0.01-0.31,0.02
		c-0.11,0.02-0.2,0.03-0.26,0.04c0.22-1.42,0.52-3.41,0.88-5.95c0.36-2.54,0.58-4.21,0.66-5.01h0.41c0.43,0.85,0.88,1.74,1.36,2.67
		c0.54,1.04,1.05,1.99,1.51,2.85c0.58,1.05,1.13,2,1.66,2.86c0.63-1.13,1.13-2.04,1.51-2.73c0.5-0.93,0.99-1.84,1.49-2.74
		C598.95,393.18,599.49,392.21,600.07,391.18"/>
	<path class="st4" d="M607.54,391.95v10.22c-0.13-0.02-0.25-0.04-0.36-0.05c-0.11-0.01-0.22-0.02-0.35-0.02
		c-0.13,0-0.26,0.01-0.39,0.02c-0.13,0.02-0.24,0.03-0.31,0.04v-10.22c-0.83,0-1.42,0.01-1.77,0.03c-0.35,0.02-0.93,0.07-1.75,0.16
		c0.01-0.07,0.02-0.15,0.04-0.22c0.01-0.08,0.02-0.16,0.02-0.25c0-0.08-0.01-0.16-0.02-0.25c-0.02-0.09-0.03-0.17-0.04-0.23h8.25
		l-0.03,0.48l0.03,0.48c-0.41-0.05-0.9-0.1-1.49-0.13C608.8,391.97,608.18,391.95,607.54,391.95"/>
	<path d="M552.25,433.93h2.53c0.6,0.13,1.21,0.23,1.8,0.38c8.64,2.18,12.33,12.36,7.07,19.57c-1.88,2.58-3.83,5.11-5.74,7.67
		c-1.45,1.94-2.88,3.89-4.32,5.84h-0.15c-0.1-0.17-0.19-0.34-0.31-0.5c-3.25-4.34-6.54-8.64-9.75-13.01
		c-5-6.82-1.98-16.46,6.01-19.24C550.31,434.32,551.29,434.16,552.25,433.93 M553.5,438.11c-4.6,0-8.37,3.78-8.37,8.38
		c0,4.59,3.79,8.37,8.39,8.36c4.6-0.01,8.37-3.79,8.37-8.38C561.88,441.87,558.11,438.11,553.5,438.11"/>
	<path class="st1" d="M564.6,446.5c0,6.13-4.97,11.09-11.09,11.09c-6.13,0-11.09-4.97-11.09-11.09c0-6.13,4.97-11.09,11.09-11.09
		C559.63,435.41,564.6,440.38,564.6,446.5"/>
	<path d="M552.26,433.8h2.5c0.59,0.13,1.19,0.23,1.78,0.38c8.53,2.15,12.18,12.22,6.98,19.33c-1.86,2.55-3.79,5.05-5.67,7.58
		c-1.43,1.92-2.84,3.85-4.26,5.77h-0.15c-0.1-0.16-0.19-0.34-0.3-0.49c-3.21-4.28-6.46-8.54-9.63-12.86
		c-4.94-6.74-1.95-16.26,5.93-19.01C550.35,434.18,551.32,434.03,552.26,433.8 M553.5,435.66c-5.79,0-10.53,4.75-10.53,10.54
		c0,5.77,4.77,10.53,10.55,10.52c5.78-0.01,10.53-4.77,10.52-10.55C564.04,440.39,559.29,435.66,553.5,435.66"/>
	<path d="M554.16,451.59v-2.89h-5.38v-1.85l4.59-7.39h3.47v7.11h1.46v2.13h-1.46v2.89H554.16z M554.16,446.56v-2.69
		c0-0.73,0.04-1.48,0.09-2.26h-0.07c-0.39,0.78-0.71,1.49-1.12,2.26l-1.63,2.65v0.04H554.16z"/>
</g>
</svg>
