<?xml version="1.0" encoding="utf-8"?>
<!-- Generator: Adobe Illustrator 24.0.1, SVG Export Plug-In . SVG Version: 6.00 Build 0)  -->
<svg version="1.1" id="Layer_1" xmlns="http://www.w3.org/2000/svg" xmlns:xlink="http://www.w3.org/1999/xlink" x="0px" y="0px"
	 viewBox="0 0 1605.16 990.1" style="enable-background:new 0 0 1605.16 990.1;" xml:space="preserve">
<style type="text/css">
	.st0{stroke:#000000;stroke-width:0.5;stroke-miterlimit:10;}
	.st1{fill:#FFFFFF;}
	.st2{stroke:#030303;stroke-width:0.75;stroke-miterlimit:10;}
</style>
<g>
	<path d="M151.45,755.85l2.29-10.76h3.09c1.2,0,2.05,0.16,2.55,0.5c0.5,0.33,0.66,0.89,0.49,1.68c-0.15,0.71-0.53,1.32-1.12,1.83
		c-0.54,0.48-1.2,0.8-1.98,0.98c0.75,0,1.35,0.18,1.8,0.54c0.56,0.44,0.76,1.08,0.58,1.93c-0.24,1.14-0.9,2.03-1.99,2.68
		c-0.4,0.25-0.83,0.42-1.3,0.5c-0.46,0.09-0.99,0.13-1.57,0.13H151.45z M153.99,750.42l-1.03,4.83h1.49c0.78,0,1.46-0.23,2.05-0.68
		c0.59-0.45,0.96-1.03,1.12-1.75c0.18-0.87,0.01-1.5-0.52-1.9c-0.45-0.34-1.19-0.51-2.23-0.51H153.99z M154.99,745.69l-0.89,4.17
		l0.6,0.03c0.36,0,0.72-0.03,1.07-0.09c0.35-0.06,0.69-0.16,1.03-0.29c0.9-0.36,1.44-0.99,1.64-1.89c0.15-0.72,0.02-1.23-0.4-1.54
		c-0.37-0.26-0.99-0.39-1.88-0.39H154.99z"/>
	<path d="M168.62,748.34l-1.61,7.57l-0.62-0.06c-0.11,0-0.2,0-0.27,0.01c-0.07,0-0.19,0.02-0.37,0.05l0.29-1.39
		c-0.74,1.01-1.7,1.52-2.85,1.52c-0.87,0-1.47-0.24-1.79-0.73c-0.32-0.49-0.37-1.27-0.14-2.33l0.99-4.64
		c0.15,0.02,0.26,0.04,0.32,0.05c0.06,0.01,0.16,0.01,0.3,0.01l0.65-0.06l-0.91,4.26c-0.19,0.88-0.18,1.55,0,1.99
		c0.19,0.44,0.63,0.66,1.33,0.66c0.72,0,1.31-0.28,1.76-0.85c0.35-0.43,0.6-1,0.75-1.71l0.93-4.35c0.15,0.02,0.25,0.04,0.32,0.05
		c0.06,0.01,0.16,0.01,0.29,0.01L168.62,748.34z"/>
	<path d="M169.58,752.06c0.24-1.13,0.78-2.04,1.6-2.75c0.83-0.71,1.76-1.06,2.8-1.06c0.99,0,1.72,0.35,2.17,1.06
		c0.46,0.7,0.57,1.64,0.32,2.8c-0.23,1.08-0.72,1.99-1.48,2.73c-0.84,0.81-1.81,1.22-2.93,1.22c-0.95,0-1.66-0.32-2.16-0.98
		c-0.52-0.7-0.67-1.58-0.45-2.65L169.58,752.06z M173.85,748.75c-0.81,0-1.5,0.38-2.07,1.14c-0.47,0.62-0.8,1.42-1.01,2.4
		c-0.19,0.89-0.18,1.63,0.03,2.21c0.25,0.69,0.76,1.04,1.52,1.04c0.73,0,1.39-0.43,1.97-1.28c0.46-0.67,0.77-1.42,0.95-2.23
		c0.18-0.86,0.19-1.58,0.03-2.16C175.05,749.13,174.58,748.75,173.85,748.75"/>
	<path d="M177.71,755.92l1.61-7.57c0.15,0.02,0.26,0.04,0.32,0.05c0.06,0.01,0.16,0.01,0.3,0.01l0.65-0.06l-0.31,1.46
		c0.38-0.5,0.81-0.88,1.3-1.15c0.49-0.27,1.01-0.4,1.55-0.4c0.9,0,1.5,0.25,1.79,0.75c0.29,0.5,0.33,1.28,0.1,2.34l-0.97,4.58
		l-0.62-0.06c-0.11,0-0.2,0-0.27,0.01c-0.07,0-0.19,0.02-0.38,0.05l0.9-4.23c0.18-0.84,0.2-1.46,0.07-1.84
		c-0.16-0.52-0.59-0.78-1.28-0.78c-0.77,0-1.38,0.29-1.83,0.86c-0.38,0.48-0.67,1.25-0.89,2.3l-0.78,3.69l-0.62-0.06
		c-0.12,0-0.21,0-0.27,0.01C178.02,755.87,177.9,755.88,177.71,755.92"/>
	<path d="M204.53,745.09h0.31c-0.23,2.12-0.37,3.41-0.41,3.87c-0.09,0.84-0.2,2.07-0.34,3.68c-0.1,1.15-0.18,2.24-0.26,3.28
		c-0.22-0.02-0.37-0.04-0.46-0.05c-0.09-0.01-0.18-0.01-0.28-0.01c-0.22,0-0.38,0-0.49,0.01c-0.12,0.03-0.2,0.05-0.25,0.05
		c0.13-1.06,0.26-2.13,0.39-3.2c0.13-1.06,0.24-2.02,0.33-2.88c0.09-0.85,0.16-1.55,0.2-2.1c-0.81,1.05-1.59,2.07-2.33,3.05
		c-0.67,0.89-1.32,1.77-1.94,2.64c-0.62,0.87-1.14,1.63-1.57,2.3h-0.16l-0.5-1.8c-0.21-0.79-0.4-1.47-0.57-2.04
		c-0.17-0.58-0.39-1.27-0.64-2.09c-0.22-0.69-0.44-1.37-0.65-2.06c-1.14,3.5-1.74,5.35-1.8,5.54c-0.32,1.04-0.55,1.92-0.71,2.64
		c-0.14-0.03-0.24-0.05-0.3-0.05c-0.06-0.01-0.14-0.01-0.25-0.01c-0.1,0-0.21,0.01-0.32,0.02c-0.11,0.02-0.2,0.03-0.27,0.04
		c0.52-1.41,1.22-3.37,2.12-5.88c0.89-2.51,1.46-4.16,1.71-4.95h0.41c0.24,0.84,0.5,1.72,0.78,2.63c0.31,1.03,0.61,1.97,0.89,2.81
		c0.35,1.03,0.7,1.97,1.05,2.82c0.86-1.12,1.54-2.01,2.06-2.7c0.69-0.92,1.37-1.82,2.04-2.7C203,747.07,203.74,746.11,204.53,745.09
		"/>
	<path d="M212.65,750.9l-0.78,3.66l-0.08,0.22c-0.05,0.21-0.06,0.36-0.02,0.46c0.03,0.09,0.13,0.14,0.3,0.14l0.52-0.1l-0.08,0.35
		c-0.15,0.08-0.31,0.13-0.5,0.16l-0.58,0.06c-0.3,0-0.53-0.07-0.69-0.22c-0.15-0.15-0.21-0.4-0.18-0.76l-0.15,0.16
		c-0.82,0.67-1.67,1.01-2.56,1.01c-0.59,0-1.05-0.18-1.38-0.55c-0.33-0.36-0.44-0.83-0.31-1.41c0.13-0.62,0.42-1.1,0.85-1.45
		c0.43-0.34,1.29-0.62,2.57-0.83c0.55-0.09,0.92-0.16,1.09-0.21c0.44-0.14,0.71-0.41,0.79-0.83c0.13-0.59,0.07-1.05-0.18-1.38
		c-0.25-0.32-0.68-0.49-1.29-0.49c-0.52,0-0.99,0.14-1.42,0.41c-0.33,0.21-0.56,0.44-0.68,0.69h-0.19l0.19-0.88
		c0.47-0.29,0.93-0.51,1.37-0.66c0.45-0.15,0.9-0.23,1.38-0.23C212.35,748.25,213.02,749.13,212.65,750.9 M210.67,754.28l0.49-2.3
		l-0.59,0.09c-0.98,0.19-1.59,0.34-1.83,0.45c-0.69,0.28-1.1,0.73-1.23,1.36c-0.1,0.49-0.05,0.86,0.17,1.11
		c0.21,0.25,0.57,0.37,1.07,0.37c0.22,0,0.46-0.06,0.72-0.17c0.26-0.11,0.48-0.26,0.66-0.42c0.1-0.07,0.21-0.15,0.34-0.26
		C210.59,754.39,210.66,754.31,210.67,754.28"/>
	<path d="M225.44,745.85l-2.14,10.09c-0.12-0.02-0.24-0.03-0.34-0.04c-0.1-0.01-0.22-0.02-0.34-0.02c-0.13,0-0.26,0.01-0.39,0.02
		c-0.13,0.02-0.24,0.03-0.31,0.04l2.14-10.09c-0.82,0-1.41,0.01-1.75,0.03c-0.35,0.02-0.93,0.07-1.76,0.15
		c0.02-0.07,0.05-0.15,0.08-0.22c0.03-0.07,0.06-0.16,0.08-0.25c0.02-0.08,0.03-0.16,0.03-0.25c0-0.09,0.01-0.16,0.01-0.23h8.15
		l-0.13,0.48l-0.07,0.47c-0.39-0.05-0.87-0.09-1.44-0.13C226.68,745.87,226.07,745.85,225.44,745.85"/>
	<path d="M228.6,755.92l2.52-11.86l0.62,0.03l0.64-0.03l-1.22,5.75c0.38-0.5,0.81-0.88,1.3-1.15c0.49-0.27,1.01-0.4,1.55-0.4
		c0.89,0,1.49,0.26,1.78,0.78c0.29,0.52,0.33,1.29,0.11,2.31l-0.97,4.58l-0.62-0.06c-0.11,0-0.2,0-0.27,0.01
		c-0.07,0-0.19,0.02-0.38,0.05l0.9-4.23c0.2-0.92,0.21-1.56,0.05-1.96c-0.18-0.44-0.6-0.66-1.26-0.66c-0.7,0-1.26,0.21-1.69,0.63
		c-0.42,0.42-0.72,1.05-0.9,1.9l-0.92,4.32l-0.62-0.06c-0.12,0-0.21,0-0.27,0.01C228.91,755.87,228.79,755.88,228.6,755.92"/>
	<path d="M245.23,748.34l-1.61,7.57l-0.62-0.06c-0.11,0-0.2,0-0.27,0.01c-0.07,0-0.19,0.02-0.37,0.05l0.29-1.39
		c-0.74,1.01-1.7,1.52-2.85,1.52c-0.87,0-1.47-0.24-1.79-0.73c-0.32-0.49-0.37-1.27-0.14-2.33l0.99-4.64
		c0.15,0.02,0.26,0.04,0.32,0.05c0.06,0.01,0.16,0.01,0.3,0.01l0.65-0.06l-0.91,4.26c-0.18,0.88-0.18,1.55,0,1.99
		c0.19,0.44,0.63,0.66,1.33,0.66c0.72,0,1.31-0.28,1.76-0.85c0.35-0.43,0.6-1,0.75-1.71l0.92-4.35c0.15,0.02,0.26,0.04,0.32,0.05
		c0.06,0.01,0.16,0.01,0.29,0.01L245.23,748.34z"/>
	<path d="M246.18,752.06c0.24-1.13,0.78-2.04,1.6-2.75c0.83-0.71,1.76-1.06,2.8-1.06c0.99,0,1.72,0.35,2.18,1.06
		c0.46,0.7,0.57,1.64,0.32,2.8c-0.23,1.08-0.72,1.99-1.48,2.73c-0.84,0.81-1.81,1.22-2.93,1.22c-0.95,0-1.66-0.32-2.16-0.98
		c-0.52-0.7-0.67-1.58-0.45-2.65L246.18,752.06z M250.45,748.75c-0.81,0-1.5,0.38-2.07,1.14c-0.47,0.62-0.8,1.42-1.01,2.4
		c-0.19,0.89-0.18,1.63,0.03,2.21c0.25,0.69,0.76,1.04,1.52,1.04c0.73,0,1.39-0.43,1.97-1.28c0.46-0.67,0.77-1.42,0.95-2.23
		c0.18-0.86,0.2-1.58,0.03-2.16C251.66,749.13,251.18,748.75,250.45,748.75"/>
	<path d="M256.17,746.79l1.37-0.5l-0.44,2.05h1.67l-0.1,0.35l-0.02,0.26h-1.67l-0.85,3.97l-0.15,0.54
		c-0.16,0.78-0.17,1.32-0.02,1.63c0.13,0.26,0.39,0.39,0.78,0.39c0.14,0,0.28-0.02,0.41-0.05c0.14-0.03,0.26-0.06,0.35-0.09
		l-0.08,0.39c-0.22,0.08-0.47,0.16-0.72,0.22c-0.26,0.06-0.48,0.1-0.66,0.1c-0.62,0-1.05-0.15-1.27-0.46
		c-0.26-0.35-0.3-0.95-0.12-1.78l0.09-0.25l0.99-4.61h-0.98c0.03-0.06,0.06-0.16,0.09-0.29c0.03-0.15,0.05-0.26,0.04-0.32h0.98
		L256.17,746.79z"/>
	<path d="M276.78,745.09h0.32c-0.23,2.12-0.37,3.41-0.41,3.87c-0.09,0.84-0.2,2.07-0.34,3.68c-0.1,1.15-0.18,2.24-0.26,3.28
		c-0.22-0.02-0.37-0.04-0.46-0.05c-0.09-0.01-0.19-0.01-0.28-0.01c-0.22,0-0.38,0-0.49,0.01c-0.12,0.03-0.2,0.05-0.25,0.05
		c0.13-1.06,0.26-2.13,0.39-3.2c0.13-1.06,0.24-2.02,0.33-2.88c0.09-0.85,0.16-1.55,0.2-2.1c-0.81,1.05-1.59,2.07-2.33,3.05
		c-0.67,0.89-1.32,1.77-1.94,2.64c-0.62,0.87-1.14,1.63-1.57,2.3h-0.16l-0.5-1.8c-0.21-0.79-0.4-1.47-0.57-2.04
		c-0.17-0.58-0.39-1.27-0.64-2.09c-0.22-0.69-0.44-1.37-0.65-2.06c-1.13,3.5-1.73,5.35-1.79,5.54c-0.32,1.04-0.56,1.92-0.71,2.64
		c-0.14-0.03-0.24-0.05-0.3-0.05c-0.06-0.01-0.14-0.01-0.25-0.01c-0.1,0-0.2,0.01-0.32,0.02c-0.11,0.02-0.21,0.03-0.27,0.04
		c0.52-1.41,1.22-3.37,2.11-5.88c0.89-2.51,1.46-4.16,1.71-4.95h0.41c0.24,0.84,0.5,1.72,0.78,2.63c0.31,1.03,0.61,1.97,0.89,2.81
		c0.35,1.03,0.7,1.97,1.05,2.82c0.86-1.12,1.54-2.01,2.06-2.7c0.69-0.92,1.37-1.82,2.04-2.7
		C275.25,747.07,275.99,746.11,276.78,745.09"/>
	<path d="M284.83,750.9l-0.78,3.66l-0.08,0.22c-0.05,0.21-0.06,0.36-0.02,0.46c0.03,0.09,0.13,0.14,0.3,0.14l0.52-0.1l-0.08,0.35
		c-0.15,0.08-0.31,0.13-0.5,0.16l-0.58,0.06c-0.3,0-0.53-0.07-0.69-0.22c-0.15-0.15-0.21-0.4-0.18-0.76l-0.15,0.16
		c-0.82,0.67-1.67,1.01-2.56,1.01c-0.59,0-1.05-0.18-1.38-0.55c-0.33-0.36-0.44-0.83-0.31-1.41c0.13-0.62,0.42-1.1,0.85-1.45
		c0.43-0.34,1.29-0.62,2.57-0.83c0.55-0.09,0.92-0.16,1.09-0.21c0.44-0.14,0.71-0.41,0.79-0.83c0.13-0.59,0.07-1.05-0.18-1.38
		c-0.25-0.32-0.68-0.49-1.29-0.49c-0.52,0-0.99,0.14-1.42,0.41c-0.33,0.21-0.56,0.44-0.68,0.69h-0.19l0.19-0.88
		c0.47-0.29,0.93-0.51,1.37-0.66c0.45-0.15,0.9-0.23,1.38-0.23C284.54,748.25,285.21,749.13,284.83,750.9 M282.86,754.28l0.49-2.3
		l-0.59,0.09c-0.98,0.19-1.59,0.34-1.83,0.45c-0.69,0.28-1.1,0.73-1.23,1.36c-0.1,0.49-0.05,0.86,0.17,1.11
		c0.21,0.25,0.57,0.37,1.07,0.37c0.22,0,0.46-0.06,0.73-0.17c0.26-0.11,0.48-0.26,0.66-0.42c0.1-0.07,0.21-0.15,0.34-0.26
		C282.77,754.39,282.85,754.31,282.86,754.28"/>
	<path d="M286.72,755.92l1.61-7.57c0.15,0.02,0.26,0.04,0.32,0.05c0.06,0.01,0.16,0.01,0.3,0.01l0.65-0.06l-0.34,1.58l0.11-0.19
		c0.39-0.44,0.76-0.79,1.12-1.04c0.42-0.29,0.82-0.44,1.18-0.44c0.18,0,0.34,0.03,0.49,0.09l-0.51,1.32
		c-0.23-0.08-0.46-0.17-0.7-0.25c-0.42,0-0.78,0.13-1.09,0.39c-0.31,0.29-0.52,0.57-0.65,0.85c-0.13,0.27-0.24,0.66-0.35,1.17
		l-0.87,4.1l-0.62-0.06c-0.12,0-0.21,0-0.27,0.01C287.03,755.87,286.91,755.88,286.72,755.92"/>
	<path d="M296.22,744.05l-1.5,7.07l-0.1,0.31c-0.01,0.09,0,0.16,0.06,0.19l0.09,0.03c0.16,0,0.42-0.14,0.79-0.41
		c0.22-0.18,0.46-0.36,0.7-0.54l1.2-1.01l1.52-1.35c0.15,0.02,0.26,0.04,0.32,0.05c0.06,0.01,0.16,0.01,0.3,0.01
		c0.09,0,0.2-0.01,0.32-0.02c0.12-0.02,0.22-0.03,0.3-0.04l-0.03,0.13c-0.86,0.61-1.59,1.14-2.21,1.59
		c-0.61,0.45-1.25,0.93-1.91,1.44c0.14,0.2,0.44,0.66,0.89,1.39c0.06,0.09,0.38,0.58,0.95,1.46c0.41,0.63,0.73,1.12,0.96,1.47
		l-0.02,0.09c-0.18-0.03-0.32-0.05-0.41-0.05c-0.09-0.01-0.21-0.01-0.36-0.01c-0.14,0-0.29,0.01-0.44,0.02
		c-0.16,0.02-0.28,0.03-0.36,0.04c-0.25-0.46-0.6-1.04-1.04-1.73c-0.35-0.55-0.75-1.16-1.2-1.83c-0.1-0.16-0.21-0.25-0.33-0.25
		c-0.12,0-0.22,0.19-0.3,0.56l-0.69,3.25l-0.62-0.06c-0.12,0-0.21,0-0.27,0.01c-0.06,0-0.19,0.02-0.37,0.05l2.52-11.86l0.62,0.03
		L296.22,744.05z"/>
	<path d="M306.48,754.27l-0.2,0.82c-0.48,0.29-0.96,0.52-1.45,0.69c-0.49,0.17-0.98,0.25-1.47,0.25c-1.12,0-1.94-0.35-2.47-1.04
		c-0.53-0.7-0.67-1.65-0.42-2.87c0.25-1.14,0.75-2.06,1.51-2.77c0.81-0.75,1.8-1.12,2.95-1.12c0.88,0,1.55,0.29,2.02,0.87
		c0.52,0.64,0.66,1.53,0.41,2.67l-0.08,0.35c-0.37,0-0.98-0.01-1.84-0.03c-0.85-0.02-1.3-0.03-1.34-0.03h-2.24l-0.09,0.31
		c-0.18,0.84-0.09,1.55,0.29,2.12c0.37,0.57,0.99,0.85,1.86,0.85c0.47,0,0.97-0.12,1.48-0.38
		C305.73,754.81,306.09,754.58,306.48,754.27 M301.99,751.5h4.2c0.17-0.8,0.17-1.43,0.01-1.89c-0.21-0.57-0.66-0.86-1.38-0.86
		c-0.69,0-1.31,0.29-1.86,0.87C302.47,750.14,302.15,750.77,301.99,751.5"/>
	<path d="M310.44,746.79l1.37-0.5l-0.44,2.05h1.67l-0.1,0.35l-0.02,0.26h-1.67l-0.85,3.97l-0.15,0.54
		c-0.16,0.78-0.17,1.32-0.01,1.63c0.13,0.26,0.39,0.39,0.78,0.39c0.14,0,0.28-0.02,0.41-0.05c0.14-0.03,0.26-0.06,0.35-0.09
		l-0.08,0.39c-0.23,0.08-0.47,0.16-0.73,0.22c-0.26,0.06-0.48,0.1-0.66,0.1c-0.62,0-1.05-0.15-1.27-0.46
		c-0.26-0.35-0.3-0.95-0.12-1.78l0.09-0.25l0.99-4.61h-0.98c0.03-0.06,0.06-0.16,0.09-0.29c0.04-0.15,0.05-0.26,0.04-0.32h0.98
		L310.44,746.79z"/>
	<path class="st0" d="M162.53,734.8l-0.07,1.11c-0.54,0.35-1.14,0.6-1.79,0.77c-0.65,0.16-1.35,0.25-2.08,0.25
		c-1.91,0-3.41-0.56-4.5-1.69c-1.09-1.13-1.64-2.66-1.64-4.58c0-1.9,0.63-3.41,1.9-4.53c1.21-1.07,2.77-1.6,4.69-1.6
		c1.32,0,2.56,0.27,3.72,0.8c-0.07,0.17-0.13,0.38-0.2,0.61s-0.11,0.47-0.15,0.71l-0.14,0.04c-0.32-0.42-0.83-0.79-1.53-1.1
		c-0.6-0.27-1.19-0.41-1.78-0.41c-1.53,0-2.73,0.55-3.61,1.66c-0.8,1.01-1.2,2.31-1.2,3.89c0,1.67,0.43,3.01,1.29,4.01
		c0.86,1,1.98,1.5,3.38,1.5c0.62,0,1.27-0.13,1.95-0.38C161.46,735.59,162.04,735.24,162.53,734.8"/>
	<path class="st0" d="M164.55,736.71v-13.1l0.7,0.03l0.7-0.03v6.35c0.3-0.55,0.69-0.97,1.17-1.27c0.48-0.29,1.02-0.44,1.62-0.44
		c0.99,0,1.7,0.29,2.15,0.85c0.45,0.57,0.67,1.42,0.67,2.56v5.05l-0.7-0.07c-0.12,0-0.22,0-0.29,0.01
		c-0.07,0.01-0.21,0.02-0.41,0.06v-4.67c0-1.01-0.13-1.73-0.4-2.16c-0.3-0.49-0.82-0.73-1.55-0.73c-0.78,0-1.35,0.23-1.71,0.7
		c-0.37,0.47-0.55,1.16-0.55,2.09v4.77l-0.7-0.07c-0.13,0-0.23,0-0.3,0.01C164.88,736.66,164.74,736.68,164.55,736.71"/>
	<path class="st0" d="M179.74,729.3c0.12-0.02,0.25-0.06,0.38-0.1c0.13-0.05,0.23-0.12,0.31-0.23c0.08-0.1,0.12-0.25,0.12-0.43
		c0-0.08-0.02-0.16-0.06-0.22c-0.04-0.06-0.09-0.12-0.15-0.18c-0.03-0.06-0.14-0.1-0.31-0.11c-0.17-0.01-0.27-0.03-0.28-0.07v-1.05
		l0.52,0.07h1.15l-0.04,0.28v0.66c0,0.33-0.01,0.6-0.05,0.78c-0.03,0.19-0.15,0.38-0.33,0.59c-0.22,0.26-0.5,0.42-0.83,0.49
		c0.51,0.73,0.77,1.64,0.77,2.72c0,1.2-0.33,2.2-0.99,3.01c-0.73,0.9-1.71,1.34-2.94,1.34c-1.04,0-1.91-0.36-2.61-1.08
		c-0.74-0.77-1.11-1.75-1.11-2.92l0.03-0.39c0-1.24,0.37-2.26,1.12-3.04c0.75-0.78,1.7-1.17,2.85-1.17
		C178.22,728.25,179.04,728.6,179.74,729.3 M177.23,728.8c-0.9,0-1.57,0.42-2.02,1.26c-0.37,0.69-0.55,1.57-0.55,2.65
		c0,0.99,0.18,1.8,0.55,2.44c0.44,0.76,1.08,1.15,1.92,1.15c0.81,0,1.44-0.47,1.88-1.41c0.35-0.74,0.52-1.56,0.52-2.46
		c0-0.95-0.15-1.75-0.47-2.38C178.65,729.22,178.04,728.8,177.23,728.8 M177.09,739.29c-0.21,0-0.4-0.08-0.56-0.24
		c-0.16-0.16-0.25-0.35-0.25-0.56c0-0.21,0.08-0.4,0.25-0.56c0.17-0.16,0.35-0.24,0.56-0.24c0.21,0,0.4,0.08,0.56,0.23
		c0.16,0.16,0.24,0.34,0.24,0.57c0,0.21-0.08,0.4-0.25,0.56C177.48,739.21,177.3,739.29,177.09,739.29"/>
	<path class="st0" d="M187.53,736.64v-11.88h3.41c1.33,0,2.3,0.18,2.93,0.55c0.62,0.37,0.94,0.99,0.94,1.86
		c0,0.79-0.27,1.46-0.8,2.01c-0.49,0.53-1.14,0.89-1.96,1.08c0.83,0,1.53,0.2,2.11,0.59c0.73,0.49,1.1,1.2,1.1,2.13
		c0,1.25-0.52,2.24-1.56,2.96c-0.38,0.28-0.83,0.46-1.32,0.56c-0.49,0.1-1.06,0.14-1.71,0.14H187.53z M189.06,725.43v4.6l0.66,0.03
		c0.4,0,0.78-0.03,1.16-0.1c0.38-0.06,0.73-0.17,1.07-0.32c0.91-0.4,1.36-1.09,1.36-2.09c0-0.79-0.27-1.35-0.8-1.69
		c-0.46-0.29-1.18-0.43-2.16-0.43H189.06z M189.06,730.65v5.33h1.64c0.86,0,1.56-0.25,2.1-0.75c0.55-0.5,0.82-1.14,0.82-1.93
		c0-0.96-0.34-1.66-1.01-2.09c-0.58-0.38-1.44-0.56-2.58-0.56H189.06z"/>
	<path class="st0" d="M209.19,724.76h0.35c0.24,2.34,0.4,3.76,0.46,4.27c0.1,0.93,0.26,2.28,0.48,4.06
		c0.17,1.26,0.33,2.47,0.49,3.62c-0.24-0.02-0.42-0.04-0.52-0.05c-0.1-0.01-0.21-0.02-0.31-0.02c-0.24,0-0.42,0-0.53,0.02
		c-0.12,0.03-0.21,0.05-0.27,0.05c-0.11-1.17-0.21-2.35-0.32-3.52c-0.1-1.18-0.21-2.24-0.31-3.18c-0.1-0.94-0.2-1.71-0.28-2.32
		c-0.64,1.16-1.26,2.28-1.85,3.37c-0.53,0.99-1.04,1.96-1.52,2.92c-0.48,0.96-0.88,1.8-1.19,2.53h-0.18l-0.98-1.99
		c-0.41-0.87-0.78-1.62-1.11-2.26c-0.32-0.63-0.73-1.4-1.2-2.3c-0.41-0.76-0.81-1.52-1.2-2.27c-0.43,3.87-0.66,5.91-0.68,6.12
		c-0.11,1.15-0.16,2.12-0.16,2.91c-0.16-0.03-0.27-0.05-0.34-0.06c-0.07,0-0.16-0.01-0.28-0.01c-0.11,0-0.22,0.01-0.34,0.03
		c-0.12,0.02-0.22,0.03-0.29,0.04c0.24-1.55,0.56-3.71,0.96-6.48c0.39-2.77,0.63-4.59,0.72-5.47h0.45c0.47,0.93,0.96,1.9,1.48,2.91
		c0.59,1.14,1.14,2.18,1.65,3.1c0.63,1.14,1.23,2.18,1.81,3.11c0.69-1.23,1.23-2.22,1.64-2.98c0.54-1.01,1.09-2,1.62-2.99
		C207.97,726.95,208.56,725.89,209.19,724.76"/>
	<path class="st0" d="M217.34,725.61v11.14c-0.14-0.02-0.27-0.04-0.39-0.05s-0.24-0.02-0.38-0.02c-0.14,0-0.29,0.01-0.43,0.03
		c-0.14,0.02-0.26,0.03-0.34,0.04v-11.14c-0.91,0-1.55,0.01-1.93,0.03c-0.38,0.02-1.01,0.08-1.91,0.17
		c0.01-0.08,0.02-0.16,0.04-0.24c0.02-0.08,0.03-0.18,0.03-0.28c0-0.09-0.01-0.18-0.03-0.27c-0.02-0.1-0.03-0.18-0.04-0.26h8.99
		l-0.03,0.53l0.03,0.52c-0.44-0.06-0.98-0.1-1.62-0.14C218.71,725.63,218.04,725.61,217.34,725.61"/>
	<path d="M272.9,697.14c-2.63,3.56-7.5,3.36-9.92-0.01c-1.25,1.65-2.86,2.6-4.96,2.6c-2.07,0-3.68-0.93-4.95-2.61
		c-1.25,1.68-2.88,2.61-4.96,2.61c-2.07,0-3.69-0.93-4.8-2.42c-0.42,0.34-0.83,0.68-1.25,1.02c-1.93,1.52-4.05,1.88-6.3,0.86
		c-2.26-1.03-3.39-2.89-3.5-5.37c0-0.02,0-0.04,0-0.06c-0.05-2.29-0.04-2.28,1.46-4.01c2.17-2.5,4.32-5.01,6.5-7.5
		c0.17-0.19,0.49-0.33,0.75-0.33c11.37-0.02,22.73-0.02,34.1,0c0.25,0,0.58,0.14,0.75,0.33c2.57,2.94,5.12,5.9,7.65,8.87
		c0.17,0.2,0.3,0.53,0.29,0.79c-0.01,1.04,0.05,2.11-0.15,3.12c-0.5,2.41-2.05,3.97-4.43,4.53c-2.41,0.56-4.45-0.21-6.04-2.13
		C273.07,697.35,273,697.26,272.9,697.14 M255.44,683.92c-0.21,1.19-0.43,2.36-0.61,3.54c-0.34,2.13-0.88,4.23-0.76,6.43
		c0.1,1.93,1.53,3.6,3.37,3.82c2.08,0.25,3.99-0.95,4.38-2.96c0.21-1.08,0.15-2.23,0.06-3.34c-0.11-1.24-0.4-2.46-0.61-3.69
		c-0.22-1.26-0.44-2.53-0.67-3.8H255.44z M253.42,683.93c-0.19-0.01-0.35-0.03-0.52-0.03c-1.35,0-2.69,0.01-4.04-0.01
		c-0.37-0.01-0.56,0.11-0.73,0.44c-1.14,2.24-2.26,4.5-3.48,6.7c-0.69,1.23-0.63,2.49-0.35,3.74c0.46,2.01,2.34,3.2,4.41,2.94
		c1.89-0.24,3.34-1.96,3.36-3.95c0.01-0.78-0.04-1.58,0.07-2.35C252.54,688.92,252.99,686.45,253.42,683.93 M262.62,683.9
		c0.18,1.05,0.36,2,0.5,2.95c0.34,2.28,0.95,4.52,0.86,6.87c-0.07,1.7,0.96,3.16,2.51,3.76c1.47,0.57,3.2,0.19,4.29-0.93
		c0.99-1.03,1.56-3.59,0.99-4.73c-1.29-2.54-2.61-5.07-3.93-7.6c-0.07-0.14-0.26-0.3-0.4-0.3
		C265.85,683.89,264.27,683.9,262.62,683.9 M246.11,683.9c-1.56,0-3.05-0.01-4.54,0.01c-0.15,0-0.33,0.15-0.44,0.28
		c-1.96,2.26-3.86,4.57-5.88,6.78c-0.8,0.87-1.1,1.75-1.03,2.9c0.13,2,1.66,3.72,3.56,3.85c2.23,0.15,4.01-1.2,4.32-3.34
		c0.11-0.77,0.04-1.57,0.09-2.35c0.02-0.31,0.08-0.63,0.22-0.9c1.13-2.23,2.29-4.45,3.43-6.67C245.93,684.3,246,684.14,246.11,683.9
		 M269.94,683.9c0.09,0.22,0.15,0.37,0.23,0.51c0.86,1.66,1.66,3.34,2.59,4.96c0.79,1.38,1.34,2.77,1.11,4.39
		c-0.01,0.04,0,0.07,0,0.11c0.12,1.6,0.84,2.83,2.32,3.49c1.45,0.65,2.85,0.48,4.11-0.5c1.24-0.96,1.92-3.1,1.49-4.64
		c-0.03-0.1-0.11-0.2-0.18-0.28c-2.24-2.61-4.49-5.21-6.74-7.81c-0.1-0.11-0.27-0.24-0.4-0.24
		C272.98,683.9,271.49,683.9,269.94,683.9"/>
	<path d="M242.18,717.61v7.85h-1.96v-9.87h3.92v-9.87h11.89v3.93h5.93v5.87h6.92c-4.13-1.04-5.21-4.42-4.85-6.67
		c0.49-3.11,3.04-5.26,6.02-5.16c3.11,0.11,5.55,2.43,5.78,5.62c0.19,2.72-1.6,5.51-4.89,6.25h4.9v9.9h-1.96v-7.84H242.18z
		 M269.91,713.56c2.19,0,3.95-1.76,3.94-3.95c-0.01-2.15-1.77-3.92-3.92-3.93c-2.2-0.01-3.95,1.74-3.96,3.94
		C265.96,711.83,267.7,713.56,269.91,713.56 M254.04,707.74h-7.88v7.8h3.93v-5.89h3.94V707.74z M259.98,711.68h-7.88v3.85h7.88
		V711.68z"/>
	<path d="M236.22,725.46h-1.94v-24.72c0.64,0.26,1.27,0.51,1.94,0.78V725.46z"/>
	<path d="M279.83,701.51c0.67-0.27,1.3-0.52,1.96-0.79v24.73h-1.96V701.51z"/>
	<rect x="234.23" y="724.91" width="47.89" height="2.79"/>
	<path d="M196.88,682.31h2.53c0.6,0.13,1.21,0.23,1.8,0.38c8.64,2.18,12.32,12.36,7.07,19.57c-1.88,2.58-3.83,5.11-5.74,7.67
		c-1.45,1.94-2.88,3.89-4.32,5.84h-0.15c-0.1-0.16-0.19-0.34-0.31-0.5c-3.25-4.34-6.54-8.64-9.75-13.01c-5-6.82-1.98-16.46,6-19.24
		C194.95,682.71,195.92,682.55,196.88,682.31 M198.13,686.49c-4.6,0-8.37,3.78-8.37,8.38c0,4.59,3.8,8.37,8.39,8.36
		c4.6-0.01,8.37-3.79,8.36-8.38C206.51,690.25,202.74,686.49,198.13,686.49"/>
	<path class="st1" d="M209.31,695.33c0,6.24-5.06,11.3-11.3,11.3c-6.24,0-11.3-5.06-11.3-11.3c0-6.24,5.06-11.29,11.3-11.29
		C204.25,684.03,209.31,689.09,209.31,695.33"/>
	<path d="M196.75,682.54h2.53c0.6,0.13,1.2,0.23,1.8,0.38c8.64,2.18,12.32,12.36,7.07,19.57c-1.88,2.58-3.83,5.11-5.74,7.67
		c-1.45,1.94-2.88,3.89-4.32,5.84h-0.15c-0.1-0.17-0.19-0.34-0.31-0.5c-3.25-4.34-6.54-8.64-9.75-13.01c-5-6.82-1.98-16.46,6-19.24
		C194.82,682.93,195.8,682.77,196.75,682.54 M198,684.37c-5.89,0-10.72,4.84-10.72,10.73c0,5.87,4.86,10.72,10.74,10.71
		c5.89-0.01,10.73-4.85,10.71-10.74C208.73,689.18,203.9,684.37,198,684.37"/>
	<polygon points="192.68,692.1 192.65,692.1 190.83,692.96 190.47,691.29 192.99,690.12 194.83,690.12 194.83,699.64 192.68,699.64 
			"/>
	<path d="M204.32,691.95h-3.69l-0.2,1.46c0.2-0.03,0.38-0.03,0.61-0.03c0.91,0,1.83,0.2,2.5,0.69c0.72,0.48,1.16,1.27,1.16,2.39
		c0,1.77-1.52,3.34-4.09,3.34c-1.16,0-2.12-0.26-2.65-0.54l0.39-1.67c0.42,0.2,1.29,0.47,2.15,0.47c0.92,0,1.9-0.44,1.9-1.45
		c0-0.98-0.78-1.58-2.68-1.58c-0.53,0-0.89,0.03-1.29,0.09l0.63-4.99h5.24V691.95z"/>
</g>
<g>
	<path d="M810.18,519.17c-3.14,0-6.28,0-9.41,0c-0.28,0-0.57,0.02-0.85,0.07c-0.35,0.07-0.53,0.26-0.46,0.6
		c0.17,0.81,0.36,1.61,0.6,2.4c0.12,0.4,0.48,0.61,0.86,0.76c0.38,0.15,0.78,0.26,1.15,0.42c0.75,0.32,1.35,0.82,1.79,1.51
		c0.14,0.22,0.29,0.43,0.44,0.64c0.39,0.55,0.92,0.81,1.61,0.8c1.91-0.01,3.82,0,5.72,0c0.42,0,0.84-0.02,1.25,0
		c0.63,0.03,1.13-0.23,1.52-0.69c0.25-0.28,0.47-0.59,0.69-0.89c1.1-1.5,3.07-2.13,4.83-1.54c1.77,0.6,2.96,2.27,2.94,4.13
		c-0.03,1.9-1.3,3.55-3.14,4.08c-1.79,0.51-3.74-0.23-4.76-1.81c-0.08-0.13-0.17-0.25-0.24-0.38c-0.37-0.7-0.96-1-1.75-1
		c-2.13,0.01-4.25,0-6.38,0c-0.24,0-0.48,0.01-0.73,0c-0.76-0.04-1.32,0.29-1.7,0.94c-0.36,0.61-0.78,1.16-1.36,1.58
		c-1.8,1.29-4.24,1.02-5.73-0.64c-1.45-1.6-1.43-4.07,0.03-5.71c0.15-0.17,0.31-0.33,0.47-0.49c0.45-0.45,0.61-0.98,0.47-1.59
		c-0.21-0.89-0.45-1.77-0.67-2.65c-0.94-3.69-1.88-7.37-2.81-11.06c-0.9-3.57-1.78-7.14-2.67-10.71c-0.04-0.19-0.1-0.37-0.15-0.56
		c-0.17-0.56-0.41-0.75-1-0.76c-0.76-0.02-1.52-0.01-2.28-0.01c-1.24,0-2.48,0-3.72,0c-0.35,0-0.62-0.13-0.81-0.42
		c-0.39-0.6-0.48-1.26-0.26-1.94c0.13-0.41,0.38-0.57,0.81-0.57c2.34,0,4.69-0.01,7.03,0c1.04,0,1.31,0.19,1.58,1.21
		c0.46,1.73,0.88,3.47,1.32,5.2c0.1,0.39,0.21,0.77,0.34,1.15c0.18,0.52,0.56,0.81,1.1,0.85c0.64,0.04,1.29,0.04,1.93,0.04
		c7.25,0,14.49,0,21.74,0c1.56,0,3.13,0,4.7,0.01c0.22,0,0.45,0.02,0.67,0.08c0.38,0.09,0.56,0.31,0.55,0.7
		c-0.01,0.33-0.05,0.67-0.14,0.99c-1.09,4.3-2.18,8.61-3.27,12.91c-0.1,0.37-0.19,0.74-0.3,1.11c-0.19,0.67-0.64,1.06-1.32,1.13
		c-0.61,0.06-1.22,0.08-1.83,0.08C815.79,519.18,812.98,519.17,810.18,519.17L810.18,519.17z M802.66,510.78L802.66,510.78l0,1.46
		c0,1.26,0,2.52,0,3.79c0,0.5,0.23,0.83,0.65,0.95c0.55,0.16,1.28-0.11,1.27-1.02c-0.01-3.45-0.01-6.91-0.01-10.36
		c0-0.1-0.01-0.2-0.02-0.3c-0.05-0.31-0.22-0.54-0.51-0.67c-0.7-0.31-1.39,0.13-1.39,0.9C802.65,507.28,802.66,509.03,802.66,510.78
		 M798.81,510.77L798.81,510.77l0,1.48c0,1.26,0,2.53,0,3.79c0,0.54,0.29,0.89,0.76,0.96c0.68,0.11,1.15-0.29,1.16-1
		c0-1.92,0-3.85,0-5.77c0-1.56,0-3.11,0-4.67c0-0.51-0.2-0.82-0.61-0.96c-0.58-0.2-1.32,0.11-1.32,0.95
		C798.82,507.28,798.81,509.03,798.81,510.77 M808.43,510.79v-0.58c0-1.55,0-3.09,0-4.64c0-0.33-0.07-0.64-0.36-0.84
		c-0.34-0.24-0.7-0.27-1.07-0.09c-0.35,0.17-0.5,0.48-0.5,0.86c0,1.95,0,3.91,0,5.87c0,1.55,0,3.09,0,4.64
		c0,0.38,0.13,0.69,0.47,0.88c0.69,0.37,1.44-0.08,1.45-0.86C808.43,514.29,808.43,512.54,808.43,510.79 M814.2,510.77V514
		c0,0.7-0.01,1.4,0,2.11c0.01,0.46,0.31,0.81,0.74,0.89c0.49,0.09,0.95-0.12,1.1-0.53c0.07-0.18,0.08-0.39,0.08-0.59
		c0.01-3.39,0-6.79,0-10.19c0-0.12,0-0.24-0.02-0.35c-0.05-0.36-0.25-0.61-0.6-0.74c-0.67-0.24-1.31,0.2-1.31,0.92
		C814.19,507.27,814.2,509.02,814.2,510.77 M810.36,510.76v3.21c0,0.69-0.01,1.39,0,2.08c0.01,0.52,0.31,0.88,0.79,0.95
		c0.68,0.09,1.14-0.31,1.14-1.03c0-2.94,0-5.87,0-8.81c0-0.55,0-1.1,0-1.65c-0.01-0.37-0.14-0.67-0.48-0.85
		c-0.58-0.32-1.46-0.02-1.45,0.89C810.37,507.28,810.36,509.03,810.36,510.76 M818.05,510.76c0,1.75,0,3.5,0,5.25
		c0,0.4,0.13,0.72,0.51,0.91c0.7,0.34,1.41-0.12,1.41-0.9c0-2.26,0-4.52,0-6.78c0-1.23,0-2.46,0-3.69c0-0.5-0.21-0.82-0.62-0.95
		c-0.67-0.23-1.29,0.2-1.29,0.92C818.05,507.27,818.05,509.01,818.05,510.76 M802.19,527.34c0-1.08-0.83-1.92-1.9-1.92
		c-1.06-0.01-1.92,0.85-1.91,1.91c0,1.06,0.86,1.9,1.93,1.89C801.35,529.21,802.19,528.37,802.19,527.34 M818.61,529.22
		c1.05,0,1.9-0.85,1.9-1.89c-0.01-1.07-0.85-1.92-1.91-1.91c-1.06,0.01-1.9,0.85-1.9,1.92C816.7,528.38,817.55,529.22,818.61,529.22
		"/>
	<path class="st2" d="M786.9,550.22l-0.08,1.29c-0.62,0.4-1.31,0.69-2.07,0.88c-0.76,0.19-1.56,0.29-2.41,0.29
		c-2.2,0-3.93-0.65-5.2-1.96c-1.26-1.31-1.89-3.07-1.89-5.3c0-2.2,0.73-3.94,2.19-5.23c1.4-1.23,3.2-1.85,5.41-1.85
		c1.52,0,2.96,0.31,4.31,0.92c-0.08,0.2-0.16,0.44-0.23,0.7c-0.07,0.27-0.13,0.54-0.18,0.82l-0.16,0.05
		c-0.37-0.49-0.97-0.91-1.77-1.27c-0.69-0.32-1.37-0.47-2.05-0.47c-1.77,0-3.16,0.64-4.17,1.92c-0.92,1.17-1.39,2.67-1.39,4.49
		c0,1.93,0.5,3.48,1.49,4.63c1,1.16,2.3,1.73,3.91,1.73c0.72,0,1.47-0.15,2.25-0.44C785.66,551.14,786.33,550.74,786.9,550.22"/>
	<path class="st2" d="M788.67,547.52c0-1.44,0.43-2.61,1.3-3.51c0.87-0.91,1.96-1.36,3.3-1.36c1.26,0,2.28,0.45,3.06,1.35
		c0.78,0.9,1.16,2.09,1.16,3.57c0,1.38-0.38,2.54-1.15,3.48c-0.85,1.04-1.98,1.56-3.4,1.56c-1.2,0-2.21-0.42-3.02-1.25
		c-0.86-0.89-1.29-2.02-1.29-3.38L788.67,547.52z M793.22,543.29c-1.03,0-1.81,0.49-2.34,1.46c-0.43,0.79-0.64,1.81-0.64,3.06
		c0,1.14,0.21,2.08,0.64,2.82c0.51,0.89,1.25,1.33,2.22,1.33c0.94,0,1.66-0.54,2.17-1.63c0.4-0.86,0.6-1.81,0.6-2.84
		c0-1.1-0.18-2.02-0.54-2.75C794.86,543.77,794.16,543.29,793.22,543.29"/>
	<path class="st2" d="M799.74,551.36c0-0.33,0.12-0.61,0.36-0.85c0.24-0.24,0.53-0.36,0.84-0.36c0.32,0,0.6,0.12,0.85,0.36
		c0.24,0.24,0.36,0.52,0.36,0.85c0,0.33-0.12,0.63-0.35,0.87c-0.24,0.25-0.52,0.38-0.86,0.38c-0.32,0-0.6-0.12-0.84-0.37
		C799.86,552,799.74,551.7,799.74,551.36"/>
	<path class="st2" d="M804.56,547.52c0-1.44,0.43-2.61,1.3-3.51c0.86-0.91,1.96-1.36,3.29-1.36c1.26,0,2.28,0.45,3.06,1.35
		c0.78,0.9,1.16,2.09,1.16,3.57c0,1.38-0.38,2.54-1.15,3.48c-0.84,1.04-1.98,1.56-3.4,1.56c-1.2,0-2.21-0.42-3.02-1.25
		c-0.86-0.89-1.29-2.02-1.29-3.38L804.56,547.52z M809.12,543.29c-1.04,0-1.81,0.49-2.34,1.46c-0.43,0.79-0.64,1.81-0.64,3.06
		c0,1.14,0.21,2.08,0.64,2.82c0.51,0.89,1.25,1.33,2.22,1.33c0.94,0,1.66-0.54,2.18-1.63c0.4-0.86,0.6-1.81,0.6-2.84
		c0-1.1-0.18-2.02-0.54-2.75C810.76,543.77,810.05,543.29,809.12,543.29"/>
	<path class="st2" d="M816.97,557.59c-0.14-0.03-0.27-0.05-0.39-0.06c-0.12-0.01-0.26-0.02-0.42-0.02c-0.14,0-0.28,0.01-0.44,0.03
		c-0.15,0.02-0.28,0.04-0.37,0.05v-14.81c0.13,0.03,0.26,0.04,0.38,0.06c0.12,0.01,0.26,0.02,0.43,0.02c0.13,0,0.28-0.01,0.43-0.03
		c0.16-0.02,0.28-0.03,0.37-0.05v2.05c0.4-0.67,0.71-1.11,0.94-1.33c0.63-0.56,1.47-0.85,2.52-0.85c1.24,0,2.23,0.47,2.98,1.41
		c0.7,0.87,1.05,1.95,1.05,3.22c0,1.63-0.4,2.92-1.2,3.88c-0.8,0.96-1.85,1.44-3.15,1.44c-0.71,0-1.31-0.17-1.81-0.5
		c-0.5-0.33-0.93-0.82-1.29-1.48L816.97,557.59z M816.97,547.85c0,1.15,0.24,2.07,0.71,2.74c0.52,0.75,1.27,1.12,2.27,1.12
		c0.93,0,1.64-0.43,2.11-1.29c0.41-0.76,0.62-1.78,0.62-3.06c0-1.17-0.19-2.09-0.56-2.75c-0.47-0.85-1.21-1.28-2.21-1.28
		c-1.05,0-1.83,0.52-2.34,1.55C817.17,545.71,816.97,546.69,816.97,547.85"/>
	<path class="st2" d="M826.87,552.44v-9.66c0.2,0.03,0.34,0.05,0.42,0.06c0.08,0.01,0.21,0.02,0.39,0.02l0.8-0.08v1.73
		c0.35-0.6,0.74-1.05,1.19-1.35c0.5-0.34,1.1-0.5,1.79-0.5c0.66,0,1.26,0.18,1.8,0.53c0.54,0.35,0.92,0.85,1.14,1.48
		c0.4-0.68,0.85-1.18,1.35-1.51c0.51-0.34,1.1-0.5,1.78-0.5c1.19,0,2.04,0.34,2.57,1.02c0.46,0.62,0.7,1.6,0.7,2.92v5.84l-0.81-0.08
		c-0.14,0-0.26,0-0.34,0.01c-0.08,0.01-0.24,0.03-0.47,0.07v-5.4c0-1.06-0.13-1.83-0.38-2.33c-0.35-0.67-0.97-1.01-1.87-1.01
		s-1.53,0.37-1.89,1.09c-0.26,0.53-0.4,1.25-0.4,2.17v5.48l-0.81-0.08c-0.15,0-0.26,0-0.34,0.01s-0.23,0.03-0.46,0.07v-5.92
		c0-1.88-0.71-2.82-2.13-2.82c-0.96,0-1.62,0.29-2,0.87c-0.28,0.43-0.42,1.1-0.42,2v5.88l-0.8-0.08c-0.15,0-0.27,0-0.34,0.01
		C827.26,552.38,827.1,552.4,826.87,552.44"/>
	<path class="st2" d="M850.71,546.04v4.67l-0.04,0.29c0,0.27,0.03,0.46,0.1,0.58c0.07,0.12,0.21,0.18,0.42,0.18l0.64-0.13v0.44
		c-0.17,0.1-0.37,0.17-0.6,0.21l-0.73,0.08c-0.39,0-0.7-0.09-0.93-0.28c-0.24-0.19-0.38-0.51-0.43-0.97l-0.16,0.21
		c-0.86,0.86-1.86,1.29-2.99,1.29c-0.75,0-1.38-0.23-1.91-0.7c-0.52-0.47-0.79-1.07-0.79-1.8c0-0.79,0.23-1.41,0.69-1.84
		c0.46-0.44,1.48-0.79,3.05-1.06c0.68-0.11,1.13-0.2,1.35-0.26c0.52-0.18,0.79-0.53,0.79-1.06c0-0.75-0.2-1.34-0.6-1.75
		c-0.4-0.42-1-0.63-1.77-0.63c-0.66,0-1.22,0.17-1.69,0.52c-0.37,0.27-0.6,0.57-0.68,0.89h-0.25v-1.12
		c0.53-0.37,1.05-0.65,1.57-0.84c0.53-0.19,1.09-0.29,1.69-0.29C849.62,542.65,850.71,543.78,850.71,546.04 M849.1,550.34v-2.94
		l-0.73,0.12c-1.19,0.24-1.93,0.43-2.21,0.57c-0.81,0.36-1.21,0.94-1.21,1.73c0,0.63,0.17,1.1,0.51,1.42
		c0.34,0.31,0.83,0.47,1.46,0.47c0.28,0,0.57-0.07,0.88-0.22c0.3-0.15,0.55-0.33,0.73-0.54c0.11-0.09,0.23-0.2,0.37-0.33
		C849.03,550.49,849.1,550.39,849.1,550.34"/>
	<path class="st2" d="M854.08,552.44v-9.66c0.2,0.03,0.34,0.05,0.42,0.06c0.08,0.01,0.21,0.02,0.39,0.02l0.81-0.08v2.01l0.08-0.24
		c0.37-0.57,0.76-1.01,1.15-1.33c0.46-0.37,0.93-0.56,1.39-0.56c0.23,0,0.45,0.04,0.65,0.12l-0.28,1.69
		c-0.32-0.1-0.64-0.21-0.96-0.32c-0.54,0-0.97,0.16-1.29,0.49c-0.32,0.38-0.51,0.74-0.6,1.08c-0.08,0.35-0.13,0.84-0.13,1.49v5.23
		l-0.81-0.08c-0.15,0-0.26,0-0.34,0.01C854.47,552.38,854.31,552.4,854.08,552.44"/>
	<path class="st2" d="M860.81,540.8l1.61-0.64v2.61h2.13l-0.04,0.44l0.04,0.33h-2.13v5.07l-0.04,0.69c0,0.99,0.14,1.68,0.42,2.07
		c0.24,0.33,0.61,0.5,1.1,0.5c0.18,0,0.35-0.02,0.52-0.06c0.17-0.04,0.3-0.08,0.42-0.11v0.49c-0.27,0.1-0.56,0.2-0.87,0.28
		c-0.31,0.09-0.58,0.13-0.82,0.13c-0.79,0-1.37-0.2-1.74-0.59c-0.42-0.45-0.64-1.21-0.64-2.27l0.04-0.32v-5.88h-1.25
		c0.03-0.08,0.04-0.2,0.04-0.36c0-0.19-0.01-0.33-0.04-0.41h1.25V540.8z"/>
	<path d="M736.25,570.57l-0.3,1.09c-0.6,0.34-1.23,0.58-1.9,0.74c-0.67,0.16-1.37,0.24-2.08,0.24c-1.85,0-3.19-0.55-4.02-1.65
		c-0.83-1.1-1.04-2.59-0.65-4.46c0.39-1.85,1.32-3.32,2.78-4.4c1.4-1.04,3.03-1.56,4.9-1.56c1.28,0,2.43,0.26,3.46,0.78
		c-0.1,0.17-0.2,0.37-0.31,0.59c-0.11,0.22-0.21,0.45-0.3,0.69l-0.14,0.04c-0.23-0.41-0.64-0.76-1.26-1.07
		c-0.52-0.26-1.08-0.4-1.65-0.4c-1.49,0-2.77,0.54-3.86,1.62c-0.98,0.98-1.64,2.24-1.97,3.78c-0.34,1.63-0.2,2.93,0.43,3.9
		c0.63,0.97,1.62,1.46,2.98,1.46c0.61,0,1.27-0.12,1.98-0.37C735.05,571.34,735.68,571,736.25,570.57"/>
	<path d="M738.56,568.29c0.26-1.21,0.84-2.19,1.72-2.96c0.89-0.76,1.89-1.14,3.01-1.14c1.06,0,1.84,0.38,2.34,1.13
		c0.49,0.76,0.61,1.76,0.34,3.01c-0.25,1.17-0.78,2.14-1.59,2.93c-0.9,0.87-1.95,1.31-3.15,1.31c-1.02,0-1.79-0.35-2.32-1.05
		c-0.56-0.75-0.72-1.7-0.48-2.85L738.56,568.29z M743.15,564.73c-0.87,0-1.62,0.41-2.23,1.23c-0.5,0.67-0.86,1.52-1.08,2.58
		c-0.21,0.96-0.19,1.75,0.03,2.37c0.27,0.75,0.81,1.12,1.63,1.12c0.79,0,1.5-0.46,2.12-1.38c0.49-0.72,0.83-1.52,1.02-2.39
		c0.2-0.93,0.21-1.7,0.03-2.32C744.45,565.13,743.94,564.73,743.15,564.73"/>
	<path d="M747.53,571.52c0.06-0.28,0.21-0.51,0.46-0.72c0.25-0.2,0.5-0.3,0.77-0.3c0.27,0,0.49,0.1,0.65,0.3
		c0.17,0.2,0.21,0.44,0.16,0.72c-0.06,0.28-0.21,0.53-0.46,0.74c-0.24,0.21-0.5,0.32-0.79,0.32c-0.27,0-0.49-0.1-0.65-0.31
		C747.52,572.06,747.47,571.81,747.53,571.52"/>
	<path d="M752.63,568.29c0.26-1.21,0.84-2.19,1.72-2.96c0.89-0.76,1.89-1.14,3.01-1.14c1.07,0,1.84,0.38,2.34,1.13
		c0.49,0.76,0.61,1.76,0.34,3.01c-0.25,1.17-0.78,2.14-1.59,2.93c-0.9,0.87-1.95,1.31-3.15,1.31c-1.02,0-1.79-0.35-2.32-1.05
		c-0.56-0.75-0.72-1.7-0.48-2.85L752.63,568.29z M757.21,564.73c-0.87,0-1.62,0.41-2.23,1.23c-0.5,0.67-0.86,1.52-1.08,2.58
		c-0.21,0.96-0.19,1.75,0.03,2.37c0.27,0.75,0.81,1.12,1.63,1.12c0.79,0,1.5-0.46,2.12-1.38c0.49-0.72,0.83-1.52,1.02-2.39
		c0.2-0.93,0.21-1.7,0.03-2.32C758.51,565.13,758,564.73,757.21,564.73"/>
	<path d="M761.61,576.77c-0.11-0.02-0.22-0.04-0.32-0.05c-0.1-0.01-0.22-0.02-0.35-0.02c-0.12,0-0.24,0.01-0.38,0.03
		c-0.14,0.02-0.24,0.03-0.32,0.04l2.65-12.47c0.11,0.02,0.21,0.04,0.31,0.05c0.1,0.01,0.22,0.02,0.36,0.02
		c0.11,0,0.23-0.01,0.37-0.03c0.13-0.01,0.24-0.03,0.32-0.04l-0.36,1.73c0.46-0.56,0.8-0.93,1.03-1.12
		c0.63-0.47,1.38-0.71,2.27-0.71c1.04,0,1.8,0.39,2.25,1.18c0.44,0.74,0.54,1.64,0.32,2.72c-0.29,1.37-0.86,2.46-1.71,3.27
		c-0.84,0.81-1.81,1.21-2.91,1.21c-0.6,0-1.08-0.14-1.44-0.42c-0.36-0.28-0.64-0.69-0.83-1.25L761.61,576.77z M763.35,568.56
		c-0.21,0.97-0.18,1.74,0.1,2.31c0.3,0.63,0.87,0.94,1.71,0.94c0.79,0,1.46-0.36,2.01-1.08c0.49-0.64,0.84-1.5,1.07-2.58
		c0.21-0.98,0.22-1.75,0.03-2.32c-0.25-0.72-0.8-1.08-1.64-1.08c-0.88,0-1.63,0.44-2.24,1.31
		C763.9,566.76,763.56,567.59,763.35,568.56"/>
	<path d="M771.2,572.43l1.73-8.14c0.17,0.02,0.28,0.04,0.34,0.05c0.07,0.01,0.17,0.02,0.32,0.02l0.7-0.07l-0.31,1.46
		c0.4-0.51,0.81-0.89,1.24-1.13c0.48-0.28,1.01-0.42,1.59-0.42c0.55,0,1.02,0.15,1.42,0.45c0.4,0.3,0.63,0.71,0.7,1.25
		c0.46-0.57,0.93-1,1.41-1.28c0.48-0.28,1.01-0.42,1.58-0.42c1,0,1.66,0.29,1.98,0.86c0.28,0.52,0.3,1.34,0.07,2.46l-1.04,4.92
		l-0.66-0.07c-0.12,0-0.22,0-0.29,0.01c-0.07,0.01-0.21,0.02-0.41,0.06l0.97-4.55c0.19-0.89,0.22-1.54,0.09-1.96
		c-0.17-0.57-0.63-0.85-1.39-0.85c-0.75,0-1.35,0.31-1.8,0.92c-0.32,0.44-0.55,1.05-0.72,1.83l-0.98,4.61l-0.66-0.07
		c-0.13,0-0.23,0-0.29,0.01c-0.07,0.01-0.2,0.02-0.4,0.06l1.06-4.98c0.34-1.58-0.09-2.38-1.29-2.38c-0.8,0-1.42,0.24-1.84,0.73
		c-0.31,0.37-0.55,0.92-0.71,1.68l-1.05,4.95l-0.66-0.07c-0.13,0-0.22,0-0.29,0.01C771.54,572.38,771.4,572.4,771.2,572.43"/>
	<path d="M792.77,567.04l-0.84,3.93l-0.08,0.24c-0.05,0.22-0.06,0.39-0.03,0.49c0.03,0.1,0.14,0.15,0.33,0.15l0.56-0.11l-0.08,0.37
		c-0.16,0.08-0.34,0.14-0.54,0.17l-0.63,0.07c-0.33,0-0.57-0.08-0.74-0.24c-0.16-0.16-0.23-0.43-0.19-0.81l-0.17,0.17
		c-0.88,0.72-1.8,1.08-2.75,1.08c-0.63,0-1.13-0.2-1.48-0.59c-0.35-0.39-0.47-0.9-0.34-1.52c0.14-0.67,0.45-1.18,0.92-1.55
		c0.47-0.37,1.39-0.66,2.76-0.89c0.59-0.09,0.98-0.17,1.18-0.22c0.47-0.15,0.76-0.45,0.85-0.89c0.14-0.64,0.07-1.13-0.19-1.48
		c-0.26-0.35-0.72-0.53-1.38-0.53c-0.55,0-1.06,0.15-1.52,0.44c-0.36,0.22-0.6,0.47-0.73,0.74h-0.21l0.2-0.94
		c0.51-0.31,1-0.54,1.48-0.71c0.48-0.16,0.97-0.24,1.48-0.24C792.46,564.19,793.17,565.14,792.77,567.04 M790.64,570.67l0.52-2.47
		l-0.63,0.1c-1.05,0.21-1.71,0.37-1.97,0.48c-0.74,0.3-1.18,0.79-1.33,1.46c-0.11,0.53-0.05,0.93,0.18,1.19
		c0.23,0.26,0.61,0.4,1.15,0.4c0.24,0,0.5-0.06,0.78-0.18c0.28-0.13,0.52-0.28,0.71-0.45c0.11-0.07,0.22-0.16,0.36-0.28
		C790.56,570.79,790.63,570.71,790.64,570.67"/>
	<path d="M794.8,572.43l1.73-8.14c0.16,0.02,0.28,0.04,0.34,0.05c0.07,0.01,0.17,0.02,0.32,0.02l0.7-0.07l-0.37,1.7l0.12-0.21
		c0.41-0.47,0.81-0.85,1.2-1.12c0.46-0.32,0.88-0.47,1.26-0.47c0.19,0,0.37,0.03,0.53,0.1l-0.55,1.42c-0.25-0.09-0.5-0.18-0.75-0.27
		c-0.45,0-0.84,0.14-1.17,0.41c-0.33,0.32-0.57,0.62-0.7,0.91c-0.13,0.29-0.26,0.71-0.38,1.26l-0.94,4.4l-0.66-0.07
		c-0.13,0-0.22,0-0.29,0.01C795.13,572.38,795,572.4,794.8,572.43"/>
	<path d="M802.88,562.63l1.47-0.54l-0.47,2.2h1.8l-0.11,0.37l-0.02,0.27h-1.8l-0.91,4.27l-0.16,0.58c-0.18,0.83-0.18,1.42-0.02,1.75
		c0.14,0.28,0.42,0.42,0.84,0.42c0.15,0,0.3-0.01,0.45-0.05c0.15-0.03,0.27-0.07,0.37-0.09l-0.09,0.41
		c-0.24,0.09-0.5,0.17-0.78,0.24c-0.27,0.07-0.51,0.1-0.71,0.1c-0.67,0-1.13-0.17-1.37-0.5c-0.28-0.38-0.32-1.02-0.13-1.91
		l0.09-0.27l1.06-4.95h-1.05c0.03-0.07,0.06-0.17,0.09-0.31c0.04-0.16,0.05-0.27,0.04-0.34h1.05L802.88,562.63z"/>
	<path d="M811.57,570.13h0.17c0.25,0.6,0.53,1.02,0.85,1.28c0.38,0.32,0.89,0.48,1.52,0.48c0.69,0,1.31-0.24,1.86-0.72
		c0.55-0.48,0.9-1.07,1.05-1.76c0.18-0.87-0.14-1.54-0.95-2c-0.79-0.37-1.56-0.75-2.32-1.13c-0.81-0.57-1.09-1.39-0.87-2.46
		c0.22-1.05,0.77-1.88,1.64-2.46c0.8-0.53,1.73-0.8,2.81-0.8c0.44,0,0.87,0.07,1.28,0.2c0.41,0.13,0.74,0.34,0.99,0.61
		c-0.1,0.16-0.22,0.38-0.38,0.66c-0.16,0.27-0.29,0.52-0.39,0.74h-0.17c-0.07-0.46-0.26-0.83-0.58-1.09
		c-0.31-0.26-0.71-0.4-1.21-0.4c-0.59,0-1.13,0.19-1.63,0.56c-0.49,0.37-0.8,0.85-0.93,1.43c-0.18,0.86,0.14,1.53,0.96,2
		c0.78,0.39,1.56,0.76,2.34,1.13c0.81,0.54,1.11,1.32,0.89,2.33c-0.25,1.18-0.87,2.14-1.85,2.86c-0.92,0.69-1.98,1.04-3.18,1.04
		c-0.46,0-0.95-0.09-1.45-0.27c-0.5-0.18-0.87-0.43-1.08-0.75c0.1-0.18,0.21-0.39,0.31-0.64
		C811.35,570.73,811.46,570.44,811.57,570.13"/>
	<path d="M828.09,564.29l-1.73,8.14l-0.66-0.07c-0.12,0-0.22,0-0.29,0.01c-0.08,0.01-0.21,0.02-0.4,0.06l0.31-1.49
		c-0.8,1.09-1.82,1.63-3.06,1.63c-0.94,0-1.58-0.26-1.93-0.79c-0.34-0.53-0.39-1.36-0.15-2.5l1.06-4.98
		c0.17,0.02,0.28,0.04,0.34,0.05c0.07,0.01,0.17,0.02,0.32,0.02l0.7-0.07l-0.98,4.58c-0.2,0.95-0.2,1.66,0,2.14
		c0.2,0.47,0.68,0.71,1.43,0.71c0.78,0,1.41-0.3,1.89-0.91c0.38-0.46,0.64-1.08,0.8-1.84l0.99-4.68c0.16,0.02,0.28,0.04,0.34,0.05
		c0.07,0.01,0.17,0.02,0.31,0.02L828.09,564.29z"/>
	<path d="M829.25,576.77c-0.11-0.02-0.22-0.04-0.31-0.05c-0.1-0.01-0.22-0.02-0.35-0.02c-0.12,0-0.24,0.01-0.38,0.03
		c-0.14,0.02-0.24,0.03-0.32,0.04l2.65-12.47c0.1,0.02,0.21,0.04,0.31,0.05s0.22,0.02,0.36,0.02c0.11,0,0.23-0.01,0.37-0.03
		c0.14-0.01,0.24-0.03,0.32-0.04l-0.37,1.73c0.46-0.56,0.8-0.93,1.04-1.12c0.63-0.47,1.38-0.71,2.27-0.71
		c1.04,0,1.79,0.39,2.25,1.18c0.44,0.74,0.54,1.64,0.32,2.72c-0.29,1.37-0.86,2.46-1.71,3.27c-0.84,0.81-1.81,1.21-2.91,1.21
		c-0.6,0-1.08-0.14-1.44-0.42c-0.36-0.28-0.63-0.69-0.82-1.25L829.25,576.77z M831,568.56c-0.21,0.97-0.18,1.74,0.1,2.31
		c0.3,0.63,0.88,0.94,1.71,0.94c0.79,0,1.46-0.36,2.01-1.08c0.49-0.64,0.84-1.5,1.07-2.58c0.21-0.98,0.22-1.75,0.03-2.32
		c-0.25-0.72-0.79-1.08-1.64-1.08c-0.88,0-1.63,0.44-2.25,1.31C831.55,566.76,831.2,567.59,831,568.56"/>
	<path d="M845.53,570.67l-0.22,0.89c-0.51,0.32-1.03,0.56-1.56,0.74c-0.53,0.18-1.06,0.28-1.58,0.28c-1.2,0-2.09-0.38-2.66-1.12
		c-0.58-0.75-0.72-1.78-0.45-3.09c0.26-1.22,0.8-2.21,1.62-2.97c0.87-0.8,1.93-1.2,3.17-1.2c0.95,0,1.67,0.31,2.17,0.93
		c0.56,0.68,0.71,1.64,0.45,2.86l-0.08,0.37c-0.4,0-1.05-0.01-1.97-0.04c-0.92-0.03-1.4-0.04-1.44-0.04h-2.41l-0.1,0.34
		c-0.19,0.91-0.09,1.66,0.3,2.27c0.4,0.61,1.07,0.92,2,0.92c0.51,0,1.04-0.13,1.59-0.41C844.72,571.25,845.11,571,845.53,570.67
		 M840.7,567.69h4.51c0.18-0.86,0.18-1.54,0.01-2.04c-0.22-0.61-0.71-0.92-1.48-0.92c-0.74,0-1.41,0.31-1.99,0.94
		C841.21,566.23,840.87,566.9,840.7,567.69"/>
	<path d="M847.87,572.43l1.73-8.14c0.17,0.02,0.28,0.04,0.34,0.05c0.07,0.01,0.17,0.02,0.32,0.02l0.7-0.07l-0.37,1.7l0.12-0.21
		c0.41-0.47,0.81-0.85,1.2-1.12c0.46-0.32,0.88-0.47,1.26-0.47c0.19,0,0.37,0.03,0.53,0.1l-0.55,1.42c-0.25-0.09-0.5-0.18-0.75-0.27
		c-0.45,0-0.84,0.14-1.17,0.41c-0.33,0.32-0.56,0.62-0.7,0.91c-0.13,0.29-0.26,0.71-0.38,1.26l-0.94,4.4l-0.66-0.07
		c-0.13,0-0.22,0-0.29,0.01C848.2,572.38,848.07,572.4,847.87,572.43"/>
	<path d="M854.16,572.43l1.73-8.14c0.17,0.02,0.28,0.04,0.34,0.05c0.07,0.01,0.17,0.02,0.32,0.02l0.7-0.07l-0.31,1.46
		c0.4-0.51,0.81-0.89,1.24-1.13c0.48-0.28,1.01-0.42,1.59-0.42c0.55,0,1.03,0.15,1.42,0.45c0.4,0.3,0.63,0.71,0.7,1.25
		c0.46-0.57,0.93-1,1.41-1.28c0.48-0.28,1.01-0.42,1.58-0.42c1,0,1.66,0.29,1.98,0.86c0.28,0.52,0.3,1.34,0.07,2.46l-1.04,4.92
		l-0.66-0.07c-0.12,0-0.22,0-0.29,0.01c-0.07,0.01-0.21,0.02-0.41,0.06l0.97-4.55c0.19-0.89,0.22-1.54,0.09-1.96
		c-0.17-0.57-0.63-0.85-1.39-0.85c-0.75,0-1.35,0.31-1.79,0.92c-0.32,0.44-0.56,1.05-0.72,1.83l-0.98,4.61l-0.66-0.07
		c-0.13,0-0.23,0-0.29,0.01c-0.07,0.01-0.2,0.02-0.4,0.06l1.06-4.98c0.34-1.58-0.09-2.38-1.29-2.38c-0.8,0-1.42,0.24-1.84,0.73
		c-0.31,0.37-0.55,0.92-0.71,1.68l-1.05,4.95l-0.66-0.07c-0.13,0-0.22,0-0.3,0.01C854.49,572.38,854.36,572.4,854.16,572.43"/>
	<path d="M875.72,567.04l-0.84,3.93l-0.08,0.24c-0.05,0.22-0.06,0.39-0.03,0.49c0.03,0.1,0.14,0.15,0.32,0.15l0.56-0.11l-0.08,0.37
		c-0.16,0.08-0.34,0.14-0.54,0.17l-0.63,0.07c-0.33,0-0.57-0.08-0.74-0.24s-0.23-0.43-0.19-0.81l-0.17,0.17
		c-0.88,0.72-1.8,1.08-2.75,1.08c-0.63,0-1.13-0.2-1.48-0.59c-0.36-0.39-0.47-0.9-0.34-1.52c0.14-0.67,0.45-1.18,0.92-1.55
		c0.47-0.37,1.39-0.66,2.76-0.89c0.59-0.09,0.99-0.17,1.18-0.22c0.47-0.15,0.76-0.45,0.85-0.89c0.14-0.64,0.08-1.13-0.19-1.48
		c-0.26-0.35-0.72-0.53-1.38-0.53c-0.55,0-1.06,0.15-1.52,0.44c-0.36,0.22-0.6,0.47-0.73,0.74h-0.21l0.2-0.94
		c0.51-0.31,1-0.54,1.48-0.71c0.48-0.16,0.97-0.24,1.48-0.24C875.41,564.19,876.13,565.14,875.72,567.04 M873.59,570.67l0.52-2.47
		l-0.63,0.1c-1.05,0.21-1.7,0.37-1.97,0.48c-0.74,0.3-1.18,0.79-1.32,1.46c-0.11,0.53-0.05,0.93,0.18,1.19
		c0.23,0.26,0.61,0.4,1.15,0.4c0.24,0,0.5-0.06,0.78-0.18c0.28-0.13,0.52-0.28,0.71-0.45c0.11-0.07,0.22-0.16,0.36-0.28
		C873.51,570.79,873.58,570.71,873.59,570.67"/>
	<path d="M877.75,572.43l1.73-8.14c0.17,0.02,0.28,0.04,0.34,0.05c0.07,0.01,0.17,0.02,0.32,0.02l0.7-0.07l-0.37,1.7l0.12-0.21
		c0.41-0.47,0.81-0.85,1.2-1.12c0.46-0.32,0.88-0.47,1.27-0.47c0.19,0,0.37,0.03,0.53,0.1l-0.54,1.42c-0.25-0.09-0.5-0.18-0.76-0.27
		c-0.45,0-0.84,0.14-1.17,0.41c-0.33,0.32-0.57,0.62-0.7,0.91c-0.13,0.29-0.26,0.71-0.38,1.26l-0.94,4.4l-0.66-0.07
		c-0.13,0-0.22,0-0.3,0.01C878.08,572.38,877.95,572.4,877.75,572.43"/>
	<path d="M887.96,559.68l-1.62,7.6l-0.11,0.34c-0.02,0.1,0,0.17,0.06,0.2l0.1,0.03c0.17,0,0.46-0.15,0.85-0.44
		c0.24-0.19,0.49-0.39,0.75-0.58l1.28-1.08l1.63-1.46c0.17,0.02,0.28,0.04,0.34,0.05c0.07,0.01,0.17,0.02,0.32,0.02
		c0.1,0,0.21-0.01,0.34-0.03c0.13-0.02,0.24-0.03,0.32-0.04l-0.04,0.14c-0.92,0.65-1.71,1.22-2.37,1.71c-0.66,0.49-1.34,1-2.05,1.55
		c0.15,0.21,0.47,0.71,0.96,1.49c0.07,0.1,0.41,0.62,1.02,1.58c0.44,0.68,0.79,1.21,1.04,1.58l-0.03,0.1
		c-0.19-0.03-0.34-0.05-0.44-0.06c-0.1-0.01-0.23-0.01-0.39-0.01c-0.15,0-0.31,0.01-0.47,0.03c-0.17,0.02-0.3,0.03-0.39,0.04
		c-0.27-0.5-0.64-1.12-1.12-1.86c-0.37-0.59-0.8-1.25-1.29-1.97c-0.11-0.17-0.23-0.26-0.35-0.26c-0.13,0-0.24,0.2-0.33,0.6
		l-0.74,3.49l-0.66-0.07c-0.13,0-0.23,0-0.29,0.01c-0.07,0.01-0.2,0.03-0.4,0.06l2.71-12.75l0.67,0.04L887.96,559.68z"/>
	<path d="M898.99,570.67l-0.22,0.89c-0.51,0.32-1.03,0.56-1.56,0.74c-0.53,0.18-1.06,0.28-1.58,0.28c-1.2,0-2.08-0.38-2.65-1.12
		c-0.58-0.75-0.72-1.78-0.45-3.09c0.26-1.22,0.8-2.21,1.62-2.97c0.87-0.8,1.93-1.2,3.17-1.2c0.95,0,1.67,0.31,2.17,0.93
		c0.56,0.68,0.71,1.64,0.45,2.86l-0.08,0.37c-0.4,0-1.05-0.01-1.97-0.04c-0.92-0.03-1.4-0.04-1.44-0.04h-2.41l-0.1,0.34
		c-0.19,0.91-0.09,1.66,0.3,2.27c0.4,0.61,1.07,0.92,2,0.92c0.51,0,1.04-0.13,1.59-0.41C898.18,571.25,898.57,571,898.99,570.67
		 M894.16,567.69h4.51c0.18-0.86,0.18-1.54,0.01-2.04c-0.22-0.61-0.71-0.92-1.48-0.92c-0.74,0-1.41,0.31-1.99,0.94
		C894.67,566.23,894.33,566.9,894.16,567.69"/>
	<path d="M903.24,562.63l1.47-0.54l-0.47,2.2h1.8l-0.11,0.37l-0.02,0.27h-1.8l-0.91,4.27l-0.16,0.58c-0.18,0.83-0.18,1.42-0.02,1.75
		c0.14,0.28,0.42,0.42,0.84,0.42c0.15,0,0.3-0.01,0.45-0.05c0.15-0.03,0.27-0.07,0.37-0.09l-0.09,0.41
		c-0.24,0.09-0.5,0.17-0.78,0.24c-0.27,0.07-0.51,0.1-0.71,0.1c-0.67,0-1.13-0.17-1.37-0.5c-0.28-0.38-0.32-1.02-0.13-1.91
		l0.09-0.27l1.06-4.95h-1.05c0.03-0.07,0.06-0.17,0.09-0.31c0.04-0.16,0.05-0.27,0.04-0.34h1.05L903.24,562.63z"/>
	<path class="st1" d="M814.74,467.82c0,5.9-4.78,10.68-10.68,10.68c-5.9,0-10.68-4.78-10.68-10.68c0-5.9,4.78-10.68,10.68-10.68
		C809.96,457.14,814.74,461.92,814.74,467.82"/>
	<path d="M802.75,455.25h2.5c0.59,0.13,1.19,0.23,1.78,0.38c8.53,2.15,12.18,12.22,6.98,19.33c-1.86,2.55-3.79,5.05-5.67,7.58
		c-1.43,1.92-2.84,3.85-4.26,5.77h-0.15c-0.1-0.16-0.19-0.34-0.3-0.49c-3.21-4.28-6.46-8.54-9.63-12.86
		c-4.94-6.74-1.95-16.26,5.93-19.01C800.84,455.64,801.8,455.48,802.75,455.25 M803.98,457.12c-5.79,0-10.53,4.75-10.53,10.54
		c0,5.77,4.77,10.53,10.55,10.52c5.78-0.01,10.53-4.77,10.52-10.55C814.52,461.85,809.78,457.12,803.98,457.12"/>
	<polygon points="808.03,462.1 808.03,463.68 803.59,472.85 800.93,472.85 805.36,464.2 805.36,464.16 800.43,464.16 800.43,462.1 	
		"/>
</g>
<g>
	<path class="st1" d="M828.15,279.51c0,5.96-4.84,10.8-10.8,10.8c-5.96,0-10.8-4.84-10.8-10.8c0-5.97,4.84-10.8,10.8-10.8
		C823.32,268.71,828.15,273.55,828.15,279.51"/>
	<path class="st1" d="M826.22,279.87c0,4.87-3.95,8.82-8.82,8.82c-4.87,0-8.82-3.95-8.82-8.82c0-4.87,3.95-8.82,8.82-8.82
		C822.28,271.05,826.22,275,826.22,279.87"/>
	<path d="M836.01,304.23c-1.39,0-2.78,0-4.18,0c-0.13,0-0.25,0.01-0.38,0.03c-0.16,0.03-0.23,0.12-0.2,0.27
		c0.07,0.36,0.16,0.72,0.27,1.07c0.05,0.17,0.21,0.27,0.38,0.34c0.17,0.06,0.35,0.11,0.51,0.19c0.33,0.14,0.6,0.36,0.8,0.67
		c0.06,0.1,0.13,0.19,0.2,0.28c0.17,0.24,0.41,0.36,0.71,0.36c0.85-0.01,1.69,0,2.54,0c0.18,0,0.37-0.01,0.56,0
		c0.28,0.01,0.5-0.1,0.67-0.31c0.11-0.13,0.21-0.26,0.31-0.4c0.49-0.67,1.36-0.95,2.14-0.68c0.79,0.27,1.32,1.01,1.3,1.83
		c-0.01,0.84-0.58,1.58-1.4,1.81c-0.79,0.23-1.66-0.1-2.11-0.8c-0.04-0.06-0.07-0.11-0.11-0.17c-0.17-0.31-0.43-0.45-0.77-0.44
		c-0.94,0.01-1.89,0-2.83,0c-0.11,0-0.21,0-0.32,0c-0.34-0.02-0.58,0.13-0.75,0.42c-0.16,0.27-0.35,0.52-0.61,0.7
		c-0.8,0.57-1.88,0.45-2.54-0.28c-0.64-0.71-0.64-1.81,0.01-2.53c0.07-0.08,0.14-0.15,0.21-0.22c0.2-0.2,0.27-0.43,0.21-0.7
		c-0.1-0.39-0.2-0.78-0.3-1.18c-0.41-1.64-0.83-3.27-1.24-4.91c-0.4-1.58-0.79-3.17-1.18-4.75c-0.02-0.08-0.04-0.17-0.07-0.25
		c-0.08-0.25-0.18-0.33-0.44-0.34c-0.34-0.01-0.67,0-1.01,0c-0.55,0-1.1,0-1.65,0c-0.15,0-0.28-0.06-0.36-0.18
		c-0.17-0.27-0.22-0.56-0.12-0.86c0.06-0.18,0.17-0.25,0.36-0.25c1.04,0,2.08,0,3.12,0c0.46,0,0.58,0.08,0.7,0.53
		c0.2,0.77,0.39,1.54,0.58,2.31c0.04,0.17,0.09,0.34,0.15,0.51c0.08,0.23,0.25,0.36,0.49,0.38c0.28,0.02,0.57,0.02,0.86,0.02
		c3.22,0,6.43,0,9.64,0c0.7,0,1.39,0,2.08,0c0.1,0,0.2,0.01,0.3,0.03c0.17,0.04,0.25,0.14,0.24,0.31c-0.01,0.15-0.02,0.3-0.06,0.44
		c-0.48,1.91-0.97,3.82-1.45,5.73c-0.04,0.17-0.09,0.33-0.13,0.49c-0.08,0.3-0.28,0.47-0.59,0.5c-0.27,0.03-0.54,0.03-0.81,0.03
		C838.5,304.23,837.26,304.23,836.01,304.23L836.01,304.23z M832.67,300.5L832.67,300.5v0.65c0,0.56,0,1.12,0,1.68
		c0,0.22,0.1,0.37,0.29,0.42c0.24,0.07,0.57-0.05,0.56-0.45c-0.01-1.53,0-3.06,0-4.6c0-0.04,0-0.09-0.01-0.13
		c-0.02-0.14-0.1-0.24-0.23-0.3c-0.31-0.14-0.61,0.06-0.62,0.4C832.67,298.95,832.67,299.73,832.67,300.5 M830.97,300.5
		L830.97,300.5l0,0.66c0,0.56,0,1.12,0,1.68c0,0.24,0.13,0.4,0.34,0.43c0.3,0.05,0.51-0.13,0.51-0.44c0-0.85,0-1.71,0-2.56
		c0-0.69,0-1.38,0-2.07c0-0.22-0.09-0.36-0.27-0.43c-0.26-0.09-0.59,0.05-0.58,0.42C830.98,298.95,830.97,299.73,830.97,300.5
		 M835.23,300.51v-0.26v-2.06c0-0.15-0.03-0.28-0.16-0.37c-0.15-0.11-0.31-0.12-0.47-0.04c-0.16,0.08-0.22,0.21-0.22,0.38v2.6
		c0,0.69,0,1.37,0,2.06c0,0.17,0.06,0.31,0.21,0.39c0.31,0.16,0.64-0.03,0.64-0.38C835.24,302.06,835.23,301.28,835.23,300.51
		 M837.8,300.5v1.44c0,0.31,0,0.62,0,0.94c0,0.2,0.14,0.36,0.33,0.39c0.22,0.04,0.42-0.05,0.49-0.24c0.03-0.08,0.04-0.17,0.04-0.26
		c0-1.51,0-3.01,0-4.52c0-0.05,0-0.1-0.01-0.16c-0.02-0.16-0.11-0.27-0.27-0.33c-0.3-0.11-0.58,0.09-0.58,0.41
		C837.79,298.95,837.8,299.72,837.8,300.5 M836.09,300.5v1.42c0,0.31,0,0.62,0,0.92c0,0.23,0.14,0.39,0.35,0.42
		c0.3,0.04,0.5-0.14,0.5-0.46c0-1.3,0-2.6,0-3.91c0-0.24,0-0.49,0-0.73c0-0.16-0.06-0.3-0.21-0.38c-0.26-0.14-0.65-0.01-0.64,0.39
		C836.1,298.95,836.09,299.73,836.09,300.5 M839.5,300.5c0,0.78,0,1.55,0,2.33c0,0.18,0.06,0.32,0.22,0.4
		c0.31,0.15,0.63-0.05,0.63-0.4c0-1,0-2.01,0-3.01c0-0.55,0-1.09,0-1.64c0-0.22-0.1-0.36-0.28-0.42c-0.3-0.1-0.57,0.09-0.57,0.41
		C839.5,298.95,839.5,299.72,839.5,300.5 M832.47,307.85c0-0.48-0.37-0.85-0.84-0.85c-0.47,0-0.85,0.38-0.85,0.85
		c0,0.47,0.38,0.84,0.86,0.84C832.09,308.68,832.47,308.31,832.47,307.85 M839.75,308.68c0.46,0,0.85-0.38,0.84-0.84
		c0-0.47-0.38-0.85-0.85-0.85c-0.47,0-0.84,0.38-0.84,0.85C838.91,308.31,839.28,308.68,839.75,308.68"/>
	<path d="M809.14,312.5h0.19c0.13,1.25,0.21,2.02,0.25,2.29c0.06,0.5,0.14,1.22,0.26,2.17c0.09,0.68,0.17,1.33,0.26,1.94
		c-0.13-0.01-0.22-0.02-0.28-0.03c-0.06-0.01-0.11-0.01-0.17-0.01c-0.13,0-0.22,0-0.28,0.01c-0.07,0.02-0.12,0.03-0.15,0.03
		c-0.06-0.63-0.12-1.26-0.17-1.89c-0.06-0.63-0.11-1.2-0.17-1.7c-0.05-0.51-0.1-0.92-0.15-1.25c-0.35,0.62-0.68,1.22-0.99,1.81
		c-0.29,0.53-0.56,1.05-0.82,1.56c-0.26,0.51-0.47,0.97-0.64,1.36h-0.1l-0.52-1.07c-0.22-0.46-0.42-0.87-0.59-1.21
		c-0.17-0.34-0.39-0.75-0.64-1.24c-0.22-0.41-0.43-0.81-0.64-1.22c-0.23,2.07-0.35,3.17-0.36,3.28c-0.06,0.62-0.09,1.14-0.09,1.56
		c-0.09-0.02-0.15-0.03-0.19-0.03c-0.04,0-0.09-0.01-0.15-0.01c-0.06,0-0.12,0.01-0.18,0.01c-0.07,0.01-0.12,0.02-0.15,0.02
		c0.13-0.83,0.3-1.99,0.51-3.48c0.21-1.48,0.34-2.46,0.39-2.93h0.24c0.25,0.5,0.51,1.02,0.79,1.56c0.31,0.61,0.61,1.17,0.88,1.66
		c0.34,0.61,0.66,1.17,0.97,1.67c0.37-0.66,0.66-1.19,0.88-1.6c0.29-0.54,0.58-1.07,0.87-1.6
		C808.48,313.67,808.8,313.11,809.14,312.5"/>
	<path d="M817.33,312.5h0.19c0.13,1.25,0.21,2.02,0.24,2.29c0.06,0.5,0.14,1.22,0.26,2.17c0.09,0.68,0.17,1.33,0.26,1.94
		c-0.13-0.01-0.22-0.02-0.28-0.03c-0.06-0.01-0.11-0.01-0.17-0.01c-0.13,0-0.22,0-0.28,0.01c-0.07,0.02-0.11,0.03-0.15,0.03
		c-0.06-0.63-0.11-1.26-0.17-1.89c-0.06-0.63-0.11-1.2-0.17-1.7c-0.05-0.51-0.11-0.92-0.15-1.25c-0.35,0.62-0.68,1.22-0.99,1.81
		c-0.29,0.53-0.56,1.05-0.82,1.56c-0.26,0.51-0.47,0.97-0.64,1.36h-0.1l-0.52-1.07c-0.22-0.46-0.42-0.87-0.59-1.21
		c-0.18-0.34-0.39-0.75-0.64-1.24c-0.22-0.41-0.43-0.81-0.64-1.22c-0.23,2.07-0.35,3.17-0.36,3.28c-0.06,0.62-0.09,1.14-0.09,1.56
		c-0.09-0.02-0.15-0.03-0.19-0.03c-0.04,0-0.09-0.01-0.15-0.01c-0.06,0-0.12,0.01-0.18,0.01c-0.07,0.01-0.12,0.02-0.15,0.02
		c0.13-0.83,0.3-1.99,0.51-3.48c0.21-1.48,0.34-2.46,0.39-2.93H812c0.25,0.5,0.51,1.02,0.79,1.56c0.32,0.61,0.61,1.17,0.88,1.66
		c0.34,0.61,0.66,1.17,0.97,1.67c0.37-0.66,0.66-1.19,0.88-1.6c0.29-0.54,0.58-1.07,0.87-1.6S816.99,313.11,817.33,312.5"/>
	<path d="M828.05,312.5h0.19c0.13,1.25,0.21,2.02,0.24,2.29c0.06,0.5,0.14,1.22,0.26,2.17c0.09,0.68,0.17,1.33,0.26,1.94
		c-0.13-0.01-0.22-0.02-0.28-0.03c-0.06-0.01-0.11-0.01-0.17-0.01c-0.13,0-0.22,0-0.28,0.01c-0.07,0.02-0.12,0.03-0.15,0.03
		c-0.06-0.63-0.11-1.26-0.17-1.89c-0.06-0.63-0.11-1.2-0.17-1.7c-0.05-0.51-0.11-0.92-0.15-1.25c-0.35,0.62-0.68,1.22-0.99,1.81
		c-0.29,0.53-0.56,1.05-0.82,1.56c-0.26,0.51-0.47,0.97-0.64,1.36h-0.1l-0.52-1.07c-0.22-0.46-0.42-0.87-0.59-1.21
		c-0.17-0.34-0.39-0.75-0.64-1.24c-0.22-0.41-0.43-0.81-0.64-1.22c-0.23,2.07-0.35,3.17-0.36,3.28c-0.06,0.62-0.09,1.14-0.09,1.56
		c-0.09-0.02-0.15-0.03-0.19-0.03s-0.09-0.01-0.15-0.01c-0.06,0-0.12,0.01-0.18,0.01c-0.07,0.01-0.12,0.02-0.15,0.02
		c0.13-0.83,0.3-1.99,0.51-3.48c0.21-1.48,0.34-2.46,0.39-2.93h0.24c0.25,0.5,0.51,1.02,0.79,1.56c0.32,0.61,0.61,1.17,0.88,1.66
		c0.34,0.61,0.66,1.17,0.97,1.67c0.37-0.66,0.66-1.19,0.88-1.6c0.29-0.54,0.58-1.07,0.87-1.6S827.71,313.11,828.05,312.5"/>
	<path d="M833.5,317.94l-0.02,0.49c-0.24,0.17-0.5,0.31-0.77,0.41c-0.27,0.1-0.55,0.15-0.84,0.15c-0.66,0-1.19-0.21-1.59-0.62
		c-0.41-0.41-0.61-0.98-0.61-1.7c0-0.67,0.18-1.22,0.54-1.64c0.39-0.44,0.92-0.66,1.6-0.66c0.52,0,0.96,0.17,1.31,0.51
		c0.39,0.38,0.58,0.9,0.58,1.58v0.21c-0.22,0-0.58-0.01-1.09-0.02c-0.51-0.01-0.77-0.02-0.8-0.02h-1.33l-0.02,0.19
		c0,0.5,0.14,0.91,0.43,1.25c0.29,0.34,0.69,0.5,1.21,0.5c0.28,0,0.56-0.07,0.83-0.22C833.12,318.26,833.3,318.12,833.5,317.94
		 M830.49,316.29h2.48c0-0.47-0.08-0.85-0.23-1.12c-0.19-0.34-0.5-0.51-0.92-0.51c-0.41,0-0.74,0.17-0.99,0.51
		C830.6,315.49,830.49,315.86,830.49,316.29"/>
	<path d="M838.2,314.41v0.36l-1.03-0.1c0.21,0.16,0.37,0.34,0.48,0.54c0.12,0.21,0.17,0.44,0.17,0.69c0,0.48-0.2,0.85-0.59,1.11
		c-0.36,0.23-0.83,0.35-1.41,0.35h-0.17c-0.13,0-0.24,0.03-0.31,0.08c-0.13,0.07-0.19,0.2-0.19,0.37c0,0.19,0.07,0.31,0.2,0.36
		c0.14,0.06,0.37,0.09,0.69,0.09h0.6c1.08,0,1.62,0.42,1.62,1.25c0,0.54-0.22,0.98-0.66,1.32c-0.44,0.34-1.01,0.51-1.71,0.51
		c-0.44,0-0.82-0.11-1.14-0.32c-0.37-0.25-0.56-0.6-0.56-1.04c0-0.33,0.09-0.58,0.26-0.77c0.17-0.19,0.41-0.31,0.71-0.37v-0.08
		c-0.16-0.04-0.28-0.1-0.37-0.19c-0.13-0.13-0.19-0.32-0.19-0.58c0-0.2,0.06-0.37,0.18-0.5c0.09-0.09,0.24-0.19,0.46-0.3
		c-0.3-0.14-0.51-0.3-0.65-0.49c-0.16-0.22-0.24-0.5-0.24-0.83c0-0.46,0.13-0.82,0.4-1.08c0.3-0.28,0.75-0.42,1.35-0.42h0.13
		l1.29,0.05l0.26,0.02c0.07,0,0.15-0.01,0.23-0.01C838.09,314.42,838.16,314.41,838.2,314.41 M836.22,318.82
		c-0.96,0-1.44,0.37-1.44,1.12c0,0.37,0.12,0.65,0.37,0.84c0.24,0.19,0.57,0.28,0.98,0.28c0.4,0,0.73-0.09,0.99-0.26
		c0.32-0.21,0.48-0.52,0.48-0.93c0-0.43-0.14-0.73-0.42-0.88C836.99,318.87,836.67,318.82,836.22,318.82 M835.06,315.84l-0.02,0.1
		c0,0.32,0.09,0.6,0.28,0.83c0.19,0.23,0.44,0.35,0.75,0.35c0.33,0,0.58-0.12,0.77-0.35c0.18-0.23,0.28-0.52,0.28-0.86
		c0-0.39-0.08-0.69-0.22-0.91c-0.17-0.24-0.43-0.37-0.78-0.37c-0.33,0-0.59,0.11-0.77,0.33
		C835.15,315.19,835.06,315.48,835.06,315.84"/>
	<path d="M842.26,315.94v2.17l-0.02,0.13c0,0.12,0.02,0.21,0.05,0.27c0.03,0.06,0.1,0.08,0.2,0.08l0.3-0.06v0.21
		c-0.08,0.04-0.17,0.08-0.28,0.09l-0.34,0.04c-0.18,0-0.32-0.04-0.43-0.13c-0.11-0.09-0.18-0.24-0.2-0.45l-0.07,0.09
		c-0.4,0.4-0.86,0.6-1.39,0.6c-0.35,0-0.64-0.11-0.88-0.32c-0.24-0.22-0.36-0.49-0.36-0.84c0-0.37,0.11-0.65,0.32-0.85
		c0.21-0.2,0.69-0.37,1.41-0.49c0.32-0.05,0.52-0.09,0.63-0.12c0.24-0.08,0.36-0.25,0.36-0.49c0-0.35-0.09-0.62-0.28-0.81
		c-0.19-0.19-0.46-0.29-0.82-0.29c-0.3,0-0.57,0.08-0.79,0.24c-0.17,0.12-0.28,0.26-0.31,0.41h-0.11v-0.52
		c0.24-0.17,0.49-0.3,0.73-0.39c0.24-0.09,0.51-0.13,0.78-0.13C841.75,314.37,842.26,314.89,842.26,315.94 M841.51,317.94v-1.36
		l-0.34,0.05c-0.55,0.11-0.9,0.2-1.03,0.26c-0.37,0.17-0.56,0.43-0.56,0.8c0,0.29,0.08,0.51,0.24,0.66
		c0.16,0.15,0.38,0.22,0.68,0.22c0.13,0,0.27-0.03,0.41-0.1c0.14-0.07,0.25-0.15,0.34-0.25c0.05-0.04,0.11-0.09,0.17-0.15
		C841.48,318,841.51,317.96,841.51,317.94"/>
	<path d="M852.31,312.5h0.19c0.13,1.25,0.21,2.02,0.25,2.29c0.06,0.5,0.14,1.22,0.26,2.17c0.09,0.68,0.17,1.33,0.26,1.94
		c-0.13-0.01-0.22-0.02-0.28-0.03c-0.06-0.01-0.11-0.01-0.17-0.01c-0.13,0-0.22,0-0.28,0.01c-0.07,0.02-0.12,0.03-0.15,0.03
		c-0.06-0.63-0.12-1.26-0.17-1.89c-0.06-0.63-0.11-1.2-0.17-1.7c-0.05-0.51-0.1-0.92-0.15-1.25c-0.35,0.62-0.68,1.22-0.99,1.81
		c-0.29,0.53-0.56,1.05-0.82,1.56c-0.26,0.51-0.47,0.97-0.64,1.36h-0.1l-0.52-1.07c-0.22-0.46-0.42-0.87-0.59-1.21
		c-0.17-0.34-0.39-0.75-0.64-1.24c-0.22-0.41-0.43-0.81-0.64-1.22c-0.23,2.07-0.35,3.17-0.36,3.28c-0.06,0.62-0.09,1.14-0.09,1.56
		c-0.09-0.02-0.15-0.03-0.19-0.03c-0.04,0-0.09-0.01-0.15-0.01c-0.06,0-0.12,0.01-0.18,0.01c-0.07,0.01-0.12,0.02-0.15,0.02
		c0.13-0.83,0.3-1.99,0.51-3.48c0.21-1.48,0.34-2.46,0.39-2.93h0.24c0.25,0.5,0.51,1.02,0.79,1.56c0.31,0.61,0.61,1.17,0.88,1.66
		c0.34,0.61,0.66,1.17,0.97,1.67c0.37-0.66,0.66-1.19,0.88-1.6c0.29-0.54,0.58-1.07,0.87-1.6
		C851.66,313.67,851.97,313.11,852.31,312.5"/>
	<path d="M857.49,315.94v2.17l-0.02,0.13c0,0.12,0.02,0.21,0.04,0.27c0.03,0.06,0.1,0.08,0.2,0.08l0.3-0.06v0.21
		c-0.08,0.04-0.17,0.08-0.28,0.09l-0.34,0.04c-0.18,0-0.32-0.04-0.43-0.13c-0.11-0.09-0.18-0.24-0.2-0.45l-0.07,0.09
		c-0.4,0.4-0.86,0.6-1.39,0.6c-0.35,0-0.64-0.11-0.88-0.32c-0.24-0.22-0.36-0.49-0.36-0.84c0-0.37,0.11-0.65,0.32-0.85
		c0.21-0.2,0.69-0.37,1.42-0.49c0.32-0.05,0.52-0.09,0.62-0.12c0.24-0.08,0.36-0.25,0.36-0.49c0-0.35-0.09-0.62-0.28-0.81
		c-0.19-0.19-0.46-0.29-0.82-0.29c-0.3,0-0.57,0.08-0.79,0.24c-0.17,0.12-0.28,0.26-0.31,0.41h-0.11v-0.52
		c0.24-0.17,0.49-0.3,0.73-0.39c0.24-0.09,0.5-0.13,0.78-0.13C856.98,314.37,857.49,314.89,857.49,315.94 M856.74,317.94v-1.36
		l-0.34,0.05c-0.55,0.11-0.9,0.2-1.03,0.26c-0.37,0.17-0.56,0.43-0.56,0.8c0,0.29,0.08,0.51,0.24,0.66
		c0.16,0.15,0.38,0.22,0.68,0.22c0.13,0,0.27-0.03,0.41-0.1c0.14-0.07,0.25-0.15,0.34-0.25c0.05-0.04,0.11-0.09,0.17-0.15
		C856.71,318,856.74,317.96,856.74,317.94"/>
	<path d="M858.88,318.91v-4.48c0.09,0.01,0.16,0.02,0.2,0.03c0.04,0.01,0.1,0.01,0.18,0.01l0.37-0.04v0.93l0.04-0.11
		c0.17-0.26,0.35-0.47,0.53-0.62c0.22-0.17,0.43-0.26,0.64-0.26c0.11,0,0.21,0.02,0.3,0.05l-0.13,0.78c-0.15-0.05-0.3-0.1-0.45-0.15
		c-0.25,0-0.45,0.08-0.6,0.23c-0.15,0.17-0.24,0.34-0.28,0.5c-0.04,0.16-0.06,0.39-0.06,0.69v2.43l-0.37-0.04
		c-0.07,0-0.12,0-0.16,0.01C859.06,318.88,858.99,318.89,858.88,318.91"/>
	<path d="M862.65,311.89v4.19l-0.02,0.19c0,0.06,0.02,0.09,0.06,0.11l0.06,0.02c0.09,0,0.23-0.08,0.42-0.24
		c0.11-0.11,0.23-0.21,0.35-0.32l0.58-0.6l0.73-0.8c0.09,0.01,0.16,0.02,0.2,0.03c0.04,0.01,0.1,0.01,0.18,0.01
		c0.06,0,0.12,0,0.18-0.01c0.07-0.01,0.13-0.02,0.17-0.02v0.08c-0.43,0.36-0.8,0.67-1.11,0.94c-0.31,0.27-0.62,0.55-0.95,0.85
		c0.11,0.12,0.34,0.39,0.7,0.82c0.05,0.05,0.3,0.34,0.75,0.87c0.32,0.37,0.57,0.66,0.75,0.87v0.06c-0.11-0.02-0.19-0.03-0.25-0.03
		c-0.06,0-0.13-0.01-0.22-0.01c-0.08,0-0.17,0.01-0.26,0.01c-0.09,0.01-0.16,0.02-0.21,0.02c-0.21-0.27-0.48-0.62-0.83-1.03
		c-0.27-0.32-0.59-0.69-0.94-1.08c-0.08-0.1-0.16-0.15-0.23-0.15c-0.07,0-0.11,0.11-0.11,0.33v1.92l-0.37-0.04
		c-0.07,0-0.12,0-0.16,0.01c-0.04,0-0.11,0.01-0.22,0.03v-7.02l0.37,0.02L862.65,311.89z"/>
	<path d="M869.82,317.94l-0.02,0.49c-0.24,0.17-0.5,0.31-0.77,0.41c-0.27,0.1-0.55,0.15-0.84,0.15c-0.66,0-1.19-0.21-1.59-0.62
		c-0.41-0.41-0.61-0.98-0.61-1.7c0-0.67,0.18-1.22,0.54-1.64c0.39-0.44,0.92-0.66,1.6-0.66c0.52,0,0.96,0.17,1.31,0.51
		c0.39,0.38,0.58,0.9,0.58,1.58v0.21c-0.22,0-0.58-0.01-1.09-0.02c-0.51-0.01-0.77-0.02-0.8-0.02h-1.33l-0.02,0.19
		c0,0.5,0.15,0.91,0.44,1.25c0.29,0.34,0.69,0.5,1.21,0.5c0.28,0,0.56-0.07,0.83-0.22C869.44,318.26,869.63,318.12,869.82,317.94
		 M866.82,316.29h2.48c0-0.47-0.08-0.85-0.23-1.12c-0.19-0.34-0.5-0.51-0.93-0.51c-0.41,0-0.74,0.17-0.99,0.51
		C866.93,315.49,866.82,315.86,866.82,316.29"/>
	<path d="M870.87,313.51l0.75-0.3v1.21h0.99l-0.02,0.2l0.02,0.15h-0.99v2.35l-0.02,0.32c0,0.46,0.07,0.78,0.2,0.96
		c0.11,0.16,0.28,0.23,0.51,0.23c0.08,0,0.16-0.01,0.24-0.03c0.08-0.02,0.14-0.04,0.19-0.05v0.23c-0.13,0.05-0.26,0.09-0.41,0.13
		c-0.14,0.04-0.27,0.06-0.38,0.06c-0.37,0-0.64-0.09-0.81-0.27c-0.2-0.21-0.3-0.56-0.3-1.05l0.02-0.15v-2.73h-0.58
		c0.01-0.04,0.02-0.09,0.02-0.17c0-0.09-0.01-0.15-0.02-0.19h0.58V313.51z"/>
	<path d="M816.14,267.08h2.53c0.6,0.13,1.21,0.23,1.8,0.38c8.64,2.18,12.32,12.37,7.07,19.57c-1.88,2.58-3.83,5.11-5.74,7.67
		c-1.45,1.94-2.88,3.89-4.32,5.84h-0.15c-0.1-0.17-0.19-0.34-0.31-0.5c-3.25-4.34-6.54-8.64-9.75-13.01
		c-5-6.82-1.98-16.46,6.01-19.24C814.21,267.47,815.19,267.32,816.14,267.08 M817.4,268.95c-5.87,0-10.68,4.82-10.68,10.69
		c0,5.85,4.84,10.68,10.7,10.67c5.87-0.01,10.69-4.84,10.68-10.7C828.09,273.75,823.27,268.95,817.4,268.95"/>
	<polygon points="813.17,277.54 813.14,277.54 811.51,278.31 811.18,276.82 813.44,275.77 815.09,275.77 815.09,284.29 
		813.17,284.29 	"/>
	<path d="M824.2,279.99c0,2.64-1.06,4.45-3.24,4.45c-2.2,0-3.18-1.98-3.19-4.4c0-2.47,1.05-4.42,3.25-4.42
		C823.31,275.62,824.2,277.66,824.2,279.99 M819.78,280.04c-0.01,1.95,0.46,2.89,1.23,2.89c0.77,0,1.19-0.97,1.19-2.91
		c0-1.89-0.41-2.89-1.21-2.89C820.27,277.13,819.77,278.06,819.78,280.04"/>
</g>
</svg>
