<svg width="325" height="84" viewBox="0 0 325 84" fill="none" xmlns="http://www.w3.org/2000/svg">
<path fill-rule="evenodd" clip-rule="evenodd" d="M324.936 45.7286C324.641 46.9507 323.719 46.7805 322.962 46.7496C321.45 46.6877 320.41 45.3573 319.24 44.3208C317.585 42.8665 315.859 41.3505 313.933 43.7638C312.527 46.9507 311.179 46.8424 310.317 43.3771C309.95 41.9074 309.631 41.2267 308.508 41.9538C307.705 42.4953 307.847 43.176 307.799 44.4445C307.598 50.1376 310.163 50.9575 313.46 51.267C314.749 51.3907 316.037 51.6847 317.313 52.0559C319.027 52.5355 321.721 52.4891 321.639 55.2119C321.544 58.5535 318.968 56.3412 317.514 56.7899C315.387 57.4396 313.307 58.3988 311.038 58.2441C310.009 58.1667 308.922 59.1723 308.662 60.5337C308.296 62.3592 309.726 61.8796 310.423 62.4056C311.534 63.241 311.238 64.3704 310.328 65.1903C309.808 65.6699 309.17 66.0102 308.544 66.2113C304.644 67.4335 301.027 68.3772 297.411 71.8889C294.09 75.1068 288.618 74.5808 284.091 75.6637C283.382 75.8339 282.094 75.0604 282.07 76.2206C281.905 82.5016 278.111 80.5678 275.665 81.001C270.134 82.0066 269.909 81.496 270.938 74.3951C271.127 73.0647 271.469 71.595 270.418 70.6358C269.756 70.048 268.716 69.9087 268.196 70.6668C267.014 72.4149 269.295 74.4416 268.397 75.4626C267.416 76.5765 268.184 79.4694 267.215 80.475C265.194 82.5635 262.511 82.0994 260.171 80.5524C259.296 79.9645 258.705 79.949 257.724 80.4595C255.148 81.79 252.016 84.3116 251.473 77.5202C251.343 75.8184 250.255 75.1841 249.274 76.7776C245.575 82.811 244.618 83.0895 238.862 79.3921C238.555 79.191 238.011 78.8042 237.94 78.9125C234.324 84.5437 229.207 82.0375 224.928 82.3624C203.667 84.0177 182.37 84.884 161.097 82.6718C149.798 81.496 138.595 79.2528 127.367 77.1953C118.066 75.4935 108.753 74.3178 99.2982 75.1532C89.1343 76.0505 78.9468 76.1433 68.7593 76.6384C65.4383 76.7931 62.5901 75.54 60.3918 72.1829C58.7845 69.7386 56.9172 69.5993 54.4944 69.8004C45.6542 70.543 36.8022 71.1618 27.9147 70.9917C20.9537 70.8524 14.0162 68.2998 6.99608 70.3883C5.87333 70.7132 4.67967 70.5585 3.65146 69.5065C0.980492 66.7683 -1.08774 53.9124 0.625939 50.0757C2.09143 46.7805 4.28966 44.8468 7.24427 44.5992C7.457 42.8975 6.4288 42.124 5.86151 41.072C4.91604 39.3084 5.58969 37.9006 6.70062 37.3282C12.7044 34.2805 17.4436 28.0459 23.9437 26.1431C26.9693 25.2613 29.9002 23.3275 31.6966 19.7074C37.0977 8.78534 45.5242 5.98521 54.5653 4.79399C73.2267 2.31873 91.8998 4.48458 110.561 4.77852C119.248 4.91775 127.804 3.37072 136.408 1.93197C142.908 0.849046 149.574 0.462287 156.133 0.183821C162.007 -0.063705 167.952 -0.110116 173.896 0.353995C195.961 2.10215 217.707 7.70242 239.902 8.46046C253.836 8.92457 268.007 11.5545 281.113 19.2897C281.988 19.2124 282.851 19.0731 283.713 19.0886C284.411 19.0886 285.557 18.872 285.474 20.1406C285.368 21.7804 284.21 21.0843 283.406 20.9915C282.496 21.3937 281.231 20.5583 280.499 23.1882C289.185 24.0236 297.86 24.0701 306.641 28.1388C304.372 30.3974 302.115 28.6802 299.834 31.6041C304.904 30.6604 308.272 34.3114 312.349 34.8684C314.098 35.1159 317.349 35.1159 315.978 39.9581C315.942 40.0509 316.769 40.5615 317.195 40.8709C319.606 40.7626 321.603 42.3715 323.695 43.5937C324.381 43.9804 325.243 44.46 324.936 45.7286Z" fill="url(#paint0_linear)"/>
<path d="M101.304 38.8V27.856H106.92C111.384 27.856 114.972 28.96 117.684 31.168C120.66 33.568 122.148 36.94 122.148 41.284C122.148 45.748 120.672 49.192 117.72 51.616C115.008 53.872 111.372 55 106.812 55H101.304V41.968H99V38.8H101.304ZM104.688 30.952V38.8H109.512V41.968H104.688V51.904H105.876C109.74 51.904 112.764 51.148 114.948 49.636C117.492 47.86 118.764 45.124 118.764 41.428C118.764 37.732 117.492 34.996 114.948 33.22C112.764 31.708 109.74 30.952 105.876 30.952H104.688ZM132.445 52.696C134.173 52.696 135.529 52.096 136.513 50.896C137.449 49.768 137.917 48.328 137.917 46.576C137.917 44.872 137.425 43.444 136.441 42.292C135.457 41.116 134.125 40.528 132.445 40.528C130.813 40.528 129.505 41.14 128.521 42.364C127.585 43.492 127.117 44.896 127.117 46.576C127.117 48.28 127.573 49.696 128.485 50.824C129.469 52.072 130.789 52.696 132.445 52.696ZM140.977 38.152V55H137.737V52.372H137.665C136.225 54.508 134.317 55.576 131.941 55.576C129.445 55.576 127.453 54.664 125.965 52.84C124.573 51.16 123.877 49.036 123.877 46.468C123.877 44.02 124.585 41.968 126.001 40.312C127.489 38.536 129.433 37.648 131.833 37.648C134.257 37.648 136.201 38.752 137.665 40.96H137.737V38.152H140.977ZM127.009 32.14H128.881C129.433 33.46 130.417 34.12 131.833 34.12C133.249 34.12 134.233 33.46 134.785 32.14H136.657C136.441 33.34 135.889 34.264 135.001 34.912C134.137 35.536 133.081 35.848 131.833 35.848C130.609 35.848 129.553 35.524 128.665 34.876C127.777 34.228 127.225 33.316 127.009 32.14ZM148.417 38.152V40.42H148.489C149.521 38.572 151.213 37.648 153.565 37.648C157.549 37.648 159.541 40.084 159.541 44.956V55H156.301V45.352C156.301 43.72 156.097 42.568 155.689 41.896C155.137 40.984 154.105 40.528 152.593 40.528C150.769 40.528 149.557 41.272 148.957 42.76C148.597 43.672 148.417 45.172 148.417 47.26V55H145.177V38.152H148.417ZM171.257 52.696C172.961 52.696 174.317 52.096 175.325 50.896C176.261 49.744 176.729 48.304 176.729 46.576C176.729 44.848 176.249 43.432 175.289 42.328C174.281 41.128 172.937 40.528 171.257 40.528C169.625 40.528 168.329 41.128 167.369 42.328C166.409 43.504 165.929 44.92 165.929 46.576C165.929 48.28 166.385 49.696 167.297 50.824C168.281 52.072 169.601 52.696 171.257 52.696ZM179.789 38.152V54.676C179.789 57.868 179.237 60.256 178.133 61.84C176.813 63.712 174.629 64.648 171.581 64.648C169.205 64.648 167.261 63.964 165.749 62.596C164.237 61.228 163.469 59.368 163.445 57.016H166.685C166.685 58.504 167.141 59.668 168.053 60.508C168.989 61.348 170.213 61.768 171.725 61.768C173.573 61.768 174.881 61.168 175.649 59.968C176.249 59.008 176.549 57.544 176.549 55.576V52.372H176.477C175.037 54.508 173.129 55.576 170.753 55.576C168.257 55.576 166.265 54.664 164.777 52.84C163.385 51.16 162.689 49.036 162.689 46.468C162.689 44.044 163.385 41.992 164.777 40.312C166.289 38.536 168.233 37.648 170.609 37.648C173.081 37.648 175.037 38.776 176.477 41.032H176.549V38.152H179.789ZM197.852 23.752V44.488L204.188 38.152H208.472L201.272 45.136L209.192 55H204.98L198.968 47.332L197.852 48.448V55H194.612V23.752H197.852ZM216.029 52.12L208.325 38.152H212.105L217.793 48.844L223.085 38.152H226.721L213.077 64.648H209.405L216.029 52.12ZM220.457 30.34L223.121 31.78L217.793 36.532L217.109 35.308L220.457 30.34Z" fill="black"/>
<defs>
<linearGradient id="paint0_linear" x1="-0.0122571" y1="41.9852" x2="324.999" y2="41.9852" gradientUnits="userSpaceOnUse">
<stop stop-color="#C48E2D"/>
<stop offset="1" stop-color="#EDD765"/>
</linearGradient>
</defs>
</svg>
