<svg width="160" height="120" viewBox="0 0 160 120" fill="none" xmlns="http://www.w3.org/2000/svg">
<path d="M67.9 30.9306C67.1524 30.3983 66.2726 30.082 65.3572 30.0164C64.4418 29.9509 63.5259 30.1385 62.7101 30.5589C61.8942 30.9792 61.2098 31.616 60.7317 32.3994C60.2537 33.1829 60.0006 34.0828 60 35.0006V85.0006C60.0006 85.9184 60.2537 86.8183 60.7317 87.6017C61.2098 88.3852 61.8942 89.022 62.7101 89.4423C63.5259 89.8626 64.4418 90.0503 65.3572 89.9847C66.2726 89.9192 67.1524 89.6029 67.9 89.0706L102.9 64.0706C103.548 63.6081 104.076 62.9974 104.441 62.2895C104.806 61.5816 104.996 60.7968 104.996 60.0006C104.996 59.2043 104.806 58.4196 104.441 57.7116C104.076 57.0037 103.548 56.3931 102.9 55.9306L67.9 30.9306Z" fill="#2D2D2D"/>
<path d="M0 20C0 14.6957 2.10714 9.60859 5.85786 5.85786C9.60859 2.10714 14.6957 0 20 0H140C145.304 0 150.391 2.10714 154.142 5.85786C157.893 9.60859 160 14.6957 160 20V100C160 105.304 157.893 110.391 154.142 114.142C150.391 117.893 145.304 120 140 120H20C14.6957 120 9.60859 117.893 5.85786 114.142C2.10714 110.391 0 105.304 0 100V20ZM150 20C150 17.3478 148.946 14.8043 147.071 12.9289C145.196 11.0536 142.652 10 140 10H20C17.3478 10 14.8043 11.0536 12.9289 12.9289C11.0536 14.8043 10 17.3478 10 20V100C10 102.652 11.0536 105.196 12.9289 107.071C14.8043 108.946 17.3478 110 20 110H140C142.652 110 145.196 108.946 147.071 107.071C148.946 105.196 150 102.652 150 100V20Z" fill="#2D2D2D"/>
</svg>
